<svg width="176" height="59" viewBox="0 0 176 59" fill="none" xmlns="http://www.w3.org/2000/svg">
<g clip-path="url(#clip0)">
<path d="M161.984 6.96797e-05H14.0235C13.4841 6.96797e-05 12.9513 6.96798e-05 12.4133 0.00301968C11.9631 0.00596968 11.5164 0.0145394 11.0618 0.0217522C10.0742 0.0334073 9.08887 0.120542 8.11446 0.282399C7.14143 0.44778 6.19887 0.75957 5.31868 1.20722C4.43956 1.65867 3.63629 2.24527 2.93799 2.94575C2.23604 3.64426 1.6509 4.45164 1.20509 5.33686C0.758042 6.22031 0.44806 7.167 0.285847 8.14425C0.122091 9.12027 0.0339727 10.1075 0.0222824 11.0972C0.0086335 11.5494 0.00719213 12.0032 0 12.4555V46.549C0.00719213 47.007 0.0086335 47.4507 0.0222824 47.9088C0.0339763 48.8984 0.122095 49.8856 0.285847 50.8616C0.447612 51.8394 0.757613 52.7867 1.20509 53.6705C1.6507 54.5528 2.23592 55.3569 2.93799 56.0515C3.63364 56.7551 4.43743 57.3421 5.31868 57.7901C6.19887 58.239 7.14132 58.5526 8.11446 58.7206C9.08903 58.8811 10.0742 58.9683 11.0618 58.9813C11.5164 58.9914 11.9631 58.9971 12.4133 58.9971C12.9512 59.0001 13.4841 59.0001 14.0235 59.0001H161.984C162.513 59.0001 163.05 59.0001 163.579 58.9971C164.027 58.9971 164.487 58.9914 164.935 58.9813C165.92 58.969 166.904 58.8818 167.876 58.7206C168.853 58.5514 169.798 58.2379 170.683 57.7901C171.563 57.3419 172.366 56.7549 173.061 56.0515C173.762 55.3542 174.348 54.5507 174.799 53.6705C175.243 52.786 175.55 51.8389 175.71 50.8616C175.874 49.8855 175.965 48.8985 175.983 47.9088C175.989 47.4507 175.989 47.007 175.989 46.549C176 46.0131 176 45.4802 176 44.9356V14.0659C176 13.5257 176 12.9899 175.989 12.4555C175.989 12.0032 175.989 11.5494 175.983 11.0971C175.965 10.1074 175.874 9.12034 175.71 8.14419C175.55 7.16751 175.243 6.22089 174.799 5.3368C173.891 3.56248 172.452 2.11821 170.683 1.20709C169.798 0.760532 168.852 0.448824 167.876 0.282267C166.904 0.119696 165.92 0.0325311 164.935 0.0215457C164.487 0.0143477 164.027 0.00570418 163.579 0.00282793C163.05 -0.00012207 162.513 -0.00012207 161.984 -0.00012207V6.96797e-05Z" fill="#A6A6A6"/>
<path d="M12.4207 57.7094C11.9726 57.7094 11.5353 57.7036 11.0907 57.6936C10.1696 57.6815 9.25077 57.6011 8.34158 57.453C7.4938 57.3066 6.67254 57.0342 5.90487 56.6449C5.14424 56.2587 4.45049 55.7524 3.85018 55.1454C3.24119 54.5455 2.73418 53.8497 2.34923 53.0855C1.96005 52.3165 1.69071 51.4921 1.5506 50.6412C1.39929 49.7268 1.31743 48.8023 1.30571 47.8755C1.29639 47.5645 1.28418 46.5287 1.28418 46.5287V12.4554C1.28418 12.4554 1.29718 11.4356 1.30579 11.1359C1.317 10.2107 1.39839 9.28756 1.54924 8.37465C1.68961 7.52139 1.95916 6.69465 2.34856 5.92305C2.73209 5.15946 3.23628 4.46314 3.84161 3.86107C4.44625 3.25329 5.14223 2.74438 5.90415 2.35293C6.67005 1.96483 7.48976 1.69437 8.33582 1.55062C9.248 1.401 10.1701 1.32011 11.0943 1.30863L12.4214 1.29062H163.572L164.915 1.30935C165.831 1.32027 166.744 1.40043 167.648 1.54917C168.503 1.69473 169.331 1.96708 170.106 2.35725C171.632 3.14615 172.874 4.39426 173.658 5.92665C174.041 6.69292 174.306 7.51292 174.445 8.3588C174.597 9.27921 174.683 10.2096 174.7 11.1424C174.705 11.5602 174.705 12.0089 174.705 12.4554C174.716 13.0085 174.716 13.535 174.716 14.0658V44.9356C174.716 45.4714 174.716 45.9943 174.705 46.5215C174.705 47.0012 174.705 47.4406 174.699 47.8928C174.682 48.809 174.598 49.7228 174.447 50.6267C174.31 51.4838 174.042 52.3146 173.653 53.09C173.266 53.8458 172.761 54.5356 172.16 55.1339C171.559 55.7442 170.864 56.2535 170.101 56.6421C169.329 57.0344 168.502 57.3078 167.648 57.453C166.739 57.6019 165.82 57.6823 164.899 57.6936C164.468 57.7036 164.017 57.7094 163.579 57.7094L161.985 57.7123L12.4207 57.7094Z" fill="black"/>
<path d="M36.4297 29.9435C36.4455 28.7124 36.7716 27.5053 37.3776 26.4345C37.9836 25.3637 38.8498 24.464 39.8957 23.8192C39.2313 22.8676 38.3547 22.0845 37.3357 21.532C36.3167 20.9795 35.1833 20.673 34.0255 20.6366C31.5557 20.3767 29.1614 22.1188 27.9028 22.1188C26.6199 22.1188 24.6821 20.6624 22.5955 20.7055C21.2458 20.7492 19.9304 21.1428 18.7775 21.848C17.6246 22.5531 16.6734 23.5457 16.0168 24.7291C13.1723 29.668 15.294 36.9266 18.0188 40.9188C19.3821 42.8737 20.9753 45.0574 23.0601 44.9799C25.1002 44.8951 25.8621 43.6753 28.3246 43.6753C30.7643 43.6753 31.4792 44.9799 33.6062 44.9307C35.7953 44.8951 37.1745 42.9671 38.49 40.9937C39.4695 39.6008 40.2232 38.0613 40.7232 36.4323C39.4514 35.8928 38.3661 34.9899 37.6026 33.836C36.8391 32.6821 36.4312 31.3283 36.4297 29.9435Z" fill="white"/>
<path d="M32.4117 18.0111C33.6053 16.5741 34.1933 14.7272 34.0509 12.8624C32.2274 13.0545 30.543 13.9285 29.3333 15.3104C28.7418 15.9854 28.2888 16.7708 28.0002 17.6215C27.7115 18.4722 27.5929 19.3717 27.6511 20.2684C28.5632 20.2778 29.4655 20.0796 30.2901 19.6886C31.1148 19.2976 31.8402 18.724 32.4117 18.0111Z" fill="white"/>
<path d="M62.2172 40.031H55.2554L53.5835 44.9818H50.6348L57.2289 26.6652H60.2925L66.8866 44.9818H63.8876L62.2172 40.031ZM55.9764 37.7465H61.4948L58.7744 29.7117H58.6983L55.9764 37.7465Z" fill="white"/>
<path d="M81.1273 38.3054C81.1273 42.4553 78.9125 45.1215 75.5703 45.1215C74.7236 45.1659 73.8816 44.9703 73.1406 44.5571C72.3996 44.1439 71.7897 43.5298 71.3805 42.7851H71.3173V49.3996H68.584V31.6275H71.2297V33.8487H71.28C71.7079 33.1075 72.3282 32.4966 73.0748 32.0809C73.8214 31.6652 74.6664 31.4602 75.52 31.4878C78.8996 31.4878 81.1273 34.167 81.1273 38.3054ZM78.3179 38.3054C78.3179 35.6017 76.9247 33.8242 74.7989 33.8242C72.7105 33.8242 71.3058 35.6391 71.3058 38.3054C71.3058 40.9961 72.7105 42.7981 74.7989 42.7981C76.9247 42.7981 78.3179 41.0336 78.3179 38.3054Z" fill="white"/>
<path d="M95.7836 38.3054C95.7836 42.4553 93.5688 45.1215 90.2265 45.1215C89.3798 45.1659 88.5378 44.9703 87.7968 44.5571C87.0559 44.1439 86.4459 43.5298 86.0368 42.7851H85.9735V49.3995H83.2402V31.6275H85.8859V33.8487H85.9362C86.3641 33.1075 86.9844 32.4966 87.731 32.0809C88.4776 31.6652 89.3227 31.4602 90.1762 31.4878C93.5559 31.4878 95.7836 34.167 95.7836 38.3054ZM92.9742 38.3054C92.9742 35.6017 91.5809 33.8242 89.4552 33.8242C87.3668 33.8242 85.9621 35.6391 85.9621 38.3054C85.9621 40.9961 87.3668 42.7981 89.4552 42.7981C91.5809 42.7981 92.9742 41.0336 92.9742 38.3054H92.9742Z" fill="white"/>
<path d="M105.47 39.8783C105.672 41.6947 107.432 42.8873 109.836 42.8873C112.14 42.8873 113.798 41.6946 113.798 40.0569C113.798 38.6351 112.798 37.7839 110.431 37.2005L108.064 36.6286C104.71 35.8162 103.153 34.2433 103.153 31.6908C103.153 28.5305 105.899 26.3598 109.799 26.3598C113.658 26.3598 116.304 28.5305 116.393 31.6908H113.634C113.469 29.8629 111.962 28.7596 109.76 28.7596C107.558 28.7596 106.052 29.8759 106.052 31.5007C106.052 32.7957 107.014 33.5576 109.368 34.141L111.38 34.6365C115.128 35.5252 116.685 37.0348 116.685 39.714C116.685 43.1408 113.963 45.287 109.634 45.287C105.583 45.287 102.849 43.1912 102.672 39.8782L105.47 39.8783Z" fill="white"/>
<path d="M122.584 28.4672V31.6275H125.116V33.7982H122.584V41.1603C122.584 42.304 123.091 42.8369 124.204 42.8369C124.505 42.8317 124.805 42.8105 125.103 42.7735V44.9313C124.603 45.0251 124.094 45.0675 123.585 45.058C120.889 45.058 119.838 44.0425 119.838 41.4526V33.7982H117.901V31.6275H119.837V28.4672H122.584Z" fill="white"/>
<path d="M126.583 38.3053C126.583 34.1036 129.051 31.4633 132.898 31.4633C136.759 31.4633 139.215 34.1036 139.215 38.3053C139.215 42.5186 136.772 45.1474 132.898 45.1474C129.026 45.1474 126.583 42.5186 126.583 38.3053ZM136.43 38.3053C136.43 35.423 135.113 33.7219 132.898 33.7219C130.684 33.7219 129.368 35.436 129.368 38.3053C129.368 41.1992 130.684 42.8874 132.898 42.8874C135.113 42.8874 136.43 41.1992 136.43 38.3053H136.43Z" fill="white"/>
<path d="M141.468 31.6275H144.075V33.9005H144.138C144.314 33.1906 144.729 32.5632 145.312 32.1238C145.896 31.6845 146.612 31.4598 147.341 31.4878C147.656 31.4867 147.97 31.521 148.277 31.59V34.154C147.88 34.0321 147.465 33.9762 147.049 33.9884C146.652 33.9722 146.256 34.0424 145.889 34.1942C145.521 34.3459 145.191 34.5756 144.92 34.8675C144.65 35.1594 144.445 35.5066 144.321 35.8852C144.197 36.2638 144.156 36.6648 144.201 37.0608V44.9817H141.468L141.468 31.6275Z" fill="white"/>
<path d="M160.88 41.0594C160.512 43.4837 158.158 45.1474 155.146 45.1474C151.273 45.1474 148.868 42.5445 148.868 38.3687C148.868 34.18 151.285 31.4633 155.031 31.4633C158.716 31.4633 161.032 34.0013 161.032 38.0504V38.9895H151.627V39.1552C151.584 39.6467 151.645 40.1418 151.807 40.6076C151.969 41.0735 152.228 41.4995 152.567 41.8572C152.906 42.215 153.317 42.4963 153.772 42.6826C154.228 42.8689 154.718 42.9559 155.209 42.9378C155.855 42.9984 156.504 42.8484 157.058 42.51C157.612 42.1716 158.042 41.6628 158.285 41.0594L160.88 41.0594ZM151.64 37.0738H158.298C158.322 36.6319 158.255 36.1896 158.101 35.7749C157.947 35.3601 157.71 34.9817 157.403 34.6634C157.096 34.3452 156.727 34.0939 156.319 33.9255C155.911 33.757 155.473 33.6749 155.031 33.6844C154.586 33.6818 154.145 33.7675 153.733 33.9368C153.321 34.106 152.947 34.3554 152.632 34.6705C152.316 34.9856 152.066 35.3602 151.896 35.7727C151.726 36.1852 151.639 36.6274 151.64 37.0738V37.0738Z" fill="white"/>
<path d="M52.4648 21.6792V12.8782H55.9924C57.6413 12.8782 58.6324 13.7194 58.6324 15.0734C58.6328 15.5182 58.4798 15.9495 58.1995 16.2942C57.9191 16.6388 57.5286 16.8757 57.0941 16.9647V17.0684C57.6332 17.094 58.1413 17.3293 58.5103 17.7244C58.8793 18.1195 59.0802 18.6432 59.0704 19.1844C59.0704 20.7336 57.9458 21.6793 56.0714 21.6793L52.4648 21.6792ZM53.8279 16.6046H55.4452C56.6503 16.6046 57.2765 16.1595 57.2765 15.324C57.2765 14.5123 56.6862 14.037 55.6764 14.037H53.8279V16.6046ZM55.7985 20.5204C57.0266 20.5204 57.6772 20.0198 57.6772 19.0871C57.6772 18.166 57.0021 17.6842 55.7195 17.6842H53.8279V20.5204H55.7985Z" fill="white"/>
<path d="M60.4707 19.8009C60.4707 18.6053 61.3584 17.9161 62.934 17.8181L64.7279 17.7144V17.1411C64.7279 16.4396 64.2654 16.0435 63.3721 16.0435C62.6424 16.0435 62.1368 16.3122 61.9918 16.7818H60.7264C60.8599 15.6409 61.93 14.9092 63.4324 14.9092C65.0928 14.9092 66.0292 15.7381 66.0292 17.1411V21.6792H64.771V20.7458H64.6676C64.4577 21.0806 64.163 21.3536 63.8135 21.5368C63.464 21.72 63.0723 21.8069 62.6783 21.7886C62.4003 21.8176 62.1193 21.7879 61.8534 21.7013C61.5876 21.6147 61.3428 21.4732 61.1348 21.286C60.9268 21.0987 60.7602 20.8698 60.6458 20.614C60.5315 20.3582 60.4718 20.0812 60.4707 19.8009ZM64.7279 19.2333V18.6781L63.1106 18.7818C62.1986 18.843 61.7849 19.1541 61.7849 19.7397C61.7849 20.3374 62.302 20.6853 63.013 20.6853C63.2214 20.7064 63.4318 20.6853 63.6318 20.6233C63.8319 20.5612 64.0174 20.4594 64.1774 20.3239C64.3374 20.1884 64.4686 20.0221 64.5632 19.8347C64.6578 19.6474 64.7138 19.4429 64.7279 19.2333Z" fill="white"/>
<path d="M67.9048 13.0733C67.8947 12.9036 67.9357 12.7347 68.0225 12.5885C68.1092 12.4424 68.2377 12.3257 68.3913 12.2537C68.5449 12.1816 68.7166 12.1575 68.884 12.1844C69.0515 12.2113 69.207 12.288 69.3305 12.4046C69.454 12.5211 69.5397 12.6722 69.5766 12.8382C69.6135 13.0042 69.5998 13.1775 69.5373 13.3356C69.4749 13.4937 69.3665 13.6294 69.2263 13.725C69.086 13.8207 68.9204 13.8719 68.7508 13.8721C68.6424 13.8776 68.534 13.8611 68.4322 13.8236C68.3303 13.786 68.237 13.7282 68.158 13.6536C68.079 13.579 68.0158 13.4891 67.9723 13.3894C67.9288 13.2897 67.9058 13.1822 67.9048 13.0733ZM68.0987 15.0374H69.4015V21.6792H68.0987L68.0987 15.0374Z" fill="white"/>
<path d="M73.8877 19.3248L72.4399 21.6792H71.005L73.2011 18.3734L70.9863 15.0374H72.5131L73.9365 17.3795H74.0399L75.4504 15.0374H76.904L74.7208 18.3187L76.9284 21.6792H75.4274L73.9853 19.3248H73.8877Z" fill="white"/>
<path d="M78.0811 19.8009C78.0811 18.6053 78.9687 17.9161 80.5443 17.8181L82.3383 17.7144V17.1411C82.3383 16.4396 81.8758 16.0435 80.9824 16.0435C80.2528 16.0435 79.7472 16.3122 79.6021 16.7818H78.3367C78.4703 15.6409 79.5404 14.9092 81.0427 14.9092C82.7031 14.9092 83.6396 15.7381 83.6396 17.1411V21.6792H82.3814V20.7458H82.278C82.0681 21.0806 81.7733 21.3536 81.4238 21.5368C81.0743 21.72 80.6826 21.8069 80.2887 21.7886C80.0106 21.8176 79.7296 21.7879 79.4638 21.7013C79.1979 21.6147 78.9531 21.4732 78.7451 21.286C78.5371 21.0987 78.3706 20.8698 78.2562 20.614C78.1418 20.3582 78.0822 20.0812 78.0811 19.8009ZM82.3383 19.2333V18.6781L80.721 18.7818C79.8089 18.843 79.3953 19.1541 79.3953 19.7397C79.3953 20.3374 79.9123 20.6853 80.6234 20.6853C80.8317 20.7064 81.0422 20.6853 81.2422 20.6233C81.4422 20.5612 81.6278 20.4594 81.7878 20.3239C81.9478 20.1884 82.0789 20.0221 82.1735 19.8347C82.2681 19.6474 82.3241 19.4429 82.3383 19.2333Z" fill="white"/>
<path d="M85.6865 15.0374H86.9447V16.0558H87.0424C87.1833 15.7022 87.4322 15.4026 87.7535 15.1998C88.0748 14.997 88.4519 14.9016 88.8306 14.9272C89.0264 14.9245 89.2219 14.9429 89.4138 14.9819V16.2755C89.1739 16.2241 88.9294 16.1975 88.6841 16.1963C88.4686 16.1768 88.2513 16.2029 88.0464 16.2727C87.8414 16.3425 87.6533 16.4545 87.4941 16.6015C87.3349 16.7486 87.2081 16.9274 87.1219 17.1265C87.0357 17.3256 86.992 17.5406 86.9936 17.7577V21.6792H85.6865L85.6865 15.0374Z" fill="white"/>
<path d="M94.4512 15.0373H95.7102V16.0925H95.8078C95.9735 15.7135 96.253 15.3958 96.6073 15.1837C96.9615 14.9716 97.373 14.8756 97.7842 14.9091C98.1064 14.8848 98.43 14.9336 98.7309 15.0517C99.0319 15.1699 99.3024 15.3544 99.5226 15.5916C99.7427 15.8289 99.9068 16.1128 100.003 16.4222C100.099 16.7317 100.124 17.0589 100.077 17.3795V21.6791H98.7695V17.7086C98.7695 16.6413 98.307 16.1105 97.3404 16.1105C97.1216 16.1003 96.9032 16.1376 96.7001 16.2199C96.4971 16.3023 96.3142 16.4277 96.164 16.5876C96.0138 16.7474 95.8998 16.938 95.8299 17.1462C95.76 17.3543 95.7358 17.5752 95.759 17.7936V21.6792H94.4512L94.4512 15.0373Z" fill="white"/>
<path d="M101.722 19.8009C101.722 18.6053 102.609 17.9161 104.185 17.8181L105.979 17.7144V17.1411C105.979 16.4396 105.516 16.0435 104.623 16.0435C103.893 16.0435 103.388 16.3122 103.243 16.7818H101.977C102.111 15.6409 103.181 14.9092 104.683 14.9092C106.344 14.9092 107.28 15.7381 107.28 17.1411V21.6792H106.022V20.7458H105.919C105.709 21.0806 105.414 21.3536 105.064 21.5368C104.715 21.72 104.323 21.8069 103.929 21.7886C103.651 21.8176 103.37 21.7879 103.104 21.7013C102.839 21.6147 102.594 21.4732 102.386 21.286C102.178 21.0987 102.011 20.8698 101.897 20.614C101.782 20.3582 101.723 20.0812 101.722 19.8009ZM105.979 19.2333V18.6781L104.362 18.7818C103.45 18.843 103.036 19.1541 103.036 19.7397C103.036 20.3374 103.553 20.6853 104.264 20.6853C104.472 20.7064 104.683 20.6854 104.883 20.6233C105.083 20.5612 105.268 20.4594 105.428 20.3239C105.588 20.1885 105.72 20.0221 105.814 19.8347C105.909 19.6474 105.965 19.4429 105.979 19.2333H105.979Z" fill="white"/>
</g>
<defs>
<clipPath id="clip0">
<rect width="176" height="59" fill="white"/>
</clipPath>
</defs>
</svg>
