<svg width="518" height="518" viewBox="0 0 518 518" fill="none" xmlns="http://www.w3.org/2000/svg">
<g filter="url(#filter0_d)">
<rect x="5" width="488" height="488" rx="16"/>
</g>
<mask id="mask0" mask-type="alpha" maskUnits="userSpaceOnUse" x="4" y="0" width="488" height="488">
<rect x="4" width="488" height="488" rx="16"/>
</mask>
<g mask="url(#mask0)">
<rect x="-20" y="-12" width="527.638" height="533" rx="4" fill="url(#paint0_linear)" fill-opacity="0.9"/>
</g>
<path d="M112.233 206.727L110.807 218.709H122.313V232.972H109L107.383 246H92.1685L93.7851 232.972H84.371L82.7545 246H67.5398L69.1564 232.972H57.6503V218.709H70.9631L72.3895 206.727H60.8834V192.463H74.1962L75.8128 179.436H91.0274L89.4109 192.463H98.825L100.442 179.436H115.656L114.04 192.463H125.546V206.727H112.233ZM97.0182 206.727H87.6041L86.1778 218.709H95.5919L97.0182 206.727ZM148.862 206.703V215.737H170.844V229.137H148.862V246H131.095V193.303H173.93V206.703H148.862ZM213.54 236.816H193.515L189.977 246H171.91L194.946 193.303H212.411L235.447 246H217.078L213.54 236.816ZM208.647 224.018L203.528 210.769L198.409 224.018H208.647ZM291.578 193.303L269.295 246H251.83L229.547 193.303H248.668L261.24 224.093L274.113 193.303H291.578ZM337.16 232.6V246H293.346V193.303H336.181V206.703H310.811V212.876H333.095V225.674H310.811V232.6H337.16ZM343.999 193.303H361.765V232.224H385.554V246H343.999V193.303ZM427.106 236.816H407.081L403.543 246H385.475L408.511 193.303H425.977L449.013 246H430.644L427.106 236.816ZM422.213 224.018L417.093 210.769L411.974 224.018H422.213Z" fill="#C29BCA"/>
<path d="M97.7286 278.885L98.1774 277.763L99.6361 276.136C100.384 274.901 101.001 274.172 101.488 273.948C101.562 273.648 101.675 273.368 101.824 273.106C101.974 272.844 102.086 272.433 102.161 271.872L102.666 270.974C102.815 270.824 102.89 270.712 102.89 270.637C102.89 270.563 102.741 270.338 102.441 269.964L102.161 268.786C102.161 268.487 101.17 267.496 99.1873 265.812H98.7384L94.6989 263.849L94.4745 263.288L94.0256 263.176L93.4646 263.4H93.3524L91.4448 262.839C89.9113 262.427 88.9014 262.11 88.4152 261.885C88.3404 261.96 88.2282 261.997 88.0785 261.997L85.8344 261.492C85.1985 261.343 84.8058 261.193 84.6562 261.044C84.544 260.857 84.226 260.688 83.7024 260.539C83.2161 260.352 82.8982 260.183 82.7486 260.034C82.599 259.884 82.2998 259.809 81.8509 259.809L80.4483 260.146C80.4483 260.034 79.9247 259.847 78.8774 259.585C78.7278 259.211 78.6156 259.024 78.5407 259.024L76.9137 259.248C75.829 258.725 75.268 258.463 75.2306 258.463C75.0435 258.463 74.389 258.369 73.2669 258.182C72.1448 257.958 71.4154 257.733 71.0788 257.509C70.7422 257.285 70.2372 257.06 69.564 256.836L69.2274 256.499C69.1526 256.424 68.9468 256.349 68.6102 256.275H67.6003C67.3759 256.275 67.058 256.088 66.6465 255.714C66.2725 255.34 65.7676 254.966 65.1317 254.592C64.5333 254.217 63.9909 253.638 63.5047 252.852C63.0558 252.029 62.8127 251.207 62.7753 250.384C62.7005 250.309 62.6631 250.234 62.6631 250.159L62.9997 248.364C63.3364 246.082 64.4024 243.969 66.1977 242.024C66.4969 241.014 67.1141 240.285 68.0492 239.836L68.2736 239.05C69.3583 238.115 70.125 237.367 70.5739 236.806C71.0601 236.245 71.6025 235.796 72.2009 235.46C72.7994 235.086 73.2669 234.749 73.6035 234.45L74.6134 234.001C74.576 233.664 75.3989 232.879 77.082 231.645C78.8026 230.373 80.1304 229.55 81.0655 229.176C82.0379 228.765 82.6738 228.465 82.973 228.278C83.3096 228.091 84.2447 227.811 85.7783 227.437C86.1523 226.427 86.7507 225.922 87.5736 225.922H88.4152L89.5373 224.8L91.0521 224.912C91.1269 224.837 91.3326 224.613 91.6693 224.239C92.0059 223.827 92.5669 223.622 93.3524 223.622L100.141 221.546H100.59L101.039 221.658C101.338 221.658 101.712 221.396 102.161 220.873C102.647 220.349 103.264 220.087 104.012 220.087C104.162 220.087 104.442 220.237 104.854 220.536C104.854 220.611 104.891 220.648 104.966 220.648L106.425 220.199L108.164 220.312L110.352 219.75C111.736 219.75 112.952 220.087 113.999 220.76L114.111 220.536V220.199C114.111 219.563 114.466 219.246 115.177 219.246C115.476 219.246 115.663 219.32 115.738 219.47L116.411 219.863H116.804C116.879 219.863 117.365 220.087 118.263 220.536C118.824 220.162 119.179 219.975 119.329 219.975C120.04 219.975 120.601 220.274 121.012 220.873L121.966 220.76C122.265 220.461 122.452 220.312 122.527 220.312C122.751 220.312 123.05 220.611 123.425 221.209L123.761 221.321H125.164C125.239 221.321 125.388 221.434 125.613 221.658L126.23 222.163C126.529 222.462 126.735 222.705 126.847 222.892C126.959 223.079 127.09 223.248 127.24 223.397C128.212 222.986 128.736 222.78 128.811 222.78C129.185 222.78 129.465 223.098 129.652 223.734C129.652 224.258 129.97 224.781 130.606 225.305C131.279 225.791 131.616 226.315 131.616 226.876C132.439 227.25 132.85 227.848 132.85 228.671L133.916 231.42L133.692 232.374C133.991 232.972 134.141 233.309 134.141 233.384L133.916 235.46L134.141 237.648C134.141 238.807 133.598 239.799 132.513 240.621C132.289 240.621 131.915 240.79 131.391 241.126C130.905 241.426 130.625 241.575 130.55 241.575C129.577 241.575 128.923 241.351 128.586 240.902C128.287 240.416 127.988 240.06 127.688 239.836C127.389 239.612 127.24 239.312 127.24 238.938C127.24 238.078 127.819 237.236 128.979 236.414C129.503 236.414 129.877 236.245 130.101 235.909C130.101 235.123 129.933 234.581 129.596 234.282C129.259 233.982 128.885 233.571 128.474 233.047C128.1 232.524 127.688 232.112 127.24 231.813C126.791 231.476 126.417 231.065 126.118 230.579C125.856 230.092 125.613 229.849 125.388 229.849L124.603 229.962L122.976 229.625C121.255 229.4 119.684 229.008 118.263 228.447H117.141L114.111 227.998C113.587 228.222 112.839 228.334 111.867 228.334L108.164 228.896L106.649 228.783C106.537 228.783 105.508 229.101 103.563 229.737L103.002 229.849H101.488C101.413 229.849 100.927 230.036 100.029 230.41C99.1686 230.784 98.4392 231.046 97.8408 231.196L97.3358 231.42C97.261 231.495 97.1488 231.532 96.9992 231.532L96.1015 231.42L91.1643 233.833L90.3788 233.384C89.743 233.085 89.3877 232.935 89.3129 232.935C88.7892 232.935 88.5274 233.197 88.5274 233.721L88.4152 234.787C87.9289 235.086 87.611 235.31 87.4614 235.46C87.3118 235.609 87.1248 235.722 86.9003 235.796H86.2271C85.7783 235.796 85.3481 236.002 84.9367 236.414C84.5627 236.788 84.226 236.993 83.9268 237.031C83.6276 237.068 83.1974 237.236 82.6364 237.536C82.5616 237.685 82.2624 237.835 81.7387 237.985C81.2151 238.134 80.8036 238.489 80.5044 239.05C80.2426 239.574 79.9247 239.836 79.5506 239.836L78.4285 239.612L77.8114 240.734C77.0259 240.921 76.5771 241.033 76.4649 241.07C75.9786 241.706 75.4924 242.192 75.0061 242.529C74.5199 242.866 74.0337 243.24 73.5474 243.651C73.0986 244.025 72.762 244.418 72.5375 244.829C72.3505 245.241 72.0513 245.577 71.6399 245.839C71.2284 246.064 70.8731 246.55 70.5739 247.298L70.0128 247.859C69.0777 248.644 68.6102 249.486 68.6102 250.384C68.6102 251.02 69.059 251.487 69.9567 251.786C70.8544 252.085 71.4154 252.329 71.6399 252.516C71.8643 252.703 72.2009 252.796 72.6497 252.796C73.0986 252.796 73.5287 252.89 73.9402 253.077C74.3516 253.264 75.0435 253.563 76.016 253.974C76.203 254.573 76.3901 254.872 76.5771 254.872C76.6519 254.872 76.8015 254.722 77.0259 254.423C77.2503 254.124 77.587 253.974 78.0358 253.974C78.522 253.974 78.9896 254.274 79.4384 254.872L79.8873 254.535H80.1117L80.841 254.76H80.9532L81.6265 254.423C81.7013 254.348 81.8135 254.311 81.9631 254.311C82.0753 254.311 82.6551 254.498 83.7024 254.872H83.8146C83.8894 254.872 84.1886 254.797 84.7123 254.648C85.2733 254.797 85.5912 254.909 85.666 254.984L86.4515 255.433C86.4515 255.545 86.5263 255.601 86.6759 255.601C86.8255 255.601 87.05 255.527 87.3492 255.377C87.6484 255.19 87.9289 255.096 88.1908 255.096C88.49 255.096 88.8266 255.302 89.2006 255.714C89.7991 255.452 90.1357 255.321 90.2105 255.321C90.5472 255.321 91.1269 255.601 91.9498 256.162L93.0158 256.387H94.2501L96.1015 256.723C96.6252 257.285 97.1675 257.715 97.7286 258.014C97.8034 257.602 98.0652 257.397 98.514 257.397C99.1125 257.397 100.029 257.64 101.263 258.126L101.712 258.238L102.161 258.575C102.797 258.425 103.189 258.351 103.339 258.351C104.087 258.351 104.461 258.612 104.461 259.136C104.461 259.585 104.349 260.165 104.125 260.875C104.199 260.875 104.312 260.95 104.461 261.1C104.648 260.875 104.854 260.726 105.078 260.651L105.976 260.146C106.126 259.996 106.238 259.921 106.313 259.921C107.173 259.921 108.388 260.52 109.959 261.717C111.53 262.914 112.428 264.279 112.652 265.812C112.652 266.261 112.802 266.785 113.101 267.383L112.877 268.113L112.989 269.01C112.989 269.085 112.914 269.347 112.765 269.796L112.652 270.637C112.578 270.787 112.465 270.918 112.316 271.03C112.166 271.142 112.054 271.273 111.979 271.423L112.316 272.377V272.601C112.316 272.751 112.166 272.956 111.867 273.218C111.605 273.48 111.437 273.723 111.362 273.948C111.287 274.172 111.156 274.415 110.969 274.677C110.782 274.901 110.651 275.182 110.577 275.519C110.502 275.855 110.128 276.248 109.454 276.697C108.819 277.108 108.501 277.426 108.501 277.651C108.501 277.875 108.575 277.987 108.725 277.987C109.174 277.987 109.641 277.781 110.128 277.37C110.651 276.921 111.044 276.659 111.306 276.585C111.568 276.51 112.017 276.285 112.652 275.911L117.926 273.443C121.854 271.573 124.042 270.637 124.491 270.637C125.089 270.637 125.388 270.937 125.388 271.535C125.388 271.76 125.126 272.19 124.603 272.826C124.528 274.583 123.761 275.612 122.302 275.911C121.741 276.285 121.311 276.678 121.012 277.09H120.563C119.628 278.137 118.562 278.66 117.365 278.66H117.029C115.645 280.044 113.962 280.811 111.979 280.961C110.67 282.27 109.585 282.924 108.725 282.924L107.827 283.149C106.892 283.523 106.238 283.71 105.864 283.71C105.789 283.71 105.639 283.859 105.415 284.159L104.573 284.776C103.863 284.925 103.096 285.337 102.273 286.01C101.45 286.683 100.814 287.076 100.365 287.188C99.954 287.263 99.5052 287.413 99.019 287.637C98.5327 287.862 96.5691 289.133 93.128 291.452L92.3986 291.677C90.9399 292.35 90.0235 292.911 89.6495 293.36C89.2754 293.771 88.8266 294.127 88.303 294.426H88.0785C87.2183 294.426 86.2084 294.987 85.0489 296.109C84.9741 296.296 84.1512 296.614 82.5803 297.063C81.0468 297.474 79.5693 298.129 78.148 299.026C77.2503 299.251 76.1469 299.55 74.8378 299.924C73.5287 300.298 72.5749 300.523 71.9765 300.597L68.0492 301.439C67.1889 301.589 66.1977 301.813 65.0756 302.112C64.4024 301.888 63.8226 301.776 63.3364 301.776L62.3265 301.888C62.1769 301.888 61.9337 301.757 61.5971 301.495C61.2979 301.233 60.8865 300.971 60.3628 300.71C59.8392 300.485 59.5773 299.849 59.5773 298.802C59.5773 297.867 60.6059 296.951 62.6631 296.053C64.7203 295.118 66.0668 294.463 66.7026 294.089C67.0019 293.678 67.5068 293.435 68.2175 293.36C68.9655 293.285 69.6014 293.061 70.125 292.687C70.6487 292.313 71.4528 291.976 72.5375 291.677L74.7817 290.499C74.8939 290.424 74.9874 290.386 75.0623 290.386H75.8477C76.1095 290.386 76.5023 290.181 77.0259 289.769C77.5496 289.358 78.0919 289.059 78.653 288.871H79.3262C79.401 288.871 79.5132 288.778 79.6628 288.591C79.8125 288.404 80.1491 288.161 80.6727 287.862L80.841 287.749H81.4021C81.8135 287.413 82.2998 287.132 82.8608 286.908C83.4219 286.683 83.9642 286.384 84.4878 286.01L88.864 284.327L89.8739 284.439C90.0983 284.439 90.3788 284.271 90.7155 283.934C91.0895 283.56 91.9311 283.186 93.2402 282.812C93.4272 282.513 93.8199 282.158 94.4184 281.746C95.0168 281.335 95.7275 280.736 96.5504 279.951L97.7286 278.885ZM78.148 292.911L77.3625 292.799C76.8389 293.098 76.3153 293.266 75.7916 293.304C75.3054 293.341 74.5199 293.697 73.4352 294.37C72.3879 295.006 71.1723 295.623 69.7884 296.221C68.4045 296.82 67.7125 297.212 67.7125 297.399C69.5453 297.175 71.4528 296.67 73.4352 295.885L77.4748 294.762C77.9984 294.613 78.3537 294.463 78.5407 294.314C78.7652 294.164 79.1766 293.958 79.775 293.697L80.6727 293.023C80.8597 292.948 81.2712 292.799 81.907 292.574C82.5429 292.35 82.8608 292.126 82.8608 291.901C82.8608 291.752 82.786 291.677 82.6364 291.677C81.2899 291.677 80.2239 291.882 79.4384 292.294C78.653 292.705 78.2228 292.911 78.148 292.911ZM126.398 270.076L127.576 269.123C128.474 269.048 128.96 268.58 129.035 267.72C129.11 266.86 129.727 266.112 130.886 265.476L131.56 264.522C132.121 263.961 133.654 263.232 136.16 262.334C136.796 261.96 137.226 261.623 137.451 261.324C137.526 261.249 137.6 261.212 137.675 261.212L138.573 261.436C139.059 261.436 139.676 261.305 140.424 261.044C141.21 260.782 141.958 260.651 142.668 260.651L145.025 260.539C145.174 260.539 145.474 260.651 145.923 260.875C146.409 261.1 146.989 261.212 147.662 261.212C148.485 261.212 149.233 261.586 149.906 262.334C150.617 263.082 150.972 263.774 150.972 264.41C150.972 265.569 150.374 266.748 149.177 267.944C147.98 269.141 147.026 269.815 146.315 269.964C145.679 270.6 145.193 271.011 144.857 271.199C144.52 271.348 144.165 271.61 143.791 271.984C143.454 272.321 143.173 272.489 142.949 272.489C142.799 272.489 142.687 272.452 142.612 272.377C142.538 272.264 142.425 272.208 142.276 272.208C141.677 272.208 141.023 272.938 140.312 274.396L139.302 274.284C138.666 274.696 138.255 275.145 138.068 275.631C137.881 276.117 137.488 276.36 136.89 276.36C135.506 277.744 134.571 278.436 134.084 278.436C134.01 278.436 133.748 278.361 133.299 278.212C133 278.586 132.85 278.978 132.85 279.39C132.85 279.839 132.551 280.1 131.952 280.175L131.223 280.849L130.662 280.736L129.54 281.915C128.979 281.915 128.399 282.102 127.801 282.476C127.726 282.924 127.614 283.504 127.464 284.215C127.314 284.888 127.24 285.262 127.24 285.337C127.24 286.422 128.231 286.964 130.213 286.964L132.906 286.571C133.617 286.571 134.271 286.384 134.87 286.01C135.506 285.636 136.179 285.449 136.89 285.449C137.114 285.449 137.451 285.374 137.9 285.225L138.461 285.449C138.722 284.888 139.209 284.383 139.919 283.934C140.63 283.485 141.191 283.261 141.602 283.261L142.164 282.924C142.313 282.476 142.538 282.176 142.837 282.027L143.286 281.634C143.585 281.335 143.865 281.185 144.127 281.185H144.913L145.137 281.073C145.586 280.1 146.203 279.539 146.989 279.39C147.811 279.203 148.316 278.922 148.503 278.548C148.728 278.174 149.102 277.95 149.625 277.875C150.149 277.8 150.579 277.557 150.916 277.146C151.29 276.697 151.739 276.285 152.262 275.911C152.786 275.537 153.141 275.257 153.328 275.07C153.553 274.883 153.74 274.789 153.889 274.789C154.114 274.789 154.226 274.958 154.226 275.294C154.226 275.631 154.301 275.799 154.45 275.799C154.6 275.799 154.675 275.724 154.675 275.575C154.675 275.425 154.637 275.238 154.563 275.014V274.621C154.563 274.06 154.862 273.686 155.46 273.499L157.985 271.872C158.06 271.086 158.266 270.637 158.602 270.525C158.976 270.376 159.257 270.226 159.444 270.076C159.631 269.889 159.836 269.796 160.061 269.796C160.547 269.796 160.79 270.076 160.79 270.637L160.51 272.096L160.79 273.611C160.79 273.835 160.603 274.153 160.229 274.565C159.893 274.939 159.631 275.537 159.444 276.36C159.257 277.146 159.014 277.576 158.714 277.651H158.378C157.705 278.361 157.162 278.791 156.751 278.941C156.377 279.053 156.077 279.278 155.853 279.614L153.946 281.802C153.571 282.176 153.254 282.513 152.992 282.812C152.73 283.111 152.524 283.261 152.375 283.261L151.926 282.812C151.926 282.737 151.851 282.7 151.701 282.7C151.327 282.7 151.084 282.924 150.972 283.373C150.897 283.822 150.71 284.215 150.411 284.551C149.289 285.075 148.559 285.561 148.223 286.01L147.886 286.122H146.876C146.39 286.122 146.053 286.496 145.866 287.244C145.679 287.955 145.137 288.367 144.239 288.479C143.379 288.591 142.762 288.815 142.388 289.152C142.313 289.227 142.145 289.302 141.883 289.376C141.621 289.451 141.098 289.75 140.312 290.274L135.599 291.957C135.225 292.144 134.982 292.238 134.87 292.238L133.299 292.462C133.075 292.462 132.85 292.313 132.626 292.013C132.401 291.714 132.252 291.565 132.177 291.565L131.167 291.901C130.419 292.126 129.708 292.238 129.035 292.238C128.661 292.238 128.25 292.107 127.801 291.845C127.352 291.583 126.997 291.396 126.735 291.284C125.65 291.284 124.883 290.442 124.434 288.759L123.761 288.871C123.612 288.871 123.107 287.544 122.246 284.888C122.022 284.589 121.667 284.383 121.18 284.271C120.694 284.121 120.451 283.747 120.451 283.149C120.451 281.466 120.806 280.344 121.517 279.783C122.265 279.184 122.676 278.735 122.751 278.436L123.537 275.519C123.686 275.406 123.873 275.032 124.098 274.396L125.388 272.04C125.538 271.778 125.874 271.124 126.398 270.076ZM138.236 266.71L137.563 267.047C137.413 267.122 136.964 267.458 136.216 268.057C135.506 268.618 134.795 269.085 134.084 269.459C133.411 269.796 132.701 270.712 131.952 272.208C131.242 273.705 130.886 274.565 130.886 274.789C130.886 275.014 130.999 275.126 131.223 275.126L133.131 274.284C133.841 273.948 134.496 273.518 135.094 272.994C135.73 272.47 136.628 271.834 137.787 271.086L138.236 270.637C138.311 270.488 138.648 270.226 139.246 269.852C139.882 269.441 140.349 269.048 140.649 268.674L141.21 268.449C141.846 267.439 142.481 266.822 143.117 266.598C143.791 266.373 144.127 266.149 144.127 265.925C144.127 265.476 143.772 265.251 143.061 265.251C142.762 265.251 142.313 265.438 141.715 265.812H140.424C140.275 265.812 139.863 266.037 139.19 266.486L138.236 266.71ZM178.856 267.439L180.427 266.71C180.951 266.373 181.456 265.887 181.942 265.251L183.905 263.849C185.028 263.101 185.757 262.727 186.094 262.727L186.991 263.063C187.066 263.063 187.29 262.839 187.664 262.39C188.076 261.904 188.543 261.661 189.067 261.661C189.74 261.661 190.657 262.166 191.816 263.176C192.976 264.185 193.555 265.083 193.555 265.869L193.331 267.776C193.331 268.075 193.481 268.917 193.78 270.301V270.75L193.555 272.096L193.78 273.499L193.163 276.248C193.163 276.959 193.406 277.314 193.892 277.314C194.528 276.715 195.07 276.36 195.519 276.248L196.305 275.462C196.604 275.163 196.828 275.014 196.978 275.014C197.127 275.014 197.314 274.845 197.539 274.509C197.801 274.135 198.119 273.873 198.493 273.723C198.867 273.574 199.129 273.312 199.278 272.938C201.373 270.656 202.981 269.347 204.103 269.01C204.253 269.01 204.496 268.823 204.832 268.449C205.207 268.075 205.506 267.851 205.73 267.776L206.964 266.822L207.469 267.047H207.582C207.656 267.047 207.956 266.86 208.479 266.486C209.003 266.112 209.377 265.925 209.601 265.925C211.023 265.925 212.182 266.411 213.08 267.383C214.015 268.318 214.483 269.048 214.483 269.571L214.202 270.862L214.595 272.601V273.723L214.314 274.901C214.314 275.126 214.464 275.444 214.763 275.855C215.1 276.267 215.268 276.547 215.268 276.697C214.819 277.183 214.595 277.501 214.595 277.651L214.707 278.66L214.426 281.746C214.426 282.008 214.67 282.438 215.156 283.037C215.38 282.887 215.698 282.756 216.11 282.644C216.521 282.532 216.839 282.419 217.063 282.307C217.288 282.158 217.4 282.083 217.4 282.083C217.4 282.045 217.381 282.027 217.344 282.027C217.419 282.027 217.643 282.102 218.017 282.251H218.242C218.541 282.251 218.709 281.971 218.746 281.41C218.784 280.811 219.158 280.325 219.869 279.951L221.215 280.063C221.29 279.988 221.439 279.689 221.664 279.165C221.926 278.604 222.711 277.8 224.02 276.753C225.367 275.668 226.395 275.126 227.106 275.126C227.705 275.126 228.004 275.388 228.004 275.911C228.004 276.061 227.929 276.454 227.779 277.09C228.079 277.613 228.228 278.062 228.228 278.436C228.228 279.147 227.611 279.913 226.377 280.736C225.18 281.559 224.263 282.588 223.628 283.822L223.403 284.046L222.281 283.934C222.206 283.934 222.019 284.234 221.72 284.832C221.458 285.393 221.14 285.711 220.766 285.786C220.392 285.861 220.13 285.973 219.981 286.122L218.803 286.852C218.578 287.001 217.83 287.768 216.558 289.152C215.324 290.499 214.277 291.172 213.417 291.172C213.042 291.172 212.369 290.985 211.397 290.611C210.424 290.199 209.77 289.788 209.433 289.376C209.096 288.965 208.61 288.497 207.974 287.974C207.376 287.45 207.077 286.459 207.077 285C207.077 284.925 207.17 284.795 207.357 284.608C207.582 284.421 207.694 284.271 207.694 284.159C206.834 283.037 206.403 282.232 206.403 281.746C206.403 281.522 206.441 281.279 206.516 281.017C206.59 280.755 206.628 280.512 206.628 280.287L206.516 278.324L206.74 277.314L206.628 276.697L206.964 273.835C206.964 273.387 206.703 273.162 206.179 273.162C206.029 273.162 205.824 273.312 205.562 273.611C205.3 273.91 204.963 274.153 204.552 274.34C204.178 274.49 203.766 275.014 203.318 275.911C202.644 276.285 202.177 276.659 201.915 277.033C201.691 277.37 201.504 277.538 201.354 277.538C201.279 277.538 201.13 277.501 200.905 277.426C200.456 277.725 200.232 278.062 200.232 278.436V278.66L200.344 279.109C200.344 279.446 200.064 279.764 199.503 280.063C198.941 280.362 198.25 281.129 197.427 282.363C197.053 282.363 196.791 282.401 196.641 282.476L195.968 283.822C195.594 284.046 195.239 284.439 194.902 285L194.229 285.337C193.967 285.823 193.705 286.235 193.443 286.571L193.107 287.188C191.498 289.096 190.376 290.05 189.74 290.05C189.104 290.05 188.338 289.208 187.44 287.525C186.542 285.842 186.094 284.533 186.094 283.598L186.318 281.522C186.318 281.447 186.168 281.148 185.869 280.624V280.4C185.869 280.325 186.019 279.895 186.318 279.109V277.426C186.318 277.351 186.281 277.239 186.206 277.09V276.809C186.206 276.734 186.355 276.435 186.655 275.911L186.318 274.284L186.542 273.387L186.43 271.423L186.655 269.684C186.655 269.571 186.542 269.384 186.318 269.123C186.131 268.823 186 268.674 185.925 268.674C185.663 268.674 184.878 269.104 183.569 269.964C182.297 270.824 181.437 271.498 180.988 271.984C180.539 272.47 179.941 273.05 179.193 273.723C178.407 274.097 177.865 275.051 177.566 276.585C177.566 276.659 177.491 276.697 177.341 276.697C177.341 276.622 177.229 276.547 177.005 276.472H176.78C176.593 276.472 176.013 277.277 175.041 278.885L174.816 279.109L173.75 278.885C172.853 278.885 172.404 279.839 172.404 281.746C172.404 282.083 172.161 282.307 171.675 282.419C171.226 282.532 170.87 282.85 170.609 283.373C170.347 283.897 169.991 284.439 169.543 285C168.682 285.374 168.196 285.655 168.084 285.842C168.084 285.879 167.672 286.44 166.85 287.525C166.027 288.61 165.578 289.246 165.503 289.433C165.428 289.62 165.166 289.844 164.718 290.106C164.306 290.33 164.1 290.536 164.1 290.723L164.269 291.677C164.269 292.275 163.689 292.574 162.53 292.574C160.285 292.574 159.163 290.237 159.163 285.561C159.163 285.038 159.388 284.458 159.836 283.822C160.323 283.149 160.79 282.345 161.239 281.41C161.95 280.699 162.791 279.67 163.764 278.324C164.736 276.977 165.466 276.061 165.952 275.575L166.681 274.396C166.681 273.948 166.775 273.611 166.962 273.387C167.149 273.162 167.242 272.882 167.242 272.545C167.242 271.947 167.093 271.647 166.793 271.647C166.083 271.647 165.522 271.834 165.11 272.208C164.699 272.545 164.231 272.788 163.708 272.938C163.221 273.087 162.904 273.349 162.754 273.723C162.23 273.948 161.669 274.434 161.071 275.182C160.51 275.893 160.136 276.341 159.949 276.528C159.762 276.715 159.575 276.977 159.388 277.314C159.238 277.613 159.032 277.781 158.771 277.819C158.509 277.856 158.266 277.987 158.041 278.212C157.817 278.436 157.461 278.548 156.975 278.548C156.639 278.548 156.321 278.212 156.021 277.538C155.76 276.828 155.629 276.398 155.629 276.248C155.629 273.518 157.443 271.161 161.071 269.179C161.557 268.917 161.931 268.655 162.193 268.393C162.492 268.131 162.791 267.926 163.091 267.776L163.315 267.383C163.614 266.935 164.736 266.299 166.681 265.476H167.467L171.226 264.522C172.834 264.148 173.638 265.962 173.638 269.964L173.526 270.974L173.75 271.423C174.386 270.824 175.022 270.301 175.658 269.852C176.331 269.366 176.818 268.936 177.117 268.562C177.416 268.188 177.996 267.814 178.856 267.439ZM249.267 307.947L249.828 306.713L250.165 305.31C250.165 305.161 250.352 304.936 250.726 304.637C251.063 304.338 251.231 304.076 251.231 303.851C252.129 300.373 253.045 297.998 253.98 296.726L255.327 293.36C255.476 292.612 255.832 292.013 256.393 291.565C256.916 291.116 257.178 290.723 257.178 290.386C257.178 290.162 256.804 289.844 256.056 289.433C255.271 288.984 254.878 288.572 254.878 288.198C254.878 287.824 256.112 287.095 258.581 286.01C258.581 284.963 259.142 283.859 260.264 282.7C260.526 282.476 260.657 282.214 260.657 281.915C260.657 281.017 260.844 280.287 261.218 279.726L261.667 278.436C261.816 277.987 262.115 277.501 262.564 276.977C263.05 276.416 263.294 275.874 263.294 275.35V274.901C262.807 274.864 262.115 275.5 261.218 276.809C260.283 276.809 259.516 277.501 258.917 278.885C258.618 279.67 257.926 280.175 256.842 280.4C256.355 281.297 255.551 281.915 254.429 282.251C253.644 281.765 253.251 281.353 253.251 281.017L253.756 277.538C253.756 276.753 255.663 274.789 259.478 271.647C259.703 271.647 260.432 270.937 261.667 269.515L264.752 266.037C266.435 264.354 267.707 263.119 268.567 262.334C270.176 259.791 270.98 258.107 270.98 257.285C271.728 256.611 272.364 255.227 272.888 253.133C273.449 251.001 273.954 249.467 274.402 248.532C274.889 247.56 275.169 246.849 275.244 246.4C276.74 241.874 277.843 239.032 278.554 237.872L279.115 236.021L279.957 235.348C280.032 235.161 280.106 234.581 280.181 233.608C280.593 233.459 281.023 232.636 281.472 231.14C281.92 229.644 282.369 228.615 282.818 228.054C283.267 227.493 283.566 226.913 283.716 226.315C283.865 225.679 284.314 225.062 285.062 224.463C285.848 223.827 286.633 223.509 287.419 223.509C287.68 223.509 288.111 223.902 288.709 224.688C289.345 225.436 289.719 226.315 289.831 227.325C289.981 228.297 290.093 228.97 290.168 229.344C290.243 229.681 290.28 230.149 290.28 230.747L290.392 232.374C290.392 232.673 290.243 233.627 289.943 235.235C289.644 236.844 289.42 238.003 289.27 238.714C289.158 239.387 288.784 239.836 288.148 240.06C287.512 240.285 287.194 240.509 287.194 240.734C287.194 240.958 287.344 241.145 287.643 241.295C287.942 241.407 288.092 241.5 288.092 241.575C288.092 241.725 287.867 242.23 287.419 243.09C287.007 243.913 286.614 244.437 286.24 244.661C286.465 245.11 286.577 245.372 286.577 245.446C286.577 245.633 286.297 246.232 285.736 247.242C285.212 248.214 284.782 248.869 284.445 249.205C284.108 249.542 283.772 250.309 283.435 251.506C283.099 252.703 282.238 253.713 280.854 254.535C280.331 255.059 279.863 255.919 279.452 257.116C279.078 258.313 278.517 259.061 277.769 259.36L277.039 260.426V260.651C277.039 261.212 276.852 261.829 276.478 262.502C276.104 263.176 275.73 263.98 275.356 264.915C274.982 265.812 274.627 266.411 274.29 266.71C274.141 267.57 273.879 268.356 273.505 269.067C273.131 269.74 272.906 270.338 272.831 270.862L272.439 271.311C271.691 271.423 271.317 271.778 271.317 272.377L271.541 273.611C271.541 273.648 271.204 274.266 270.531 275.462L270.307 276.585C270.12 277.52 269.764 278.155 269.241 278.492C268.717 278.791 268.38 279.483 268.231 280.568L268.006 281.915C268.006 281.989 268.044 282.102 268.119 282.251C268.193 282.251 268.418 282.045 268.792 281.634C269.316 281.821 269.615 281.915 269.69 281.915C269.914 281.915 270.12 281.765 270.307 281.466C270.531 281.129 270.868 280.886 271.317 280.736L271.541 280.624C271.728 280.1 272.009 279.82 272.383 279.783C272.757 279.745 273.075 279.577 273.336 279.278C273.598 278.941 273.804 278.773 273.954 278.773C274.028 278.773 274.29 278.922 274.739 279.221H274.851L275.356 278.997L275.244 278.099C275.244 277.725 275.412 277.482 275.749 277.37C276.085 277.258 276.329 277.071 276.478 276.809L278.554 275.462C279.452 275.088 280.106 274.696 280.518 274.284C280.967 273.835 281.434 273.518 281.92 273.33C282.444 273.143 282.837 272.919 283.099 272.657C283.398 272.358 284.034 272.171 285.006 272.096C286.091 271.161 286.932 270.525 287.531 270.189L287.98 269.571C288.055 269.497 288.204 269.422 288.429 269.347C288.653 269.272 288.933 269.048 289.27 268.674C289.644 268.3 289.981 268.113 290.28 268.113C291.028 268.113 291.402 268.487 291.402 269.235C291.402 270.469 290.841 271.46 289.719 272.208L289.607 272.377C289.42 273.873 288.952 274.621 288.204 274.621C288.055 274.621 287.793 274.939 287.419 275.575C287.007 275.5 286.764 275.462 286.689 275.462C286.39 275.911 286.016 276.323 285.567 276.697H285.231C284.632 276.697 282.22 278.436 277.993 281.915C277.769 282.139 277.582 282.289 277.432 282.363L276.366 282.251C276.366 282.326 276.142 282.7 275.693 283.373C275.132 283.56 274.515 283.916 273.841 284.439C273.168 284.963 272.663 285.299 272.326 285.449C272.027 285.599 271.747 285.861 271.485 286.235C271.223 286.571 270.868 286.814 270.419 286.964L269.69 287.637H269.353C269.054 287.637 268.68 287.824 268.231 288.198C267.819 288.572 267.614 288.928 267.614 289.264C267.614 289.414 267.782 289.713 268.119 290.162C268.418 289.937 269.465 291.078 271.26 293.584C273.056 296.053 273.954 298.428 273.954 300.71C273.954 302.393 273.692 303.477 273.168 303.964C272.682 304.487 272.439 304.861 272.439 305.086C272.439 305.235 272.495 305.666 272.607 306.376V306.601C272.607 306.975 272.383 307.199 271.934 307.274C271.522 307.349 271.279 307.498 271.204 307.723V309.125L270.98 309.799C270.494 310.06 269.989 310.939 269.465 312.435C268.343 313.595 267.539 314.25 267.053 314.399L266.94 314.624L267.053 316.138C267.053 316.512 266.884 316.812 266.548 317.036C266.211 317.26 265.744 317.728 265.145 318.439C264.584 319.187 264.004 319.71 263.406 320.01C263.256 320.72 262.957 321.225 262.508 321.524C262.097 321.824 261.667 322.254 261.218 322.815L260.881 323.039C260.544 323.114 260.227 323.526 259.927 324.274L259.478 324.386C258.955 325.283 258.431 325.919 257.908 326.293C257.421 326.705 257.066 327.079 256.842 327.415L255.944 327.976C255.607 328.65 254.915 329.417 253.868 330.277C253.793 330.277 253.644 330.165 253.419 329.94H253.251C253.101 329.94 252.97 330.09 252.858 330.389C252.746 330.688 252.54 330.969 252.241 331.231C251.942 331.492 251.643 331.866 251.343 332.353L251.119 332.577C250.633 332.577 249.866 333.232 248.819 334.541C248.108 334.69 247.491 334.952 246.967 335.326C246.182 336.224 245.639 336.673 245.34 336.673C245.303 336.673 244.891 336.355 244.106 335.719C243.32 335.12 242.928 334.148 242.928 332.801C242.928 332.465 242.703 332.072 242.254 331.623C242.18 331.212 242.105 330.613 242.03 329.828V329.323C242.03 328.874 242.18 328.351 242.479 327.752L242.815 326.574C242.89 326.275 243.002 326.032 243.152 325.845C243.302 325.657 243.526 325.115 243.825 324.217C244.087 323.357 244.405 322.497 244.779 321.637L244.891 321.076C245.303 319.28 245.639 318.401 245.901 318.439C246.126 317.878 246.35 317.13 246.574 316.194C246.799 315.259 246.967 314.493 247.079 313.894C247.154 313.296 247.416 312.81 247.865 312.435L249.267 307.947ZM260.881 297.175L261.106 299.587C261.106 299.737 260.788 300.448 260.152 301.719C259.553 303.029 259.161 304.076 258.974 304.861C258.787 305.647 258.375 306.04 257.739 306.04H257.178C257.103 306.189 257.066 306.339 257.066 306.488L257.178 307.723C257.178 308.209 257.047 309.069 256.785 310.304C256.524 311.538 256.15 312.323 255.663 312.66L255.327 313.053C255.252 313.614 254.971 314.493 254.485 315.69C253.962 316.924 253.531 317.878 253.195 318.551C252.858 319.262 252.596 320.122 252.409 321.132C252.222 322.179 251.979 322.852 251.68 323.151C251.456 324.199 251.231 325.059 251.007 325.732C250.782 326.443 250.502 327.378 250.165 328.538C250.24 328.687 250.352 328.762 250.502 328.762C250.726 328.762 251.007 328.351 251.343 327.528C251.493 327.378 251.755 327.266 252.129 327.191C252.465 327.154 252.765 326.761 253.026 326.013L253.139 325.788C253.55 325.714 253.849 325.489 254.036 325.115C254.223 324.779 254.429 324.573 254.653 324.498C254.878 324.423 255.14 324.236 255.439 323.937L255.832 323.825C255.981 323.75 256.112 323.544 256.224 323.208C256.337 322.871 256.468 322.609 256.617 322.422H257.403L257.627 322.31C257.926 321.113 258.282 320.328 258.693 319.954C259.142 319.617 259.478 319.205 259.703 318.719C259.927 318.233 260.189 317.859 260.488 317.597C260.825 317.335 261.068 316.849 261.218 316.138C261.891 315.353 262.321 314.736 262.508 314.287C262.695 313.838 262.957 313.464 263.294 313.165L263.406 312.772L263.181 312.099V311.874C263.181 311.575 263.612 310.827 264.472 309.63C265.369 308.433 265.931 307.423 266.155 306.601C266.379 305.815 266.585 305.179 266.772 304.693C266.959 304.207 267.109 303.646 267.221 303.01C267.333 302.411 267.539 301.906 267.838 301.495C268.137 301.121 268.287 300.597 268.287 299.924C268.287 298.765 267.763 297.306 266.716 295.548C266.641 295.473 266.566 295.249 266.492 294.875C266.417 294.501 266.043 294.071 265.369 293.584C264.734 293.061 264.266 292.799 263.967 292.799L263.518 293.023C263.443 293.098 263.2 293.21 262.789 293.36C262.415 293.509 262.228 293.865 262.228 294.426V294.65L262.34 295.885C262.34 296.221 261.854 296.651 260.881 297.175ZM311.263 287.076L308.626 289.376C308.477 289.227 308.327 289.152 308.177 289.152C307.803 289.152 307.336 289.489 306.775 290.162C306.251 290.835 305.877 291.172 305.653 291.172L305.092 291.06C304.157 291.77 303.483 292.182 303.072 292.294C302.66 292.406 302.156 292.612 301.557 292.911C300.996 293.21 300.472 293.379 299.986 293.416C299.537 293.453 299.163 293.622 298.864 293.921C298.565 294.183 297.835 294.314 296.676 294.314L295.778 294.201C295.292 294.426 294.974 294.538 294.824 294.538C294.525 294.538 294.207 294.388 293.871 294.089C293.534 293.753 293.16 293.566 292.749 293.528C292.375 293.491 291.982 293.229 291.57 292.743C291.159 292.256 290.766 291.92 290.392 291.733C290.056 291.546 289.775 291.284 289.551 290.947L288.765 290.274C288.129 289.825 287.512 289.002 286.914 287.806C286.315 286.609 286.016 285.674 286.016 285V284.776L286.128 283.71L286.016 282.476C286.166 282.326 286.353 282.008 286.577 281.522V279.726L287.924 275.238C287.998 275.051 287.849 274.808 287.475 274.509C287.101 275.07 286.727 275.406 286.353 275.519C285.979 275.631 285.717 275.893 285.567 276.304C285.455 276.715 285.249 276.921 284.95 276.921L284.277 276.697C284.202 276.772 284.034 277.164 283.772 277.875C283.51 278.548 283.061 278.885 282.425 278.885C281.752 278.885 281.415 278.623 281.415 278.099L281.528 277.09L281.191 275.687C281.191 275.388 281.49 274.808 282.089 273.948C282.687 273.05 283.23 272.545 283.716 272.433C284.239 272.283 284.67 271.928 285.006 271.367C285.38 270.768 286.166 270.058 287.363 269.235C288.036 269.085 288.616 268.599 289.102 267.776C289.625 267.365 290.299 267.028 291.122 266.766C291.982 266.504 292.618 266.13 293.029 265.644C293.478 265.12 294.75 264.335 296.844 263.288C298.976 262.203 300.528 261.661 301.501 261.661C301.8 261.661 302.212 261.586 302.735 261.436C303.259 261.249 303.745 261.1 304.194 260.987C304.643 260.838 305.11 260.632 305.597 260.37C306.083 260.071 306.476 259.921 306.775 259.921L308.402 260.483C309.599 260.819 310.328 261.062 310.59 261.212C310.665 261.287 311.039 261.455 311.712 261.717C312.423 261.941 313.133 262.259 313.844 262.671C314.592 263.082 314.966 263.849 314.966 264.971C314.33 265.906 314.012 266.411 314.012 266.486C314.012 266.635 314.442 266.86 315.303 267.159C315.602 267.72 316.051 268.449 316.649 269.347L317.266 271.311L317.379 275.911L317.266 276.36C316.855 276.734 316.649 276.977 316.649 277.09L316.818 278.212L316.369 279.783C316.256 280.269 316.069 280.587 315.808 280.736C315.546 280.886 315.378 281.073 315.303 281.297L314.966 281.746C314.891 281.858 314.723 282.195 314.461 282.756C314.237 283.28 313.975 283.691 313.676 283.99C313.376 284.29 313.189 284.645 313.115 285.056C313.04 285.468 312.853 285.767 312.554 285.954C312.254 286.141 312.03 286.347 311.88 286.571C311.768 286.758 311.562 286.927 311.263 287.076ZM293.815 288.535L294.039 289.825L294.151 289.937H295.049L295.329 290.05C296.077 290.199 296.639 290.274 297.013 290.274C298.172 290.274 299.088 289.994 299.762 289.433C300.472 288.834 301.033 288.535 301.445 288.535C301.856 288.535 302.193 288.254 302.455 287.693C302.754 287.132 302.941 286.852 303.016 286.852H303.801L304.026 286.74C304.026 285.879 304.4 285.262 305.148 284.888C305.933 284.514 306.476 284.028 306.775 283.429C307.111 282.793 307.485 282.326 307.897 282.027C308.308 281.69 308.589 281.26 308.738 280.736L309.187 280.063C309.337 279.913 309.412 279.633 309.412 279.221L310.478 277.202C310.702 276.267 310.814 275.537 310.814 275.014C310.814 274.228 310.403 273.611 309.58 273.162C308.795 272.713 308.402 271.834 308.402 270.525C308.402 269.665 308.832 268.88 309.692 268.169C310.59 267.421 311.039 266.972 311.039 266.822C311.039 266.598 310.927 266.486 310.702 266.486C310.59 266.486 310.16 266.635 309.412 266.935C309.15 267.458 307.822 268.15 305.428 269.01C304.643 268.636 304.213 268.449 304.138 268.449C303.913 268.449 303.689 268.674 303.465 269.123C303.24 269.571 303.016 269.889 302.791 270.076H302.062C301.987 270.076 301.744 270.32 301.333 270.806C300.921 271.292 300.398 271.535 299.762 271.535L299.088 272.208C299.126 272.807 298.752 273.424 297.966 274.06L297.349 274.789C296.975 275.238 296.489 275.762 295.89 276.36L294.881 278.885C294.469 279.857 294.263 280.587 294.263 281.073C294.151 281.297 293.889 281.54 293.478 281.802C293.104 282.027 292.917 282.326 292.917 282.7C292.917 282.775 293.048 282.962 293.31 283.261C293.571 283.56 293.702 283.785 293.702 283.934L293.478 284.664L293.254 286.74L293.815 288.535ZM346.609 267.439L348.18 266.71C348.704 266.373 349.209 265.887 349.695 265.251L351.659 263.849C352.781 263.101 353.51 262.727 353.847 262.727L354.744 263.063C354.819 263.063 355.044 262.839 355.418 262.39C355.829 261.904 356.297 261.661 356.82 261.661C357.493 261.661 358.41 262.166 359.569 263.176C360.729 264.185 361.309 265.083 361.309 265.869L361.084 267.776C361.084 268.075 361.234 268.917 361.533 270.301V270.75L361.309 272.096L361.533 273.499L360.916 276.248C360.916 276.959 361.159 277.314 361.645 277.314C362.281 276.715 362.823 276.36 363.272 276.248L364.058 275.462C364.357 275.163 364.581 275.014 364.731 275.014C364.881 275.014 365.068 274.845 365.292 274.509C365.554 274.135 365.872 273.873 366.246 273.723C366.62 273.574 366.882 273.312 367.031 272.938C369.126 270.656 370.734 269.347 371.856 269.01C372.006 269.01 372.249 268.823 372.586 268.449C372.96 268.075 373.259 267.851 373.483 267.776L374.718 266.822L375.223 267.047H375.335C375.41 267.047 375.709 266.86 376.232 266.486C376.756 266.112 377.13 265.925 377.355 265.925C378.776 265.925 379.935 266.411 380.833 267.383C381.768 268.318 382.236 269.048 382.236 269.571L381.955 270.862L382.348 272.601V273.723L382.067 274.901C382.067 275.126 382.217 275.444 382.516 275.855C382.853 276.267 383.021 276.547 383.021 276.697C382.572 277.183 382.348 277.501 382.348 277.651L382.46 278.66L382.18 281.746C382.18 282.008 382.423 282.438 382.909 283.037C383.133 282.887 383.451 282.756 383.863 282.644C384.274 282.532 384.592 282.419 384.816 282.307C385.041 282.158 385.153 282.083 385.153 282.083C385.153 282.045 385.134 282.027 385.097 282.027C385.172 282.027 385.396 282.102 385.77 282.251H385.995C386.294 282.251 386.462 281.971 386.5 281.41C386.537 280.811 386.911 280.325 387.622 279.951L388.968 280.063C389.043 279.988 389.193 279.689 389.417 279.165C389.679 278.604 390.464 277.8 391.773 276.753C393.12 275.668 394.149 275.126 394.859 275.126C395.458 275.126 395.757 275.388 395.757 275.911C395.757 276.061 395.682 276.454 395.532 277.09C395.832 277.613 395.981 278.062 395.981 278.436C395.981 279.147 395.364 279.913 394.13 280.736C392.933 281.559 392.017 282.588 391.381 283.822L391.156 284.046L390.034 283.934C389.959 283.934 389.772 284.234 389.473 284.832C389.211 285.393 388.893 285.711 388.519 285.786C388.145 285.861 387.884 285.973 387.734 286.122L386.556 286.852C386.331 287.001 385.583 287.768 384.312 289.152C383.077 290.499 382.03 291.172 381.17 291.172C380.796 291.172 380.122 290.985 379.15 290.611C378.177 290.199 377.523 289.788 377.186 289.376C376.85 288.965 376.363 288.497 375.727 287.974C375.129 287.45 374.83 286.459 374.83 285C374.83 284.925 374.923 284.795 375.11 284.608C375.335 284.421 375.447 284.271 375.447 284.159C374.587 283.037 374.157 282.232 374.157 281.746C374.157 281.522 374.194 281.279 374.269 281.017C374.344 280.755 374.381 280.512 374.381 280.287L374.269 278.324L374.493 277.314L374.381 276.697L374.718 273.835C374.718 273.387 374.456 273.162 373.932 273.162C373.783 273.162 373.577 273.312 373.315 273.611C373.053 273.91 372.717 274.153 372.305 274.34C371.931 274.49 371.52 275.014 371.071 275.911C370.398 276.285 369.93 276.659 369.668 277.033C369.444 277.37 369.257 277.538 369.107 277.538C369.032 277.538 368.883 277.501 368.658 277.426C368.209 277.725 367.985 278.062 367.985 278.436V278.66L368.097 279.109C368.097 279.446 367.817 279.764 367.256 280.063C366.695 280.362 366.003 281.129 365.18 282.363C364.806 282.363 364.544 282.401 364.394 282.476L363.721 283.822C363.347 284.046 362.992 284.439 362.655 285L361.982 285.337C361.72 285.823 361.458 286.235 361.196 286.571L360.86 287.188C359.251 289.096 358.129 290.05 357.493 290.05C356.858 290.05 356.091 289.208 355.193 287.525C354.295 285.842 353.847 284.533 353.847 283.598L354.071 281.522C354.071 281.447 353.921 281.148 353.622 280.624V280.4C353.622 280.325 353.772 279.895 354.071 279.109V277.426C354.071 277.351 354.034 277.239 353.959 277.09V276.809C353.959 276.734 354.108 276.435 354.408 275.911L354.071 274.284L354.295 273.387L354.183 271.423L354.408 269.684C354.408 269.571 354.295 269.384 354.071 269.123C353.884 268.823 353.753 268.674 353.678 268.674C353.417 268.674 352.631 269.104 351.322 269.964C350.05 270.824 349.19 271.498 348.741 271.984C348.292 272.47 347.694 273.05 346.946 273.723C346.16 274.097 345.618 275.051 345.319 276.585C345.319 276.659 345.244 276.697 345.094 276.697C345.094 276.622 344.982 276.547 344.758 276.472H344.533C344.346 276.472 343.767 277.277 342.794 278.885L342.57 279.109L341.504 278.885C340.606 278.885 340.157 279.839 340.157 281.746C340.157 282.083 339.914 282.307 339.428 282.419C338.979 282.532 338.624 282.85 338.362 283.373C338.1 283.897 337.745 284.439 337.296 285C336.435 285.374 335.949 285.655 335.837 285.842C335.837 285.879 335.426 286.44 334.603 287.525C333.78 288.61 333.331 289.246 333.256 289.433C333.181 289.62 332.92 289.844 332.471 290.106C332.059 290.33 331.854 290.536 331.854 290.723L332.022 291.677C332.022 292.275 331.442 292.574 330.283 292.574C328.038 292.574 326.916 290.237 326.916 285.561C326.916 285.038 327.141 284.458 327.59 283.822C328.076 283.149 328.543 282.345 328.992 281.41C329.703 280.699 330.544 279.67 331.517 278.324C332.489 276.977 333.219 276.061 333.705 275.575L334.434 274.396C334.434 273.948 334.528 273.611 334.715 273.387C334.902 273.162 334.995 272.882 334.995 272.545C334.995 271.947 334.846 271.647 334.547 271.647C333.836 271.647 333.275 271.834 332.863 272.208C332.452 272.545 331.985 272.788 331.461 272.938C330.975 273.087 330.657 273.349 330.507 273.723C329.983 273.948 329.422 274.434 328.824 275.182C328.263 275.893 327.889 276.341 327.702 276.528C327.515 276.715 327.328 276.977 327.141 277.314C326.991 277.613 326.785 277.781 326.524 277.819C326.262 277.856 326.019 277.987 325.794 278.212C325.57 278.436 325.215 278.548 324.728 278.548C324.392 278.548 324.074 278.212 323.775 277.538C323.513 276.828 323.382 276.398 323.382 276.248C323.382 273.518 325.196 271.161 328.824 269.179C329.31 268.917 329.684 268.655 329.946 268.393C330.245 268.131 330.544 267.926 330.844 267.776L331.068 267.383C331.367 266.935 332.489 266.299 334.434 265.476H335.22L338.979 264.522C340.587 264.148 341.391 265.962 341.391 269.964L341.279 270.974L341.504 271.423C342.139 270.824 342.775 270.301 343.411 269.852C344.084 269.366 344.571 268.936 344.87 268.562C345.169 268.188 345.749 267.814 346.609 267.439ZM403.668 270.076L404.846 269.123C405.744 269.048 406.23 268.58 406.305 267.72C406.379 266.86 406.997 266.112 408.156 265.476L408.829 264.522C409.39 263.961 410.924 263.232 413.43 262.334C414.066 261.96 414.496 261.623 414.72 261.324C414.795 261.249 414.87 261.212 414.945 261.212L415.842 261.436C416.329 261.436 416.946 261.305 417.694 261.044C418.479 260.782 419.227 260.651 419.938 260.651L422.294 260.539C422.444 260.539 422.743 260.651 423.192 260.875C423.678 261.1 424.258 261.212 424.931 261.212C425.754 261.212 426.502 261.586 427.176 262.334C427.886 263.082 428.242 263.774 428.242 264.41C428.242 265.569 427.643 266.748 426.446 267.944C425.249 269.141 424.295 269.815 423.585 269.964C422.949 270.6 422.463 271.011 422.126 271.199C421.789 271.348 421.434 271.61 421.06 271.984C420.723 272.321 420.443 272.489 420.219 272.489C420.069 272.489 419.957 272.452 419.882 272.377C419.807 272.264 419.695 272.208 419.545 272.208C418.947 272.208 418.292 272.938 417.582 274.396L416.572 274.284C415.936 274.696 415.524 275.145 415.337 275.631C415.15 276.117 414.758 276.36 414.159 276.36C412.775 277.744 411.84 278.436 411.354 278.436C411.279 278.436 411.017 278.361 410.569 278.212C410.269 278.586 410.12 278.978 410.12 279.39C410.12 279.839 409.82 280.1 409.222 280.175L408.493 280.849L407.932 280.736L406.81 281.915C406.248 281.915 405.669 282.102 405.07 282.476C404.995 282.924 404.883 283.504 404.734 284.215C404.584 284.888 404.509 285.262 404.509 285.337C404.509 286.422 405.5 286.964 407.483 286.964L410.176 286.571C410.886 286.571 411.541 286.384 412.139 286.01C412.775 285.636 413.449 285.449 414.159 285.449C414.384 285.449 414.72 285.374 415.169 285.225L415.73 285.449C415.992 284.888 416.478 284.383 417.189 283.934C417.9 283.485 418.461 283.261 418.872 283.261L419.433 282.924C419.583 282.476 419.807 282.176 420.106 282.027L420.555 281.634C420.854 281.335 421.135 281.185 421.397 281.185H422.182L422.407 281.073C422.855 280.1 423.473 279.539 424.258 279.39C425.081 279.203 425.586 278.922 425.773 278.548C425.997 278.174 426.371 277.95 426.895 277.875C427.419 277.8 427.849 277.557 428.185 277.146C428.559 276.697 429.008 276.285 429.532 275.911C430.056 275.537 430.411 275.257 430.598 275.07C430.822 274.883 431.009 274.789 431.159 274.789C431.383 274.789 431.496 274.958 431.496 275.294C431.496 275.631 431.57 275.799 431.72 275.799C431.87 275.799 431.944 275.724 431.944 275.575C431.944 275.425 431.907 275.238 431.832 275.014V274.621C431.832 274.06 432.131 273.686 432.73 273.499L435.255 271.872C435.329 271.086 435.535 270.637 435.872 270.525C436.246 270.376 436.526 270.226 436.713 270.076C436.9 269.889 437.106 269.796 437.33 269.796C437.817 269.796 438.06 270.076 438.06 270.637L437.779 272.096L438.06 273.611C438.06 273.835 437.873 274.153 437.499 274.565C437.162 274.939 436.9 275.537 436.713 276.36C436.526 277.146 436.283 277.576 435.984 277.651H435.647C434.974 278.361 434.432 278.791 434.02 278.941C433.646 279.053 433.347 279.278 433.123 279.614L431.215 281.802C430.841 282.176 430.523 282.513 430.261 282.812C429.999 283.111 429.794 283.261 429.644 283.261L429.195 282.812C429.195 282.737 429.12 282.7 428.971 282.7C428.597 282.7 428.354 282.924 428.242 283.373C428.167 283.822 427.98 284.215 427.68 284.551C426.558 285.075 425.829 285.561 425.492 286.01L425.156 286.122H424.146C423.66 286.122 423.323 286.496 423.136 287.244C422.949 287.955 422.407 288.367 421.509 288.479C420.649 288.591 420.032 288.815 419.657 289.152C419.583 289.227 419.414 289.302 419.153 289.376C418.891 289.451 418.367 289.75 417.582 290.274L412.869 291.957C412.495 292.144 412.252 292.238 412.139 292.238L410.569 292.462C410.344 292.462 410.12 292.313 409.895 292.013C409.671 291.714 409.521 291.565 409.446 291.565L408.437 291.901C407.688 292.126 406.978 292.238 406.305 292.238C405.931 292.238 405.519 292.107 405.07 291.845C404.621 291.583 404.266 291.396 404.004 291.284C402.92 291.284 402.153 290.442 401.704 288.759L401.031 288.871C400.881 288.871 400.376 287.544 399.516 284.888C399.291 284.589 398.936 284.383 398.45 284.271C397.964 284.121 397.721 283.747 397.721 283.149C397.721 281.466 398.076 280.344 398.787 279.783C399.535 279.184 399.946 278.735 400.021 278.436L400.806 275.519C400.956 275.406 401.143 275.032 401.367 274.396L402.658 272.04C402.807 271.778 403.144 271.124 403.668 270.076ZM415.506 266.71L414.832 267.047C414.683 267.122 414.234 267.458 413.486 268.057C412.775 268.618 412.065 269.085 411.354 269.459C410.681 269.796 409.97 270.712 409.222 272.208C408.511 273.705 408.156 274.565 408.156 274.789C408.156 275.014 408.268 275.126 408.493 275.126L410.4 274.284C411.111 273.948 411.765 273.518 412.364 272.994C413 272.47 413.897 271.834 415.057 271.086L415.506 270.637C415.581 270.488 415.917 270.226 416.516 269.852C417.151 269.441 417.619 269.048 417.918 268.674L418.479 268.449C419.115 267.439 419.751 266.822 420.387 266.598C421.06 266.373 421.397 266.149 421.397 265.925C421.397 265.476 421.041 265.251 420.331 265.251C420.032 265.251 419.583 265.438 418.984 265.812H417.694C417.544 265.812 417.133 266.037 416.46 266.486L415.506 266.71Z" fill="#DBCEE7"/>
<defs>
<filter id="filter0_d" x="0" y="0" width="518" height="518" filterUnits="userSpaceOnUse" color-interpolation-filters="sRGB">
<feFlood flood-opacity="0" result="BackgroundImageFix"/>
<feColorMatrix in="SourceAlpha" type="matrix" values="0 0 0 0 0 0 0 0 0 0 0 0 0 0 0 0 0 0 127 0"/>
<feOffset dx="10" dy="15"/>
<feGaussianBlur stdDeviation="7.5"/>
<feColorMatrix type="matrix" values="0 0 0 0 0 0 0 0 0 0 0 0 0 0 0 0 0 0 0.25 0"/>
<feBlend mode="normal" in2="BackgroundImageFix" result="effect1_dropShadow"/>
<feBlend mode="normal" in="SourceGraphic" in2="effect1_dropShadow" result="shape"/>
</filter>
<linearGradient id="paint0_linear" x1="244" y1="-212" x2="244" y2="372" gradientUnits="userSpaceOnUse">
<stop stop-color="#1A1A1A" stop-opacity="0"/>
<stop offset="1" stop-color="#1A1A1A"/>
</linearGradient>
</defs>
</svg>
