<svg width="48" height="42" viewBox="0 0 48 42" fill="none" xmlns="http://www.w3.org/2000/svg">
<path d="M44.8173 13.8922H41.4913L32.1102 0.331121C32.0547 0.2489 31.9835 0.17846 31.9006 0.123882C31.8176 0.0693038 31.7246 0.0316736 31.627 0.0131728C31.5294 -0.00532807 31.429 -0.00433178 31.3318 0.0161039C31.2345 0.0365395 31.1423 0.0760081 31.0605 0.132222C30.9786 0.188436 30.9088 0.260276 30.8551 0.343581C30.8013 0.426885 30.7647 0.519996 30.7473 0.617516C30.7299 0.715036 30.7321 0.815026 30.7538 0.911691C30.7754 1.00836 30.8161 1.09977 30.8735 1.18064L39.6666 13.8922H8.97233L17.7653 1.18064C17.8227 1.09977 17.8634 1.00836 17.8851 0.911691C17.9067 0.815026 17.9089 0.715036 17.8916 0.617516C17.8742 0.519996 17.8375 0.426885 17.7838 0.343581C17.73 0.260276 17.6602 0.188436 17.5783 0.132222C17.4965 0.0760081 17.4043 0.0365395 17.307 0.0161039C17.2098 -0.00433178 17.1094 -0.00532807 17.0118 0.0131728C16.9142 0.0316736 16.8212 0.0693038 16.7383 0.123882C16.6553 0.17846 16.5841 0.2489 16.5287 0.331121L7.14794 13.8922H3.18267C2.76559 13.8898 2.35215 13.9696 1.96612 14.127C1.58009 14.2844 1.22909 14.5162 0.933308 14.8093C0.637528 15.1024 0.402801 15.4508 0.242629 15.8346C0.0824571 16.2184 0 16.6299 0 17.0456C0 17.4613 0.0824571 17.8728 0.242629 18.2566C0.402801 18.6404 0.637528 18.9888 0.933308 19.2819C1.22909 19.575 1.58009 19.8069 1.96612 19.9642C2.35215 20.1216 2.76559 20.2014 3.18267 20.199H3.74337L5.63073 38.7291C5.70145 39.4413 6.03583 40.1018 6.56869 40.5816C7.10154 41.0615 7.79463 41.3263 8.5128 41.3245H39.4869C40.205 41.3263 40.8981 41.0615 41.431 40.5817C41.9638 40.1018 42.2982 39.4413 42.3688 38.7291L44.2563 20.199H44.8173C45.2344 20.2014 45.6479 20.1216 46.0339 19.9642C46.4199 19.8069 46.7709 19.575 47.0667 19.2819C47.3625 18.9888 47.5972 18.6404 47.7574 18.2566C47.9175 17.8728 48 17.4613 48 17.0456C48 16.6299 47.9175 16.2184 47.7574 15.8346C47.5972 15.4508 47.3625 15.1024 47.0667 14.8093C46.7709 14.5162 46.4199 14.2844 46.0339 14.127C45.6479 13.9696 45.2344 13.8898 44.8173 13.8922ZM40.8745 38.5778C40.8405 38.9207 40.6795 39.2387 40.4229 39.4698C40.1664 39.7008 39.8327 39.8283 39.4869 39.8274H8.51312C8.16734 39.8283 7.83362 39.7008 7.57707 39.4698C7.32052 39.2387 7.15953 38.9207 7.12552 38.5778L5.2535 20.199H42.7465L40.8745 38.5778ZM44.8173 18.702H3.18267C2.96327 18.7038 2.7457 18.6622 2.5425 18.5798C2.33929 18.4973 2.15448 18.3756 1.99872 18.2216C1.84296 18.0676 1.71933 17.8844 1.63496 17.6826C1.55059 17.4807 1.50715 17.2643 1.50715 17.0456C1.50715 16.8269 1.55059 16.6105 1.63496 16.4086C1.71933 16.2068 1.84296 16.0236 1.99872 15.8696C2.15448 15.7156 2.33929 15.5939 2.5425 15.5114C2.7457 15.429 2.96327 15.3874 3.18267 15.3892H44.8173C45.0367 15.3874 45.2543 15.429 45.4575 15.5114C45.6607 15.5939 45.8455 15.7156 46.0013 15.8696C46.157 16.0236 46.2807 16.2068 46.365 16.4086C46.4494 16.6105 46.4928 16.8269 46.4928 17.0456C46.4928 17.2643 46.4494 17.4807 46.365 17.6826C46.2807 17.8844 46.157 18.0676 46.0013 18.2216C45.8455 18.3756 45.6607 18.4973 45.4575 18.5798C45.2543 18.6622 45.0367 18.7038 44.8173 18.702Z" fill="#4D0099"/>
<path d="M24.0017 36.8742C24.2125 36.8742 24.4146 36.7944 24.5637 36.6524C24.7127 36.5104 24.7964 36.3178 24.7964 36.117V23.6447C24.7964 23.4439 24.7127 23.2512 24.5637 23.1092C24.4146 22.9672 24.2125 22.8875 24.0017 22.8875C23.791 22.8875 23.5888 22.9672 23.4398 23.1092C23.2908 23.2512 23.207 23.4439 23.207 23.6447V36.1174C23.2072 36.3182 23.2909 36.5107 23.44 36.6526C23.589 36.7945 23.791 36.8742 24.0017 36.8742Z" fill="#4D0099"/>
<path d="M32.4229 36.8742C32.5915 36.8742 32.7532 36.7944 32.8724 36.6524C32.9916 36.5104 33.0586 36.3178 33.0586 36.1169V23.6447C33.0586 23.4438 32.9916 23.2512 32.8724 23.1092C32.7532 22.9672 32.5915 22.8874 32.4229 22.8874C32.2543 22.8874 32.0925 22.9672 31.9733 23.1092C31.8541 23.2512 31.7871 23.4438 31.7871 23.6447V36.1174C31.7872 36.3181 31.8542 36.5106 31.9734 36.6525C32.0927 36.7945 32.2543 36.8742 32.4229 36.8742Z" fill="#4D0099"/>
<path d="M15.4158 36.8742C15.6266 36.8742 15.8287 36.7944 15.9777 36.6524C16.1268 36.5104 16.2105 36.3178 16.2105 36.117V23.6447C16.2105 23.4439 16.1268 23.2512 15.9777 23.1092C15.8287 22.9672 15.6266 22.8875 15.4158 22.8875C15.205 22.8875 15.0029 22.9672 14.8539 23.1092C14.7048 23.2512 14.6211 23.4439 14.6211 23.6447V36.1174C14.6212 36.3182 14.705 36.5107 14.854 36.6526C15.003 36.7945 15.2051 36.8742 15.4158 36.8742Z" fill="#4D0099"/>
</svg>
