<svg width="601" height="217" viewBox="0 0 601 217" fill="none" xmlns="http://www.w3.org/2000/svg">
<path d="M473.245 5.53109C473.746 4.7579 474.412 3.72227 475.243 2.41926C475.257 2.65672 475.272 2.89443 475.286 3.13312C475.298 3.33255 475.31 3.53267 475.322 3.73392C474.379 5.32273 473.667 6.50704 473.175 7.29755C472.918 7.71072 472.728 8.00721 472.598 8.19546C472.566 8.2428 472.539 8.27954 472.519 8.30727C472.491 8.32693 472.471 8.34327 472.461 8.35101L472.461 8.35134C472.407 8.39535 472.353 8.44791 472.31 8.49138C472.217 8.5855 472.092 8.72263 471.938 8.89526C471.627 9.24394 471.171 9.77295 470.573 10.4787C469.387 11.8777 467.628 13.9879 465.295 16.8065C465.189 16.8717 465.128 16.8876 465.103 16.8913C465.077 16.8712 465.011 16.8069 464.924 16.6274L464.922 16.6244C464.773 16.3206 464.759 16.1333 464.776 16.0315C464.789 15.9543 464.832 15.8464 465.023 15.7137L465.107 15.6556L465.173 15.5772L472.038 7.33474C472.051 7.32014 472.061 7.30732 472.068 7.29877C472.083 7.28029 472.097 7.26209 472.108 7.2479C472.129 7.2185 472.155 7.18249 472.182 7.14302C472.238 7.06283 472.314 6.94992 472.41 6.80606C472.602 6.5174 472.881 6.09271 473.245 5.53109ZM472.469 8.37154C472.469 8.37156 472.47 8.37061 472.472 8.36884C472.47 8.37066 472.469 8.37152 472.469 8.37154ZM465.116 16.8994C465.116 16.8995 465.115 16.899 465.113 16.8977C465.115 16.8987 465.116 16.8993 465.116 16.8994Z" stroke="#4D0099" stroke-width="1.5"/>
<path d="M446.85 43.6937C447.351 42.9205 448.017 41.8849 448.847 40.5818C448.862 40.8193 448.876 41.057 448.891 41.2958C448.903 41.4952 448.915 41.6953 448.927 41.8965C447.983 43.4853 447.271 44.6696 446.78 45.4601C446.523 45.8733 446.332 46.1698 446.203 46.3581C446.17 46.4062 446.143 46.4434 446.123 46.4713C446.093 46.4924 446.072 46.51 446.062 46.5179L446.061 46.5185C446.009 46.5616 445.957 46.6132 445.915 46.6563C445.824 46.7497 445.699 46.8862 445.546 47.0587C445.236 47.407 444.781 47.9356 444.183 48.6413C442.998 50.0401 441.236 52.1502 438.9 54.969C438.794 55.0343 438.733 55.0502 438.708 55.0539C438.681 55.0338 438.615 54.9695 438.528 54.79L438.527 54.7869C438.378 54.4832 438.364 54.2959 438.381 54.1941C438.394 54.1169 438.437 54.009 438.628 53.8763L438.712 53.8182L438.777 53.7398L445.642 45.4973C445.655 45.4827 445.666 45.4699 445.673 45.4614C445.688 45.4429 445.702 45.4247 445.712 45.4105C445.734 45.3811 445.759 45.3451 445.787 45.3056C445.843 45.2254 445.919 45.1125 446.015 44.9687C446.207 44.68 446.485 44.2553 446.85 43.6937ZM446.074 46.5341C446.074 46.534 446.075 46.533 446.076 46.5314C446.075 46.5334 446.074 46.5343 446.074 46.5341ZM438.721 55.062C438.721 55.0621 438.719 55.0616 438.717 55.0603C438.72 55.0613 438.721 55.0619 438.721 55.062Z" stroke="#4D0099" stroke-width="1.5"/>
<mask id="path-3-inside-1" fill="white">
<path d="M484.497 10.4364C484.497 7.4382 484.408 4.44884 484.275 1.45947C482.84 3.67054 481.271 5.92583 479.54 8.19881L475.701 12.6033C473.134 15.6634 470.101 18.9358 466.668 22.5973L453.159 21.6333C453.137 21.6952 453.1 21.8013 453.056 21.9428L446.486 20.6781C445.295 20.4481 442.913 21.6421 439.362 24.3484C437.32 25.8697 435.205 27.5412 433.089 29.2924C432.904 30.0088 432.712 30.7163 432.541 31.4327C432.445 31.8484 432.216 32.494 432.024 33.1485C432.038 33.3519 431.994 33.803 431.853 34.6343C431.099 39.0742 430.551 43.567 430.181 48.0776C429.937 51.0581 429.767 54.0475 429.656 57.0369C431.262 55.0027 433.015 52.9508 434.931 50.8901L439.118 46.9544C441.922 44.2127 445.221 41.3206 448.935 38.0836L462.296 40.6484C462.392 40.4627 462.592 39.9497 462.91 39.083L470.552 39.6313C471.75 39.7198 474.029 38.2428 477.336 35.1296C479.244 33.3784 481.205 31.4592 483.173 29.4693C483.298 28.7352 483.432 28.01 483.543 27.2759C483.609 26.8514 483.779 26.1792 483.912 25.507C483.883 25.3036 483.883 24.8526 483.957 24.0124C484.334 19.5018 484.497 14.9647 484.497 10.4364Z"/>
</mask>
<path d="M484.275 1.45947L485.773 1.39272L485.565 -3.2833L483.017 0.642791L484.275 1.45947ZM479.54 8.19881L480.671 9.18447L480.704 9.14709L480.734 9.10764L479.54 8.19881ZM475.701 12.6033L474.57 11.6176L474.561 11.6283L474.552 11.6392L475.701 12.6033ZM466.668 22.5973L466.561 24.0935L467.274 24.1443L467.762 23.6232L466.668 22.5973ZM453.159 21.6333L453.266 20.1371L452.131 20.0561L451.747 21.1271L453.159 21.6333ZM453.056 21.9428L452.772 23.4158L454.086 23.6688L454.487 22.3917L453.056 21.9428ZM446.486 20.6781L446.202 22.1509L446.203 22.151L446.486 20.6781ZM439.362 24.3484L440.258 25.5513L440.265 25.5464L440.272 25.5415L439.362 24.3484ZM433.089 29.2924L432.132 28.1368L431.758 28.4468L431.636 28.9174L433.089 29.2924ZM432.541 31.4327L431.082 31.0861L431.08 31.0946L432.541 31.4327ZM432.024 33.1485L430.584 32.7255L430.508 32.9863L430.527 33.2573L432.024 33.1485ZM431.853 34.6343L433.332 34.8857L433.332 34.8844L431.853 34.6343ZM430.181 48.0776L428.686 47.955L428.686 47.9552L430.181 48.0776ZM429.656 57.0369L428.157 56.9812L427.987 61.5736L430.834 57.9661L429.656 57.0369ZM434.931 50.8901L433.904 49.7971L433.867 49.8317L433.832 49.8687L434.931 50.8901ZM439.118 46.9544L440.145 48.0474L440.156 48.0372L440.167 48.0269L439.118 46.9544ZM448.935 38.0836L449.218 36.6105L448.5 36.4727L447.95 36.9528L448.935 38.0836ZM462.296 40.6484L462.013 42.1215L463.113 42.3327L463.628 41.3382L462.296 40.6484ZM462.91 39.083L463.017 37.5868L461.891 37.506L461.502 38.5662L462.91 39.083ZM470.552 39.6313L470.662 38.1354L470.659 38.1352L470.552 39.6313ZM477.336 35.1296L476.322 34.0243L476.314 34.0308L476.307 34.0374L477.336 35.1296ZM483.173 29.4693L484.239 30.524L484.571 30.1881L484.651 29.7226L483.173 29.4693ZM483.543 27.2759L482.061 27.0435L482.059 27.0517L483.543 27.2759ZM483.912 25.507L485.384 25.7985L485.434 25.5459L485.397 25.2911L483.912 25.507ZM483.957 24.0124L485.451 24.1439L485.452 24.1374L483.957 24.0124ZM485.997 10.4364C485.997 7.40915 485.907 4.39631 485.773 1.39272L482.776 1.52622C482.909 4.50136 482.997 7.46724 482.997 10.4364H485.997ZM483.017 0.642791C481.6 2.82594 480.053 5.05011 478.347 7.28997L480.734 9.10764C482.49 6.80154 484.08 4.51514 485.533 2.27615L483.017 0.642791ZM478.41 7.21314L474.57 11.6176L476.831 13.5889L480.671 9.18447L478.41 7.21314ZM474.552 11.6392C472.015 14.6634 469.008 17.9076 465.574 21.5714L467.762 23.6232C471.193 19.9639 474.253 16.6633 476.85 13.5673L474.552 11.6392ZM466.775 21.1011L453.266 20.1371L453.053 23.1294L466.561 24.0935L466.775 21.1011ZM451.747 21.1271C451.72 21.2039 451.676 21.3294 451.625 21.4939L454.487 22.3917C454.524 22.2731 454.555 22.1864 454.571 22.1394L451.747 21.1271ZM453.339 20.4699L446.77 19.2051L446.203 22.151L452.772 23.4158L453.339 20.4699ZM446.771 19.2053C446.162 19.0877 445.539 19.1729 444.975 19.327C444.397 19.4848 443.777 19.7438 443.126 20.0768C441.825 20.7424 440.262 21.7767 438.453 23.1554L440.272 25.5415C442.014 24.2138 443.417 23.298 444.493 22.7475C445.03 22.4724 445.451 22.3069 445.765 22.221C446.094 22.1313 446.216 22.1535 446.202 22.1509L446.771 19.2053ZM438.466 23.1456C436.401 24.6842 434.265 26.3719 432.132 28.1368L434.045 30.4479C436.144 28.7106 438.24 27.0551 440.258 25.5513L438.466 23.1456ZM431.636 28.9174C431.458 29.609 431.257 30.351 431.082 31.0861L434.001 31.7793C434.167 31.0817 434.35 30.4086 434.541 29.6673L431.636 28.9174ZM431.08 31.0946C430.994 31.4674 430.821 31.9219 430.584 32.7255L433.463 33.5714C433.611 33.0661 433.897 32.2293 434.003 31.7708L431.08 31.0946ZM430.527 33.2573C430.524 33.2147 430.531 33.2644 430.506 33.4908C430.483 33.6938 430.442 33.9837 430.374 34.3843L433.332 34.8844C433.466 34.0918 433.55 33.4563 433.52 33.0397L430.527 33.2573ZM430.375 34.383C429.612 38.8693 429.06 43.4053 428.686 47.955L431.676 48.2002C432.043 43.7287 432.586 39.279 433.332 34.8857L430.375 34.383ZM428.686 47.9552C428.44 50.9604 428.269 53.9722 428.157 56.9812L431.155 57.0925C431.265 54.1228 431.434 51.1559 431.676 48.2001L428.686 47.9552ZM430.834 57.9661C432.414 55.9638 434.141 53.9427 436.029 51.9115L433.832 49.8687C431.889 51.9589 430.109 54.0415 428.479 56.1076L430.834 57.9661ZM435.958 51.9831L440.145 48.0474L438.091 45.8614L433.904 49.7971L435.958 51.9831ZM440.167 48.0269C442.935 45.3203 446.201 42.4564 449.921 39.2143L447.95 36.9528C444.242 40.1847 440.909 43.105 438.069 45.8819L440.167 48.0269ZM448.652 39.5567L462.013 42.1215L462.579 39.1753L449.218 36.6105L448.652 39.5567ZM463.628 41.3382C463.779 41.0468 464.016 40.4217 464.318 39.5998L461.502 38.5662C461.344 38.996 461.219 39.3293 461.123 39.5743C461.075 39.6968 461.036 39.7914 461.007 39.8617C460.974 39.9381 460.961 39.9635 460.964 39.9587L463.628 41.3382ZM462.802 40.5792L470.444 41.1275L470.659 38.1352L463.017 37.5868L462.802 40.5792ZM470.441 41.1273C471.06 41.173 471.671 41.0126 472.213 40.7945C472.77 40.5701 473.362 40.2405 473.979 39.8332C475.214 39.0187 476.681 37.8063 478.364 36.2218L476.307 34.0374C474.684 35.5661 473.358 36.6488 472.327 37.329C471.812 37.669 471.402 37.8866 471.092 38.0116C470.766 38.1428 470.642 38.1339 470.662 38.1354L470.441 41.1273ZM478.35 36.2349C480.282 34.4617 482.261 32.5242 484.239 30.524L482.106 28.4146C480.148 30.3943 478.206 32.2952 476.322 34.0243L478.35 36.2349ZM484.651 29.7226C484.773 29.0119 484.912 28.2535 485.026 27.5001L482.059 27.0517C481.951 27.7664 481.824 28.4585 481.694 29.216L484.651 29.7226ZM485.024 27.5083C485.089 27.0991 485.221 26.6209 485.384 25.7985L482.441 25.2155C482.338 25.7375 482.13 26.6037 482.061 27.0435L485.024 27.5083ZM485.397 25.2911C485.4 25.3146 485.39 25.2501 485.395 25.0327C485.4 24.8318 485.416 24.5432 485.451 24.1439L482.463 23.8808C482.389 24.7119 482.37 25.325 482.428 25.723L485.397 25.2911ZM485.452 24.1374C485.833 19.5796 485.997 15.0003 485.997 10.4364H482.997C482.997 14.929 482.835 19.424 482.462 23.8873L485.452 24.1374Z" fill="#4D0099" mask="url(#path-3-inside-1)"/>
<path d="M98.9397 80.9518L98.8312 81.6939C99.2897 81.7609 99.9458 81.7852 100.751 81.794L86.6576 98.5535C85.2314 98.5528 84.2504 98.5449 83.6974 98.4642L83.6386 98.4556L83.5791 98.4563C83.5315 98.457 83.4836 98.4592 83.4353 98.4629L96.5319 82.8058C97.1059 82.3961 97.598 82.0963 98.0072 81.9089C98.4507 81.7059 98.7088 81.6762 98.8324 81.694L98.9397 80.9518ZM98.9397 80.9518C98.2664 80.8545 97.2677 81.3498 96.0175 82.2519L101.378 81.048C100.287 81.0444 99.4597 81.0278 98.9397 80.9518ZM103.697 172.532C103.628 172.536 103.522 172.536 103.371 172.524C102.927 172.491 102.263 172.375 101.351 172.173L101.345 172.172C91.5382 170.084 83.4064 167.505 76.8667 164.835C73.4728 163.449 68.465 162.494 62.9236 161.968C57.3672 161.44 51.2158 161.338 45.5034 161.685L45.4955 161.686L45.4877 161.686C41.6931 161.997 37.8351 163.231 33.8296 165.571L33.7166 165.638L33.6327 165.738L25.918 174.961C26.0841 173.178 26.1414 170.881 26.124 168.324C26.1 164.79 25.9321 160.703 25.6916 156.675C25.2117 148.634 24.4386 140.764 23.9303 137.969L23.9301 137.968C23.2435 134.224 22.6423 130.735 22.0765 127.451C19.0826 110.075 17.0787 98.4453 8.6454 85.1404L8.50019 84.9113L8.24203 84.8281C7.8345 84.6967 7.45039 84.5716 7.09107 84.4545C6.50424 84.2633 5.98356 84.0936 5.53504 83.9537C5.35779 83.8984 5.18769 83.8464 5.02536 83.7985L6.1681 82.4324L6.51902 82.0128L6.22682 81.5505C5.01277 79.6295 3.21026 77.267 0.970729 74.4862L15.3362 57.3123C18.5508 61.3707 21.0044 64.7934 22.7236 67.5916L22.8588 67.8116L23.1008 67.9018C26.8373 69.2939 31.5017 71.1819 37.2552 73.5778C48.8015 78.4113 62.8363 80.5166 75.9987 80.5166H93.6651L79.5691 97.3685C77.4724 97.3696 75.4585 97.3803 73.5031 97.3906C61.9049 97.4519 52.3598 97.5023 39.7491 95.4852L39.7469 95.4848C37.8543 95.1878 35.9576 94.7952 34.1519 94.3077L32.9634 93.9869L33.2233 95.1901C33.9739 98.6649 34.6373 102.435 35.3024 106.517C35.8999 110.184 36.634 114.092 37.4387 118.376C37.529 118.856 37.6202 119.342 37.7121 119.832C37.7217 120.698 37.9005 121.934 38.1358 123.375L38.4 124.992L39.4513 123.735L49.7799 111.387C55.543 112.148 61.7041 112.432 68.2546 112.241C68.9899 112.23 69.722 112.219 70.4508 112.208C75.7572 112.13 80.8906 112.054 85.814 112.04L71.7199 128.889C66.6467 128.894 61.3346 128.989 55.7896 129.093C50.1313 129.19 44.7332 129.093 39.592 128.697L38.7204 128.63L38.7866 129.501C39.4532 138.286 40.1134 150.303 39.7036 156.217L39.5438 158.524L41.0271 156.751L43.6163 153.655C45.7378 151.119 48.8281 149.008 52.0298 147.479C55.2281 145.953 58.4697 145.04 60.8595 144.848C70.5601 144.357 81.9873 145.345 88.5678 147.02L89.6217 147.288L89.4978 146.208C89.2629 144.159 89.327 142.096 89.5557 139.912L103.221 123.489C102.534 132.795 104.998 140.28 110.849 145.744L110.85 145.745C113.891 148.578 116.058 150.773 117.386 152.333C118.054 153.119 118.483 153.713 118.709 154.128C118.78 154.259 118.822 154.356 118.845 154.422L103.697 172.532ZM118.971 154.272L118.968 154.276C118.969 154.275 118.97 154.273 118.971 154.272ZM43.0438 140.801V140.767L43.0408 140.734L42.5378 135.144L42.5369 135.135C42.505 134.823 42.5499 134.67 42.5938 134.591C42.6272 134.532 42.6983 134.445 42.8925 134.355C43.056 134.349 43.1256 134.392 43.1515 134.413C43.1849 134.44 43.2658 134.53 43.2931 134.786C43.2933 134.788 43.2935 134.79 43.2936 134.792L43.7933 140.635L43.8742 146.284C43.8742 146.286 43.8742 146.288 43.8742 146.289C43.8734 146.635 43.7924 146.786 43.7474 146.84C43.7202 146.873 43.6584 146.932 43.4553 146.932C43.2623 146.932 43.2012 146.875 43.1719 146.839C43.1247 146.782 43.0438 146.627 43.0438 146.284V140.801ZM43.9148 69.652L43.9334 69.6016L43.9446 69.5491C44.0048 69.2678 44.0924 69.2115 44.0989 69.2075L44.099 69.2074C44.1027 69.2051 44.1515 69.1745 44.2929 69.1934C44.7019 69.513 45.1729 69.7139 45.6143 69.827L45.7059 69.8505H45.8005C45.8598 69.8505 45.9199 69.8694 45.9939 69.9653C46.0784 70.0747 46.1502 70.2558 46.1671 70.468C46.1843 70.6822 46.1398 70.8499 46.0847 70.9415C46.0489 71.0009 46.014 71.0297 45.9405 71.0389C45.5408 71.0321 45.0159 70.889 44.2667 70.4452L44.1785 70.3929L44.0796 70.3663C43.8697 70.3097 43.8418 70.2389 43.8359 70.2237L43.8355 70.2226C43.8173 70.1777 43.7816 70.0128 43.9148 69.652ZM51.0066 72.1534L51.0272 72.0996L51.0392 72.0432C51.0992 71.7625 51.1869 71.7046 51.1956 71.6991C51.2022 71.695 51.2824 71.6448 51.537 71.7101C53.0147 72.1001 54.3122 72.4298 55.4493 72.7188C56.9644 73.1038 58.1949 73.4165 59.1875 73.703C60.8902 74.2073 62.331 74.514 63.523 74.7214L63.5331 74.7231L63.5432 74.7246C63.6889 74.7459 63.8634 74.7771 64.0563 74.8116C64.5928 74.9075 65.2713 75.0288 65.868 75.0331C67.0369 75.13 68.5442 75.2358 70.3038 75.2366C72.0767 75.3339 74.587 75.3339 77.9661 75.3339H77.9962C78.1038 75.3339 78.159 75.3516 78.1819 75.3617C78.2001 75.3697 78.2106 75.3779 78.223 75.3945C78.2593 75.4428 78.3337 75.6 78.3337 75.9813C78.3337 76.3667 78.2575 76.4767 78.2476 76.4884C78.2458 76.4906 78.2449 76.4913 78.2437 76.4921C78.2423 76.4931 78.236 76.4973 78.2215 76.5027C78.1904 76.5143 78.1228 76.5312 77.9983 76.5314C76.5375 76.5221 75.2481 76.5165 74.1007 76.5116C68.6926 76.4884 66.4385 76.4788 64.2523 76.1474C62.6015 75.8972 61.013 75.4689 58.1758 74.7039C56.4198 74.2305 54.1856 73.6281 51.1624 72.8592C50.9589 72.8034 50.9314 72.7332 50.9251 72.7172L50.9247 72.7163C50.9067 72.6711 50.872 72.5068 51.0066 72.1534Z" stroke="white" stroke-width="1.5"/>
<path d="M107.938 85.3368L117.366 74.0653L117.826 73.5151L117.297 73.0309C109.145 65.5694 104.169 59.1882 102.227 53.7848L102.226 53.7808C101.219 51.0272 100.312 48.83 99.5133 47.2125C99.1143 46.404 98.7364 45.7279 98.3805 45.1946C98.2143 44.9455 98.0457 44.7165 97.874 44.5151L112.256 27.321C112.378 27.4711 112.512 27.6535 112.66 27.8725C113.042 28.4385 113.477 29.1996 113.965 30.1678C114.939 32.1034 116.097 34.8178 117.428 38.3479L117.428 38.348C120.176 45.6324 127.246 52.7474 135.2 59.1497C141.51 64.2285 148.465 68.9268 154.428 72.9544C156.002 74.0173 157.507 75.0336 158.912 75.9978C172.353 85.2244 183.75 96.7914 190.269 111.386C193.46 118.725 194.533 127.158 193.465 136.825C192.895 141.783 191.191 146.026 188.212 149.588L172.863 167.831C168.343 173.188 161.398 176.323 153.612 177.787C145.833 179.25 137.291 179.03 129.685 177.746L129.684 177.746C121.981 176.456 115.922 174.394 111.282 171.374L111.281 171.374C108.957 169.866 107.691 168.417 107.259 167.065C106.847 165.777 107.144 164.413 108.367 162.901C108.368 162.9 108.369 162.898 108.371 162.896L123.632 144.66L123.632 144.66C124.783 143.285 126.673 141.949 129.268 140.884L129.865 140.638L129.711 140.011C127.153 129.622 123.449 117.179 119.462 106.688C117.468 101.444 115.398 96.6706 113.358 92.8804C111.554 89.5299 109.727 86.8561 107.938 85.3368ZM140.973 57.6728L141.211 57.8955L141.536 57.8732C141.61 57.8682 141.668 57.8867 141.741 57.977C141.83 58.086 141.908 58.2747 141.929 58.5014C141.948 58.7001 141.916 58.8591 141.872 58.9564C139.115 56.6916 134.267 52.3174 129.695 47.518C127.314 45.0184 125.016 42.4127 123.132 39.9374C121.24 37.4524 119.797 35.1411 119.085 33.2247C119.01 33.0187 119.045 32.8972 119.084 32.8258C119.133 32.7372 119.229 32.6551 119.355 32.6139C119.481 32.5724 119.583 32.5891 119.64 32.619C119.677 32.6384 119.768 32.6985 119.813 32.9299L119.825 32.9905L119.846 33.0482C120.254 34.1396 121.152 35.6753 122.35 37.3735C123.556 39.0843 125.098 41.0038 126.832 42.8706C127.137 43.2083 127.446 43.5504 127.759 43.8959C130.847 47.3136 134.233 51.0608 137.286 54.0647C138.963 55.7686 140.22 56.9683 140.973 57.6728ZM132.579 156.591L132.847 156.327L132.796 155.953C132.693 155.215 132.607 154.578 132.533 154.036C132.487 153.695 132.446 153.393 132.409 153.125C132.319 152.472 132.249 151.984 132.192 151.775L131.957 150.907L131.146 151.293C129.482 152.086 127.937 152.766 126.406 153.245L124.988 153.688L126.187 154.566C127.341 155.41 129.065 156.339 131.264 157.245L131.722 157.434L132.076 157.086L132.579 156.591ZM146.08 133.749L146.248 134.701L147.128 134.302C148.089 133.867 148.926 133.491 149.636 133.177L146.747 136.631L146.546 136.871L146.575 137.183C146.741 138.934 146.82 140.285 146.823 141.247L146.694 142.08L133.985 157.283L133.29 158.114L134.313 158.472C146.693 162.801 165.34 164.238 178.828 158.146L179.199 157.979L179.261 157.575L179.593 155.382L179.595 155.369L179.597 155.355C181.626 137.709 175.65 124.072 166.372 112.905C157.285 101.967 145.007 93.3714 133.999 85.665C133.799 85.5249 133.6 85.3851 133.4 85.2456L131.359 83.8161L132.272 86.1348C138.263 101.34 144.004 121.934 146.08 133.749ZM171.93 140.467L171.927 140.413L171.917 140.359L171.251 136.866L171.251 136.864C169.972 130.232 166.896 124.519 162.21 119.731L162.202 119.722L162.194 119.714C162.171 119.693 162.149 119.671 162.126 119.65C161.731 119.27 161.364 118.918 161.003 118.479L160.952 118.417L160.889 118.367C160.381 117.965 159.944 117.611 159.579 117.174L159.466 117.039L159.306 116.969C159.105 116.88 159.018 116.757 158.978 116.636C158.932 116.496 158.935 116.317 158.999 116.143C159.064 115.966 159.168 115.859 159.246 115.816C159.287 115.794 159.341 115.774 159.435 115.804C163.853 119.685 166.651 122.841 168.598 126.458C170.556 130.093 171.685 134.247 172.681 140.176C172.694 140.847 172.351 141.003 172.252 141.019C172.187 141.029 172.136 141.012 172.091 140.97C172.044 140.926 171.944 140.793 171.93 140.467ZM173.597 151.573C173.597 151.923 173.515 152.03 173.497 152.05C173.488 152.059 173.429 152.123 173.178 152.123C173.055 152.123 172.987 152.106 172.956 152.094C172.932 152.085 172.929 152.079 172.928 152.078C172.917 152.065 172.84 151.955 172.84 151.573V146.982C172.84 146.607 172.914 146.448 172.952 146.398C172.965 146.38 172.977 146.371 172.995 146.363C173.017 146.353 173.072 146.335 173.178 146.335C173.381 146.335 173.443 146.394 173.47 146.427C173.515 146.481 173.597 146.633 173.597 146.982V151.573Z" stroke="white" stroke-width="1.5"/>
<path d="M209.835 79.215C211.451 88.9433 212.651 97.43 213.048 104.737C213.473 112.575 212.967 118.987 211.099 124.083L211.099 124.083C210.247 126.411 209.465 128.477 208.777 130.297C207.942 132.504 207.244 134.351 206.72 135.869C206.241 137.26 205.891 138.422 205.712 139.374C205.536 140.306 205.5 141.149 205.766 141.837C206.059 142.596 206.664 143.033 207.434 143.233C208.159 143.422 209.075 143.418 210.139 143.317C211.704 143.168 213.795 142.783 216.44 142.295C217.396 142.119 218.423 141.93 219.525 141.733L219.527 141.733C229.972 139.838 234.339 139.052 239.455 138.754L240.518 138.692L240.102 137.712C237.367 131.269 235.122 124.424 233.213 117.172L233.066 116.613H232.795C232.762 116.575 232.726 116.531 232.685 116.481C232.487 116.234 232.211 115.851 231.907 115.327C231.298 114.282 230.579 112.688 230.138 110.529C228.385 101.653 226.223 89.8213 225.14 79.783L225.14 79.783L225.139 79.7762C224.849 77.2994 224.727 75.3182 224.757 73.8205C224.789 72.284 224.98 71.378 225.219 70.9522L225.219 70.9512L237.199 49.468C237.215 49.4793 237.232 49.4921 237.25 49.5064C237.369 49.6007 237.518 49.7453 237.697 49.9533C238.426 50.8029 239.415 52.4278 240.668 54.8675L240.67 54.8711C241.113 55.7214 241.977 57.06 243.406 58.9637C244.117 59.911 244.657 60.6309 245.04 61.1514C245.222 61.3995 245.362 61.5933 245.466 61.7402L238.18 74.8109L238.051 75.0416L238.095 75.302C239.012 80.6838 239.85 85.4831 240.771 89.6935L242.021 95.8699L242.025 95.8906L242.03 95.9111C246.308 112.26 252.609 123.316 257.256 129.48L257.259 129.485C259.548 132.472 261.195 134.812 262.204 136.507C262.711 137.357 263.039 138.016 263.212 138.497C263.298 138.737 263.335 138.905 263.345 139.013C263.348 139.043 263.348 139.064 263.348 139.077L251.393 160.612C251.373 160.619 251.343 160.629 251.299 160.64C251.12 160.684 250.83 160.712 250.396 160.706C249.533 160.694 248.284 160.55 246.617 160.303C243.248 159.803 237.719 159.297 230.039 158.802C227.897 158.645 224.921 158.985 221.538 159.52C219.441 159.852 217.148 160.266 214.761 160.697C213.286 160.963 211.776 161.236 210.254 161.5L210.253 161.5C210.013 161.542 209.773 161.584 209.536 161.625C205.835 162.271 202.543 162.845 199.623 163.506C198.09 163.853 196.96 164.073 196.209 164.193C196.063 164.217 195.932 164.236 195.818 164.252C195.825 163.846 195.881 163.326 195.995 162.681C196.181 161.638 196.511 160.331 196.986 158.756C197.936 155.607 199.449 151.439 201.493 146.258C203.604 140.905 203.862 134.204 203.171 126.257C202.55 119.11 201.151 110.866 199.573 101.575C199.41 100.611 199.244 99.6361 199.078 98.6497L209.835 79.215ZM251.423 160.599C251.425 160.597 251.426 160.596 251.427 160.596C251.427 160.596 251.426 160.597 251.423 160.599ZM219.766 165.676L219.797 165.671L219.827 165.664C219.972 165.627 220.009 165.664 220.035 165.69L220.036 165.691C220.098 165.752 220.178 165.898 220.202 166.126C220.226 166.349 220.184 166.552 220.119 166.675C220.066 166.775 220.029 166.778 220.007 166.779L220.005 166.78L219.964 166.782L219.925 166.79C219.156 166.93 218.458 167.057 217.817 167.175C215.253 167.644 213.612 167.944 212.027 168.183C209.846 168.498 207.022 169.422 202.605 171.117L202.517 171.15C202.522 170.838 202.671 170.389 203.034 170.056C209.042 167.254 211.502 166.899 215.997 166.25C217.103 166.09 218.332 165.912 219.766 165.676ZM202.307 171.282C202.307 171.282 202.311 171.28 202.317 171.279C202.31 171.282 202.307 171.282 202.307 171.282ZM202.547 171.377C202.55 171.381 202.551 171.384 202.551 171.384C202.551 171.384 202.55 171.382 202.547 171.377ZM231.145 134.387C231.229 134.403 231.301 134.406 231.34 134.406C231.472 134.409 231.629 134.393 231.779 134.374C232.075 134.336 232.502 134.263 233.038 134.17C233.057 134.177 233.076 134.195 233.103 134.244C233.165 134.355 233.212 134.56 233.19 134.806C233.168 135.054 233.087 135.238 233.012 135.327C232.965 135.382 232.952 135.381 232.902 135.37L232.743 135.337L232.584 135.372C232.392 135.414 232.223 135.451 232.076 135.482V135.402L231.186 135.571L229.68 135.857C229.487 135.847 229.435 135.794 229.426 135.784C229.406 135.763 229.324 135.656 229.324 135.308C229.324 134.939 229.395 134.768 229.446 134.697C229.477 134.652 229.54 134.586 229.755 134.557C229.756 134.557 229.757 134.557 229.757 134.557L231.145 134.387ZM245.75 96.6352C245.335 94.7013 244.696 91.8107 243.832 87.9662C243.842 87.6412 243.908 87.5025 243.942 87.4576C243.954 87.441 243.965 87.4329 243.983 87.4248C244.006 87.4147 244.061 87.3971 244.169 87.3971C244.42 87.3971 244.479 87.461 244.488 87.4703C244.506 87.4897 244.588 87.5964 244.588 87.9472V88.0294L244.605 88.1096L247.1 99.3512C247.101 99.3555 247.102 99.3595 247.102 99.3635C247.105 99.3768 247.107 99.3882 247.109 99.3965C247.115 99.4209 247.121 99.4447 247.126 99.4638C247.137 99.5034 247.151 99.5519 247.168 99.606C247.201 99.7156 247.25 99.8692 247.313 100.065C247.441 100.457 247.632 101.031 247.888 101.787C248.389 103.267 249.139 105.452 250.15 108.351C250.095 108.585 250.005 108.712 249.938 108.774C249.861 108.847 249.793 108.858 249.743 108.852C249.687 108.846 249.335 108.736 249.335 107.988V107.85L249.286 107.721C248.243 104.979 247.474 102.939 246.975 101.572C246.726 100.888 246.547 100.38 246.436 100.041C246.388 99.8913 246.356 99.7847 246.337 99.7146C246.338 99.6681 246.336 99.6308 246.334 99.6132C246.33 99.5506 246.321 99.48 246.311 99.4149C246.29 99.2777 246.255 99.0831 246.207 98.8378C246.111 98.3439 245.959 97.6086 245.75 96.6352ZM246.157 100.191C246.176 100.167 246.194 100.144 246.208 100.122C246.193 100.145 246.176 100.168 246.157 100.191L246.157 100.191ZM191.088 88.9208L202.306 68.7136C202.502 68.6848 202.763 68.7207 203.109 68.8675C203.578 69.0665 204.096 69.4273 204.602 69.8738C205.103 70.3154 205.562 70.8129 205.913 71.2509C206.115 71.5033 206.264 71.7142 206.364 71.8703L195.233 92.057C195.205 92.0214 195.177 91.9859 195.149 91.9505C194.749 91.4529 194.228 90.8904 193.649 90.3846C193.074 89.8834 192.41 89.4101 191.723 89.125C191.52 89.0411 191.308 88.9702 191.088 88.9208Z" stroke="white" stroke-width="1.5"/>
<path d="M386.31 146.668L396.301 134.723C396.277 134.869 396.253 135.021 396.227 135.179C395.925 137.032 395.467 139.721 394.842 143.261C393.601 150.298 392.918 154.76 392.915 156.742L392.161 177.857C392.036 179.951 391.933 181.557 391.831 182.676C391.779 183.238 391.73 183.661 391.68 183.954C391.655 184.101 391.633 184.2 391.615 184.26L376.471 202.365C376.379 201.938 376.28 201.376 376.174 200.671C375.843 198.477 375.47 195.031 375.052 190.298L375.052 190.297C373.372 171.457 369.345 159.497 364.301 149.338L364.298 149.331C361.697 144.223 358.932 139.415 355.912 134.8L355.353 133.946L354.705 134.735L350.01 140.449C346.458 140.462 343.297 140.663 340.609 140.948L339.897 141.023L339.94 141.739C340.183 145.795 340.654 149.3 341.215 152.165L326.622 169.79C325.486 162.798 324.642 150.352 324.072 137.676C323.465 124.166 323.173 110.465 323.166 102.984L327.492 97.9057L327.864 97.4693L327.54 96.9961C322.081 89.0111 318.745 81.9447 317.467 75.7878L332.17 58.2103C333.587 64.5196 336.666 70.5587 340.644 76.6022C344.398 82.3063 348.984 88.0571 353.773 94.064C354.467 94.9339 355.165 95.8092 355.865 96.6905C366.875 110.658 378.805 126.312 385.018 146.408L385.425 147.725L386.31 146.668ZM391.601 184.303C391.601 184.302 391.602 184.3 391.604 184.296C391.602 184.302 391.601 184.304 391.601 184.303ZM334.146 167.398L333.987 167.443L333.862 167.55C331.182 169.837 330.101 171.754 328.529 174.545C328.326 174.906 328.114 175.282 327.89 175.675C327.767 175.819 327.646 175.865 327.55 175.876C327.434 175.89 327.301 175.857 327.183 175.774C327.067 175.692 326.985 175.574 326.955 175.441C326.927 175.318 326.931 175.132 327.074 174.883C327.3 174.498 327.512 174.136 327.712 173.794C328.663 172.169 329.349 170.995 330.127 169.926C331.038 168.674 332.079 167.562 333.826 166.08C333.871 166.069 333.898 166.083 333.938 166.111C334.033 166.18 334.16 166.344 334.242 166.595C334.322 166.843 334.325 167.078 334.282 167.231C334.247 167.358 334.2 167.383 334.146 167.398ZM337.283 163.248L337.28 163.252L336.866 163.748C336.721 163.92 336.63 163.915 336.609 163.914C336.561 163.912 336.461 163.88 336.355 163.759C336.138 163.512 336.083 163.13 336.344 162.817L336.759 162.322C336.84 162.225 336.903 162.178 336.94 162.157C336.972 162.14 336.986 162.14 336.988 162.14H336.989C336.99 162.14 337.088 162.141 337.279 162.325C337.447 162.571 337.482 162.731 337.482 162.827C337.482 162.917 337.452 163.05 337.283 163.248ZM339.356 134.567L339.491 136.414L340.679 134.993L348.691 125.415L349.08 124.95L348.707 124.473L344.121 118.591L344.113 118.581L344.105 118.571C342.536 116.696 341.046 114.713 339.624 112.818L338.206 110.929L338.274 113.29C338.519 121.785 338.941 128.88 339.356 134.567ZM383.148 134.309V134.266L383.143 134.224C383.044 133.354 382.582 132.014 381.834 130.262C381.073 128.482 379.981 126.197 378.561 123.4L378.559 123.396C375.755 117.968 373.86 113.745 372.873 110.814C372.847 110.532 372.914 110.389 372.958 110.329C373.005 110.263 373.073 110.224 373.159 110.214C373.25 110.204 373.353 110.229 373.44 110.295C373.519 110.356 373.611 110.472 373.645 110.693L373.654 110.756L373.675 110.818C374.865 114.376 376.896 118.605 379.657 123.512C382.363 128.418 383.719 132.061 383.98 134.493C383.929 134.779 383.825 134.93 383.749 135.001C383.669 135.076 383.595 135.091 383.54 135.086C383.482 135.081 383.399 135.05 383.32 134.948C383.24 134.845 383.148 134.647 383.148 134.309Z" stroke="#4D0099" stroke-width="1.5"/>
<path d="M517.193 146.668L527.184 134.723C527.16 134.869 527.136 135.021 527.11 135.179C526.808 137.032 526.35 139.721 525.725 143.261C524.484 150.298 523.801 154.76 523.798 156.742L523.044 177.857C522.918 179.951 522.816 181.557 522.713 182.676C522.662 183.238 522.612 183.661 522.563 183.954C522.538 184.101 522.516 184.2 522.498 184.26L507.354 202.365C507.262 201.938 507.162 201.376 507.056 200.671C506.726 198.477 506.352 195.031 505.935 190.298L505.935 190.297C504.255 171.457 500.228 159.497 495.184 149.338L495.181 149.331C492.58 144.223 489.815 139.415 486.795 134.8L486.236 133.946L485.588 134.735L480.893 140.449C477.341 140.462 474.18 140.663 471.492 140.948L470.78 141.023L470.823 141.739C471.066 145.797 471.544 149.301 472.098 152.164L457.505 169.79C456.369 162.798 455.524 150.352 454.955 137.676C454.348 124.166 454.056 110.465 454.049 102.984L458.375 97.9057L458.746 97.4696L458.423 96.9965C452.971 89.0108 449.628 81.9445 448.349 75.7878L463.052 58.2103C464.47 64.5196 467.549 70.5587 471.527 76.6022C475.281 82.3063 479.866 88.0571 484.656 94.064C485.35 94.9339 486.048 95.8092 486.748 96.6905C497.758 110.658 509.688 126.312 515.901 146.408L516.308 147.725L517.193 146.668ZM522.484 184.303C522.484 184.303 522.485 184.301 522.487 184.296C522.485 184.301 522.484 184.304 522.484 184.303ZM465.029 167.398L464.87 167.443L464.744 167.55C462.065 169.837 460.984 171.754 459.412 174.545C459.208 174.906 458.997 175.282 458.772 175.675C458.65 175.819 458.529 175.865 458.433 175.876C458.316 175.89 458.183 175.857 458.066 175.774C457.95 175.692 457.868 175.574 457.838 175.441C457.81 175.318 457.814 175.132 457.956 174.883C458.183 174.498 458.395 174.136 458.595 173.794C459.545 172.169 460.232 170.995 461.01 169.926C461.92 168.674 462.961 167.562 464.709 166.08C464.754 166.069 464.781 166.083 464.82 166.111C464.916 166.18 465.043 166.344 465.124 166.595C465.204 166.843 465.208 167.078 465.165 167.231C465.129 167.358 465.083 167.383 465.029 167.398ZM468.166 163.248L468.163 163.252L467.748 163.748C467.604 163.92 467.513 163.915 467.492 163.914C467.443 163.912 467.344 163.88 467.238 163.759C467.021 163.512 466.965 163.13 467.227 162.817L467.641 162.322C467.723 162.225 467.786 162.178 467.823 162.157C467.855 162.14 467.869 162.14 467.871 162.14H467.871C467.873 162.14 467.971 162.141 468.162 162.325C468.33 162.571 468.365 162.731 468.365 162.827C468.365 162.917 468.334 163.05 468.166 163.248ZM470.239 134.567L470.374 136.414L471.562 134.993L479.574 125.415L479.963 124.95L479.59 124.473L475.004 118.591L474.996 118.581L474.987 118.571C473.419 116.696 471.929 114.713 470.507 112.818L469.089 110.929L469.157 113.29C469.402 121.785 469.824 128.88 470.239 134.567ZM514.031 134.309V134.266L514.026 134.224C513.927 133.354 513.465 132.014 512.717 130.262C511.956 128.482 510.864 126.197 509.444 123.4L509.442 123.396C506.637 117.968 504.743 113.745 503.756 110.814C503.73 110.532 503.797 110.389 503.84 110.329C503.888 110.263 503.956 110.224 504.042 110.214C504.132 110.204 504.236 110.229 504.323 110.295C504.402 110.356 504.494 110.472 504.527 110.693L504.537 110.756L504.558 110.818C505.748 114.376 507.779 118.605 510.539 123.512C513.246 128.418 514.602 132.061 514.863 134.493C514.811 134.779 514.707 134.93 514.632 135.001C514.552 135.076 514.478 135.091 514.423 135.086C514.365 135.081 514.282 135.05 514.202 134.948C514.122 134.845 514.031 134.647 514.031 134.309Z" stroke="#4D0099" stroke-width="1.5"/>
<path d="M528.706 109.166L529.089 108.704L528.723 108.229C526.785 105.716 525.593 103.628 525.068 101.966C524.546 100.312 524.719 99.2116 525.293 98.4851L541.2 79.3706C542.109 78.4725 543.962 77.7113 546.972 77.418C562.36 76.122 573.967 77.2308 581.802 80.7419C589.682 84.3234 594.657 89.1933 597.194 94.814C599.733 100.438 599.874 106.907 597.91 113.761L597.909 113.763C595.932 120.749 592.733 126.836 588.298 132.138L572.363 151.189C563.755 161.479 551.744 167.528 541.287 162.949L541.287 162.949L541.277 162.945C532.762 159.37 526.314 155.667 521.882 151.849C517.452 148.032 515.091 144.15 514.618 140.207L514.618 140.207L514.617 140.199C513.552 132.098 515.349 125.336 519.793 119.928C519.793 119.928 519.793 119.927 519.794 119.927L528.706 109.166ZM548.883 133.56C548.645 132.526 548.182 131.425 547.525 130.27C546.442 128.366 544.791 126.248 542.596 123.932L542.596 123.932L542.591 123.926C538.269 119.456 534.271 114.977 530.613 110.603L530.202 110.112L529.653 110.44L529.505 110.529H529.379H528.779L528.647 111.114C527.424 116.54 528.751 122.328 532.407 128.322C536.102 134.432 543.889 140.537 552.785 143.724C561.694 146.916 571.872 147.234 580.269 141.518L580.438 141.403L580.525 141.219C585.049 131.672 586.374 120.769 581.896 111.852C577.4 102.896 567.175 96.18 549.123 94.7704L547.268 94.6255L548.504 96.0164C549.711 97.3735 550.953 98.733 552.183 100.079C554.555 102.676 556.883 105.224 558.825 107.612C560.295 109.418 561.514 111.099 562.342 112.6C563.115 114 563.501 115.162 563.505 116.08L548.883 133.56ZM576.709 157.904L576.786 157.861L576.851 157.801C582.545 152.524 585.509 147.438 588.952 140.121L588.992 140.037L589.01 139.945C589.035 139.814 589.073 139.739 589.098 139.701C589.123 139.665 589.141 139.655 589.147 139.652C589.156 139.647 589.21 139.625 589.32 139.67C589.53 139.757 589.773 140.034 589.718 140.472C585.79 148.985 583.098 153.452 576.732 159.161C576.66 159.167 576.615 159.146 576.582 159.125C576.513 159.081 576.425 158.98 576.372 158.81C576.266 158.464 576.372 158.094 576.709 157.904ZM555.411 135.091L569.961 117.695C570.063 118.62 570.234 119.642 570.483 120.607C570.706 121.468 570.998 122.315 571.379 123.015C571.591 123.406 571.85 123.786 572.166 124.095L557.185 142.005C557.035 141.848 556.879 141.634 556.722 141.35C556.42 140.803 556.169 140.089 555.968 139.293C555.6 137.827 555.434 136.196 555.411 135.091Z" stroke="#4D0099" stroke-width="1.5"/>
<path d="M414.746 189.09V189.172L414.763 189.252L417.258 200.494C417.261 200.511 417.264 200.525 417.266 200.534C417.271 200.558 417.277 200.58 417.282 200.598C417.292 200.634 417.304 200.678 417.319 200.726C417.348 200.823 417.391 200.958 417.446 201.129C417.557 201.473 417.723 201.974 417.945 202.633C418.273 203.608 418.724 204.931 419.304 206.605C419.077 206.473 418.851 206.341 418.623 206.207C418.545 206.162 418.467 206.116 418.389 206.07C417.723 204.311 417.229 202.985 416.906 202.083C416.737 201.609 416.618 201.26 416.546 201.029C416.523 200.955 416.507 200.899 416.496 200.858C416.497 200.816 416.495 200.782 416.494 200.766C416.491 200.7 416.481 200.627 416.472 200.562C416.451 200.423 416.417 200.227 416.37 199.982C416.275 199.487 416.122 198.751 415.914 197.778C415.499 195.844 414.857 192.953 413.99 189.108C414 188.784 414.066 188.645 414.1 188.6C414.112 188.584 414.123 188.575 414.141 188.567C414.164 188.557 414.219 188.54 414.327 188.54C414.573 188.54 414.634 188.604 414.644 188.615C414.665 188.637 414.746 188.745 414.746 189.09ZM416.315 201.334L416.315 201.334C416.319 201.329 416.322 201.325 416.326 201.32C416.322 201.325 416.319 201.329 416.315 201.334ZM416.479 200.791C416.479 200.791 416.479 200.792 416.479 200.793L416.479 200.791Z" stroke="#4D0099" stroke-width="1.5"/>
<path d="M407.92 68.2954C417.678 59.8137 426.518 60.5124 434.53 65.4033L441.385 57.2001L407.92 68.2954ZM407.92 68.2954C407.336 68.7907 406.751 69.3921 406.248 69.9935L407.92 68.2954ZM452.965 131.392C452.917 131.71 452.864 132.052 452.806 132.416C452.481 134.456 452.001 137.163 451.384 140.008C450.766 142.856 450.015 145.828 449.147 148.401C448.27 151.001 447.306 153.1 446.299 154.279L446.295 154.284L430.944 172.636C430.24 173.478 429.765 173.668 429.433 173.668H429.415L429.397 173.668C424.363 173.912 419.814 173.217 415.706 171.782L413.411 170.98L414.855 172.935C415.228 173.44 415.49 173.798 415.66 174.037L408.375 187.098L408.246 187.328L408.29 187.589C409.207 192.971 410.045 197.77 410.966 201.981C410.967 201.982 410.967 201.984 410.968 201.986L412.215 208.157L412.219 208.177L412.225 208.196C412.802 210.421 413.421 212.545 414.07 214.572C412.445 213.549 410.84 212.491 409.258 211.39C406.002 209.123 402.828 206.681 399.789 204.031C399.336 203.63 398.981 203.349 398.709 203.191C398.563 203.022 398.419 202.851 398.28 202.684L398.208 202.598C398.026 202.38 397.84 202.159 397.68 201.994L397.679 201.993C397.369 201.674 397.07 201.353 396.765 201.025C396.661 200.914 396.557 200.802 396.451 200.689C396.022 197.742 395.644 194.833 395.342 192.069L395.341 192.063C395.051 189.587 394.931 187.603 394.962 186.104C394.995 184.566 395.186 183.66 395.421 183.238C395.422 183.238 395.422 183.238 395.422 183.238L404.839 166.354L405.14 165.815L404.668 165.416C397.013 158.948 391.66 149.352 388.44 138.986L388.439 138.984C385.422 129.396 384.267 119.165 384.845 110.157C385.425 101.125 387.741 93.432 391.556 88.8236L406.823 70.4747C406.824 70.4745 406.824 70.4742 406.824 70.474C407.304 69.9007 407.858 69.3311 408.405 68.8676L408.405 68.8676L408.412 68.8614C413.196 64.7028 417.695 62.845 421.926 62.5832C426.162 62.3211 430.223 63.6528 434.139 66.0435L434.691 66.3803L435.106 65.8842L441.672 58.0268C441.754 58.2628 441.847 58.5293 441.95 58.8259C442.085 59.2129 442.238 59.651 442.408 60.1389C443.137 62.2328 444.2 65.2979 445.576 69.3333L445.576 69.3339C446.955 73.37 447.977 76.4074 448.653 78.4601C448.992 79.4869 449.243 80.2647 449.409 80.797C449.469 80.9882 449.517 81.1455 449.554 81.27L435.048 98.6116C430.396 92.6378 425.308 86.9646 419.752 83.3382C413.94 79.5442 407.553 77.9562 400.634 80.6598L400.278 80.7987L400.181 81.1678C396.887 93.7086 398.162 111.331 404.048 126.314C409.937 141.305 420.786 154.046 437.253 156.498L437.967 156.604L438.101 155.895C438.56 153.449 438.895 151.522 439.115 150.102C439.294 148.947 439.403 148.093 439.435 147.568L452.965 131.392ZM449.638 81.5761C449.638 81.5759 449.637 81.5714 449.635 81.5634C449.637 81.5724 449.638 81.5763 449.638 81.5761Z" stroke="#4D0099" stroke-width="1.5"/>
<path d="M405.155 119.521L405.154 119.508L405.153 119.496C405.074 118.526 405.074 117.851 405.074 117.461C405.074 117.082 405.149 116.925 405.187 116.875C405.2 116.858 405.211 116.849 405.23 116.841C405.253 116.831 405.307 116.813 405.412 116.813C405.606 116.813 405.669 116.871 405.699 116.907C405.745 116.963 405.826 117.115 405.823 117.454L405.823 117.454V117.461V117.467C405.823 117.862 405.823 118.487 405.906 119.217C405.916 119.523 405.834 119.702 405.759 119.799C405.679 119.902 405.58 119.949 405.495 119.961C405.408 119.972 405.339 119.948 405.292 119.908C405.251 119.872 405.167 119.773 405.155 119.521Z" stroke="#4D0099" stroke-width="1.5"/>
<path d="M422.356 143.536L422.342 143.518L422.326 143.5C418.496 139.115 415.799 136.093 414.183 134.568C412.699 133.167 410.335 129.686 407.251 124.11C407.147 123.876 407.155 123.697 407.192 123.575C407.233 123.44 407.32 123.335 407.419 123.273C407.52 123.211 407.607 123.206 407.663 123.221C407.706 123.232 407.81 123.273 407.915 123.483L407.921 123.494L407.927 123.505C410.839 128.874 413.223 132.466 414.904 134.058C416.471 135.643 419.115 138.506 422.843 142.567C423.025 142.854 422.962 143.218 422.73 143.475C422.613 143.604 422.514 143.633 422.482 143.635C422.471 143.636 422.465 143.635 422.456 143.63C422.446 143.626 422.409 143.605 422.356 143.536Z" stroke="#4D0099" stroke-width="1.5"/>
<path d="M319.604 81.2876L305.1 98.6275C300.448 92.6497 295.359 86.9743 289.803 83.3479C283.991 79.5538 277.604 77.968 270.684 80.6762L270.33 80.8151L270.233 81.1837C266.931 93.7246 268.206 111.347 274.099 126.33C279.988 141.321 290.837 154.071 307.305 156.514L308.019 156.62L308.152 155.911C308.611 153.461 308.946 151.533 309.166 150.115C309.345 148.961 309.454 148.108 309.486 147.584L323.016 131.409C322.968 131.726 322.915 132.068 322.857 132.431C322.532 134.47 322.052 137.176 321.435 140.021C320.818 142.868 320.066 145.84 319.198 148.414C318.322 151.013 317.357 153.114 316.35 154.295L316.346 154.301L300.995 172.652C300.291 173.494 299.816 173.684 299.484 173.684H299.466L299.447 173.684C277.682 174.756 264.457 158.221 258.491 139.011L258.49 139.008C255.473 129.42 254.316 119.192 254.894 110.185C255.473 101.154 257.788 93.4616 261.608 88.8487L276.867 70.4998C276.867 70.4995 276.868 70.4991 276.868 70.4987C277.345 69.9289 277.9 69.3657 278.454 68.8885L278.455 68.8869C283.24 64.7327 287.74 62.8769 291.973 62.615C296.21 62.3529 300.271 63.6827 304.183 66.0688L304.735 66.4053L305.149 65.9094L311.723 58.0427C311.798 58.2579 311.882 58.4985 311.975 58.7642C312.116 59.1692 312.278 59.6323 312.459 60.1521C313.189 62.2447 314.251 65.3097 315.627 69.3494C317.002 73.3902 318.024 76.4302 318.702 78.4833C319.041 79.5103 319.293 80.2878 319.46 80.8194C319.519 81.0083 319.567 81.164 319.604 81.2876ZM275.221 119.537L275.22 119.522L275.219 119.506C275.133 118.54 275.133 117.867 275.133 117.477V117.477C275.133 117.095 275.207 116.938 275.244 116.89C275.256 116.873 275.267 116.865 275.285 116.857C275.308 116.847 275.363 116.829 275.471 116.829C275.674 116.829 275.735 116.888 275.763 116.921C275.808 116.975 275.889 117.128 275.889 117.477V117.483C275.889 117.878 275.889 118.502 275.972 119.231C275.981 119.537 275.898 119.717 275.823 119.815C275.742 119.918 275.643 119.966 275.558 119.977C275.472 119.988 275.405 119.965 275.358 119.925C275.317 119.89 275.233 119.79 275.221 119.537ZM292.416 143.555L292.401 143.535L292.384 143.515C288.554 139.139 285.857 136.119 284.243 134.586L284.242 134.584C282.757 133.183 280.393 129.701 277.309 124.115C277.203 123.883 277.211 123.706 277.247 123.585C277.287 123.451 277.373 123.346 277.473 123.284C277.574 123.221 277.662 123.215 277.72 123.23C277.763 123.241 277.869 123.283 277.975 123.493L277.979 123.502L277.984 123.511C280.891 128.891 283.268 132.474 284.956 134.075C286.522 135.65 289.165 138.511 292.901 142.582C293.085 142.875 293.02 143.243 292.788 143.498C292.672 143.626 292.574 143.654 292.543 143.656C292.533 143.657 292.528 143.656 292.518 143.651C292.508 143.646 292.47 143.625 292.416 143.555Z" stroke="#4D0099" stroke-width="1.5"/>
<mask id="mask0" mask-type="alpha" maskUnits="userSpaceOnUse" x="254" y="56" width="71" height="119">
<path d="M319.604 81.2876L305.1 98.6275C300.448 92.6497 295.359 86.9743 289.803 83.3479C283.991 79.5538 277.604 77.968 270.684 80.6762L270.33 80.8151L270.233 81.1837C266.931 93.7246 268.206 111.347 274.099 126.33C279.988 141.321 290.837 154.071 307.305 156.514L308.019 156.62L308.152 155.911C308.611 153.461 308.946 151.533 309.166 150.115C309.345 148.961 309.454 148.108 309.486 147.584L323.016 131.409C322.968 131.726 322.915 132.068 322.857 132.431C322.532 134.47 322.052 137.176 321.435 140.021C320.818 142.868 320.066 145.84 319.198 148.414C318.322 151.013 317.357 153.114 316.35 154.295L316.346 154.301L300.995 172.652C300.291 173.494 299.816 173.684 299.484 173.684H299.466L299.447 173.684C277.682 174.756 264.457 158.221 258.491 139.011L258.49 139.008C255.473 129.42 254.316 119.192 254.894 110.185C255.473 101.154 257.788 93.4616 261.608 88.8487L276.867 70.4998C276.867 70.4995 276.868 70.4991 276.868 70.4987C277.345 69.9289 277.9 69.3657 278.454 68.8885L278.455 68.8869C283.24 64.7327 287.74 62.8769 291.973 62.615C296.21 62.3529 300.271 63.6827 304.183 66.0688L304.735 66.4053L305.149 65.9094L311.723 58.0427C311.798 58.2579 311.882 58.4985 311.975 58.7642C312.116 59.1692 312.278 59.6323 312.459 60.1521C313.189 62.2447 314.251 65.3097 315.627 69.3494C317.002 73.3902 318.024 76.4302 318.702 78.4833C319.041 79.5103 319.293 80.2878 319.46 80.8194C319.519 81.0083 319.567 81.164 319.604 81.2876ZM275.221 119.537L275.22 119.522L275.219 119.506C275.133 118.54 275.133 117.867 275.133 117.477V117.477C275.133 117.095 275.207 116.938 275.244 116.89C275.256 116.873 275.267 116.865 275.285 116.857C275.308 116.847 275.363 116.829 275.471 116.829C275.674 116.829 275.735 116.888 275.763 116.921C275.808 116.975 275.889 117.128 275.889 117.477V117.483C275.889 117.878 275.889 118.502 275.972 119.231C275.981 119.537 275.898 119.717 275.823 119.815C275.742 119.918 275.643 119.966 275.558 119.977C275.472 119.988 275.405 119.965 275.358 119.925C275.317 119.89 275.233 119.79 275.221 119.537ZM292.416 143.555L292.401 143.535L292.384 143.515C288.554 139.139 285.857 136.119 284.243 134.586L284.242 134.584C282.757 133.183 280.393 129.701 277.309 124.115C277.203 123.883 277.211 123.706 277.247 123.585C277.287 123.451 277.373 123.346 277.473 123.284C277.574 123.221 277.662 123.215 277.72 123.23C277.763 123.241 277.869 123.283 277.975 123.493L277.979 123.502L277.984 123.511C280.891 128.891 283.268 132.474 284.956 134.075C286.522 135.65 289.165 138.511 292.901 142.582C293.085 142.875 293.02 143.243 292.788 143.498C292.672 143.626 292.574 143.654 292.543 143.656C292.533 143.657 292.528 143.656 292.518 143.651C292.508 143.646 292.47 143.625 292.416 143.555Z" stroke="white" stroke-width="1.5"/>
</mask>
<g mask="url(#mask0)">
<rect x="247" y="20.0845" width="38" height="146" fill="white"/>
</g>
</svg>
