<svg width="601" height="397" viewBox="0 0 601 397" fill="none" xmlns="http://www.w3.org/2000/svg">
<path d="M473.242 188.381C473.744 187.618 474.411 186.596 475.243 185.31C475.258 185.543 475.272 185.776 475.286 186.009C475.298 186.204 475.31 186.399 475.322 186.595C474.38 188.158 473.669 189.323 473.178 190.101C472.921 190.508 472.73 190.799 472.601 190.985C472.569 191.031 472.543 191.067 472.523 191.094C472.495 191.113 472.475 191.129 472.466 191.137L472.465 191.137C472.411 191.18 472.357 191.232 472.314 191.275C472.221 191.368 472.095 191.503 471.941 191.673C471.631 192.017 471.175 192.538 470.577 193.233C469.391 194.611 467.631 196.69 465.299 199.466C465.187 199.534 465.124 199.548 465.101 199.551C465.075 199.533 465.009 199.471 464.922 199.293L464.92 199.29C464.772 198.992 464.76 198.813 464.776 198.719C464.788 198.649 464.827 198.545 465.019 198.414L465.103 198.357L465.169 198.279L472.034 190.159C472.047 190.144 472.058 190.132 472.065 190.123C472.08 190.105 472.094 190.087 472.104 190.073C472.126 190.044 472.152 190.008 472.179 189.969C472.235 189.89 472.311 189.779 472.407 189.637C472.6 189.353 472.878 188.934 473.242 188.381ZM472.473 191.157C472.473 191.157 472.474 191.156 472.475 191.155C472.474 191.156 472.473 191.157 472.473 191.157ZM465.112 199.558C465.112 199.558 465.111 199.558 465.109 199.556C465.111 199.557 465.112 199.558 465.112 199.558Z" stroke="#4D0099" stroke-width="1.5"/>
<path d="M446.847 225.977C447.349 225.214 448.015 224.193 448.848 222.907C448.862 223.139 448.876 223.372 448.891 223.605C448.902 223.8 448.914 223.995 448.927 224.191C447.984 225.754 447.273 226.919 446.782 227.697C446.526 228.104 446.335 228.396 446.206 228.581C446.173 228.628 446.147 228.664 446.126 228.691C446.097 228.712 446.076 228.729 446.066 228.737L446.066 228.738C446.014 228.78 445.961 228.831 445.919 228.874C445.828 228.966 445.703 229.1 445.549 229.27C445.24 229.613 444.785 230.134 444.187 230.829C443.001 232.207 441.24 234.286 438.904 237.063C438.792 237.131 438.729 237.145 438.705 237.148C438.68 237.129 438.614 237.068 438.526 236.889L438.525 236.886C438.376 236.589 438.364 236.409 438.381 236.315C438.392 236.246 438.432 236.141 438.624 236.01L438.708 235.953L438.774 235.875L445.638 227.755C445.652 227.741 445.662 227.728 445.669 227.719C445.685 227.701 445.698 227.683 445.709 227.669C445.731 227.64 445.756 227.604 445.784 227.565C445.84 227.486 445.916 227.375 446.012 227.233C446.204 226.949 446.483 226.53 446.847 225.977ZM446.078 228.754C446.078 228.754 446.078 228.753 446.08 228.751C446.078 228.753 446.078 228.754 446.078 228.754ZM438.717 237.155C438.717 237.155 438.716 237.154 438.713 237.153C438.716 237.154 438.717 237.154 438.717 237.155Z" stroke="#4D0099" stroke-width="1.5"/>
<mask id="path-3-inside-1" fill="white">
<path d="M484.497 193.203C484.497 190.249 484.408 187.304 484.275 184.359C482.84 186.538 481.271 188.759 479.54 190.999L475.701 195.338C473.134 198.352 470.101 201.576 466.668 205.183L453.159 204.234C453.137 204.295 453.1 204.399 453.056 204.539L446.486 203.293C445.295 203.066 442.913 204.242 439.362 206.908C437.32 208.407 435.205 210.054 433.089 211.779C432.904 212.485 432.712 213.182 432.541 213.888C432.445 214.297 432.216 214.933 432.024 215.578C432.038 215.778 431.994 216.223 431.853 217.042C431.099 221.416 430.551 225.842 430.181 230.285C429.937 233.222 429.767 236.167 429.656 239.112C431.262 237.108 433.015 235.086 434.931 233.056L439.118 229.179C441.922 226.478 445.221 223.629 448.935 220.44L462.296 222.966C462.392 222.784 462.592 222.278 462.91 221.424L470.552 221.964C471.75 222.052 474.029 220.597 477.336 217.53C479.244 215.804 481.205 213.914 483.173 211.953C483.298 211.23 483.432 210.516 483.543 209.792C483.609 209.374 483.779 208.712 483.912 208.05C483.883 207.849 483.883 207.405 483.957 206.577C484.334 202.134 484.497 197.664 484.497 193.203Z"/>
</mask>
<path d="M484.275 184.359L485.773 184.292L485.565 179.676L483.022 183.534L484.275 184.359ZM479.54 190.999L480.664 191.993L480.697 191.955L480.727 191.916L479.54 190.999ZM475.701 195.338L474.577 194.344L474.568 194.354L474.559 194.365L475.701 195.338ZM466.668 205.183L466.563 206.68L467.267 206.729L467.755 206.217L466.668 205.183ZM453.159 204.234L453.265 202.737L452.136 202.658L451.75 203.721L453.159 204.234ZM453.056 204.539L452.776 206.012L454.082 206.26L454.485 204.994L453.056 204.539ZM446.486 203.293L446.206 204.766L446.207 204.766L446.486 203.293ZM439.362 206.908L440.25 208.118L440.256 208.113L440.263 208.108L439.362 206.908ZM433.089 211.779L432.141 210.617L431.762 210.926L431.638 211.399L433.089 211.779ZM432.541 213.888L431.083 213.536L431.081 213.545L432.541 213.888ZM432.024 215.578L430.586 215.149L430.507 215.413L430.528 215.688L432.024 215.578ZM431.853 217.042L433.332 217.297L433.332 217.295L431.853 217.042ZM430.181 230.285L428.687 230.161L428.687 230.161L430.181 230.285ZM429.656 239.112L428.157 239.055L427.986 243.595L430.827 240.049L429.656 239.112ZM434.931 233.056L433.912 231.955L433.875 231.99L433.84 232.026L434.931 233.056ZM439.118 229.179L440.137 230.279L440.148 230.269L440.159 230.259L439.118 229.179ZM448.935 220.44L449.214 218.966L448.505 218.832L447.958 219.302L448.935 220.44ZM462.296 222.966L462.017 224.44L463.107 224.647L463.624 223.664L462.296 222.966ZM462.91 221.424L463.016 219.928L461.896 219.849L461.504 220.901L462.91 221.424ZM470.552 221.964L470.661 220.468L470.658 220.468L470.552 221.964ZM477.336 217.53L476.33 216.417L476.323 216.423L476.316 216.43L477.336 217.53ZM483.173 211.953L484.231 213.016L484.569 212.68L484.65 212.21L483.173 211.953ZM483.543 209.792L482.061 209.557L482.06 209.565L483.543 209.792ZM483.912 208.05L485.383 208.346L485.435 208.089L485.396 207.831L483.912 208.05ZM483.957 206.577L485.451 206.711L485.451 206.704L483.957 206.577ZM485.997 193.203C485.997 190.22 485.907 187.251 485.773 184.292L482.776 184.427C482.909 187.358 482.997 190.279 482.997 193.203H485.997ZM483.022 183.534C481.606 185.684 480.059 187.875 478.354 190.081L480.727 191.916C482.484 189.644 484.074 187.391 485.527 185.185L483.022 183.534ZM478.417 190.005L474.577 194.344L476.824 196.332L480.664 191.993L478.417 190.005ZM474.559 194.365C472.022 197.344 469.016 200.54 465.581 204.149L467.755 206.217C471.185 202.612 474.245 199.361 476.843 196.31L474.559 194.365ZM466.773 203.687L453.265 202.737L453.054 205.73L466.563 206.68L466.773 203.687ZM451.75 203.721C451.722 203.797 451.678 203.921 451.626 204.083L454.485 204.994C454.522 204.877 454.552 204.792 454.569 204.747L451.75 203.721ZM453.335 203.065L446.766 201.819L446.207 204.766L452.776 206.012L453.335 203.065ZM446.767 201.819C446.162 201.704 445.543 201.787 444.98 201.939C444.404 202.094 443.785 202.348 443.134 202.676C441.834 203.332 440.271 204.351 438.462 205.709L440.263 208.108C442.005 206.8 443.408 205.898 444.485 205.355C445.022 205.084 445.444 204.921 445.76 204.836C446.09 204.747 446.215 204.768 446.206 204.766L446.767 201.819ZM438.475 205.699C436.41 207.215 434.273 208.878 432.141 210.617L434.037 212.942C436.136 211.23 438.231 209.599 440.25 208.118L438.475 205.699ZM431.638 211.399C431.459 212.079 431.258 212.811 431.083 213.536L434 214.239C434.165 213.552 434.348 212.89 434.54 212.159L431.638 211.399ZM431.081 213.545C430.995 213.911 430.823 214.353 430.586 215.149L433.461 216.007C433.608 215.513 433.895 214.683 434.002 214.231L431.081 213.545ZM430.528 215.688C430.524 215.642 430.531 215.688 430.506 215.91C430.484 216.109 430.443 216.394 430.375 216.788L433.332 217.295C433.466 216.516 433.55 215.884 433.519 215.467L430.528 215.688ZM430.375 216.787C429.613 221.208 429.06 225.678 428.687 230.161L431.676 230.41C432.043 226.006 432.585 221.623 433.332 217.297L430.375 216.787ZM428.687 230.161C428.44 233.122 428.269 236.09 428.157 239.055L431.155 239.168C431.265 236.243 431.434 233.321 431.676 230.41L428.687 230.161ZM430.827 240.049C432.407 238.077 434.133 236.086 436.022 234.086L433.84 232.026C431.896 234.086 430.116 236.138 428.486 238.174L430.827 240.049ZM435.95 234.157L440.137 230.279L438.099 228.078L433.912 231.955L435.95 234.157ZM440.159 230.259C442.926 227.593 446.193 224.772 449.912 221.578L447.958 219.302C444.25 222.486 440.917 225.363 438.077 228.099L440.159 230.259ZM448.656 221.914L462.017 224.44L462.575 221.493L449.214 218.966L448.656 221.914ZM463.624 223.664C463.776 223.375 464.014 222.757 464.315 221.948L461.504 220.901C461.346 221.324 461.221 221.652 461.126 221.893C461.078 222.014 461.039 222.106 461.01 222.175C460.978 222.25 460.965 222.274 460.968 222.269L463.624 223.664ZM462.804 222.921L470.446 223.461L470.658 220.468L463.016 219.928L462.804 222.921ZM470.443 223.461C471.057 223.505 471.664 223.349 472.205 223.134C472.762 222.913 473.353 222.589 473.971 222.188C475.205 221.385 476.672 220.191 478.356 218.629L476.316 216.43C474.692 217.935 473.367 219.002 472.336 219.672C471.82 220.007 471.411 220.222 471.099 220.345C470.773 220.475 470.646 220.467 470.661 220.468L470.443 223.461ZM478.341 218.642C480.274 216.895 482.253 214.987 484.231 213.016L482.114 210.891C480.156 212.841 478.214 214.713 476.33 216.417L478.341 218.642ZM484.65 212.21C484.772 211.511 484.911 210.763 485.025 210.02L482.06 209.565C481.952 210.269 481.825 210.949 481.695 211.696L484.65 212.21ZM485.024 210.028C485.088 209.626 485.219 209.16 485.383 208.346L482.442 207.754C482.339 208.264 482.13 209.123 482.061 209.557L485.024 210.028ZM485.396 207.831C485.4 207.858 485.39 207.797 485.395 207.584C485.4 207.387 485.416 207.104 485.451 206.711L482.463 206.444C482.39 207.262 482.37 207.871 482.428 208.269L485.396 207.831ZM485.451 206.704C485.833 202.213 485.997 197.7 485.997 193.203H482.997C482.997 197.628 482.835 202.055 482.462 206.451L485.451 206.704Z" fill="#4D0099" mask="url(#path-3-inside-1)"/>
<path d="M103.701 352.88C103.631 352.884 103.524 352.884 103.37 352.873C102.926 352.84 102.261 352.726 101.349 352.527L101.343 352.525C91.5354 350.469 83.4032 347.928 76.8631 345.297C73.4703 343.932 68.4635 342.992 62.9225 342.473C57.3667 341.953 51.2159 341.853 45.5041 342.195L45.4963 342.195L45.4886 342.196C41.6959 342.502 37.8391 343.717 33.8338 346.022L33.7207 346.087L33.6362 346.187L25.9189 355.276C26.0843 353.519 26.1414 351.26 26.124 348.746C26.1 345.264 25.9321 341.237 25.6916 337.268C25.2116 329.347 24.4385 321.593 23.93 318.838L23.9298 318.837C23.2432 315.149 22.6421 311.712 22.0763 308.477C19.0824 291.359 17.0778 279.898 8.64266 266.787L8.49646 266.56L8.23893 266.478C7.83138 266.349 7.44728 266.226 7.08799 266.11C6.50116 265.922 5.98052 265.755 5.53201 265.617C5.36023 265.564 5.19522 265.514 5.03752 265.468L6.16454 264.141L6.52383 263.718L6.22409 263.251C5.01135 261.36 3.21183 259.036 0.97664 256.302L15.3363 239.39C18.5524 243.389 21.0068 246.762 22.7262 249.519L22.8625 249.738L23.1042 249.827C26.8409 251.198 31.5053 253.058 37.2587 255.418C48.8039 260.18 62.8374 262.254 75.9987 262.254H93.6496L79.5725 278.833C77.4746 278.834 75.4597 278.844 73.5032 278.855C61.9051 278.915 52.3591 278.965 39.7473 276.977L39.7452 276.977C37.8523 276.684 35.9552 276.298 34.1492 275.817L32.9604 275.501L33.2238 276.703C33.9742 280.125 34.6376 283.839 35.3027 287.861C35.9002 291.473 36.6344 295.323 37.439 299.543C37.5292 300.016 37.6203 300.494 37.7122 300.976C37.722 301.831 37.9011 303.05 38.1361 304.468L38.4007 306.064L39.4477 304.83L49.7769 292.665C55.5407 293.415 61.7027 293.695 68.2544 293.507C68.9894 293.496 69.7211 293.485 70.4496 293.475C75.7508 293.398 80.8794 293.323 85.7984 293.309L71.7232 309.886C66.6492 309.89 61.336 309.984 55.7898 310.086C50.1313 310.182 44.7328 310.086 39.5911 309.696L38.7195 309.63L38.7866 310.502C39.4533 319.156 40.1133 330.993 39.7036 336.818L39.5431 339.099L41.0235 337.356L43.6128 334.306C45.7334 331.809 48.8234 329.729 52.0259 328.223C55.2247 326.719 58.4675 325.819 60.859 325.63C70.5604 325.146 81.9887 326.12 88.5703 327.77L89.6232 328.034L89.4977 326.955C89.2632 324.941 89.3268 322.912 89.555 320.764L103.221 304.584C102.536 313.754 105.002 321.13 110.853 326.514L110.854 326.514C113.896 329.306 116.062 331.467 117.389 333.004C118.058 333.778 118.486 334.362 118.711 334.771C118.778 334.892 118.819 334.983 118.842 335.047L103.701 352.88ZM118.974 334.891L118.971 334.895C118.972 334.894 118.973 334.893 118.974 334.891ZM43.0438 321.631V321.597L43.0407 321.563L42.5377 316.057L42.5368 316.047C42.5052 315.743 42.5499 315.597 42.5914 315.524C42.6234 315.467 42.6937 315.382 42.8901 315.293C43.0575 315.286 43.1294 315.329 43.1558 315.351C43.1878 315.376 43.2665 315.461 43.2932 315.709C43.2934 315.711 43.2936 315.713 43.2938 315.714L43.7933 321.469L43.8742 327.033C43.8742 327.035 43.8742 327.037 43.8742 327.038C43.8734 327.375 43.7935 327.52 43.751 327.57C43.7249 327.6 43.6622 327.66 43.4553 327.66C43.2584 327.66 43.1964 327.602 43.1683 327.569C43.1235 327.516 43.0438 327.368 43.0438 327.033V321.631ZM43.9135 251.546L43.9326 251.495L43.9441 251.442C44.0033 251.17 44.0886 251.117 44.0946 251.113C44.0989 251.111 44.15 251.079 44.2964 251.099C44.7057 251.414 45.1765 251.612 45.6169 251.723L45.7073 251.746H45.8005C45.8644 251.746 45.9251 251.767 45.9972 251.859C46.0801 251.965 46.1506 252.14 46.1672 252.345C46.184 252.552 46.1402 252.713 46.0872 252.799C46.0534 252.855 46.019 252.885 45.941 252.894C45.5386 252.888 45.0121 252.746 44.2625 252.308L44.1749 252.257L44.0769 252.231C43.8649 252.175 43.8383 252.105 43.8343 252.094L43.834 252.093C43.8186 252.056 43.7812 251.9 43.9135 251.546ZM51.0053 254.011L51.0264 253.956L51.0387 253.899C51.0977 253.628 51.1832 253.573 51.1913 253.568C51.1996 253.563 51.283 253.513 51.5397 253.578C53.0171 253.962 54.3145 254.287 55.4517 254.572C56.967 254.951 58.1978 255.259 59.1905 255.541C60.8928 256.038 62.3332 256.34 63.5249 256.544L63.5348 256.546L63.5448 256.548C63.6911 256.569 63.8661 256.599 64.0593 256.634C64.5957 256.728 65.2728 256.847 65.8685 256.851C67.0374 256.947 68.5446 257.051 70.3041 257.052C72.0767 257.148 74.5868 257.148 77.9665 257.148H77.9962C78.1051 257.148 78.1618 257.165 78.1857 257.176C78.2049 257.184 78.2149 257.192 78.2263 257.207C78.2599 257.251 78.3337 257.402 78.3337 257.774C78.3337 258.151 78.2581 258.254 78.2512 258.263C78.2498 258.264 78.2493 258.265 78.248 258.265C78.2466 258.267 78.24 258.271 78.2249 258.276C78.1927 258.288 78.1238 258.305 77.9982 258.305C76.5376 258.296 75.2483 258.291 74.101 258.286C68.6929 258.263 66.4377 258.253 64.2506 257.927C62.5993 257.68 61.01 257.258 58.1722 256.504C56.4162 256.038 54.1822 255.444 51.1597 254.687C50.9545 254.632 50.9279 254.562 50.9236 254.551L50.9233 254.55C50.908 254.512 50.8716 254.357 51.0053 254.011ZM83.6958 279.912L83.6379 279.904L83.5793 279.905C83.5371 279.905 83.4946 279.907 83.4518 279.91L96.5278 264.51C97.1017 264.106 97.5939 263.811 98.0033 263.626C98.4469 263.426 98.7072 263.396 98.8339 263.414C99.2888 263.479 99.9384 263.503 100.736 263.512L86.661 280C85.2332 280 84.2501 279.992 83.6958 279.912Z" stroke="white" stroke-width="1.5"/>
<path d="M107.946 266.989L117.363 255.898L117.834 255.344L117.293 254.856C109.141 247.505 104.166 241.22 102.226 235.901L102.225 235.897C101.218 233.184 100.31 231.018 99.5113 229.424C99.1121 228.627 98.7339 227.961 98.3776 227.435C98.2143 227.194 98.0487 226.971 97.8802 226.776L112.256 209.844C112.379 209.992 112.514 210.173 112.663 210.391C113.044 210.948 113.479 211.697 113.967 212.65C114.941 214.557 116.099 217.23 117.429 220.707L117.429 220.708C120.179 227.888 127.251 234.899 135.204 241.205C141.514 246.209 148.47 250.837 154.433 254.805C156.006 255.852 157.511 256.853 158.916 257.803C172.358 266.893 183.754 278.287 190.27 292.662C193.461 299.888 194.533 308.192 193.465 317.712C192.896 322.591 191.194 326.769 188.217 330.276C188.216 330.276 188.216 330.277 188.216 330.277L172.867 348.249C168.348 353.526 161.403 356.615 153.614 358.058C145.834 359.499 137.29 359.283 129.683 358.017L129.682 358.017C121.979 356.746 115.918 354.714 111.277 351.739L111.277 351.739C108.951 350.252 107.689 348.826 107.258 347.499C106.849 346.24 107.142 344.903 108.363 343.415C108.365 343.414 108.366 343.412 108.367 343.411L123.629 325.445L123.629 325.445C124.778 324.091 126.669 322.775 129.264 321.725L129.868 321.481L129.71 320.848C127.152 310.613 123.448 298.355 119.46 288.018C117.467 282.851 115.396 278.148 113.355 274.413C111.555 271.119 109.732 268.488 107.946 266.989ZM140.977 239.75L141.214 239.968L141.536 239.947C141.614 239.941 141.673 239.962 141.745 240.049C141.832 240.154 141.909 240.337 141.929 240.556C141.947 240.749 141.916 240.903 141.873 240.995C139.118 238.765 134.266 234.453 129.691 229.722C127.31 227.26 125.013 224.693 123.129 222.255C121.237 219.807 119.795 217.531 119.084 215.646C119.011 215.448 119.045 215.335 119.082 215.269C119.129 215.185 119.224 215.104 119.352 215.063C119.48 215.021 119.585 215.038 119.644 215.068C119.682 215.088 119.769 215.145 119.813 215.367L119.826 215.428L119.848 215.486C120.257 216.564 121.155 218.078 122.353 219.751C123.559 221.437 125.102 223.328 126.836 225.167C127.141 225.5 127.45 225.837 127.762 226.177C130.85 229.544 134.237 233.236 137.289 236.195C138.967 237.874 140.224 239.056 140.977 239.75ZM132.575 337.2L132.849 336.934L132.795 336.556C132.693 335.829 132.607 335.202 132.533 334.668C132.487 334.333 132.446 334.034 132.409 333.77C132.319 333.128 132.249 332.645 132.192 332.437L131.956 331.579L131.15 331.957C129.486 332.737 127.941 333.407 126.409 333.879L124.969 334.323L126.191 335.205C127.345 336.036 129.069 336.951 131.268 337.844L131.721 338.028L132.072 337.687L132.575 337.2ZM146.081 314.688L146.249 315.632L147.125 315.241C148.076 314.817 148.907 314.449 149.613 314.142L146.75 317.513L146.545 317.754L146.576 318.07C146.741 319.793 146.82 321.124 146.823 322.07L146.695 322.884L133.989 337.858L133.279 338.694L134.316 339.052C146.695 343.317 165.338 344.732 178.824 338.732L179.198 338.565L179.26 338.161L179.593 336L179.595 335.986L179.597 335.973C181.627 318.581 175.647 305.142 166.369 294.139C157.281 283.363 145.003 274.895 133.995 267.303C133.795 267.165 133.595 267.027 133.396 266.889L131.351 265.479L132.274 267.785C138.264 282.763 144.004 303.05 146.081 314.688ZM171.93 321.302L171.927 321.247L171.917 321.193L171.251 317.751L171.251 317.749C169.971 311.211 166.893 305.581 162.206 300.863L162.198 300.854L162.19 300.847L162.123 300.783C161.727 300.409 161.36 300.062 161 299.63L160.948 299.568L160.885 299.519C160.377 299.123 159.94 298.774 159.575 298.344L159.462 298.211L159.302 298.142C159.099 298.053 159.015 297.933 158.977 297.819C158.932 297.687 158.935 297.515 158.998 297.347C159.061 297.177 159.163 297.072 159.242 297.03C159.284 297.007 159.342 296.987 159.439 297.018C163.858 300.841 166.654 303.95 168.601 307.511C170.557 311.09 171.686 315.179 172.681 321.018C172.693 321.665 172.36 321.819 172.254 321.835C172.185 321.846 172.131 321.828 172.087 321.787C172.042 321.745 171.943 321.618 171.93 321.302ZM173.597 332.244C173.597 332.585 173.516 332.685 173.5 332.702C173.492 332.71 173.432 332.775 173.178 332.775C173.054 332.775 172.985 332.758 172.953 332.746C172.938 332.74 172.931 332.736 172.929 332.735C172.927 332.733 172.926 332.733 172.924 332.731C172.916 332.721 172.84 332.617 172.84 332.244V327.722C172.84 327.355 172.913 327.203 172.949 327.157C172.961 327.14 172.972 327.132 172.991 327.123C173.015 327.113 173.07 327.095 173.178 327.095C173.385 327.095 173.447 327.155 173.473 327.186C173.516 327.236 173.597 327.382 173.597 327.722V332.244Z" stroke="white" stroke-width="1.5"/>
<path d="M209.836 260.965L210.42 259.924C213.875 280.257 215.57 295.294 211.803 305.416C207.701 316.459 205.353 321.218 206.708 322.795C207.86 324.136 211.69 323.176 219.393 321.823C229.286 320.055 233.769 319.258 238.617 318.928C238.652 319.01 238.688 319.092 238.723 319.175L239.412 318.878L239.369 318.129C239.279 318.134 239.189 318.14 239.099 318.145C236.488 311.973 234.33 305.439 232.487 298.542C232.406 298.542 230.32 296.381 229.402 291.955M209.836 260.965C209.77 260.575 209.703 260.183 209.636 259.789L198.294 279.975M209.836 260.965C211.451 270.548 212.652 278.908 213.048 286.104C213.473 293.825 212.967 300.139 211.1 305.155L211.1 305.155C210.248 307.448 209.467 309.483 208.778 311.276C207.943 313.451 207.245 315.27 206.721 316.766C206.242 318.137 205.892 319.283 205.712 320.222C205.536 321.141 205.5 321.977 205.767 322.66C206.063 323.414 206.67 323.843 207.437 324.04C208.16 324.225 209.074 324.222 210.138 324.122C211.703 323.975 213.793 323.595 216.438 323.115C217.393 322.942 218.421 322.755 219.523 322.562L219.525 322.561C229.97 320.694 234.338 319.92 239.455 319.627L240.525 319.565L240.101 318.581C237.366 312.235 235.121 305.492 233.212 298.348L233.063 297.792H232.791M209.836 260.965L199.078 280.11M198.294 279.975C198.476 281.033 198.656 282.077 198.833 283.108C202.168 302.461 204.679 317.034 200.795 326.737C196.704 336.957 194.706 343.248 195.121 345.505M198.294 279.975L199.034 279.848C199.049 279.935 199.064 280.023 199.078 280.11M198.294 279.975L198.948 280.342L199.078 280.11M195.121 345.505C195.202 345.6 196.704 345.409 199.789 344.72C202.69 344.073 205.963 343.511 209.672 342.874C209.907 342.833 210.144 342.792 210.382 342.751C211.916 342.489 213.432 342.22 214.908 341.957C221.142 340.848 226.679 339.863 229.987 340.103M195.121 345.505L195.692 345.019C195.527 344.824 195.319 344.788 195.319 344.788C195.286 344.78 195.262 344.778 195.255 344.778C195.267 344.778 195.309 344.778 195.394 344.772C195.498 344.764 195.639 344.748 195.818 344.724M195.121 345.505L195.858 345.369C195.827 345.2 195.813 344.986 195.818 344.724M229.987 340.103C237.666 340.591 243.17 341.087 246.506 341.575C249.843 342.063 251.678 342.168 252.01 341.575L264.025 320.255C264.528 319.366 262.442 315.933 257.855 310.034C253.268 304.04 247.01 293.236 242.756 277.221L241.505 271.131C240.588 267.001 239.752 262.288 238.835 256.981L246.344 243.712M229.987 340.103L230.034 339.354C230.036 339.354 230.037 339.354 230.038 339.354M229.987 340.103L230.041 339.355C230.04 339.355 230.039 339.354 230.038 339.354M246.344 243.712C246.174 243.415 245.426 242.431 244.006 240.566C242.586 238.702 241.75 237.421 241.335 236.637C238.827 231.827 237.244 229.954 236.578 231.235L224.564 252.459C223.891 253.644 223.81 256.685 224.394 261.599C225.482 271.523 227.649 283.207 229.402 291.955M246.344 243.712L245.693 244.085C245.662 244.03 245.588 243.922 245.462 243.746M246.344 243.712L245.691 243.342L245.462 243.746M229.402 291.955L230.138 291.808C230.138 291.807 230.138 291.806 230.137 291.806M229.402 291.955L230.137 291.803C230.137 291.804 230.137 291.805 230.137 291.806M230.137 291.806C228.385 283.062 226.223 271.406 225.14 261.518L225.14 261.518L225.139 261.511C224.849 259.071 224.727 257.12 224.757 255.646C224.789 254.133 224.98 253.245 225.216 252.83L225.217 252.829L237.198 231.663M230.137 291.806C230.578 293.93 231.296 295.498 231.904 296.527C232.208 297.042 232.484 297.419 232.682 297.662C232.722 297.711 232.759 297.755 232.791 297.792M237.198 231.663L230.038 339.354M237.198 231.663C237.215 231.675 237.234 231.689 237.254 231.705C237.374 231.798 237.522 231.94 237.701 232.145C238.429 232.981 239.417 234.58 240.67 236.983L240.672 236.987C241.115 237.826 241.981 239.145 243.409 241.021C244.12 241.954 244.66 242.663 245.043 243.176C245.221 243.415 245.359 243.603 245.462 243.746M237.198 231.663L237.231 231.604L237.238 231.593L237.244 231.581C237.262 231.546 237.274 231.531 237.277 231.528C237.274 231.531 237.261 231.543 237.234 231.558C237.229 231.561 237.223 231.564 237.217 231.567C237.207 231.572 237.197 231.576 237.187 231.579C237.129 231.598 237.08 231.593 237.067 231.589C237.066 231.589 237.081 231.593 237.115 231.611C237.138 231.623 237.165 231.64 237.198 231.663ZM237.198 231.663L251.397 341.137L263.348 319.928C263.348 319.915 263.348 319.897 263.345 319.872C263.336 319.769 263.299 319.605 263.213 319.369C263.041 318.897 262.713 318.249 262.207 317.411C261.198 315.743 259.551 313.437 257.263 310.495L257.259 310.49C252.612 304.416 246.31 293.523 242.031 277.414L242.025 277.393L242.021 277.372L240.772 271.288C239.851 267.139 239.012 262.411 238.096 257.109L238.05 256.845L238.182 256.612L245.462 243.746M232.791 297.792H232.487C232.654 297.792 232.775 297.849 232.8 297.861L232.802 297.862C232.845 297.882 232.876 297.902 232.889 297.911C232.897 297.916 232.904 297.922 232.911 297.926C232.925 297.937 232.934 297.944 232.934 297.944C232.935 297.945 232.935 297.945 232.935 297.945C232.935 297.945 232.925 297.936 232.904 297.915C232.876 297.886 232.838 297.846 232.791 297.792ZM199.078 280.11C199.245 281.079 199.41 282.038 199.573 282.985C201.15 292.138 202.55 300.26 203.171 307.302C203.862 315.132 203.604 321.737 201.491 327.016C199.448 332.12 197.935 336.225 196.985 339.327C196.51 340.878 196.181 342.164 195.995 343.191C195.881 343.82 195.827 344.327 195.818 344.724M195.818 344.724C195.933 344.708 196.064 344.689 196.211 344.666C196.962 344.547 198.092 344.331 199.625 343.988C202.545 343.337 205.837 342.771 209.538 342.136C209.775 342.095 210.015 342.054 210.255 342.012L210.256 342.012C211.778 341.752 213.288 341.484 214.763 341.221C217.15 340.797 219.443 340.389 221.54 340.062C224.922 339.535 227.897 339.2 230.038 339.354M251.428 341.123C251.43 341.122 251.431 341.121 251.431 341.121C251.431 341.121 251.43 341.122 251.428 341.123ZM219.765 346.149L219.795 346.144L219.825 346.137C219.975 346.1 220.014 346.138 220.039 346.163L220.04 346.164C220.1 346.223 220.178 346.363 220.202 346.583C220.225 346.799 220.184 346.995 220.121 347.112C220.069 347.209 220.033 347.212 220.006 347.214L220.005 347.214L219.966 347.216L219.927 347.223C219.157 347.361 218.459 347.487 217.819 347.603C215.255 348.065 213.614 348.361 212.029 348.596C209.85 348.906 207.026 349.816 202.608 351.486L202.518 351.52L202.518 351.52C202.526 351.22 202.672 350.788 203.03 350.464C209.039 347.704 211.5 347.354 215.996 346.714C217.101 346.557 218.33 346.382 219.765 346.149ZM202.31 351.649C202.31 351.649 202.313 351.647 202.319 351.646C202.313 351.649 202.31 351.649 202.31 351.649ZM202.545 351.744C202.548 351.749 202.549 351.752 202.549 351.752C202.549 351.752 202.547 351.75 202.545 351.744ZM231.145 315.324C231.23 315.34 231.301 315.343 231.34 315.344C231.472 315.346 231.628 315.33 231.777 315.311C232.074 315.274 232.501 315.202 233.039 315.11C233.06 315.116 233.078 315.134 233.105 315.181C233.166 315.288 233.212 315.485 233.19 315.724C233.169 315.965 233.088 316.142 233.015 316.227C232.97 316.28 232.955 316.282 232.899 316.27L232.743 316.238L232.586 316.272C232.394 316.314 232.224 316.35 232.076 316.381V316.302L231.188 316.468L229.681 316.75C229.484 316.74 229.431 316.687 229.422 316.677C229.405 316.66 229.324 316.559 229.324 316.221C229.324 315.86 229.395 315.696 229.443 315.629C229.473 315.588 229.535 315.52 229.754 315.492C229.754 315.492 229.755 315.492 229.756 315.492L231.145 315.324ZM245.75 278.117C245.335 276.212 244.695 273.366 243.832 269.579C243.842 269.264 243.907 269.132 243.939 269.092C243.95 269.077 243.96 269.068 243.979 269.06C244.003 269.05 244.06 269.032 244.169 269.032C244.423 269.032 244.483 269.096 244.491 269.105C244.507 269.121 244.588 269.221 244.588 269.563V269.646L244.606 269.728L247.101 280.802C247.104 280.821 247.107 280.836 247.11 280.847C247.115 280.871 247.122 280.895 247.127 280.914C247.138 280.953 247.152 281.001 247.169 281.055C247.202 281.163 247.251 281.314 247.315 281.507C247.442 281.894 247.633 282.459 247.889 283.204C248.389 284.661 249.14 286.812 250.149 289.665C250.095 289.888 250.007 290.01 249.943 290.069C249.866 290.14 249.796 290.153 249.742 290.147C249.679 290.14 249.335 290.03 249.335 289.306V289.167L249.285 289.036C248.242 286.335 247.472 284.324 246.974 282.979C246.724 282.304 246.546 281.804 246.435 281.471C246.387 281.325 246.356 281.221 246.337 281.153C246.338 281.107 246.336 281.071 246.334 281.054C246.33 280.992 246.32 280.921 246.31 280.857C246.29 280.721 246.254 280.529 246.207 280.288C246.111 279.801 245.958 279.076 245.75 278.117ZM246.153 281.636C246.174 281.612 246.191 281.588 246.206 281.566C246.191 281.589 246.173 281.613 246.153 281.636L246.153 281.636ZM191.097 270.513L202.303 250.626C202.501 250.597 202.765 250.633 203.113 250.778C203.583 250.975 204.101 251.33 204.607 251.77C205.107 252.205 205.565 252.695 205.916 253.126C206.114 253.369 206.261 253.573 206.36 253.725L195.234 273.605C195.204 273.569 195.175 273.532 195.145 273.495C194.745 273.005 194.224 272.451 193.644 271.952C193.07 271.458 192.406 270.992 191.719 270.711C191.52 270.63 191.311 270.561 191.097 270.513Z" stroke="white" stroke-width="1.5"/>
<path d="M386.306 327.423L396.299 315.654C396.276 315.793 396.252 315.939 396.227 316.09C395.926 317.915 395.468 320.564 394.843 324.052C393.601 330.982 392.918 335.381 392.915 337.336L392.161 358.137C392.036 360.2 391.933 361.781 391.831 362.883C391.779 363.437 391.73 363.852 391.68 364.141C391.656 364.283 391.634 364.378 391.617 364.436L376.47 382.276C376.379 381.856 376.279 381.304 376.173 380.61C375.843 378.449 375.469 375.055 375.052 370.392L375.052 370.391C373.371 351.828 369.344 340.043 364.299 330.033L364.296 330.026C361.695 324.994 358.929 320.256 355.909 315.71L355.353 314.872L354.709 315.644L350.013 321.274C346.46 321.286 343.299 321.484 340.611 321.765L339.896 321.84L339.94 322.557C340.183 326.55 340.653 330 341.214 332.822L326.621 350.184C325.486 343.297 324.642 331.039 324.072 318.552C323.465 305.248 323.173 291.755 323.166 284.384L327.488 279.385L327.869 278.945L327.537 278.467C322.082 270.605 318.747 263.649 317.468 257.589L332.17 240.274C333.589 246.492 336.669 252.443 340.647 258.397C344.401 264.017 348.987 269.682 353.777 275.6C354.47 276.457 355.168 277.319 355.869 278.188C366.879 291.948 378.807 307.367 385.019 327.162L385.426 328.459L386.306 327.423ZM334.149 347.823L333.991 347.866L333.866 347.971C331.185 350.226 330.104 352.116 328.531 354.865C328.328 355.221 328.117 355.59 327.892 355.977C327.772 356.117 327.65 356.164 327.551 356.175C327.432 356.189 327.296 356.155 327.179 356.073C327.062 355.992 326.983 355.878 326.954 355.753C326.928 355.638 326.93 355.46 327.071 355.218C327.298 354.838 327.51 354.482 327.71 354.145C328.66 352.543 329.346 351.388 330.124 350.335C331.034 349.103 332.074 348.007 333.822 346.547C333.871 346.535 333.901 346.55 333.942 346.579C334.037 346.646 334.162 346.806 334.243 347.05C334.322 347.291 334.325 347.518 334.283 347.663C334.249 347.781 334.206 347.807 334.149 347.823ZM337.287 343.734L337.283 343.738L336.869 344.226C336.727 344.394 336.635 344.392 336.608 344.391C336.556 344.388 336.456 344.355 336.352 344.237C336.138 343.998 336.085 343.634 336.341 343.333L336.755 342.845C336.836 342.75 336.898 342.704 336.936 342.683C336.969 342.665 336.984 342.665 336.989 342.665H336.989C336.994 342.665 337.093 342.668 337.282 342.848C337.449 343.088 337.482 343.242 337.482 343.331C337.482 343.413 337.455 343.54 337.287 343.734ZM339.356 315.492L339.491 317.317L340.676 315.922L348.688 306.486L349.086 306.017L348.704 305.535L344.117 299.741L344.109 299.731L344.101 299.721C342.533 297.874 341.043 295.92 339.621 294.053L338.206 292.197L338.274 294.53C338.519 302.899 338.941 309.889 339.356 315.492ZM383.148 315.236V315.193L383.143 315.15C383.044 314.289 382.58 312.967 381.832 311.241C381.072 309.487 379.979 307.236 378.559 304.48L378.557 304.476C375.753 299.13 373.86 294.972 372.873 292.085C372.848 291.814 372.914 291.679 372.955 291.623C373 291.56 373.068 291.52 373.158 291.51C373.252 291.5 373.357 291.526 373.444 291.591C373.523 291.651 373.612 291.763 373.645 291.974L373.655 292.039L373.676 292.1C374.867 295.607 376.898 299.775 379.659 304.609C382.364 309.44 383.719 313.025 383.98 315.417C383.929 315.693 383.827 315.838 383.753 315.906C383.674 315.98 383.598 315.996 383.539 315.991C383.478 315.985 383.394 315.953 383.316 315.855C383.238 315.756 383.148 315.565 383.148 315.236Z" stroke="#4D0099" stroke-width="1.5"/>
<path d="M448.351 257.589L463.053 240.274C464.472 246.492 467.552 252.443 471.529 258.397C475.284 264.017 479.87 269.682 484.66 275.6C485.353 276.457 486.052 277.32 486.752 278.188C497.762 291.948 509.69 307.368 515.902 327.162L516.309 328.459L517.189 327.423L527.182 315.654C527.159 315.793 527.135 315.939 527.11 316.09C526.808 317.915 526.35 320.564 525.726 324.052C524.484 330.982 523.801 335.38 523.798 337.335L523.044 358.137C522.918 360.2 522.816 361.781 522.714 362.883C522.662 363.437 522.613 363.852 522.563 364.141C522.539 364.283 522.517 364.378 522.5 364.436L507.353 382.276C507.261 381.856 507.162 381.304 507.056 380.61C506.726 378.449 506.352 375.055 505.935 370.392L505.934 370.391C504.254 351.828 500.227 340.043 495.182 330.033L495.179 330.026C492.578 324.994 489.812 320.256 486.792 315.71L486.236 314.872L485.591 315.644L480.896 321.274C477.343 321.286 474.182 321.484 471.493 321.765L470.779 321.84L470.823 322.557C471.066 326.552 471.543 330.001 472.097 332.821L457.504 350.184C456.369 343.297 455.524 331.039 454.955 318.552C454.348 305.248 454.056 291.755 454.049 284.384L458.371 279.385L458.752 278.945L458.42 278.467C452.971 270.605 449.63 263.649 448.351 257.589ZM465.032 347.823L464.874 347.866L464.749 347.971C462.068 350.226 460.987 352.116 459.414 354.865C459.211 355.221 459 355.59 458.775 355.977C458.654 356.117 458.533 356.164 458.434 356.175C458.314 356.189 458.179 356.155 458.061 356.073C457.945 355.992 457.866 355.878 457.837 355.753C457.81 355.638 457.813 355.46 457.954 355.218C458.181 354.838 458.392 354.482 458.592 354.145C459.543 352.543 460.229 351.388 461.007 350.335C461.917 349.103 462.957 348.007 464.705 346.547C464.754 346.535 464.784 346.55 464.825 346.579C464.92 346.646 465.045 346.806 465.125 347.05C465.205 347.291 465.207 347.518 465.166 347.663C465.132 347.781 465.089 347.807 465.032 347.823ZM468.17 343.734L468.166 343.738L467.752 344.226C467.609 344.394 467.517 344.392 467.491 344.391C467.439 344.388 467.339 344.355 467.234 344.237C467.02 343.998 466.968 343.634 467.223 343.333L467.638 342.845C467.719 342.75 467.781 342.704 467.819 342.683C467.852 342.665 467.867 342.665 467.871 342.665H467.871C467.877 342.665 467.976 342.668 468.165 342.848C468.332 343.088 468.365 343.242 468.365 343.331C468.365 343.413 468.337 343.54 468.17 343.734ZM470.239 315.492L470.374 317.317L471.559 315.922L479.571 306.486L479.969 306.017L479.587 305.535L475 299.741L474.992 299.731L474.984 299.721C473.416 297.874 471.926 295.92 470.503 294.053L469.089 292.197L469.157 294.53C469.402 302.899 469.824 309.889 470.239 315.492ZM514.031 315.236V315.193L514.026 315.15C513.926 314.289 513.463 312.967 512.715 311.241C511.954 309.487 510.862 307.236 509.442 304.48L509.44 304.476C506.636 299.13 504.743 294.972 503.756 292.085C503.731 291.814 503.796 291.679 503.837 291.623C503.883 291.56 503.951 291.52 504.041 291.51C504.135 291.5 504.24 291.526 504.327 291.591C504.406 291.651 504.495 291.763 504.528 291.974L504.538 292.039L504.559 292.1C505.75 295.607 507.781 299.775 510.542 304.609C513.247 309.44 514.601 313.025 514.862 315.417C514.812 315.693 514.71 315.838 514.636 315.906C514.557 315.98 514.481 315.996 514.422 315.991C514.361 315.985 514.277 315.953 514.199 315.855C514.121 315.756 514.031 315.565 514.031 315.236Z" stroke="#4D0099" stroke-width="1.5"/>
<path d="M528.703 290.478L529.094 290.012L528.719 289.533C526.782 287.057 525.591 285.002 525.067 283.368C524.546 281.742 524.72 280.666 525.29 279.956L541.197 261.125C542.105 260.241 543.96 259.49 546.971 259.201C562.36 257.924 573.969 259.017 581.807 262.477C589.688 266.006 594.661 270.803 597.196 276.336C599.733 281.872 599.874 288.239 597.911 294.987L597.91 294.99C595.934 301.87 592.735 307.864 588.301 313.087L572.366 331.854C563.762 341.988 551.747 347.954 541.283 343.44L541.283 343.44L541.273 343.435C532.757 339.913 526.31 336.265 521.878 332.504C517.447 328.744 515.09 324.921 514.617 321.044L514.617 321.044L514.616 321.036C513.553 313.061 515.347 306.405 519.789 301.081C519.789 301.08 519.79 301.08 519.79 301.079L528.703 290.478ZM562.345 293.859C563.115 295.234 563.499 296.373 563.505 297.271L548.883 314.493C548.643 313.471 548.18 312.386 547.523 311.248C546.438 309.371 544.787 307.283 542.592 305.001L542.592 305.001L542.587 304.996C538.265 300.592 534.268 296.18 530.609 291.871L530.201 291.39L529.657 291.71L529.507 291.798H529.379H528.781L528.648 292.381C527.422 297.733 528.753 303.442 532.41 309.348C536.107 315.37 543.895 321.384 552.789 324.524C561.695 327.667 571.869 327.98 580.265 322.35L580.435 322.237L580.523 322.053C585.048 312.644 586.376 301.896 581.894 293.104C577.395 284.276 567.169 277.662 549.122 276.274L547.25 276.13L548.508 277.524C549.715 278.861 550.957 280.201 552.187 281.527C554.559 284.085 556.887 286.595 558.829 288.947C560.298 290.726 561.517 292.381 562.345 293.859ZM576.705 338.493L576.782 338.451L576.846 338.392C582.542 333.192 585.507 328.18 588.95 320.97L588.991 320.886L589.009 320.793C589.035 320.666 589.071 320.595 589.095 320.559C589.119 320.525 589.136 320.515 589.143 320.512C589.154 320.506 589.212 320.484 589.324 320.53C589.536 320.617 589.77 320.885 589.718 321.302C585.792 329.686 583.1 334.085 576.736 339.708C576.66 339.715 576.612 339.694 576.578 339.672C576.509 339.629 576.422 339.53 576.372 339.368C576.268 339.037 576.368 338.68 576.705 338.493ZM555.411 316.013L569.962 298.876C570.064 299.787 570.235 300.793 570.484 301.743C570.707 302.592 571 303.428 571.381 304.119C571.592 304.502 571.848 304.872 572.159 305.175L557.186 322.81C557.034 322.656 556.877 322.445 556.72 322.163C556.419 321.626 556.168 320.924 555.968 320.141C555.6 318.702 555.435 317.101 555.411 316.013Z" stroke="#4D0099" stroke-width="1.5"/>
<path d="M414.746 369.204V369.287L414.764 369.369L417.259 380.443C417.262 380.46 417.264 380.473 417.267 380.483C417.272 380.507 417.278 380.529 417.283 380.547C417.292 380.583 417.305 380.626 417.32 380.673C417.349 380.769 417.392 380.902 417.447 381.071C417.558 381.41 417.724 381.904 417.946 382.553C418.272 383.509 418.722 384.806 419.298 386.446C419.072 386.316 418.846 386.186 418.619 386.055C418.542 386.01 418.464 385.966 418.386 385.921C417.721 384.189 417.228 382.885 416.905 381.997C416.736 381.53 416.617 381.187 416.545 380.96C416.523 380.888 416.506 380.834 416.496 380.795C416.497 380.754 416.495 380.721 416.494 380.705C416.491 380.64 416.481 380.567 416.472 380.502C416.451 380.365 416.416 380.172 416.369 379.93C416.274 379.443 416.122 378.717 415.913 377.758C415.498 375.853 414.857 373.006 413.99 369.22C414 368.905 414.066 368.773 414.097 368.733C414.108 368.718 414.118 368.709 414.137 368.701C414.161 368.691 414.218 368.673 414.327 368.673C414.576 368.673 414.638 368.737 414.648 368.748C414.666 368.766 414.746 368.869 414.746 369.204ZM416.311 381.278L416.311 381.278C416.314 381.274 416.317 381.271 416.319 381.268C416.317 381.271 416.314 381.274 416.311 381.278Z" stroke="#4D0099" stroke-width="1.5"/>
<path d="M452.964 312.372C452.916 312.682 452.864 313.014 452.806 313.368C452.481 315.377 452.001 318.044 451.384 320.846C450.767 323.651 450.015 326.578 449.148 329.113C448.272 331.673 447.308 333.739 446.303 334.898L446.298 334.904L430.948 352.983C430.245 353.81 429.77 353.999 429.433 353.999H429.415L429.397 354C424.362 354.24 419.811 353.555 415.703 352.141L413.394 351.346L414.858 353.3C415.226 353.791 415.487 354.141 415.656 354.376L408.377 367.232L408.245 367.465L408.291 367.729C409.207 373.031 410.046 377.759 410.967 381.908C410.967 381.91 410.968 381.912 410.968 381.914L412.216 387.992L412.22 388.012L412.225 388.032C412.801 390.217 413.418 392.303 414.065 394.295C412.441 393.287 410.835 392.245 409.254 391.161C405.997 388.927 402.824 386.522 399.785 383.911C399.331 383.516 398.976 383.239 398.705 383.084C398.559 382.918 398.415 382.748 398.275 382.584L398.205 382.501C398.022 382.285 397.836 382.067 397.676 381.905L397.675 381.903C397.365 381.59 397.066 381.273 396.761 380.95C396.658 380.841 396.555 380.732 396.45 380.622C396.022 377.721 395.643 374.858 395.342 372.136L395.341 372.13C395.051 369.691 394.931 367.738 394.962 366.263C394.995 364.749 395.186 363.86 395.419 363.449C395.419 363.449 395.419 363.449 395.419 363.448L404.837 346.816L405.145 346.27L404.664 345.87C397.01 339.498 391.658 330.047 388.439 319.838L388.438 319.835C385.422 310.392 384.267 300.315 384.845 291.444C385.425 282.549 387.74 274.975 391.552 270.438C391.553 270.438 391.553 270.438 391.553 270.438L406.82 252.361C406.82 252.361 406.82 252.361 406.82 252.36C407.3 251.796 407.854 251.235 408.401 250.779L408.401 250.779L408.408 250.773C413.192 246.676 417.691 244.845 421.925 244.587C426.164 244.328 430.227 245.641 434.144 247.996L434.69 248.325L435.102 247.839L441.673 240.093C441.755 240.326 441.848 240.59 441.952 240.883C442.087 241.264 442.24 241.695 442.409 242.174C443.139 244.237 444.201 247.257 445.577 251.232L445.577 251.233C446.956 255.209 447.978 258.201 448.655 260.223C448.993 261.235 449.244 262.001 449.41 262.525C449.468 262.708 449.515 262.86 449.552 262.98L435.048 280.062C430.395 274.175 425.305 268.584 419.748 265.01C413.936 261.273 407.553 259.71 400.637 262.372L400.281 262.509L400.182 262.879C396.887 275.238 398.162 292.604 404.05 307.367C409.941 322.142 420.792 334.692 437.255 337.107L437.966 337.211L438.1 336.506C438.56 334.096 438.894 332.197 439.114 330.799C439.292 329.666 439.402 328.825 439.435 328.306L452.964 312.372Z" stroke="#4D0099" stroke-width="1.5"/>
<path d="M405.155 300.666L405.154 300.654L405.153 300.641C405.074 299.687 405.074 299.023 405.074 298.638C405.074 298.268 405.149 298.118 405.183 298.072C405.195 298.057 405.206 298.048 405.226 298.039C405.25 298.029 405.306 298.011 405.412 298.011C405.609 298.011 405.674 298.07 405.702 298.104C405.747 298.156 405.826 298.302 405.823 298.632L405.823 298.632V298.638V298.644C405.823 299.033 405.823 299.65 405.906 300.37C405.916 300.666 405.835 300.838 405.762 300.93C405.684 301.03 405.585 301.078 405.496 301.09C405.406 301.102 405.335 301.077 405.288 301.037C405.248 301.003 405.167 300.909 405.155 300.666Z" stroke="#4D0099" stroke-width="1.5"/>
<path d="M422.353 324.316L422.338 324.297L422.323 324.279C418.493 319.96 415.795 316.983 414.179 315.48C412.696 314.1 410.333 310.672 407.249 305.179C407.147 304.953 407.156 304.783 407.191 304.668C407.23 304.54 407.315 304.438 407.415 304.377C407.516 304.315 407.606 304.309 407.666 304.324C407.711 304.335 407.814 304.378 407.917 304.58L407.923 304.591L407.929 304.602C410.842 309.891 413.227 313.431 414.908 315.001C416.475 316.562 419.119 319.382 422.847 323.383C423.021 323.657 422.964 324.005 422.733 324.255C422.618 324.38 422.518 324.41 422.483 324.413C422.47 324.414 422.462 324.412 422.452 324.407C422.441 324.402 422.405 324.382 422.353 324.316Z" stroke="#4D0099" stroke-width="1.5"/>
<path d="M319.602 262.998L305.1 280.078C300.446 274.187 295.356 268.593 289.799 265.02C283.987 261.282 277.604 259.722 270.688 262.388L270.332 262.526L270.233 262.894C266.93 275.254 268.206 292.62 274.101 307.383C279.992 322.158 290.843 334.717 307.306 337.123L308.017 337.227L308.152 336.521C308.611 334.108 308.946 332.209 309.165 330.811C309.344 329.68 309.453 328.841 309.486 328.322L323.015 312.388C322.967 312.697 322.915 313.03 322.858 313.383C322.532 315.391 322.052 318.057 321.436 320.859C320.818 323.663 320.066 326.59 319.199 329.125C318.323 331.685 317.359 333.753 316.354 334.915L316.349 334.92L300.999 352.999C300.297 353.826 299.821 354.015 299.484 354.015H299.466L299.448 354.016C277.675 355.072 264.453 338.778 258.49 319.862L258.489 319.86C255.473 310.416 254.316 300.342 254.894 291.472C255.472 282.578 257.787 275.005 261.604 270.463C261.604 270.463 261.604 270.463 261.604 270.462L276.863 252.386C276.864 252.386 276.864 252.386 276.864 252.386C277.34 251.824 277.896 251.269 278.449 250.799L278.451 250.798C283.235 246.706 287.736 244.876 291.972 244.618C296.212 244.36 300.275 245.671 304.188 248.021L304.734 248.35L305.146 247.864L311.724 240.109C311.799 240.321 311.884 240.559 311.977 240.822C312.118 241.221 312.28 241.676 312.46 242.187C313.19 244.249 314.253 247.268 315.628 251.248C317.003 255.229 318.025 258.224 318.703 260.246C319.042 261.258 319.294 262.024 319.461 262.547C319.519 262.728 319.565 262.878 319.602 262.998ZM275.221 300.683L275.22 300.667L275.219 300.652C275.133 299.701 275.133 299.039 275.133 298.655V298.654C275.133 298.281 275.207 298.131 275.24 298.087C275.252 298.072 275.262 298.064 275.281 298.056C275.305 298.045 275.362 298.028 275.471 298.028C275.677 298.028 275.74 298.087 275.766 298.118C275.809 298.168 275.889 298.314 275.889 298.654V298.66C275.889 299.049 275.889 299.665 275.972 300.384C275.981 300.68 275.899 300.853 275.826 300.946C275.747 301.046 275.648 301.094 275.559 301.106C275.47 301.118 275.4 301.093 275.354 301.054C275.315 301.02 275.233 300.926 275.221 300.683ZM292.413 324.334L292.397 324.314L292.381 324.295C288.551 319.984 285.853 317.008 284.239 315.497L284.237 315.496C282.754 314.116 280.39 310.688 277.307 305.185C277.203 304.96 277.211 304.792 277.246 304.678C277.284 304.551 277.368 304.449 277.469 304.387C277.57 304.325 277.661 304.318 277.722 304.333C277.769 304.345 277.873 304.388 277.977 304.59L277.982 304.599L277.987 304.608C280.893 309.908 283.271 313.44 284.96 315.018C286.526 316.569 289.168 319.388 292.904 323.398C293.082 323.678 293.021 324.029 292.792 324.277C292.677 324.402 292.578 324.431 292.544 324.433C292.532 324.434 292.525 324.433 292.514 324.428C292.503 324.423 292.466 324.402 292.413 324.334Z" stroke="#4D0099" stroke-width="1.5"/>
<path d="M103.701 352.919C103.631 352.923 103.524 352.923 103.37 352.912C102.926 352.879 102.261 352.765 101.349 352.565L101.343 352.564C91.5354 350.507 83.4032 347.967 76.8631 345.336C73.4703 343.971 68.4635 343.03 62.9225 342.512C57.3667 341.992 51.2159 341.891 45.5041 342.233L45.4963 342.234L45.4886 342.234C41.6959 342.541 37.8391 343.756 33.8338 346.061L33.7207 346.126L33.6362 346.226L25.9189 355.315C26.0843 353.558 26.1414 351.298 26.124 348.785C26.1 345.302 25.9321 341.276 25.6916 337.307C25.2116 329.386 24.4385 321.632 23.93 318.877L23.9298 318.875C23.2432 315.187 22.6421 311.75 22.0763 308.515C19.0824 291.398 17.0778 279.936 8.64267 266.826L8.49646 266.599L8.23893 266.517C7.83139 266.387 7.4473 266.264 7.08802 266.149C6.50117 265.96 5.98053 265.793 5.53201 265.655C5.36023 265.603 5.19522 265.553 5.03752 265.507L6.16454 264.18L6.52383 263.757L6.22409 263.289C5.01135 261.399 3.21183 259.075 0.976639 256.34L15.3363 239.428C18.5524 243.428 21.0068 246.801 22.7262 249.558L22.8625 249.776L23.1042 249.865C26.8408 251.237 31.5053 253.097 37.2587 255.457C48.8039 260.218 62.8374 262.292 75.9987 262.292H93.6496L79.5725 278.872C77.4746 278.873 75.4597 278.883 73.5032 278.893C61.905 278.954 52.359 279.003 39.7473 277.016L39.7452 277.016C37.8523 276.723 35.9552 276.336 34.1492 275.856L32.9604 275.54L33.2238 276.741C33.9742 280.164 34.6376 283.878 35.3027 287.899C35.9002 291.512 36.6344 295.362 37.439 299.582C37.5292 300.055 37.6203 300.533 37.7122 301.015C37.722 301.87 37.9011 303.089 38.1361 304.506L38.4007 306.102L39.4477 304.869L49.7769 292.704C55.5407 293.454 61.7027 293.733 68.2544 293.545C68.9897 293.535 69.7218 293.524 70.4507 293.513C75.7515 293.436 80.8797 293.362 85.7984 293.347L71.7232 309.925C66.6492 309.929 61.336 310.023 55.7898 310.125C50.1313 310.221 44.7328 310.125 39.5911 309.735L38.7195 309.669L38.7866 310.54C39.4533 319.195 40.1133 331.031 39.7036 336.856L39.5431 339.138L41.0235 337.395L43.6128 334.345C45.7334 331.847 48.8234 329.768 52.0259 328.262C55.2247 326.758 58.4675 325.858 60.859 325.669C70.5604 325.185 81.9887 326.158 88.5703 327.808L89.6232 328.072L89.4977 326.994C89.2632 324.979 89.3268 322.951 89.555 320.803L103.221 304.623C102.536 313.793 105.002 321.169 110.853 326.552L110.854 326.553C113.896 329.344 116.062 331.506 117.389 333.043C118.058 333.817 118.486 334.401 118.711 334.81C118.778 334.931 118.819 335.022 118.842 335.085L103.701 352.919ZM118.974 334.93L118.971 334.934C118.972 334.933 118.973 334.931 118.974 334.93ZM43.0438 321.67V321.636L43.0407 321.602L42.5377 316.095L42.5368 316.086C42.5052 315.782 42.5499 315.636 42.5914 315.563C42.6234 315.506 42.6937 315.421 42.8901 315.332C43.0575 315.324 43.1294 315.368 43.1558 315.389C43.1878 315.415 43.2665 315.5 43.2932 315.748C43.2934 315.749 43.2936 315.751 43.2938 315.753L43.7933 321.508L43.8742 327.072C43.8742 327.074 43.8742 327.076 43.8742 327.077C43.8734 327.414 43.7935 327.558 43.751 327.608C43.7249 327.639 43.6622 327.699 43.4553 327.699C43.2584 327.699 43.1964 327.641 43.1683 327.608C43.1235 327.554 43.0438 327.406 43.0438 327.072V321.67ZM43.9135 251.585L43.9326 251.534L43.9441 251.481C44.0033 251.208 44.0886 251.155 44.0946 251.152C44.0989 251.149 44.15 251.118 44.2964 251.137C44.7057 251.453 45.1765 251.65 45.6169 251.762L45.7073 251.784H45.8005C45.8644 251.784 45.9251 251.805 45.9972 251.897C46.0801 252.003 46.1506 252.178 46.1672 252.383C46.184 252.59 46.1402 252.751 46.0872 252.838C46.0534 252.893 46.019 252.923 45.941 252.933C45.5386 252.926 45.0121 252.785 44.2625 252.347L44.1749 252.296L44.0769 252.27C43.8649 252.214 43.8383 252.143 43.8343 252.133L43.834 252.132C43.8186 252.094 43.7812 251.938 43.9135 251.585ZM51.0053 254.049L51.0264 253.995L51.0387 253.938C51.0977 253.666 51.1832 253.612 51.1913 253.606C51.1996 253.601 51.283 253.552 51.5395 253.617C53.017 254.001 54.3144 254.326 55.4516 254.61C56.967 254.99 58.1978 255.298 59.1905 255.58C60.8928 256.077 62.3332 256.379 63.5249 256.583L63.5348 256.585L63.5448 256.586C63.6911 256.607 63.8661 256.638 64.0593 256.672C64.5958 256.767 65.2728 256.886 65.8685 256.89C67.0374 256.986 68.5446 257.09 70.3041 257.091C72.0768 257.186 74.5869 257.186 77.9667 257.186H77.9962C78.1051 257.186 78.1618 257.204 78.1857 257.214C78.2049 257.223 78.2149 257.231 78.2263 257.246C78.2599 257.29 78.3337 257.44 78.3337 257.813C78.3337 258.19 78.2581 258.293 78.2512 258.301C78.2498 258.303 78.2493 258.303 78.248 258.304C78.2476 258.304 78.2468 258.305 78.2454 258.306C78.2421 258.308 78.2357 258.311 78.2249 258.315C78.1927 258.327 78.1238 258.344 77.9982 258.344C76.5376 258.335 75.2483 258.329 74.101 258.324C68.6929 258.301 66.4377 258.292 64.2506 257.965C62.5994 257.719 61.0101 257.297 58.1722 256.543C56.4162 256.076 54.1822 255.483 51.1596 254.726C50.9544 254.67 50.9279 254.601 50.9236 254.59L50.9233 254.589C50.908 254.551 50.8716 254.395 51.0053 254.049ZM83.6958 279.951L83.6379 279.942L83.5793 279.943C83.5371 279.944 83.4946 279.946 83.4518 279.949L96.5278 264.548C97.1017 264.145 97.5939 263.849 98.0033 263.665C98.4469 263.464 98.7072 263.434 98.8339 263.452C99.2888 263.518 99.9384 263.542 100.736 263.55L86.661 280.039C85.2332 280.038 84.2501 280.031 83.6958 279.951Z" stroke="white" stroke-width="1.5"/>
<path d="M107.946 267.028L117.363 255.938L117.834 255.383L117.293 254.895C109.141 247.544 104.166 241.259 102.226 235.94L102.225 235.936C101.218 233.223 100.31 231.057 99.5113 229.463C99.1121 228.666 98.7339 228 98.3776 227.474C98.2143 227.233 98.0487 227.011 97.8802 226.815L112.256 209.883C112.379 210.031 112.514 210.212 112.663 210.43C113.044 210.987 113.479 211.736 113.967 212.689C114.941 214.596 116.099 217.269 117.429 220.746L117.429 220.747C120.179 227.927 127.251 234.938 135.204 241.244C141.514 246.248 148.47 250.876 154.433 254.844C156.006 255.891 157.511 256.892 158.916 257.842C172.358 266.932 183.753 278.326 190.27 292.701C193.46 299.927 194.533 308.231 193.465 317.751C192.896 322.63 191.194 326.808 188.217 330.315L107.946 267.028ZM107.946 267.028C109.732 268.527 111.555 271.158 113.355 274.453C115.396 278.187 117.467 282.89 119.46 288.057C123.448 298.394 127.152 310.653 129.71 320.888L129.868 321.52L129.264 321.765C126.669 322.815 124.778 324.13 123.629 325.484L123.629 325.485L108.367 343.45C108.366 343.452 108.365 343.453 108.363 343.455C107.142 344.943 106.849 346.279 107.258 347.539C107.689 348.865 108.951 350.292 111.277 351.778L111.277 351.779C115.918 354.753 121.979 356.785 129.682 358.057L129.683 358.057C137.29 359.322 145.834 359.539 153.614 358.097C161.402 356.654 168.347 353.565 172.866 348.29L107.946 267.028ZM188.216 330.316L172.867 348.289L188.216 330.316ZM140.977 239.789L141.214 240.007L141.536 239.986C141.614 239.98 141.673 240.001 141.745 240.088C141.832 240.193 141.909 240.376 141.929 240.595C141.947 240.789 141.916 240.942 141.873 241.034C139.118 238.804 134.266 234.493 129.691 229.761C127.31 227.299 125.013 224.732 123.129 222.294C121.237 219.846 119.795 217.57 119.084 215.685C119.01 215.487 119.045 215.374 119.082 215.308C119.129 215.224 119.224 215.143 119.352 215.102C119.48 215.06 119.585 215.077 119.644 215.107C119.682 215.127 119.769 215.184 119.813 215.406L119.826 215.467L119.848 215.525C120.257 216.603 121.155 218.117 122.353 219.79C123.559 221.476 125.102 223.367 126.836 225.206C127.141 225.539 127.45 225.876 127.762 226.216C130.851 229.583 134.237 233.275 137.289 236.234C138.967 237.913 140.224 239.095 140.977 239.789ZM132.575 337.239L132.849 336.973L132.795 336.596C132.693 335.868 132.607 335.241 132.533 334.707C132.487 334.371 132.446 334.073 132.409 333.809C132.319 333.167 132.249 332.685 132.192 332.476L131.956 331.618L131.15 331.996C129.486 332.777 127.941 333.447 126.409 333.919L124.969 334.363L126.191 335.244C127.345 336.076 129.069 336.991 131.268 337.883L131.721 338.067L132.072 337.727L132.575 337.239ZM146.081 314.727L146.249 315.671L147.125 315.281C148.076 314.856 148.907 314.489 149.613 314.181L146.75 317.552L146.545 317.794L146.576 318.109C146.741 319.832 146.82 321.163 146.823 322.109L146.695 322.923L133.989 337.897L133.279 338.734L134.316 339.091C146.695 343.356 165.338 344.771 178.824 338.771L179.198 338.605L179.26 338.2L179.593 336.039L179.595 336.026L179.597 336.012C181.627 318.62 175.647 305.181 166.369 294.178C157.281 283.402 145.003 274.934 133.995 267.342C133.795 267.204 133.595 267.066 133.396 266.928L131.351 265.518L132.274 267.824C138.264 282.802 144.004 303.089 146.081 314.727ZM171.93 321.342L171.927 321.286L171.917 321.232L171.251 317.79L171.251 317.789C169.971 311.25 166.893 305.62 162.206 300.902L162.198 300.894L162.19 300.886L162.123 300.823C161.727 300.448 161.36 300.101 161 299.669L160.948 299.607L160.885 299.558C160.377 299.162 159.94 298.813 159.575 298.383L159.462 298.251L159.302 298.181C159.099 298.093 159.015 297.972 158.977 297.858C158.932 297.726 158.935 297.554 158.998 297.386C159.061 297.216 159.163 297.112 159.242 297.069C159.284 297.046 159.342 297.026 159.439 297.057C163.858 300.881 166.654 303.99 168.601 307.551C170.557 311.129 171.686 315.218 172.681 321.057C172.693 321.704 172.36 321.858 172.254 321.874C172.185 321.885 172.131 321.867 172.087 321.826C172.042 321.784 171.943 321.657 171.93 321.342ZM173.597 332.283C173.597 332.625 173.516 332.725 173.5 332.741C173.492 332.75 173.432 332.814 173.178 332.814C173.054 332.814 172.985 332.797 172.953 332.785C172.938 332.78 172.931 332.775 172.929 332.774C172.927 332.773 172.926 332.772 172.924 332.77C172.916 332.76 172.84 332.656 172.84 332.283V327.761C172.84 327.394 172.913 327.242 172.949 327.196C172.961 327.179 172.972 327.171 172.991 327.162C173.015 327.152 173.07 327.134 173.178 327.134C173.385 327.134 173.447 327.194 173.473 327.225C173.516 327.275 173.597 327.421 173.597 327.761V332.283Z" stroke="white" stroke-width="1.5"/>
<path d="M230.038 339.393C237.717 339.881 243.247 340.379 246.615 340.872C248.283 341.116 249.532 341.257 250.395 341.269C250.83 341.276 251.122 341.248 251.302 341.204C251.346 341.193 251.376 341.183 251.397 341.176L263.348 319.967C263.348 319.954 263.348 319.936 263.345 319.911C263.336 319.808 263.299 319.644 263.213 319.408C263.041 318.937 262.713 318.288 262.207 317.45C261.198 315.782 259.551 313.477 257.263 310.534L257.259 310.529C252.612 304.455 246.31 293.562 242.031 277.453L242.025 277.432L242.021 277.411L240.772 271.327C239.851 267.179 239.012 262.45 238.096 257.148L238.05 256.884L238.182 256.651L245.462 243.785C245.359 243.642 245.221 243.454 245.043 243.215C244.66 242.702 244.12 241.993 243.409 241.06C241.981 239.184 241.115 237.865 240.672 237.026L240.67 237.023C239.417 234.619 238.429 233.02 237.701 232.184C237.522 231.979 237.374 231.837 237.254 231.744C237.234 231.728 237.215 231.714 237.198 231.702L225.217 252.868L225.216 252.869C224.98 253.284 224.789 254.172 224.757 255.685C224.727 257.159 224.849 259.11 225.139 261.55L225.14 261.557L225.14 261.557C226.223 271.445 228.385 283.1 230.137 291.844C230.578 293.968 231.296 295.537 231.904 296.566C232.208 297.081 232.484 297.458 232.682 297.701C232.722 297.75 232.759 297.794 232.791 297.831H233.063L233.212 298.387C235.121 305.531 237.366 312.274 240.101 318.62L240.525 319.604L239.455 319.666C234.338 319.959 229.97 320.733 219.525 322.6L219.523 322.601C218.421 322.794 217.393 322.981 216.438 323.154C213.793 323.635 211.703 324.014 210.138 324.161C209.074 324.261 208.16 324.264 207.437 324.079C206.67 323.882 206.063 323.453 205.767 322.699C205.5 322.016 205.536 321.18 205.712 320.261C205.892 319.322 206.242 318.176 206.721 316.805C207.245 315.309 207.943 313.49 208.778 311.315C209.467 309.522 210.248 307.487 211.1 305.194L211.1 305.194C212.967 300.178 213.473 293.864 213.048 286.143C212.652 278.947 211.451 270.587 209.836 261.004L199.078 280.149C199.245 281.119 199.41 282.077 199.573 283.024C201.15 292.177 202.55 300.299 203.171 307.341C203.862 315.171 203.604 321.776 201.491 327.055C199.448 332.159 197.935 336.264 196.985 339.366C196.51 340.917 196.181 342.204 195.995 343.23C195.881 343.859 195.827 344.366 195.818 344.763M230.038 339.393C230.039 339.393 230.04 339.394 230.041 339.394L229.987 340.142L230.034 339.393C230.036 339.393 230.037 339.393 230.038 339.393ZM230.038 339.393C227.897 339.239 224.922 339.574 221.54 340.101C219.443 340.428 217.15 340.836 214.763 341.26C213.288 341.523 211.778 341.791 210.256 342.051L210.255 342.051C210.014 342.093 209.775 342.134 209.537 342.175C205.836 342.811 202.545 343.376 199.625 344.028C198.092 344.37 196.962 344.586 196.211 344.705C196.064 344.728 195.933 344.747 195.818 344.763M195.818 344.763C195.813 345.025 195.827 345.239 195.858 345.408L195.121 345.544L195.692 345.058C195.527 344.863 195.319 344.827 195.319 344.827C195.286 344.819 195.262 344.817 195.255 344.817C195.267 344.817 195.309 344.817 195.394 344.811C195.498 344.803 195.639 344.787 195.818 344.763ZM238.617 318.967C233.769 319.297 229.286 320.094 219.393 321.862C211.69 323.215 207.86 324.175 206.708 322.834C205.353 321.257 207.701 316.498 211.803 305.456L238.617 318.967ZM238.617 318.967C238.652 319.049 238.688 319.132 238.723 319.214L239.412 318.917M238.617 318.967L239.412 318.917M239.412 318.917L239.369 318.168C239.279 318.173 239.189 318.179 239.099 318.184M239.412 318.917L239.099 318.184M239.099 318.184C236.488 312.013 234.33 305.478 232.487 298.581L239.099 318.184ZM251.428 341.162C251.43 341.161 251.431 341.16 251.431 341.16C251.431 341.16 251.43 341.161 251.428 341.162ZM219.765 346.188L219.795 346.183L219.825 346.176C219.975 346.139 220.014 346.177 220.039 346.202L220.04 346.203C220.1 346.262 220.178 346.402 220.202 346.622C220.225 346.838 220.184 347.034 220.121 347.151C220.069 347.248 220.033 347.251 220.006 347.253L220.005 347.253L219.966 347.256L219.927 347.263C219.157 347.4 218.459 347.526 217.819 347.642C215.255 348.104 213.614 348.4 212.029 348.635C209.85 348.945 207.026 349.855 202.608 351.525L202.518 351.559L202.518 351.559C202.526 351.259 202.672 350.827 203.03 350.503C209.039 347.743 211.5 347.393 215.996 346.753C217.101 346.596 218.33 346.421 219.765 346.188ZM202.31 351.688C202.31 351.688 202.313 351.686 202.319 351.685C202.313 351.688 202.31 351.688 202.31 351.688ZM202.545 351.783C202.548 351.788 202.549 351.791 202.549 351.791C202.549 351.791 202.547 351.789 202.545 351.783ZM231.145 315.363C231.23 315.38 231.301 315.382 231.34 315.383C231.472 315.385 231.628 315.369 231.777 315.35C232.074 315.313 232.501 315.241 233.039 315.149C233.06 315.155 233.078 315.173 233.105 315.221C233.166 315.327 233.212 315.524 233.19 315.763C233.169 316.004 233.088 316.181 233.015 316.266C232.97 316.319 232.955 316.321 232.899 316.31L232.743 316.277L232.586 316.311C232.394 316.353 232.224 316.389 232.076 316.42V316.341L231.188 316.507L229.681 316.789C229.484 316.78 229.431 316.726 229.422 316.716C229.405 316.699 229.324 316.598 229.324 316.26C229.324 315.899 229.395 315.735 229.443 315.668C229.473 315.627 229.536 315.559 229.755 315.531C229.755 315.531 229.755 315.531 229.756 315.531L231.145 315.363ZM245.75 278.156C245.335 276.251 244.695 273.405 243.832 269.618C243.842 269.303 243.907 269.171 243.939 269.131C243.95 269.116 243.96 269.107 243.979 269.099C244.003 269.089 244.06 269.071 244.169 269.071C244.423 269.071 244.483 269.135 244.491 269.144C244.507 269.16 244.588 269.26 244.588 269.602V269.685L244.606 269.767L247.101 280.841C247.104 280.86 247.107 280.875 247.11 280.886C247.115 280.911 247.122 280.934 247.127 280.953C247.138 280.993 247.152 281.041 247.169 281.094C247.202 281.202 247.251 281.353 247.315 281.546C247.442 281.933 247.633 282.498 247.889 283.243C248.389 284.7 249.14 286.851 250.149 289.704C250.095 289.927 250.007 290.049 249.943 290.108C249.866 290.179 249.796 290.192 249.742 290.186C249.679 290.179 249.335 290.069 249.335 289.345V289.206L249.285 289.075C248.242 286.374 247.472 284.364 246.974 283.018C246.724 282.343 246.546 281.843 246.435 281.51C246.387 281.364 246.356 281.261 246.337 281.192C246.338 281.147 246.336 281.11 246.334 281.093C246.33 281.031 246.32 280.96 246.31 280.896C246.29 280.76 246.254 280.568 246.207 280.327C246.111 279.84 245.958 279.115 245.75 278.156ZM246.153 281.675C246.174 281.651 246.191 281.627 246.206 281.605C246.191 281.628 246.173 281.652 246.153 281.676L246.153 281.675ZM191.097 270.552L202.303 250.665C202.501 250.636 202.765 250.672 203.113 250.817C203.583 251.014 204.101 251.369 204.607 251.809C205.107 252.244 205.565 252.734 205.916 253.165C206.114 253.408 206.261 253.612 206.36 253.764L195.234 273.644C195.204 273.608 195.175 273.571 195.145 273.535C194.745 273.044 194.224 272.49 193.644 271.991C193.07 271.497 192.406 271.031 191.719 270.75C191.52 270.669 191.311 270.6 191.097 270.552Z" stroke="white" stroke-width="1.5"/>
<mask id="mask0" mask-type="alpha" maskUnits="userSpaceOnUse" x="254" y="238" width="347" height="159">
<path d="M386.306 327.462L396.299 315.693C396.276 315.832 396.252 315.978 396.227 316.128C395.926 317.954 395.468 320.603 394.843 324.091C393.601 331.021 392.918 335.42 392.915 337.375L392.161 358.176C392.036 360.239 391.933 361.82 391.831 362.922C391.779 363.475 391.73 363.891 391.68 364.18C391.656 364.321 391.634 364.417 391.617 364.475L376.47 382.315C376.379 381.895 376.279 381.342 376.173 380.649C375.843 378.488 375.469 375.094 375.052 370.431L375.052 370.43C373.371 351.867 369.344 340.082 364.299 330.072L364.296 330.065C361.695 325.033 358.929 320.295 355.909 315.749L355.353 314.911L354.709 315.683L350.013 321.313C346.46 321.325 343.299 321.523 340.611 321.804L339.896 321.879L339.94 322.596C340.183 326.589 340.653 330.039 341.214 332.861L326.621 350.223C325.486 343.336 324.642 331.078 324.072 318.591C323.465 305.286 323.173 291.793 323.166 284.423L327.488 279.424L327.869 278.984L327.537 278.506C322.082 270.644 318.747 263.688 317.468 257.628L332.17 240.312C333.589 246.531 336.669 252.482 340.647 258.436C344.401 264.055 348.987 269.721 353.777 275.639C354.47 276.496 355.168 277.358 355.869 278.227C366.879 291.987 378.807 307.406 385.019 327.201L385.426 328.498L386.306 327.462ZM391.602 364.52C391.602 364.52 391.603 364.517 391.605 364.512C391.603 364.518 391.602 364.521 391.602 364.52ZM334.149 347.861L333.991 347.905L333.866 348.01C331.185 350.265 330.104 352.155 328.532 354.904C328.328 355.259 328.117 355.629 327.892 356.016C327.772 356.156 327.65 356.203 327.551 356.214C327.432 356.228 327.296 356.194 327.179 356.112C327.062 356.031 326.983 355.917 326.954 355.792C326.928 355.677 326.93 355.499 327.071 355.257C327.298 354.877 327.51 354.52 327.71 354.183C328.66 352.582 329.346 351.427 330.124 350.374C331.034 349.142 332.074 348.046 333.822 346.586C333.871 346.574 333.901 346.589 333.942 346.617C334.037 346.684 334.162 346.845 334.243 347.089C334.322 347.33 334.325 347.557 334.283 347.702C334.249 347.82 334.206 347.846 334.149 347.861ZM337.287 343.773L337.283 343.777L336.869 344.265C336.727 344.433 336.635 344.431 336.608 344.43C336.556 344.427 336.456 344.394 336.352 344.276C336.138 344.037 336.085 343.673 336.341 343.372L336.755 342.884C336.836 342.789 336.898 342.743 336.936 342.722C336.97 342.704 336.985 342.704 336.989 342.704C336.994 342.704 337.093 342.707 337.282 342.887C337.449 343.127 337.482 343.281 337.482 343.37C337.482 343.452 337.455 343.579 337.287 343.773ZM339.356 315.531L339.491 317.356L340.676 315.961L348.688 306.525L349.086 306.056L348.704 305.574L344.117 299.78L344.109 299.769L344.101 299.76C342.533 297.913 341.043 295.959 339.621 294.092L338.206 292.236L338.274 294.569C338.519 302.938 338.941 309.928 339.356 315.531ZM383.148 315.275V315.232L383.143 315.189C383.044 314.328 382.58 313.006 381.832 311.28C381.072 309.526 379.979 307.275 378.559 304.519L378.557 304.515C375.753 299.169 373.86 295.01 372.873 292.124C372.848 291.853 372.914 291.718 372.955 291.662C373 291.599 373.068 291.559 373.158 291.549C373.252 291.539 373.357 291.564 373.444 291.63C373.523 291.69 373.612 291.802 373.645 292.013L373.655 292.077L373.676 292.139C374.867 295.646 376.898 299.814 379.659 304.648C382.364 309.479 383.719 313.064 383.98 315.456C383.929 315.731 383.827 315.876 383.753 315.945C383.674 316.019 383.598 316.035 383.539 316.03C383.478 316.024 383.394 315.992 383.316 315.893C383.238 315.795 383.148 315.604 383.148 315.275Z" stroke="white" stroke-width="1.5"/>
<path d="M517.189 327.462L527.182 315.693C527.159 315.832 527.135 315.978 527.11 316.128C526.808 317.954 526.35 320.603 525.726 324.091C524.484 331.021 523.801 335.419 523.798 337.374L523.044 358.176C522.918 360.239 522.816 361.82 522.714 362.922C522.662 363.475 522.613 363.891 522.563 364.18C522.539 364.321 522.517 364.417 522.5 364.475L507.353 382.315C507.261 381.895 507.162 381.342 507.056 380.649C506.726 378.488 506.352 375.094 505.935 370.431L505.934 370.43C504.254 351.867 500.227 340.082 495.182 330.072L495.179 330.065C492.578 325.033 489.812 320.295 486.792 315.749L486.236 314.911L485.591 315.683L480.896 321.313C477.343 321.325 474.182 321.523 471.493 321.804L470.779 321.879L470.823 322.596C471.066 326.59 471.543 330.04 472.097 332.86L457.504 350.223C456.369 343.336 455.524 331.078 454.955 318.591C454.348 305.286 454.056 291.793 454.049 284.423L458.371 279.424L458.752 278.984L458.42 278.506C452.971 270.644 449.63 263.687 448.351 257.628L463.053 240.312C464.472 246.531 467.552 252.482 471.529 258.436C475.284 264.055 479.87 269.721 484.66 275.639C485.353 276.496 486.051 277.358 486.752 278.227C497.762 291.987 509.69 307.406 515.902 327.201L516.309 328.498L517.189 327.462ZM522.485 364.52C522.485 364.519 522.486 364.517 522.488 364.512C522.486 364.518 522.485 364.521 522.485 364.52ZM465.032 347.861L464.874 347.905L464.749 348.01C462.068 350.265 460.987 352.155 459.414 354.904C459.211 355.26 459 355.629 458.775 356.016C458.654 356.156 458.533 356.203 458.434 356.214C458.314 356.228 458.179 356.194 458.061 356.112C457.945 356.031 457.866 355.917 457.837 355.792C457.81 355.677 457.813 355.499 457.954 355.257C458.181 354.877 458.392 354.521 458.592 354.184C459.543 352.582 460.229 351.427 461.007 350.374C461.917 349.142 462.957 348.046 464.705 346.586C464.754 346.574 464.784 346.589 464.825 346.617C464.92 346.684 465.045 346.844 465.125 347.089C465.205 347.33 465.207 347.557 465.166 347.702C465.132 347.82 465.089 347.846 465.032 347.861ZM468.17 343.773L468.166 343.777L467.752 344.265C467.609 344.433 467.517 344.431 467.491 344.43C467.439 344.427 467.339 344.394 467.234 344.276C467.02 344.037 466.968 343.673 467.223 343.372L467.638 342.884C467.719 342.789 467.781 342.743 467.819 342.722C467.852 342.704 467.867 342.704 467.871 342.704C467.877 342.704 467.976 342.707 468.165 342.887C468.332 343.127 468.365 343.281 468.365 343.37C468.365 343.452 468.337 343.579 468.17 343.773ZM470.239 315.531L470.374 317.356L471.559 315.961L479.571 306.525L479.969 306.056L479.587 305.574L475 299.78L474.992 299.769L474.984 299.76C473.416 297.913 471.926 295.959 470.503 294.092L469.089 292.236L469.157 294.569C469.402 302.938 469.824 309.928 470.239 315.531ZM514.031 315.275V315.232L514.026 315.189C513.926 314.328 513.463 313.006 512.715 311.28C511.954 309.526 510.862 307.275 509.442 304.519L509.44 304.515C506.636 299.169 504.743 295.01 503.756 292.124C503.731 291.853 503.796 291.718 503.837 291.662C503.883 291.599 503.951 291.559 504.041 291.549C504.135 291.539 504.24 291.564 504.327 291.63C504.406 291.69 504.495 291.802 504.528 292.013L504.538 292.077L504.559 292.139C505.75 295.646 507.781 299.814 510.542 304.649C513.247 309.479 514.601 313.064 514.862 315.456C514.812 315.731 514.71 315.876 514.636 315.945C514.557 316.019 514.481 316.035 514.422 316.03C514.361 316.024 514.277 315.992 514.199 315.893C514.121 315.795 514.031 315.604 514.031 315.275Z" stroke="white" stroke-width="1.5"/>
<path d="M528.703 290.517L529.094 290.051L528.719 289.572C526.782 287.096 525.591 285.04 525.067 283.406C524.546 281.781 524.72 280.705 525.29 279.995L541.197 261.164C542.105 260.28 543.96 259.529 546.971 259.24C562.36 257.963 573.969 259.056 581.807 262.515C589.688 266.044 594.661 270.842 597.196 276.375C599.733 281.911 599.874 288.278 597.911 295.026L597.91 295.028C595.934 301.908 592.735 307.903 588.301 313.126L572.366 331.893C563.762 342.027 551.747 347.993 541.283 343.479L541.283 343.479L541.273 343.474C532.757 339.952 526.31 336.304 521.878 332.543C517.447 328.783 515.09 324.96 514.617 321.083L514.617 321.083L514.616 321.075C513.553 313.1 515.347 306.444 519.789 301.119C519.789 301.119 519.79 301.118 519.79 301.118L528.703 290.517ZM548.883 314.531C548.643 313.51 548.18 312.425 547.523 311.286C546.438 309.41 544.787 307.322 542.592 305.04L542.592 305.04L542.587 305.035C538.265 300.631 534.268 296.218 530.609 291.91L530.201 291.429L529.657 291.749L529.507 291.837H529.379H528.781L528.648 292.419C527.422 297.772 528.753 303.48 532.41 309.387C536.106 315.409 543.894 321.423 552.789 324.563C561.695 327.706 571.869 328.019 580.265 322.389L580.435 322.276L580.523 322.091C585.048 312.683 586.376 301.935 581.894 293.143C577.395 284.315 567.169 277.701 549.122 276.313L547.25 276.168L548.508 277.563C549.715 278.9 550.957 280.239 552.187 281.566C554.559 284.124 556.887 286.634 558.829 288.986C560.298 290.765 561.517 292.42 562.345 293.898C563.115 295.273 563.499 296.412 563.505 297.31L548.883 314.531ZM576.705 338.532L576.782 338.49L576.846 338.431C582.542 333.231 585.507 328.219 588.95 321.009L588.991 320.925L589.009 320.832C589.035 320.705 589.071 320.634 589.095 320.598C589.119 320.564 589.136 320.554 589.143 320.551C589.154 320.545 589.212 320.523 589.324 320.569C589.536 320.656 589.77 320.923 589.718 321.341C585.792 329.725 583.1 334.124 576.736 339.747C576.66 339.753 576.612 339.733 576.578 339.711C576.509 339.668 576.422 339.569 576.372 339.407C576.268 339.076 576.368 338.719 576.705 338.532ZM555.411 316.052L569.962 298.915C570.064 299.826 570.235 300.832 570.484 301.782C570.707 302.631 571 303.467 571.381 304.158C571.592 304.54 571.848 304.911 572.159 305.214L557.186 322.849C557.034 322.695 556.877 322.483 556.72 322.202C556.419 321.665 556.168 320.963 555.968 320.18C555.6 318.74 555.435 317.139 555.411 316.052Z" stroke="white" stroke-width="1.5"/>
<path d="M414.746 369.243V369.327L414.764 369.408L417.259 380.483C417.262 380.499 417.264 380.513 417.267 380.522C417.272 380.546 417.278 380.568 417.283 380.586C417.292 380.622 417.305 380.665 417.32 380.713C417.349 380.808 417.392 380.942 417.447 381.11C417.558 381.449 417.724 381.943 417.946 382.592C418.272 383.548 418.722 384.845 419.298 386.485C419.072 386.355 418.846 386.225 418.619 386.094C418.542 386.05 418.464 386.005 418.386 385.96C417.721 384.228 417.228 382.924 416.905 382.036C416.736 381.569 416.617 381.226 416.545 380.999C416.523 380.928 416.506 380.873 416.496 380.834C416.497 380.793 416.495 380.76 416.494 380.745C416.491 380.679 416.481 380.606 416.472 380.542C416.451 380.404 416.416 380.211 416.369 379.969C416.274 379.482 416.122 378.757 415.913 377.798C415.498 375.893 414.857 373.045 413.99 369.259C414 368.944 414.066 368.813 414.097 368.772C414.108 368.757 414.118 368.749 414.137 368.74C414.161 368.73 414.218 368.712 414.327 368.712C414.576 368.712 414.638 368.777 414.648 368.787C414.666 368.806 414.746 368.908 414.746 369.243ZM416.311 381.317L416.311 381.317C416.314 381.314 416.317 381.311 416.319 381.307C416.317 381.311 416.314 381.314 416.311 381.317Z" stroke="white" stroke-width="1.5"/>
<path d="M452.964 312.411C452.916 312.721 452.864 313.053 452.806 313.407C452.481 315.416 452.001 318.083 451.384 320.885C450.767 323.69 450.015 326.617 449.148 329.152C448.272 331.712 447.308 333.778 446.303 334.937L446.298 334.943L430.948 353.022C430.245 353.849 429.77 354.038 429.433 354.038H429.415L429.397 354.039C424.362 354.279 419.811 353.594 415.703 352.18L413.394 351.385L414.858 353.339C415.226 353.83 415.487 354.18 415.656 354.415L408.377 367.27L408.245 367.504L408.291 367.768C409.207 373.07 410.046 377.798 410.967 381.947C410.967 381.949 410.968 381.95 410.968 381.952L412.216 388.031L412.22 388.051L412.225 388.071C412.801 390.256 413.418 392.342 414.065 394.334C412.441 393.326 410.835 392.284 409.254 391.2C405.997 388.966 402.824 386.561 399.784 383.95C399.331 383.554 398.976 383.278 398.705 383.123C398.559 382.957 398.415 382.787 398.275 382.623L398.205 382.539C398.022 382.324 397.836 382.106 397.676 381.944L397.675 381.942C397.365 381.629 397.066 381.312 396.761 380.989C396.658 380.88 396.555 380.771 396.45 380.661C396.022 377.76 395.643 374.896 395.342 372.175L395.341 372.169C395.051 369.73 394.931 367.777 394.962 366.302C394.995 364.788 395.186 363.899 395.419 363.488C395.419 363.488 395.419 363.487 395.419 363.487L404.837 346.855L405.145 346.309L404.664 345.909C397.01 339.537 391.658 330.086 388.439 319.877L388.438 319.874C385.422 310.431 384.267 300.354 384.845 291.483C385.425 282.588 387.739 275.015 391.552 270.477C391.552 270.477 391.553 270.477 391.553 270.477L406.82 252.4C406.82 252.4 406.82 252.4 406.82 252.4C407.3 251.835 407.854 251.274 408.401 250.818L408.401 250.818L408.408 250.812C413.192 246.715 417.691 244.884 421.925 244.626C426.164 244.367 430.227 245.68 434.144 248.036L434.69 248.364L435.102 247.878L441.673 240.132C441.755 240.365 441.848 240.629 441.952 240.922C442.087 241.303 442.24 241.734 442.409 242.214C443.139 244.276 444.201 247.296 445.577 251.271L445.577 251.272C446.956 255.248 447.978 258.24 448.655 260.262C448.993 261.274 449.244 262.04 449.41 262.564C449.468 262.747 449.515 262.899 449.552 263.019L435.048 280.101C430.395 274.214 425.305 268.623 419.748 265.049C413.936 261.312 407.553 259.749 400.637 262.411L400.281 262.548L400.182 262.918C396.887 275.277 398.162 292.643 404.05 307.406C409.941 322.181 420.792 334.731 437.255 337.146L437.966 337.25L438.1 336.545C438.56 334.135 438.894 332.236 439.114 330.838C439.292 329.705 439.402 328.864 439.435 328.345L452.964 312.411Z" stroke="white" stroke-width="1.5"/>
<path d="M405.155 300.706L405.154 300.693L405.153 300.68C405.074 299.726 405.074 299.062 405.074 298.677C405.074 298.307 405.149 298.157 405.183 298.112C405.195 298.096 405.206 298.087 405.226 298.078C405.25 298.068 405.306 298.051 405.412 298.051C405.609 298.051 405.674 298.109 405.702 298.143C405.747 298.195 405.826 298.341 405.823 298.671L405.823 298.671V298.677V298.683C405.823 299.072 405.823 299.689 405.906 300.409C405.916 300.705 405.835 300.877 405.762 300.97C405.684 301.069 405.585 301.117 405.496 301.129C405.406 301.141 405.335 301.116 405.288 301.076C405.248 301.042 405.167 300.948 405.155 300.706Z" stroke="white" stroke-width="1.5"/>
<path d="M422.353 324.355L422.338 324.336L422.323 324.318C418.493 319.999 415.795 317.022 414.179 315.519C412.696 314.14 410.333 310.711 407.249 305.219C407.147 304.992 407.156 304.822 407.191 304.707C407.23 304.579 407.315 304.477 407.415 304.416C407.516 304.354 407.606 304.348 407.666 304.363C407.711 304.375 407.814 304.417 407.917 304.619L407.923 304.63L407.929 304.641C410.842 309.931 413.226 313.471 414.908 315.04C416.475 316.601 419.119 319.421 422.847 323.422C423.021 323.696 422.964 324.044 422.733 324.294C422.618 324.419 422.518 324.449 422.483 324.452C422.47 324.453 422.462 324.451 422.452 324.447C422.441 324.441 422.405 324.421 422.353 324.355Z" stroke="white" stroke-width="1.5"/>
<path d="M319.602 263.037L305.1 280.117C300.446 274.226 295.356 268.633 289.799 265.059C283.987 261.321 277.604 259.761 270.688 262.427L270.332 262.565L270.233 262.934C266.93 275.294 268.206 292.659 274.101 307.423C279.992 322.197 290.843 334.756 307.306 337.162L308.017 337.266L308.152 336.561C308.611 334.147 308.946 332.248 309.165 330.851C309.344 329.719 309.453 328.88 309.486 328.361L323.015 312.428C322.967 312.737 322.915 313.069 322.858 313.422C322.532 315.43 322.052 318.096 321.436 320.898C320.818 323.703 320.066 326.629 319.199 329.164C318.323 331.724 317.359 333.792 316.354 334.954L316.349 334.959L300.999 353.038C300.297 353.865 299.821 354.055 299.484 354.055H299.466L299.448 354.055C277.675 355.112 264.453 338.817 258.49 319.902L258.489 319.899C255.473 310.456 254.316 300.381 254.894 291.511C255.473 282.617 257.787 275.043 261.604 270.502L276.863 252.425C276.864 252.425 276.864 252.425 276.864 252.424C277.341 251.863 277.896 251.309 278.449 250.839L278.451 250.837C283.235 246.745 287.736 244.915 291.972 244.657C296.212 244.399 300.275 245.71 304.188 248.061L304.734 248.389L305.146 247.903L311.724 240.148C311.799 240.361 311.884 240.599 311.977 240.861C312.118 241.26 312.28 241.716 312.46 242.227C313.19 244.288 314.253 247.308 315.628 251.287C317.003 255.268 318.025 258.263 318.703 260.286C319.042 261.297 319.294 262.063 319.461 262.587C319.519 262.767 319.565 262.917 319.602 263.037ZM275.221 300.722L275.22 300.706L275.219 300.691C275.133 299.74 275.133 299.078 275.133 298.694V298.693C275.133 298.321 275.207 298.17 275.24 298.126C275.252 298.111 275.262 298.103 275.281 298.095C275.305 298.084 275.362 298.067 275.471 298.067C275.677 298.067 275.74 298.127 275.766 298.157C275.809 298.208 275.889 298.353 275.889 298.693V298.699C275.889 299.088 275.889 299.705 275.972 300.424C275.981 300.719 275.899 300.892 275.826 300.985C275.747 301.086 275.648 301.134 275.559 301.145C275.47 301.157 275.4 301.132 275.354 301.093C275.315 301.059 275.233 300.965 275.221 300.722ZM292.413 324.373L292.397 324.353L292.381 324.334C288.551 320.023 285.853 317.047 284.239 315.537L284.237 315.535C282.754 314.156 280.39 310.727 277.307 305.224C277.203 304.999 277.211 304.831 277.246 304.717C277.284 304.59 277.368 304.488 277.469 304.426C277.57 304.364 277.662 304.357 277.722 304.373C277.769 304.384 277.873 304.427 277.977 304.629L277.982 304.638L277.987 304.648C280.893 309.947 283.271 313.479 284.96 315.057C286.525 316.608 289.168 319.427 292.904 323.437C293.082 323.717 293.021 324.068 292.792 324.317C292.677 324.441 292.578 324.47 292.544 324.473C292.532 324.474 292.525 324.472 292.514 324.467C292.503 324.462 292.466 324.441 292.413 324.373Z" stroke="white" stroke-width="1.5"/>
</mask>
<g mask="url(#mask0)">
<rect x="248" y="222" width="359" height="174" fill="white"/>
<rect x="247" y="201.084" width="37" height="100" fill="white"/>
<mask id="mask1" mask-type="alpha" maskUnits="userSpaceOnUse" x="429" y="183" width="56" height="57">
<mask id="path-29-inside-2" mask-type="luminance" fill="white">
<path d="M484.497 193.242C484.497 190.288 484.408 187.343 484.275 184.398C482.84 186.576 481.271 188.798 479.54 191.037L475.701 195.376C473.134 198.391 470.101 201.615 466.668 205.222L453.159 204.272C453.137 204.333 453.1 204.438 453.056 204.577L446.486 203.331C445.295 203.105 442.913 204.281 439.362 206.947C437.32 208.446 435.205 210.092 433.089 211.818C432.904 212.523 432.712 213.22 432.541 213.926C432.445 214.336 432.216 214.972 432.024 215.616C432.038 215.817 431.994 216.261 431.853 217.08C431.099 221.454 430.551 225.88 430.181 230.324C429.937 233.26 429.767 236.205 429.656 239.15C431.262 237.146 433.015 235.125 434.931 233.095L439.118 229.217C441.922 226.516 445.221 223.667 448.935 220.478L462.296 223.005C462.392 222.822 462.592 222.317 462.91 221.463L470.552 222.003C471.75 222.09 474.029 220.635 477.336 217.568C479.244 215.843 481.205 213.952 483.173 211.992C483.298 211.269 483.432 210.554 483.543 209.831C483.609 209.413 483.779 208.751 483.912 208.088C483.883 207.888 483.883 207.444 483.957 206.616C484.334 202.172 484.497 197.703 484.497 193.242Z"/>
</mask>
<path d="M484.275 184.398L485.773 184.33L485.565 179.714L483.022 183.573L484.275 184.398ZM479.54 191.037L480.664 192.031L480.697 191.994L480.727 191.955L479.54 191.037ZM475.701 195.376L474.577 194.382L474.568 194.393L474.559 194.404L475.701 195.376ZM466.668 205.222L466.563 206.718L467.267 206.768L467.755 206.256L466.668 205.222ZM453.159 204.272L453.265 202.776L452.136 202.697L451.75 203.759L453.159 204.272ZM453.056 204.577L452.776 206.051L454.082 206.299L454.485 205.032L453.056 204.577ZM446.486 203.331L446.206 204.805L446.207 204.805L446.486 203.331ZM439.362 206.947L440.25 208.156L440.256 208.151L440.263 208.147L439.362 206.947ZM433.089 211.818L432.141 210.655L431.762 210.964L431.638 211.437L433.089 211.818ZM432.541 213.926L431.083 213.575L431.081 213.583L432.541 213.926ZM432.024 215.616L430.586 215.188L430.507 215.452L430.528 215.727L432.024 215.616ZM431.853 217.08L433.332 217.335L433.332 217.334L431.853 217.08ZM430.181 230.324L428.687 230.199L428.687 230.2L430.181 230.324ZM429.656 239.15L428.157 239.094L427.986 243.634L430.827 240.088L429.656 239.15ZM434.931 233.095L433.912 231.994L433.875 232.028L433.84 232.065L434.931 233.095ZM439.118 229.217L440.137 230.318L440.148 230.308L440.159 230.298L439.118 229.217ZM448.935 220.478L449.214 219.004L448.505 218.87L447.958 219.34L448.935 220.478ZM462.296 223.005L462.017 224.479L463.107 224.685L463.624 223.703L462.296 223.005ZM462.91 221.463L463.016 219.967L461.896 219.887L461.504 220.939L462.91 221.463ZM470.552 222.003L470.661 220.507L470.658 220.507L470.552 222.003ZM477.336 217.568L476.33 216.455L476.323 216.462L476.316 216.468L477.336 217.568ZM483.173 211.992L484.231 213.055L484.569 212.718L484.65 212.249L483.173 211.992ZM483.543 209.831L482.061 209.595L482.06 209.604L483.543 209.831ZM483.912 208.088L485.383 208.384L485.435 208.128L485.396 207.869L483.912 208.088ZM483.957 206.616L485.451 206.75L485.451 206.743L483.957 206.616ZM485.997 193.242C485.997 190.258 485.907 187.29 485.773 184.33L482.776 184.466C482.909 187.396 482.997 190.317 482.997 193.242H485.997ZM483.022 183.573C481.606 185.723 480.059 187.914 478.354 190.12L480.727 191.955C482.484 189.682 484.074 187.429 485.527 185.223L483.022 183.573ZM478.417 190.043L474.577 194.382L476.824 196.37L480.664 192.031L478.417 190.043ZM474.559 194.404C472.022 197.383 469.016 200.578 465.581 204.188L467.755 206.256C471.185 202.651 474.245 199.399 476.843 196.349L474.559 194.404ZM466.773 203.726L453.265 202.776L453.054 205.769L466.563 206.718L466.773 203.726ZM451.75 203.759C451.722 203.835 451.678 203.959 451.626 204.122L454.485 205.032C454.522 204.916 454.552 204.831 454.569 204.785L451.75 203.759ZM453.335 203.103L446.766 201.857L446.207 204.805L452.776 206.051L453.335 203.103ZM446.767 201.858C446.162 201.743 445.543 201.826 444.98 201.977C444.404 202.132 443.785 202.387 443.134 202.715C441.834 203.37 440.271 204.389 438.462 205.748L440.263 208.147C442.005 206.839 443.408 205.936 444.485 205.394C445.022 205.123 445.444 204.959 445.76 204.874C446.09 204.785 446.215 204.807 446.206 204.805L446.767 201.858ZM438.475 205.738C436.41 207.254 434.273 208.916 432.141 210.655L434.037 212.98C436.136 211.269 438.231 209.638 440.25 208.156L438.475 205.738ZM431.638 211.437C431.459 212.118 431.258 212.85 431.083 213.575L434 214.278C434.165 213.591 434.348 212.929 434.54 212.198L431.638 211.437ZM431.081 213.583C430.995 213.949 430.823 214.392 430.586 215.188L433.461 216.045C433.608 215.551 433.895 214.722 434.002 214.269L431.081 213.583ZM430.528 215.727C430.524 215.681 430.531 215.726 430.506 215.949C430.484 216.148 430.443 216.432 430.375 216.827L433.332 217.334C433.466 216.554 433.55 215.923 433.519 215.506L430.528 215.727ZM430.375 216.825C429.613 221.246 429.06 225.716 428.687 230.199L431.676 230.448C432.043 226.044 432.585 221.662 433.332 217.335L430.375 216.825ZM428.687 230.2C428.44 233.161 428.269 236.129 428.157 239.094L431.155 239.207C431.265 236.282 431.434 233.359 431.676 230.448L428.687 230.2ZM430.827 240.088C432.407 238.116 434.133 236.125 436.022 234.124L433.84 232.065C431.896 234.125 430.116 236.177 428.486 238.212L430.827 240.088ZM435.95 234.195L440.137 230.318L438.099 228.117L433.912 231.994L435.95 234.195ZM440.159 230.298C442.926 227.632 446.193 224.81 449.912 221.616L447.958 219.34C444.25 222.524 440.917 225.401 438.077 228.137L440.159 230.298ZM448.656 221.952L462.017 224.479L462.575 221.531L449.214 219.004L448.656 221.952ZM463.624 223.703C463.776 223.414 464.014 222.795 464.315 221.987L461.504 220.939C461.346 221.363 461.221 221.691 461.126 221.932C461.078 222.052 461.039 222.145 461.01 222.214C460.978 222.289 460.965 222.313 460.968 222.307L463.624 223.703ZM462.804 222.959L470.446 223.499L470.658 220.507L463.016 219.967L462.804 222.959ZM470.443 223.499C471.057 223.544 471.664 223.387 472.205 223.172C472.762 222.952 473.353 222.627 473.971 222.226C475.205 221.424 476.672 220.229 478.356 218.668L476.316 216.468C474.692 217.974 473.367 219.041 472.336 219.711C471.82 220.046 471.411 220.26 471.099 220.384C470.773 220.513 470.646 220.506 470.661 220.507L470.443 223.499ZM478.341 218.681C480.274 216.934 482.253 215.025 484.231 213.055L482.114 210.929C480.156 212.879 478.214 214.752 476.33 216.455L478.341 218.681ZM484.65 212.249C484.772 211.549 484.911 210.801 485.025 210.059L482.06 209.604C481.952 210.307 481.825 210.988 481.695 211.735L484.65 212.249ZM485.024 210.067C485.088 209.664 485.219 209.199 485.383 208.384L482.442 207.793C482.339 208.303 482.13 209.161 482.061 209.595L485.024 210.067ZM485.396 207.869C485.4 207.896 485.39 207.836 485.395 207.622C485.4 207.426 485.416 207.142 485.451 206.75L482.463 206.482C482.39 207.301 482.37 207.91 482.428 208.308L485.396 207.869ZM485.451 206.743C485.833 202.251 485.997 197.739 485.997 193.242H482.997C482.997 197.666 482.835 202.093 482.462 206.489L485.451 206.743Z" fill="#4D0099" mask="url(#path-29-inside-2)"/>
</mask>
<g mask="url(#mask1)">
<rect x="403" y="221" width="96" height="37" fill="white"/>
</g>
<mask id="mask2" mask-type="alpha" maskUnits="userSpaceOnUse" x="429" y="183" width="56" height="57">
<path d="M483.613 186.676C483.692 188.852 483.741 191.026 483.741 193.203C483.741 197.646 483.579 202.093 483.204 206.513C483.204 206.513 483.204 206.513 483.204 206.514L483.613 186.676ZM483.613 186.676C482.528 188.254 481.37 189.851 480.128 191.457L480.113 191.477L480.096 191.496L476.261 195.829C473.68 198.86 470.635 202.096 467.205 205.7L466.962 205.956L466.609 205.931L453.683 205.023L453.563 205.399L452.91 205.275L446.341 204.029L446.34 204.029C446.196 204.002 445.947 204.007 445.559 204.111C445.178 204.214 444.707 204.4 444.141 204.686C443.009 205.256 441.565 206.188 439.807 207.508L439.8 207.513L439.8 207.513C437.831 208.959 435.79 210.544 433.746 212.206C433.713 212.332 433.68 212.456 433.647 212.579C433.514 213.078 433.385 213.566 433.265 214.061C433.202 214.331 433.077 214.718 432.951 215.109C432.889 215.304 432.826 215.499 432.77 215.681C432.767 216.003 432.703 216.492 432.587 217.169L432.587 217.169C431.836 221.519 431.291 225.924 430.923 230.347L483.613 186.676ZM483.149 208.013C483.105 208.224 483.053 208.453 483.003 208.677C482.918 209.057 482.836 209.424 482.796 209.675L482.795 209.679C482.716 210.195 482.626 210.703 482.534 211.222C482.512 211.344 482.491 211.466 482.469 211.59C480.563 213.485 478.669 215.308 476.827 216.973L476.827 216.973L476.82 216.98C475.181 218.499 473.82 219.598 472.739 220.301C472.198 220.653 471.743 220.895 471.37 221.042C470.99 221.193 470.743 221.227 470.6 221.216L470.599 221.216L462.957 220.676L462.397 220.637L462.201 221.162C462.049 221.569 461.929 221.884 461.837 222.118L449.069 219.703L448.714 219.636L448.441 219.871C444.732 223.055 441.418 225.917 438.597 228.634L434.415 232.506L434.397 232.523L434.38 232.541C433.004 233.999 431.711 235.452 430.496 236.899C430.602 234.712 430.742 232.527 430.923 230.348L483.149 208.013Z" stroke="#4D0099" stroke-width="1.5"/>
</mask>
<g mask="url(#mask2)">
<rect x="402.994" y="220.961" width="96" height="37" fill="white"/>
</g>
</g>
</svg>
