<svg width="601" height="434" viewBox="0 0 601 434" fill="none" xmlns="http://www.w3.org/2000/svg">
<path d="M472.971 228.724C473.067 228.75 474.08 227.129 476.085 223.801C476.033 222.99 475.989 222.18 475.93 221.37C475.9 220.925 475.871 220.472 475.841 220.019C472.993 224.445 471.543 226.624 471.476 226.676L464.596 234.814C463.945 235.258 463.871 235.886 464.249 236.644C464.626 237.41 465.159 237.498 465.802 237.053C470.537 231.416 472.926 228.636 472.971 228.724Z" fill="#4D0099"/>
<path d="M446.575 266.32C446.671 266.346 447.685 264.725 449.69 261.397C449.638 260.587 449.594 259.776 449.534 258.966C449.505 258.522 449.475 258.069 449.446 257.616C446.598 262.042 445.147 264.22 445.081 264.272L438.201 272.41C437.55 272.855 437.476 273.482 437.853 274.24C438.23 275.007 438.763 275.094 439.407 274.649C444.149 269.012 446.538 266.233 446.575 266.32Z" fill="#4D0099"/>
<path d="M484.497 230.222C484.497 227.269 484.408 224.324 484.275 221.379C482.84 223.557 481.271 225.779 479.54 228.018L475.701 232.357C473.134 235.372 470.101 238.595 466.668 242.203L453.159 241.253C453.137 241.314 453.1 241.418 453.056 241.558L446.486 240.312C445.295 240.085 442.913 241.262 439.362 243.928C437.32 245.426 435.205 247.073 433.089 248.798C432.904 249.504 432.712 250.201 432.541 250.907C432.445 251.316 432.216 251.952 432.024 252.597C432.038 252.798 431.994 253.242 431.853 254.061C431.099 258.435 430.551 262.861 430.181 267.305C429.937 270.241 429.767 273.186 429.656 276.131C431.262 274.127 433.015 272.105 434.931 270.075L439.118 266.198C441.922 263.497 445.221 260.648 448.935 257.459L462.296 259.986C462.392 259.803 462.592 259.297 462.91 258.444L470.552 258.984C471.75 259.071 474.029 257.616 477.336 254.549C479.244 252.824 481.205 250.933 483.173 248.973C483.298 248.249 483.432 247.535 483.543 246.812C483.609 246.394 483.779 245.731 483.912 245.069C483.883 244.869 483.883 244.424 483.957 243.597C484.334 239.153 484.497 234.683 484.497 230.222Z" fill="#4D0099"/>
<path d="M119.543 372.4L104.192 390.479C104.022 390.776 103.023 390.68 101.189 390.279C91.342 388.214 83.1673 385.661 76.5832 383.012C69.999 380.364 56.8973 379.283 45.5489 379.963C41.8796 380.259 38.1288 381.435 34.2079 383.692L24.6942 394.897C24.7756 394.696 24.7756 394.505 24.8644 394.409C24.9458 394.313 24.9458 394.113 24.9458 393.921C26.2774 386.846 24.1912 361.404 23.1924 355.994C18.8573 332.704 17.9399 319.643 8.01194 304.213C5.84435 303.524 4.42395 303.036 3.67676 302.932L5.59282 300.675C4.33518 298.715 2.41912 296.258 0 293.313L15.3507 275.233C18.8573 279.555 21.5205 283.188 23.3626 286.142C27.1133 287.519 31.7888 289.383 37.5444 291.744C48.9742 296.458 62.9044 298.523 75.9987 298.523H95.2703L79.9196 316.602C65.2348 316.602 54.5596 317.09 39.6306 314.738C37.7145 314.442 35.7911 314.049 33.9564 313.562C34.711 317.003 35.3768 320.732 36.0426 324.758C36.7084 328.783 37.5444 333.105 38.4617 337.923C38.4617 338.707 38.6319 339.892 38.876 341.365L49.4698 328.888C55.3068 329.672 61.5654 329.968 68.2383 329.776C74.9112 329.68 81.3326 329.576 87.4211 329.576L72.0704 347.655C66.8993 347.655 61.4766 347.751 55.8024 347.856C50.1282 347.951 44.7056 347.856 39.5344 347.464C40.2002 356.107 40.8661 368 40.4518 373.89L43.041 370.84C47.465 365.63 55.8024 362.293 60.8108 361.901C70.5687 361.413 82.0798 362.389 88.7527 364.062C88.5012 361.901 88.5826 359.74 88.8341 357.475L104.266 339.204C104.518 339.108 104.68 338.907 104.769 338.812L104.185 339.5C102.935 349.52 105.272 357.379 111.361 362.981C117.457 368.575 120.127 371.72 119.543 372.4ZM42.2938 364.053V358.651L41.7908 353.144C41.7094 352.36 41.9609 351.864 42.7081 351.576C43.4627 351.48 43.9584 351.872 44.0398 352.656L44.5428 358.451L44.6242 364.053C44.6242 364.942 44.2099 365.43 43.4553 365.43C42.7081 365.43 42.2938 364.933 42.2938 364.053ZM43.2112 288.303C43.3813 287.519 43.877 287.222 44.6316 287.423C44.9645 287.719 45.3862 287.911 45.8005 288.015C47.1321 288.015 47.3836 290.568 45.9706 290.664C45.3862 290.664 44.7204 290.464 43.8844 289.976C43.1298 289.775 42.8783 289.192 43.2112 288.303ZM50.3058 290.76C50.4759 289.976 50.9716 289.679 51.7262 289.871C55.144 290.76 57.6519 291.344 59.3978 291.84C61.0697 292.328 62.4827 292.624 63.6516 292.825C64.3174 292.921 65.1534 293.121 65.9006 293.121C67.0695 293.217 68.5712 293.321 70.3245 293.321C72.0778 293.417 74.5783 293.417 77.9962 293.417C78.7507 293.417 79.0837 293.905 79.0837 294.794C79.0837 295.683 78.7507 296.075 77.9962 296.075C61.3953 295.97 66.6552 296.362 50.9716 292.433C50.217 292.232 49.9655 291.64 50.3058 290.76ZM80.6668 319.051L96.0175 300.971C97.2677 300.083 98.2664 299.595 98.9397 299.691C99.6055 299.786 100.774 299.786 102.357 299.786L87.0068 317.77C85.4237 317.77 84.2548 317.77 83.589 317.674C82.9158 317.683 81.9171 318.171 80.6668 319.051Z" fill="white"/>
<path d="M106.863 304.125L116.791 292.433C108.616 285.061 103.526 278.675 101.522 273.177C99.5168 267.775 97.9336 264.63 96.8535 263.845L112.204 245.766C113.454 246.655 115.459 250.48 118.13 257.459C123.471 271.408 145.828 285.07 159.336 294.201C172.852 303.341 184.363 314.834 190.955 329.375C194.21 336.747 195.29 345.189 194.21 354.817C193.626 359.827 191.872 364.149 188.787 367.782L173.437 385.757C164.093 396.665 144.91 398.33 129.56 395.777C121.799 394.496 115.629 392.44 110.873 389.39C106.116 386.349 105.117 383.204 107.788 379.954L123.057 361.979C124.307 360.507 126.312 359.13 128.983 358.05C123.878 337.627 114.202 309.135 106.863 304.125ZM127.385 261.676C130.721 265.309 134.472 269.439 137.816 272.68C139.488 274.353 140.738 275.53 141.485 276.218C142.906 276.122 143.157 278.867 141.737 278.867C136.314 274.545 121.385 260.892 118.381 252.928C117.797 251.36 120.216 250.567 120.549 252.24C121.296 254.209 123.959 258.043 127.385 261.676ZM132.053 373.681C131.72 371.32 131.55 369.952 131.468 369.655C129.796 370.44 128.213 371.128 126.63 371.616C127.718 372.4 129.382 373.289 131.55 374.169L132.053 373.681ZM146.819 351.576C149.904 350.199 151.739 349.415 152.16 349.319L147.322 355.018C147.492 356.786 147.574 358.163 147.574 359.148L147.403 360.228L134.561 375.362C146.826 379.588 165.262 380.965 178.519 375.066L178.852 372.905C182.854 338.62 155.327 319.948 132.97 304.526C138.977 319.547 144.733 339.883 146.819 351.576ZM173.429 357.963C173.511 359.932 171.262 360.219 171.18 358.355L170.515 354.913C169.264 348.526 166.261 343.029 161.674 338.411C161.26 338.019 160.838 337.627 160.424 337.13C159.921 336.738 159.425 336.346 159.003 335.849C157.42 335.161 158.419 332.704 159.839 333.392C168.843 341.164 171.424 346.174 173.429 357.963ZM174.347 369.263C174.347 370.152 173.932 370.544 173.178 370.544C172.431 370.544 172.09 370.152 172.09 369.263V364.741C172.09 363.861 172.423 363.365 173.178 363.365C173.932 363.365 174.347 363.853 174.347 364.741V369.263Z" fill="white"/>
<path d="M201.793 287.022C203.71 286.133 206.883 289.871 207.216 290.751L195.283 312.071C194.95 311.183 191.777 307.454 189.779 308.342L201.793 287.022ZM210.22 295.77C213.808 316.698 215.642 332.12 211.803 342.436C204.213 362.868 202.629 361.787 219.393 358.842C229.824 356.978 234.241 356.194 239.412 355.897C236.66 349.511 234.403 342.732 232.487 335.562C232.406 335.562 230.32 333.401 229.402 328.975C227.649 320.227 225.482 308.543 224.394 298.619C223.81 293.705 223.891 290.664 224.564 289.479L236.578 268.254C237.244 266.973 238.827 268.847 241.335 273.656C241.75 274.44 242.586 275.721 244.006 277.586C245.426 279.45 246.174 280.435 246.344 280.731L238.835 294.001C239.752 299.307 240.588 304.021 241.505 308.151L242.756 314.241C247.01 330.255 253.268 341.059 257.855 347.054C262.442 352.953 264.528 356.385 264.025 357.274L252.01 378.595C251.678 379.187 249.843 379.083 246.506 378.595C243.17 378.107 237.666 377.61 229.987 377.122C225.896 376.826 218.394 378.403 210.382 379.771C206.38 380.459 202.874 381.052 199.789 381.74C196.704 382.428 195.202 382.62 195.121 382.524C194.706 380.268 196.704 373.977 200.795 363.757C204.886 353.536 201.882 337.914 198.294 316.994L210.22 295.77ZM219.645 382.428C221.228 382.036 221.398 384.885 220.059 384.981C216.219 385.67 214.133 386.062 212.136 386.358C210.05 386.654 207.298 387.534 202.874 389.207C201.623 390.096 201.29 387.926 202.622 386.846C210.301 383.308 212.387 383.605 219.645 382.428ZM231.245 351.576C231.245 351.672 231.829 351.576 232.998 351.375C234.418 351.375 234.167 354.32 232.746 354.024C231.829 354.225 231.326 354.32 231.326 354.225L229.743 354.521C228.996 354.521 228.574 354.129 228.574 353.24C228.574 352.36 228.907 351.863 229.661 351.768L231.245 351.576ZM247.838 317.683C247.838 317.778 248.837 320.732 250.923 326.622C250.671 328.487 248.585 328.295 248.585 326.326C246.499 320.924 245.5 318.266 245.582 318.171C245.663 318.171 244.827 314.337 243.081 306.678C243.081 305.789 243.414 305.302 244.169 305.302C244.923 305.302 245.338 305.694 245.338 306.582L247.838 317.683Z" fill="white"/>
<path d="M342.02 370.047L326.166 388.911C323.585 375.841 322.416 335.762 322.416 321.124L326.921 315.914C321.328 307.854 317.91 300.684 316.66 294.402L332.595 275.634C335.014 288.895 345.357 300.98 356.454 314.738C367.462 328.495 379.476 344.013 385.734 363.957L397.416 350.199C397.416 350.591 396.831 354.225 395.581 361.204C394.331 368.183 393.665 372.504 393.665 374.369L392.91 395.193C392.659 399.323 392.496 401.579 392.245 401.876L376.31 420.643C375.806 421.131 375.141 416.81 374.305 407.478C372.633 389.007 368.63 377.314 363.629 367.39C361.04 362.38 358.288 357.666 355.285 353.144L350.365 359.043C346.696 359.043 343.441 359.243 340.689 359.531C340.94 363.661 341.436 367.198 342.02 370.047ZM333.431 382.916C334.852 382.228 335.769 385.173 334.349 385.565C331.426 388.022 330.509 389.982 328.512 393.424C327.513 394.705 325.508 393.424 326.425 391.856C329.007 387.534 329.762 385.966 333.431 382.916ZM336.183 379.379C336.686 378.786 337.271 378.786 337.855 379.379C338.358 380.067 338.358 380.66 337.855 381.243L337.441 381.731C336.353 383.012 334.689 381.139 335.769 379.867L336.183 379.379ZM340.104 352.456L348.116 343.02L343.529 337.226C341.946 335.361 340.444 333.392 339.024 331.527C339.268 339.883 339.69 346.862 340.104 352.456ZM380.312 341.26C383.064 346.174 384.484 349.903 384.736 352.456C384.484 354.32 382.398 354.129 382.398 352.255C382.228 350.783 380.726 347.341 377.893 341.843C375.059 336.441 373.136 332.216 372.137 329.271C371.886 327.406 374.142 327.302 374.386 328.879C375.555 332.32 377.56 336.441 380.312 341.26Z" fill="#4D0099"/>
<path d="M472.903 370.047L457.049 388.911C454.467 375.841 453.299 335.762 453.299 321.124L457.804 315.914C452.218 307.854 448.793 300.684 447.543 294.402L463.478 275.634C465.897 288.895 476.239 300.98 487.336 314.738C498.344 328.495 510.359 344.013 516.617 363.957L528.299 350.199C528.299 350.591 527.714 354.225 526.464 361.204C525.214 368.183 524.548 372.504 524.548 374.369L523.793 395.193C523.542 399.323 523.379 401.579 523.127 401.876L507.192 420.643C506.689 421.131 506.023 416.81 505.188 407.478C503.516 389.007 499.513 377.314 494.512 367.39C491.923 362.38 489.171 357.666 486.167 353.144L481.248 359.043C477.579 359.043 474.323 359.243 471.571 359.531C471.823 363.661 472.326 367.198 472.903 370.047ZM464.314 382.916C465.734 382.228 466.652 385.173 465.231 385.565C462.309 388.022 461.392 389.982 459.394 393.424C458.396 394.705 456.391 393.424 457.308 391.856C459.89 387.534 460.645 385.966 464.314 382.916ZM467.066 379.379C467.569 378.786 468.154 378.786 468.738 379.379C469.241 380.067 469.241 380.66 468.738 381.243L468.324 381.731C467.236 383.012 465.572 381.139 466.652 379.867L467.066 379.379ZM470.987 352.456L478.999 343.02L474.412 337.226C472.829 335.361 471.327 333.392 469.907 331.527C470.151 339.883 470.573 346.862 470.987 352.456ZM511.195 341.26C513.947 346.174 515.367 349.903 515.619 352.456C515.367 354.32 513.281 354.129 513.281 352.255C513.111 350.783 511.609 347.341 508.775 341.843C505.942 336.441 504.019 332.216 503.02 329.271C502.768 327.406 505.025 327.302 505.269 328.879C506.438 332.32 508.443 336.441 511.195 341.26Z" fill="#4D0099"/>
<path d="M528.129 327.014C524.208 322.004 523.12 318.467 524.711 316.498L540.646 297.634C541.733 296.554 543.812 295.77 546.905 295.473C562.337 294.193 574.099 295.273 582.111 298.81C598.128 305.981 602.633 318.458 598.631 332.216C596.626 339.195 593.378 345.285 588.873 350.592L572.938 369.359C564.26 379.58 551.913 385.862 540.986 381.148C523.882 374.073 514.879 366.414 513.873 358.154C512.785 349.999 514.62 343.125 519.214 337.618L528.129 327.014ZM529.712 329.567H529.379C528.21 334.673 529.46 340.18 533.048 345.974C540.224 357.666 563.579 369.655 579.847 358.747C588.777 340.18 584.856 316.794 549.065 314.041C556.071 321.804 564.578 329.959 564.245 334.577L548.31 353.345C548.48 350.696 546.394 347.054 542.052 342.541C537.716 338.123 533.707 333.697 530.037 329.375L529.712 329.567ZM570.593 333.993C570.593 336.25 571.347 341.26 573.263 342.053L557.328 360.821C555.323 360.036 554.658 355.026 554.658 352.761L570.593 333.993ZM577.095 377.41C575.675 377.898 574.928 375.641 576.341 374.857C581.934 369.751 584.848 364.837 588.274 357.666C588.607 355.994 590.774 356.882 590.441 358.546C586.439 367.103 583.687 371.616 577.095 377.41Z" fill="#4D0099"/>
<path d="M415.496 406.224C415.496 405.344 415.081 404.943 414.327 404.943C413.572 404.943 413.239 405.431 413.239 406.319C414.993 413.978 415.828 417.812 415.74 417.812C415.673 417.89 416.354 419.746 417.781 423.458C418.403 423.815 419.017 424.172 419.638 424.521C419.979 424.712 420.326 424.913 420.674 425.113C418.862 419.99 417.996 417.411 417.996 417.324L415.496 406.224Z" fill="#4D0099"/>
<path d="M438.695 365.038C438.695 365.822 438.281 368.575 437.364 373.385C421.266 371.023 410.583 358.747 404.746 344.109C398.909 329.471 397.659 312.272 400.907 300.091C414.171 294.986 425.431 305.99 435.026 318.267L450.377 300.187C450.377 299.987 449.045 295.961 446.286 288.007C443.533 280.052 442.032 275.922 441.95 275.625L434.53 284.373C426.518 279.555 417.678 278.867 407.92 287.222C407.336 287.71 406.751 288.303 406.248 288.895L390.979 306.975C383.056 316.402 381.635 338.019 387.724 357.083C390.971 367.381 396.387 376.974 404.184 383.465L394.766 400.098C394.101 401.275 394.012 404.324 394.596 409.238C394.907 412.044 395.299 414.998 395.743 417.986C396.209 418.474 396.668 418.971 397.141 419.45C397.415 419.729 397.814 420.234 398.236 420.705C398.399 420.774 398.724 421.001 399.294 421.497C402.357 424.129 405.553 426.551 408.83 428.799C410.99 430.28 413.195 431.683 415.429 433.025C414.548 430.472 413.713 427.753 412.951 424.861L411.7 418.77C410.783 414.64 409.947 409.927 409.03 404.62L416.539 391.359C416.428 391.168 416.072 390.688 415.458 389.869C419.66 391.316 424.306 392.013 429.433 391.769C430.099 391.769 430.765 391.377 431.519 390.488L446.87 372.409C451.294 367.303 454.046 347.647 454.046 346.958L438.695 365.038Z" fill="#4D0099"/>
<path d="M405.412 334.281C404.665 334.281 404.324 334.769 404.324 335.657C404.324 336.05 404.324 336.738 404.406 337.722C404.487 339.395 406.743 339.195 406.654 337.33C406.573 336.642 406.573 336.05 406.573 335.657C406.58 334.778 406.159 334.281 405.412 334.281Z" fill="#4D0099"/>
<path d="M413.668 353.048C415.251 354.521 417.922 357.466 421.761 361.796C422.679 362.972 424.351 361.203 423.433 359.931C419.683 355.906 417.012 353.057 415.429 351.48C413.846 350.007 411.508 346.566 408.586 341.26C407.839 339.787 405.834 340.964 406.581 342.541C409.666 348.038 412.085 351.576 413.668 353.048Z" fill="#4D0099"/>
<path d="M312.001 275.642C312.083 275.938 313.585 280.059 316.337 288.023C319.089 295.986 320.428 300.012 320.428 300.203L305.077 318.283C295.482 305.997 284.222 294.993 270.958 300.108C267.703 312.288 268.953 329.488 274.797 344.125C280.634 358.763 291.317 371.048 307.415 373.401C308.332 368.582 308.746 365.838 308.746 365.054L324.097 346.974C324.097 347.663 321.345 367.31 316.921 372.425L301.57 390.504C300.816 391.393 300.15 391.785 299.484 391.785C277.209 392.865 263.782 376.163 257.775 357.108C251.686 338.044 253.099 316.436 261.03 306.999L276.292 288.92C276.795 288.328 277.379 287.744 277.964 287.247C287.722 278.9 296.569 279.589 304.574 284.398L312.001 275.642ZM274.383 335.674C274.383 334.785 274.716 334.297 275.471 334.297C276.225 334.297 276.639 334.785 276.639 335.674C276.639 336.066 276.639 336.658 276.721 337.347C276.802 339.211 274.553 339.412 274.472 337.739C274.383 336.754 274.383 336.066 274.383 335.674ZM285.48 351.496C287.063 353.065 289.734 355.914 293.492 359.948C294.409 361.229 292.737 362.998 291.82 361.813C287.98 357.491 285.31 354.546 283.727 353.065C282.143 351.592 279.724 348.055 276.639 342.548C275.885 340.98 277.89 339.795 278.644 341.267C281.559 346.582 283.889 350.015 285.48 351.496Z" fill="#4D0099"/>
<mask id="mask0" mask-type="alpha" maskUnits="userSpaceOnUse" x="254" y="275" width="71" height="117">
<path d="M312.001 275.642C312.083 275.938 313.585 280.059 316.337 288.023C319.089 295.986 320.428 300.012 320.428 300.203L305.077 318.283C295.482 305.997 284.222 294.993 270.958 300.108C267.703 312.288 268.953 329.488 274.797 344.125C280.634 358.763 291.317 371.048 307.415 373.401C308.332 368.582 308.746 365.838 308.746 365.054L324.097 346.974C324.097 347.663 321.345 367.31 316.921 372.425L301.57 390.504C300.816 391.393 300.15 391.785 299.484 391.785C277.209 392.865 263.782 376.163 257.775 357.108C251.686 338.044 253.099 316.436 261.03 306.999L276.292 288.92C276.795 288.328 277.379 287.744 277.964 287.247C287.722 278.9 296.569 279.589 304.574 284.398L312.001 275.642ZM274.383 335.674C274.383 334.785 274.716 334.297 275.471 334.297C276.225 334.297 276.639 334.785 276.639 335.674C276.639 336.066 276.639 336.658 276.721 337.347C276.802 339.211 274.553 339.412 274.472 337.739C274.383 336.754 274.383 336.066 274.383 335.674ZM285.48 351.496C287.063 353.065 289.734 355.914 293.492 359.948C294.409 361.229 292.737 362.998 291.82 361.813C287.98 357.491 285.31 354.546 283.727 353.065C282.143 351.592 279.724 348.055 276.639 342.548C275.885 340.98 277.89 339.795 278.644 341.267C281.559 346.582 283.889 350.015 285.48 351.496Z" fill="white"/>
</mask>
<g mask="url(#mask0)">
<rect x="249" y="271.084" width="35" height="132" fill="white"/>
</g>
</svg>
