<svg width="49" height="42" viewBox="0 0 49 42" fill="none" xmlns="http://www.w3.org/2000/svg">
<path d="M3.66429 16.61L3.69617 41.0346C3.6964 41.2023 3.76368 41.3631 3.88323 41.4816C4.00279 41.6001 4.16485 41.6667 4.33381 41.6667H4.33466C4.4184 41.6666 4.50129 41.6501 4.57861 41.6182C4.65593 41.5863 4.72616 41.5396 4.78529 41.4807C4.84442 41.4219 4.8913 41.352 4.92324 41.2752C4.95518 41.1984 4.97156 41.1161 4.97145 41.0329L4.93957 16.6185C5.97291 16.4723 6.91856 15.9614 7.60312 15.1793C8.28767 14.3972 8.66527 13.3964 8.66667 12.3605V0.632879C8.66667 0.465029 8.59949 0.304054 8.47991 0.185366C8.36033 0.0666781 8.19814 0 8.02903 0C7.85992 0 7.69773 0.0666781 7.57815 0.185366C7.45857 0.304054 7.39139 0.465029 7.39139 0.632879V12.3605C7.39048 13.061 7.14581 13.7398 6.69876 14.282C6.25171 14.8242 5.62972 15.1965 4.93797 15.3359L4.91895 0.632036C4.91873 0.464332 4.85145 0.303573 4.73189 0.185067C4.61233 0.066562 4.45028 -1.4907e-07 4.28131 0H4.28046C4.19671 0.000110723 4.1138 0.0165971 4.03646 0.0485178C3.95913 0.0804385 3.88889 0.127168 3.82976 0.186037C3.77062 0.244906 3.72375 0.314761 3.69183 0.391612C3.6599 0.468464 3.64353 0.550805 3.64367 0.633934L3.66259 15.3215C2.98551 15.1695 2.38052 14.7938 1.94678 14.2558C1.51304 13.7179 1.27627 13.0497 1.27528 12.3607V0.632879C1.27528 0.465029 1.2081 0.304054 1.08852 0.185366C0.968935 0.0666781 0.80675 0 0.637638 0C0.468526 0 0.30634 0.0666781 0.18676 0.185366C0.0671794 0.304054 0 0.465029 0 0.632879V12.3605C0.00133781 13.3857 0.37106 14.3769 1.04272 15.1558C1.71437 15.9348 2.64392 16.4504 3.66429 16.61Z" fill="#4D0099"/>
<path d="M42.3469 22.8886H44.5887V39.986C44.5887 40.4318 44.7684 40.8592 45.0884 41.1744C45.4084 41.4896 45.8424 41.6666 46.295 41.6666C46.7475 41.6666 47.1815 41.4896 47.5015 41.1744C47.8215 40.8592 48.0013 40.4318 48.0013 39.986V2.29698C48.0013 2.21312 47.9843 2.1301 47.9514 2.05278C47.9184 1.97547 47.8701 1.90541 47.8093 1.84672C47.7485 1.78802 47.6764 1.74187 47.5972 1.71097C47.5181 1.68007 47.4334 1.66504 47.3483 1.66676C45.8285 1.69759 44.3818 2.31488 43.3194 3.38577C42.257 4.45666 41.664 5.89555 41.668 7.39276L41.707 22.2599C41.7074 22.4268 41.775 22.5867 41.895 22.7046C42.0149 22.8224 42.1775 22.8886 42.3469 22.8886ZM46.2952 40.4062C46.1821 40.4062 46.0736 40.3619 45.9936 40.2831C45.9136 40.2043 45.8686 40.0975 45.8686 39.986V22.8886H46.7218V39.986C46.7218 40.0975 46.6768 40.2043 46.5968 40.2831C46.5168 40.3619 46.4083 40.4062 46.2952 40.4062ZM46.7218 2.9876V21.6281H42.9853L42.9478 7.38961C42.9505 6.33581 43.3304 5.31669 44.0207 4.51154C44.711 3.70638 45.6674 3.16676 46.7218 2.9876Z" fill="#4D0099"/>
<path d="M23.8333 35.6667C32.0125 35.6667 38.6667 29.0125 38.6667 20.8333C38.6667 12.6542 32.0125 6 23.8333 6C15.6542 6 9 12.6542 9 20.8333C9 29.0125 15.6543 35.6667 23.8333 35.6667ZM23.8333 7.26241C26.5174 7.26241 29.1412 8.05833 31.3729 9.54952C33.6047 11.0407 35.3441 13.1602 36.3712 15.64C37.3984 18.1197 37.6671 20.8484 37.1435 23.4809C36.6199 26.1134 35.3274 28.5315 33.4294 30.4294C31.5315 32.3274 29.1134 33.6199 26.4809 34.1435C23.8484 34.6671 21.1197 34.3984 18.64 33.3712C16.1602 32.3441 14.0407 30.6047 12.5495 28.3729C11.0583 26.1412 10.2624 23.5174 10.2624 20.8333C10.2665 17.2353 11.6976 13.7859 14.2417 11.2417C16.7859 8.69757 20.2353 7.26648 23.8333 7.26241Z" fill="#4D0099"/>
<path d="M23.9988 30.6667C26.2352 30.6667 28.4024 29.8912 30.1312 28.4724C31.86 27.0536 33.0433 25.0793 33.4796 22.8858C33.9159 20.6924 33.5782 18.4155 32.5239 16.4432C31.4696 14.4708 29.7641 12.925 27.6979 12.0692C25.6317 11.2134 23.3327 11.1004 21.1926 11.7496C19.0524 12.3988 17.2036 13.77 15.9611 15.6296C14.7187 17.4891 14.1594 19.7219 14.3786 21.9476C14.5978 24.1732 15.582 26.254 17.1634 27.8354C18.0589 28.7358 19.1242 29.4497 20.2975 29.9357C21.4708 30.4217 22.7288 30.6701 23.9988 30.6667ZM18.0648 15.0661C19.4377 13.6932 21.2441 12.8389 23.1763 12.6486C25.1084 12.4583 27.0468 12.9439 28.6611 14.0225C30.2754 15.1012 31.4658 16.7062 32.0294 18.5641C32.5929 20.4221 32.4949 22.4179 31.7519 24.2116C31.0089 26.0054 29.6669 27.486 27.9546 28.4012C26.2423 29.3164 24.2657 29.6096 22.3615 29.2308C20.4573 28.852 18.7433 27.8247 17.5117 26.3238C16.28 24.823 15.6068 22.9415 15.6068 21C15.6038 19.8975 15.8195 18.8054 16.2414 17.7868C16.6633 16.7683 17.2831 15.8435 18.0648 15.0661Z" fill="#4D0099"/>
<path d="M19.3851 26C19.5068 26 19.6256 25.9637 19.7268 25.8958C19.8279 25.8278 19.9067 25.7312 19.9532 25.6183C19.9997 25.5053 20.0119 25.3809 19.9882 25.261C19.9644 25.141 19.9059 25.0309 19.8199 24.9444C18.9137 24.0361 18.3504 22.8387 18.2269 21.5581C18.219 21.4773 18.1954 21.3988 18.1574 21.3272C18.1193 21.2555 18.0677 21.1921 18.0053 21.1406C17.9429 21.089 17.871 21.0504 17.7938 21.0267C17.7165 21.0031 17.6354 20.995 17.555 21.0029C17.4746 21.0109 17.3966 21.0346 17.3254 21.0728C17.2541 21.1111 17.1911 21.163 17.1398 21.2258C17.0885 21.2885 17.0501 21.3608 17.0266 21.4385C17.0031 21.5162 16.9951 21.5978 17.0029 21.6786C17.1541 23.2442 17.8425 24.7081 18.9501 25.8188C19.0072 25.8764 19.075 25.922 19.1496 25.9531C19.2243 25.9842 19.3043 26.0001 19.3851 26Z" fill="#4D0099"/>
</svg>
