<svg width="178" height="54" viewBox="0 0 178 54" fill="none" xmlns="http://www.w3.org/2000/svg">
<path d="M170.885 53.6677H6.70394C3.09197 53.6677 0.136719 50.6679 0.136719 47.0015V7.00412C0.136719 3.33769 3.09197 0.337891 6.70394 0.337891H170.885C174.497 0.337891 177.452 3.33769 177.452 7.00412V47.0015C177.452 50.6679 174.497 53.6677 170.885 53.6677Z" fill="black"/>
<path d="M89.6315 29.336C86.5449 29.336 84.0231 31.7225 84.0231 35.0022C84.0231 38.2686 86.5449 40.6684 89.6315 40.6684C92.7181 40.6684 95.2399 38.2686 95.2399 35.0022C95.2399 31.7225 92.7181 29.336 89.6315 29.336ZM89.6315 38.4419C87.9371 38.4419 86.4792 37.0287 86.4792 35.0022C86.4792 32.9624 87.9371 31.5625 89.6315 31.5625C91.3258 31.5625 92.7837 32.9624 92.7837 35.0022C92.7837 37.0287 91.3127 38.4419 89.6315 38.4419ZM77.3902 29.336C74.3036 29.336 71.7818 31.7225 71.7818 35.0022C71.7818 38.2686 74.3036 40.6684 77.3902 40.6684C80.4768 40.6684 82.9986 38.2686 82.9986 35.0022C82.9986 31.7225 80.4768 29.336 77.3902 29.336ZM77.3902 38.4419C75.6958 38.4419 74.2379 37.0287 74.2379 35.0022C74.2379 32.9624 75.6958 31.5625 77.3902 31.5625C79.0845 31.5625 80.5424 32.9624 80.5424 35.0022C80.5424 37.0287 79.0845 38.4419 77.3902 38.4419ZM62.8372 31.0825V33.4823H68.5113C68.3405 34.8289 67.894 35.8288 67.2241 36.5087C66.3966 37.3487 65.1095 38.2686 62.8503 38.2686C59.3566 38.2686 56.6246 35.4155 56.6246 31.8691C56.6246 28.3227 59.3566 25.4696 62.8503 25.4696C64.7286 25.4696 66.1077 26.2162 67.119 27.1895L68.7871 25.4963C67.3686 24.1231 65.4904 23.0698 62.8372 23.0698C58.0563 23.0698 54.0371 27.0162 54.0371 31.8824C54.0371 36.7354 58.0563 40.6951 62.8372 40.6951C65.4247 40.6951 67.3686 39.8418 68.8922 38.2286C70.4552 36.6421 70.9411 34.4022 70.9411 32.6024C70.9411 32.0424 70.9017 31.5225 70.8098 31.0958H62.8372V31.0825ZM122.349 32.949C121.89 31.6825 120.471 29.336 117.568 29.336C114.692 29.336 112.302 31.6291 112.302 35.0022C112.302 38.1753 114.666 40.6684 117.844 40.6684C120.405 40.6684 121.89 39.0819 122.494 38.1619L120.589 36.8687C119.959 37.8153 119.092 38.4419 117.844 38.4419C116.597 38.4419 115.703 37.8553 115.139 36.7221L122.612 33.589L122.349 32.949ZM114.731 34.8422C114.666 32.6557 116.399 31.5358 117.647 31.5358C118.619 31.5358 119.447 32.0291 119.723 32.7357L114.731 34.8422ZM108.663 40.3351H111.119V23.6698H108.663V40.3351ZM104.644 30.6026H104.552C104.001 29.9359 102.95 29.336 101.61 29.336C98.8125 29.336 96.2512 31.8291 96.2512 35.0289C96.2512 38.2019 98.8125 40.6817 101.61 40.6817C102.937 40.6817 104.001 40.0818 104.552 39.3885H104.631V40.2018C104.631 42.3749 103.488 43.5348 101.649 43.5348C100.152 43.5348 99.2196 42.4416 98.8387 41.5217L96.6978 42.4283C97.3151 43.9348 98.9438 45.7747 101.649 45.7747C104.526 45.7747 106.956 44.0548 106.956 39.8685V29.6826H104.631V30.6026H104.644ZM101.82 38.4419C100.126 38.4419 98.7074 37.002 98.7074 35.0289C98.7074 33.029 100.126 31.5758 101.82 31.5758C103.488 31.5758 104.802 33.0424 104.802 35.0289C104.815 37.002 103.501 38.4419 101.82 38.4419ZM133.855 23.6698H127.984V40.3351H130.44V34.0156H133.868C136.587 34.0156 139.253 32.0158 139.253 28.8427C139.253 25.6696 136.561 23.6698 133.855 23.6698ZM133.908 31.6958H130.427V25.9763H133.908C135.747 25.9763 136.784 27.5228 136.784 28.8294C136.784 30.1359 135.747 31.6958 133.908 31.6958ZM149.065 29.3093C147.292 29.3093 145.453 30.1093 144.691 31.8558L146.871 32.7757C147.331 31.8558 148.198 31.5491 149.104 31.5491C150.365 31.5491 151.665 32.3224 151.679 33.6956V33.869C151.232 33.6156 150.286 33.229 149.117 33.229C146.766 33.229 144.389 34.5356 144.389 36.9754C144.389 39.2019 146.307 40.6417 148.461 40.6417C150.102 40.6417 151.022 39.8951 151.587 39.0152H151.665V40.3084H154.03V33.9223C154.043 30.9625 151.862 29.3093 149.065 29.3093ZM148.763 38.4419C147.962 38.4419 146.845 38.0286 146.845 37.0287C146.845 35.7488 148.237 35.2555 149.446 35.2555C150.523 35.2555 151.035 35.4955 151.679 35.8155C151.495 37.3487 150.181 38.4419 148.763 38.4419ZM162.659 29.6693L159.848 36.8954H159.769L156.854 29.6693H154.214L158.587 39.7751L156.092 45.388H158.653L165.391 29.6693H162.659ZM140.593 40.3351H143.049V23.6698H140.593V40.3351Z" fill="white"/>
<path d="M13.8474 10.3904C13.4665 10.8038 13.2432 11.4437 13.2432 12.257V41.7484C13.2432 42.575 13.4665 43.215 13.8474 43.6149L13.9393 43.7083L30.2129 27.2027V27.0027V26.8027L13.9393 10.2971L13.8474 10.3904Z" fill="url(#paint0_linear)"/>
<path d="M35.6384 32.709L30.2139 27.2027V27.0027V26.8027L35.6384 21.2964L35.7566 21.3631L42.1794 25.0695C44.0182 26.1227 44.0182 27.856 42.1794 28.9226L35.7566 32.629L35.6384 32.709Z" fill="url(#paint1_linear)"/>
<path d="M35.7569 32.629L30.2142 27.0027L13.8486 43.6149C14.4528 44.2682 15.451 44.3482 16.5806 43.6949L35.7569 32.629Z" fill="url(#paint2_linear)"/>
<path d="M35.7583 21.3764L16.5689 10.3104C15.4393 9.65715 14.4411 9.73715 13.8369 10.3904L30.2156 27.0027L35.7583 21.3764Z" fill="url(#paint3_linear)"/>
<path opacity="0.2" d="M35.6397 32.509L16.5684 43.5083C15.5045 44.1215 14.5457 44.0815 13.9416 43.5216L13.8496 43.6149L13.9416 43.7082C14.5589 44.2682 15.5045 44.3082 16.5684 43.6949L35.7579 32.629L35.6397 32.509Z" fill="black"/>
<path opacity="0.12" d="M13.8483 43.4282C13.4674 43.015 13.2441 42.3751 13.2441 41.562V41.762C13.2441 42.5884 13.4674 43.2283 13.8483 43.6282L13.9403 43.5349L13.8483 43.4282Z" fill="black"/>
<path opacity="0.12" d="M42.181 28.7359L35.627 32.5089L35.7452 32.6289L42.1679 28.9225C43.0873 28.3892 43.547 27.696 43.547 27.0027C43.4813 27.6293 43.0216 28.2559 42.181 28.7359Z" fill="black"/>
<path opacity="0.25" d="M16.5666 10.4965L42.1788 25.2688C43.0063 25.7488 43.4791 26.3621 43.5579 27.002C43.5579 26.3087 43.0982 25.6021 42.1788 25.0822L16.5666 10.3098C14.7278 9.25654 13.2305 10.1365 13.2305 12.2697V12.4697C13.2305 10.3231 14.7409 9.4432 16.5666 10.4965Z" fill="white"/>
<path d="M170.879 1.26801C173.929 1.26801 176.4 3.77452 176.4 6.86765V46.865C176.4 49.9582 173.929 52.4647 170.879 52.4647H6.57229C3.52275 52.4647 1.05157 49.9582 1.05157 46.865V6.86765C1.05157 3.77452 3.52275 1.26801 6.57229 1.26801H170.879ZM170.879 0.201416H6.57229C2.95753 0.201416 0 3.20122 0 6.86765V46.865C0 50.5314 2.95753 53.5313 6.57229 53.5313H170.879C174.494 53.5313 177.452 50.5314 177.452 46.865V6.86765C177.452 3.20122 174.494 0.201416 170.879 0.201416Z" fill="#A6A6A6"/>
<path d="M54 17.3596V9.36011H56.4167C57.6251 9.36011 58.5971 9.73342 59.3194 10.4667C60.0418 11.2133 60.4096 12.1733 60.4096 13.3599C60.4096 14.5465 60.0418 15.5064 59.3194 16.253C58.5839 16.9863 57.612 17.3596 56.4036 17.3596H54ZM55.0114 16.373H56.4036C57.3099 16.373 58.0323 16.1064 58.5708 15.5731C59.1093 15.0398 59.372 14.3065 59.372 13.3465C59.372 12.3999 59.1093 11.6666 58.5708 11.1333C58.0323 10.6 57.323 10.3334 56.4036 10.3334H55.0114V16.373Z" fill="white" stroke="white" stroke-width="0.2" stroke-miterlimit="10"/>
<path d="M61.8301 17.3596V9.36011H62.8414V17.3596H61.8301Z" fill="white" stroke="white" stroke-width="0.2" stroke-miterlimit="10"/>
<path d="M66.8578 17.533C66.2799 17.533 65.7283 17.3463 65.1766 16.9597C64.625 16.573 64.2704 16.0531 64.0996 15.3598L65.019 14.9865C65.1241 15.4264 65.3474 15.7998 65.6889 16.0931C66.0304 16.3997 66.4113 16.5464 66.8447 16.5464C67.2781 16.5464 67.659 16.4264 67.9743 16.1997C68.2895 15.9597 68.4471 15.6531 68.4471 15.2398C68.4471 14.7998 68.2895 14.4532 67.9743 14.2132C67.659 13.9732 67.1731 13.7466 66.4901 13.5333C65.794 13.3066 65.2686 13.0266 64.9008 12.6667C64.5462 12.3067 64.3623 11.8667 64.3623 11.3068C64.3623 10.7335 64.5856 10.2402 65.0322 9.81354C65.4787 9.3869 66.0698 9.17358 66.779 9.17358C67.4489 9.17358 67.9874 9.3469 68.4077 9.68021C68.828 10.0135 69.1038 10.3868 69.2221 10.7868L68.3026 11.1734C68.237 10.9201 68.0794 10.6801 67.8167 10.4668C67.554 10.2535 67.2256 10.1468 66.8053 10.1468C66.4113 10.1468 66.0829 10.2535 65.8071 10.4802C65.5313 10.7068 65.3999 10.9734 65.3999 11.3068C65.3999 11.6001 65.5313 11.8534 65.7808 12.0667C66.0304 12.2667 66.4113 12.4533 66.8973 12.6133C67.2913 12.7467 67.6065 12.8666 67.8692 12.9866C68.1319 13.1066 68.3946 13.2666 68.6573 13.4666C68.92 13.6666 69.1301 13.9066 69.2615 14.1999C69.3928 14.4932 69.4716 14.8398 69.4716 15.2265C69.4716 15.6131 69.3928 15.9597 69.2352 16.2664C69.0776 16.573 68.8674 16.813 68.6047 16.9863C68.342 17.1597 68.0662 17.3063 67.7641 17.3996C67.4883 17.493 67.1731 17.533 66.8578 17.533Z" fill="white" stroke="white" stroke-width="0.2" stroke-miterlimit="10"/>
<path d="M71.9547 17.3596H70.9434V9.36011H73.6228C74.2926 9.36011 74.8706 9.58676 75.3565 10.0401C75.8425 10.4934 76.0921 11.0533 76.0921 11.7466C76.0921 12.4266 75.8425 12.9999 75.3565 13.4532C74.8706 13.9065 74.2926 14.1331 73.6228 14.1331H71.9547V17.3596V17.3596ZM71.9547 13.1332H73.6491C74.0694 13.1332 74.4109 12.9866 74.6735 12.6932C74.9362 12.3999 75.0544 12.0799 75.0544 11.7333C75.0544 11.3867 74.9231 11.0667 74.6735 10.7734C74.4109 10.48 74.0694 10.3334 73.6491 10.3334H71.9547V13.1332Z" fill="white" stroke="white" stroke-width="0.2" stroke-miterlimit="10"/>
<path d="M83.8158 16.3197C83.0409 17.133 82.0821 17.533 80.9263 17.533C79.7704 17.533 78.8116 17.133 78.0367 16.3197C77.2618 15.5065 76.8809 14.5199 76.8809 13.36C76.8809 12.2001 77.2618 11.2002 78.0367 10.4002C78.8116 9.58698 79.7704 9.18701 80.9263 9.18701C82.069 9.18701 83.0278 9.58698 83.8158 10.4002C84.5908 11.2135 84.9848 12.2001 84.9848 13.36C84.9848 14.5332 84.5908 15.5198 83.8158 16.3197ZM78.7853 15.6531C79.3633 16.2531 80.0857 16.5464 80.9263 16.5464C81.7669 16.5464 82.4893 16.2531 83.0672 15.6531C83.6451 15.0532 83.9472 14.2932 83.9472 13.36C83.9472 12.4267 83.6582 11.6668 83.0672 11.0669C82.4893 10.4669 81.7669 10.1736 80.9263 10.1736C80.0857 10.1736 79.3633 10.4669 78.7853 11.0669C78.2074 11.6668 77.9053 12.4267 77.9053 13.36C77.9053 14.2932 78.2074 15.0532 78.7853 15.6531Z" fill="white" stroke="white" stroke-width="0.2" stroke-miterlimit="10"/>
<path d="M86.4043 17.3596V9.36011H87.6389L91.4742 15.5864H91.5136L91.4742 14.0398V9.36011H92.4856V17.3596H91.4348L87.4288 10.84H87.3894L87.4288 12.3866V17.3596H86.4043Z" fill="white" stroke="white" stroke-width="0.2" stroke-miterlimit="10"/>
<path d="M94.2832 17.3594V9.36005H95.2946V17.3594H94.2832ZM95.2289 8.73343H94.3489L94.9268 7.30688H96.0301L95.2289 8.73343Z" fill="white" stroke="white" stroke-width="0.2" stroke-miterlimit="10"/>
<path d="M99.0516 17.3596L96.2803 9.36011H97.3967L99.5507 15.853H99.5902L101.849 9.36011H102.966L100.102 17.3596H99.0516Z" fill="white" stroke="white" stroke-width="0.2" stroke-miterlimit="10"/>
<path d="M108.719 10.3467H105.133V12.8799H108.365V13.8398H105.133V16.373H108.719V17.3596H104.122V9.36011H108.719V10.3467Z" fill="white" stroke="white" stroke-width="0.2" stroke-miterlimit="10"/>
<path d="M110.293 17.3596V9.36011H111.304V16.373H114.719V17.3596H110.293Z" fill="white" stroke="white" stroke-width="0.2" stroke-miterlimit="10"/>
<path d="M118.637 17.3596V9.36011H119.871L123.707 15.5864H123.746L123.707 14.0398V9.36011H124.718V17.3596H123.667L119.661 10.84H119.622L119.661 12.3866V17.3596H118.637Z" fill="white" stroke="white" stroke-width="0.2" stroke-miterlimit="10"/>
<path d="M132.963 16.3197C132.188 17.133 131.23 17.533 130.074 17.533C128.918 17.533 127.959 17.133 127.184 16.3197C126.409 15.5065 126.028 14.5199 126.028 13.36C126.028 12.2001 126.409 11.2002 127.184 10.4002C127.959 9.58698 128.918 9.18701 130.074 9.18701C131.216 9.18701 132.175 9.58698 132.963 10.4002C133.738 11.2135 134.132 12.2001 134.132 13.36C134.119 14.5332 133.738 15.5198 132.963 16.3197ZM127.933 15.6531C128.511 16.2531 129.233 16.5464 130.074 16.5464C130.914 16.5464 131.637 16.2531 132.215 15.6531C132.793 15.0532 133.095 14.2932 133.095 13.36C133.095 12.4267 132.806 11.6668 132.215 11.0669C131.637 10.4669 130.914 10.1736 130.074 10.1736C129.233 10.1736 128.511 10.4669 127.933 11.0669C127.355 11.6668 127.053 12.4267 127.053 13.36C127.053 14.2932 127.355 15.0532 127.933 15.6531Z" fill="white" stroke="white" stroke-width="0.2" stroke-miterlimit="10"/>
<defs>
<linearGradient id="paint0_linear" x1="28.7677" y1="11.9499" x2="6.39514" y2="33.9902" gradientUnits="userSpaceOnUse">
<stop stop-color="#00A0FF"/>
<stop offset="0.00657445" stop-color="#00A1FF"/>
<stop offset="0.2601" stop-color="#00BEFF"/>
<stop offset="0.5122" stop-color="#00D2FF"/>
<stop offset="0.7604" stop-color="#00DFFF"/>
<stop offset="1" stop-color="#00E3FF"/>
</linearGradient>
<linearGradient id="paint1_linear" x1="44.5756" y1="27.0046" x2="12.7943" y2="27.0046" gradientUnits="userSpaceOnUse">
<stop stop-color="#FFE000"/>
<stop offset="0.4087" stop-color="#FFBD00"/>
<stop offset="0.7754" stop-color="#FFA500"/>
<stop offset="1" stop-color="#FF9C00"/>
</linearGradient>
<linearGradient id="paint2_linear" x1="32.7452" y1="30.064" x2="2.40615" y2="59.9524" gradientUnits="userSpaceOnUse">
<stop stop-color="#FF3A44"/>
<stop offset="1" stop-color="#C31162"/>
</linearGradient>
<linearGradient id="paint3_linear" x1="9.72229" y1="0.572682" x2="23.27" y2="13.9191" gradientUnits="userSpaceOnUse">
<stop stop-color="#32A071"/>
<stop offset="0.0685" stop-color="#2DA771"/>
<stop offset="0.4762" stop-color="#15CF74"/>
<stop offset="0.8009" stop-color="#06E775"/>
<stop offset="1" stop-color="#00F076"/>
</linearGradient>
</defs>
</svg>
