<svg width="72" height="54" viewBox="0 0 72 54" fill="none" xmlns="http://www.w3.org/2000/svg">
<path d="M34.2763 9.58536H33.9516C33.3901 9.58535 32.8357 9.7093 32.3286 9.9482C31.8215 10.1871 31.3745 10.5349 31.02 10.9665V4.55518C31.0209 4.18913 30.9356 3.82791 30.7711 3.5002C30.6065 3.1725 30.3672 2.88732 30.072 2.66733C29.7768 2.44733 29.434 2.29856 29.0706 2.23283C28.7073 2.16711 28.3336 2.18623 27.979 2.28869C27.9437 1.66987 27.6708 1.08792 27.2162 0.662307C26.7616 0.236692 26.1599 -0.00029343 25.5346 2.72669e-07C24.9093 0.000293975 24.3078 0.237845 23.8536 0.663887C23.3994 1.08993 23.127 1.67213 23.0923 2.29098C22.7618 2.1946 22.4142 2.17013 22.0733 2.21923C21.7324 2.26834 21.4062 2.38987 21.117 2.57551C20.8278 2.76115 20.5826 3.00651 20.3979 3.29481C20.2133 3.58311 20.0937 3.90755 20.0473 4.24591C19.7997 4.16537 19.5408 4.12422 19.2803 4.12397C18.714 4.12458 18.1712 4.34778 17.7708 4.74461C17.3704 5.14144 17.1452 5.67949 17.1445 6.2407V16.016C17.1445 17.8262 17.2273 19.5833 18.2268 21.1802C19.0271 22.4583 19.451 23.9326 19.4507 25.4369V29.0476H18.6026C18.3723 29.0476 18.1515 29.1383 17.9886 29.2997C17.8258 29.4611 17.7343 29.6801 17.7343 29.9083V34.6552C17.7343 34.8835 17.8258 35.1024 17.9886 35.2638C18.1515 35.4252 18.3723 35.5159 18.6026 35.5159H18.611V53.1393C18.611 53.3676 18.7025 53.5865 18.8654 53.7479C19.0282 53.9093 19.2491 54 19.4794 54H31.0938C31.3241 54 31.545 53.9093 31.7078 53.7479C31.8707 53.5865 31.9622 53.3676 31.9622 53.1393V35.5158H32.1606C32.3909 35.5158 32.6117 35.4251 32.7746 35.2637C32.9374 35.1022 33.0289 34.8833 33.0289 34.6551V29.9082C33.0289 29.6799 32.9374 29.461 32.7746 29.2996C32.6117 29.1382 32.3909 29.0475 32.1606 29.0475H31.3125L31.3579 25.3247L31.3646 25.3043C31.7108 24.2864 32.4416 23.4412 33.4035 22.9462C34.5588 22.3342 35.1445 21.3262 35.1445 19.9501V10.4461C35.1445 10.2178 35.0531 9.99891 34.8902 9.8375C34.7274 9.67609 34.5066 9.5854 34.2763 9.58536ZM30.2249 52.2786H20.3472V35.5158H30.2249V52.2786ZM31.2922 33.7944H19.4704V30.7689H31.2922V33.7944ZM33.4078 19.9501C33.4078 20.8659 33.0123 21.2016 32.5849 21.4276C31.2279 22.1312 30.199 23.3291 29.7147 24.7691L29.708 24.7894C29.6208 25.0533 29.5764 25.3293 29.5765 25.607V29.0475H21.1869V25.4367C21.1873 23.6118 20.673 21.8231 19.702 20.2726C18.9425 19.0592 18.8807 17.627 18.8807 16.016V6.2407C18.8808 6.13587 18.9229 6.03538 18.9977 5.96127C19.0725 5.88716 19.1739 5.84547 19.2797 5.84536C19.4764 5.84559 19.6651 5.92316 19.8042 6.06107C19.9433 6.19897 20.0216 6.38594 20.0218 6.58097V12.7696C20.0218 12.9979 20.1133 13.2168 20.2762 13.3782C20.439 13.5397 20.6599 13.6303 20.8902 13.6303C21.1205 13.6303 21.3414 13.5397 21.5042 13.3782C21.6671 13.2168 21.7585 12.9979 21.7585 12.7696V4.57354C21.7572 4.48638 21.7734 4.39983 21.8062 4.31893C21.8389 4.23804 21.8876 4.1644 21.9493 4.10231C22.0111 4.04021 22.0846 3.9909 22.1657 3.95725C22.2469 3.92359 22.3339 3.90626 22.4219 3.90626C22.5098 3.90626 22.5969 3.92359 22.678 3.95725C22.7592 3.9909 22.8327 4.04021 22.8945 4.10231C22.9562 4.1644 23.0048 4.23804 23.0376 4.31893C23.0703 4.39983 23.0865 4.48638 23.0852 4.57354V12.7696C23.0852 12.9979 23.1767 13.2168 23.3396 13.3782C23.5024 13.5397 23.7233 13.6303 23.9536 13.6303C24.1839 13.6303 24.4048 13.5397 24.5676 13.3782C24.7305 13.2168 24.822 12.9979 24.822 12.7696V2.42884C24.8246 2.24296 24.901 2.0656 25.0346 1.93509C25.1681 1.80459 25.3481 1.73142 25.5357 1.73142C25.7232 1.73142 25.9032 1.80459 26.0368 1.93509C26.1703 2.0656 26.2467 2.24296 26.2494 2.42884V12.7696C26.2494 12.9979 26.3409 13.2168 26.5037 13.3782C26.6666 13.5397 26.8874 13.6303 27.1177 13.6303C27.348 13.6303 27.5689 13.5397 27.7318 13.3782C27.8946 13.2168 27.9861 12.9979 27.9861 12.7696V4.66176C27.9908 4.62643 27.9933 4.59083 27.9935 4.55518C27.9935 4.38565 28.0614 4.22307 28.1824 4.10319C28.3033 3.98332 28.4673 3.91597 28.6384 3.91597C28.8094 3.91597 28.9734 3.98332 29.0944 4.10319C29.2153 4.22307 29.2833 4.38565 29.2833 4.55518V15.9195C29.2838 16.3726 29.4656 16.8069 29.7889 17.1273C30.1121 17.4476 30.5503 17.6279 31.0074 17.6284C31.2364 17.6284 31.4562 17.5387 31.6188 17.3789C31.7815 17.2191 31.8738 17.002 31.8758 16.775L31.9057 13.3347C31.9063 12.8909 32.0535 12.4594 32.3247 12.1063C32.596 11.7532 32.9765 11.4979 33.408 11.3793L33.4078 19.9501Z" fill="#4D0099"/>
<path d="M70.9177 31.2641C71.9172 29.6704 72 27.9166 72 26.1096V16.3527C71.9993 15.7926 71.7741 15.2555 71.3737 14.8595C70.9733 14.4634 70.4305 14.2406 69.8643 14.24C69.6035 14.2402 69.3443 14.2812 69.0965 14.3617C69.0501 14.024 68.9305 13.7001 68.7459 13.4124C68.5613 13.1246 68.316 12.8797 68.0268 12.6944C67.7377 12.5091 67.4115 12.3878 67.0705 12.3388C66.7296 12.2898 66.382 12.3142 66.0515 12.4104C66.0165 11.793 65.7439 11.2122 65.2898 10.7872C64.8357 10.3622 64.2344 10.1253 63.6093 10.125C62.9842 10.1247 62.3827 10.3611 61.9282 10.7856C61.4736 11.2102 61.2006 11.7907 61.1649 12.4081C60.8104 12.3059 60.4366 12.2868 60.0733 12.3524C59.71 12.418 59.3672 12.5665 59.072 12.7861C58.7768 13.0056 58.5374 13.2903 58.3729 13.6174C58.2083 13.9445 58.1231 14.305 58.124 14.6704V21.0705C57.7698 20.6396 57.3229 20.2921 56.8159 20.0535C56.3088 19.8149 55.7544 19.6911 55.193 19.6911H54.8684C54.6381 19.6911 54.4172 19.7817 54.2543 19.9428C54.0915 20.1039 54 20.3224 54 20.5502V30.0365C54 31.41 54.5857 32.4161 55.7409 33.0269C56.7028 33.5209 57.4336 34.3646 57.7798 35.3806L57.7866 35.4012L57.8321 36.826H56.984C56.7537 36.826 56.5328 36.9165 56.3699 37.0776C56.2071 37.2387 56.1156 37.4572 56.1156 37.685V42.423C56.1156 42.6509 56.2071 42.8694 56.3699 43.0305C56.5328 43.1916 56.7537 43.2821 56.984 43.2821H57.183V53.1409C57.183 53.3688 57.2744 53.5873 57.4373 53.7484C57.6001 53.9095 57.821 54 58.0513 54H69.6656C69.8959 54 70.1167 53.9095 70.2796 53.7484C70.4424 53.5873 70.5339 53.3688 70.5339 53.1409V43.2821H70.5423C70.7726 43.2821 70.9935 43.1916 71.1563 43.0305C71.3192 42.8694 71.4107 42.6509 71.4107 42.423V37.685C71.4107 37.4572 71.3192 37.2387 71.1563 37.0776C70.9935 36.9165 70.7726 36.826 70.5423 36.826H69.6945V35.5128C69.6939 34.0115 70.1176 32.5398 70.9177 31.2641ZM68.7972 52.2818H58.9189V43.2821H68.7972V52.2818ZM69.674 41.5639H57.8516V38.5441H69.6734L69.674 41.5639ZM69.4424 30.3584C68.4715 31.906 67.9572 33.6913 67.9577 35.5128V36.826H59.568V35.6828C59.5681 35.4056 59.5237 35.1301 59.4365 34.8667L59.4297 34.8462C58.9451 33.4089 57.916 32.2136 56.5589 31.5115C56.1314 31.2854 55.736 30.9504 55.736 30.0368V21.4819C56.1684 21.601 56.5494 21.8571 56.8208 22.2109C57.0921 22.5647 57.2387 22.9967 57.2382 23.4407L57.2682 26.8673C57.2701 27.0939 57.3625 27.3106 57.5251 27.4701C57.6878 27.6296 57.9075 27.7191 58.1366 27.7191C58.5937 27.7186 59.0319 27.5387 59.3552 27.2189C59.6784 26.8992 59.8602 26.4656 59.8608 26.0134V14.6704C59.8595 14.5858 59.8753 14.5018 59.9071 14.4233C59.9389 14.3448 59.9862 14.2733 60.0462 14.2131C60.1062 14.1528 60.1778 14.105 60.2566 14.0723C60.3355 14.0396 60.4201 14.0228 60.5057 14.0228C60.5912 14.0228 60.6758 14.0396 60.7547 14.0723C60.8335 14.105 60.9051 14.1528 60.9651 14.2131C61.0251 14.2733 61.0724 14.3448 61.1042 14.4233C61.136 14.5018 61.1518 14.5858 61.1505 14.6704C61.1507 14.7061 61.1532 14.7417 61.1579 14.7771V22.8695C61.1579 23.0973 61.2493 23.3158 61.4122 23.4769C61.575 23.638 61.7959 23.7285 62.0262 23.7285C62.2565 23.7285 62.4774 23.638 62.6402 23.4769C62.8031 23.3158 62.8946 23.0973 62.8946 22.8695V12.548C62.8972 12.3625 62.9736 12.1855 63.1072 12.0552C63.2407 11.9249 63.4207 11.8519 63.6083 11.8519C63.7958 11.8519 63.9758 11.9249 64.1094 12.0552C64.243 12.1855 64.3193 12.3625 64.322 12.548V22.8695C64.322 23.0973 64.4135 23.3158 64.5763 23.4769C64.7392 23.638 64.9601 23.7285 65.1904 23.7285C65.4207 23.7285 65.6415 23.638 65.8044 23.4769C65.9672 23.3158 66.0587 23.0973 66.0587 22.8695V14.6887C66.0574 14.6017 66.0736 14.5153 66.1064 14.4346C66.1391 14.3538 66.1878 14.2803 66.2495 14.2184C66.3112 14.1564 66.3848 14.1072 66.4659 14.0736C66.547 14.04 66.6341 14.0227 66.7221 14.0227C66.81 14.0227 66.8971 14.04 66.9782 14.0736C67.0593 14.1072 67.1329 14.1564 67.1946 14.2184C67.2564 14.2803 67.305 14.3538 67.3378 14.4346C67.3705 14.5153 67.3867 14.6017 67.3854 14.6887V22.8695C67.3854 23.0973 67.4769 23.3158 67.6398 23.4769C67.8026 23.638 68.0235 23.7285 68.2538 23.7285C68.4841 23.7285 68.7049 23.638 68.8678 23.4769C69.0306 23.3158 69.1221 23.0973 69.1221 22.8695V16.6924C69.1224 16.4977 69.2006 16.311 69.3398 16.1734C69.479 16.0357 69.6676 15.9583 69.8644 15.9581C69.9702 15.9583 70.0716 15.9999 70.1464 16.0738C70.2212 16.1478 70.2633 16.2481 70.2634 16.3527V26.1098C70.2633 27.7177 70.2011 29.1472 69.4418 30.3584H69.4424Z" fill="#4D0099"/>
<path d="M52.9177 27.0117C53.9172 25.4204 54 23.6695 54 21.8654V12.1241C53.9993 11.5648 53.7741 11.0286 53.3737 10.6332C52.9733 10.2377 52.4305 10.0153 51.8643 10.0147C51.6035 10.0149 51.3443 10.0559 51.0965 10.1362C51.0501 9.799 50.9305 9.47569 50.7459 9.18839C50.5613 8.90109 50.316 8.65657 50.0268 8.47158C49.7377 8.28658 49.4115 8.16547 49.0705 8.11653C48.7296 8.0676 48.382 8.09199 48.0515 8.18804C48.0165 7.57157 47.7439 6.9917 47.2898 6.5674C46.8357 6.1431 46.2344 5.90654 45.6093 5.90625C44.9842 5.90596 44.3827 6.14196 43.9282 6.56583C43.4736 6.9897 43.2006 7.56931 43.1649 8.18575C42.8104 8.08365 42.4366 8.06459 42.0733 8.13009C41.71 8.19558 41.3672 8.34384 41.072 8.56307C40.7768 8.78231 40.5374 9.0665 40.3729 9.39307C40.2083 9.71964 40.1231 10.0796 40.124 10.4444V16.8344C39.7698 16.4041 39.3229 16.0572 38.8159 15.819C38.3088 15.5807 37.7544 15.4571 37.193 15.4572H36.8684C36.6381 15.4572 36.4172 15.5475 36.2543 15.7084C36.0915 15.8692 36 16.0874 36 16.3149V25.7861C36 27.1574 36.5857 28.1619 37.7409 28.7718C38.7028 29.2649 39.4336 30.1072 39.7798 31.1216L39.7866 31.1422L39.8321 37.711H38.984C38.7537 37.711 38.5328 37.8014 38.3699 37.9622C38.2071 38.1231 38.1156 38.3412 38.1156 38.5687V46.1582C38.1156 46.3857 38.2071 46.6038 38.3699 46.7647C38.5328 46.9255 38.7537 47.0159 38.984 47.0159H39.183V53.1423C39.183 53.3698 39.2744 53.5879 39.4373 53.7488C39.6001 53.9096 39.821 54 40.0513 54H51.6656C51.8959 54 52.1167 53.9096 52.2796 53.7488C52.4424 53.5879 52.5339 53.3698 52.5339 53.1423V47.0159H52.5423C52.7726 47.0159 52.9935 46.9255 53.1563 46.7647C53.3192 46.6038 53.4107 46.3857 53.4107 46.1582V38.5687C53.4107 38.3412 53.3192 38.1231 53.1563 37.9622C52.9935 37.8014 52.7726 37.711 52.5423 37.711H51.6945V34.1127C51.6945 29.7816 52.1239 28.2756 52.9177 27.0117ZM50.7972 52.2846H40.9189V47.0159H50.7972V52.2846ZM51.674 45.3005H39.8516V39.4264H51.6734L51.674 45.3005ZM51.4424 26.1074C50.4795 27.6407 49.9577 29.3706 49.9577 34.1127V37.711H41.568V31.4234C41.5681 31.1466 41.5237 30.8716 41.4365 30.6085L41.4297 30.5881C40.9451 29.1531 39.916 27.9597 38.5589 27.2587C38.1314 27.033 37.736 26.6985 37.736 25.7863V17.2451C38.1684 17.364 38.5494 17.6197 38.8207 17.9729C39.092 18.3261 39.2387 18.7574 39.2382 19.2008L39.2682 22.6219C39.2701 22.8482 39.3625 23.0645 39.5251 23.2237C39.6878 23.383 39.9075 23.4724 40.1366 23.4724C40.5937 23.4718 41.0319 23.2922 41.3552 22.973C41.6784 22.6537 41.8602 22.2209 41.8608 21.7694V10.4444C41.8595 10.36 41.8753 10.2761 41.9071 10.1977C41.9389 10.1193 41.9862 10.048 42.0462 9.98782C42.1062 9.92765 42.1778 9.87988 42.2566 9.84726C42.3355 9.81465 42.4201 9.79786 42.5057 9.79786C42.5912 9.79786 42.6758 9.81465 42.7547 9.84726C42.8335 9.87988 42.9051 9.92765 42.9651 9.98782C43.0251 10.048 43.0724 10.1193 43.1042 10.1977C43.136 10.2761 43.1518 10.36 43.1505 10.4444C43.1507 10.48 43.1532 10.5156 43.1579 10.5509V18.6304C43.1579 18.8579 43.2493 19.0761 43.4122 19.2369C43.575 19.3978 43.7959 19.4881 44.0262 19.4881C44.2565 19.4881 44.4774 19.3978 44.6402 19.2369C44.8031 19.0761 44.8946 18.8579 44.8946 18.6304V8.32541C44.8972 8.14018 44.9736 7.96343 45.1072 7.83338C45.2407 7.70332 45.4207 7.63041 45.6083 7.63041C45.7958 7.63041 45.9758 7.70332 46.1094 7.83338C46.243 7.96343 46.3193 8.14018 46.322 8.32541V18.6304C46.322 18.8579 46.4135 19.0761 46.5763 19.2369C46.7392 19.3978 46.9601 19.4881 47.1904 19.4881C47.4207 19.4881 47.6415 19.3978 47.8044 19.2369C47.9672 19.0761 48.0587 18.8579 48.0587 18.6304V10.4627C48.0574 10.3758 48.0736 10.2896 48.1064 10.209C48.1391 10.1283 48.1878 10.055 48.2495 9.99309C48.3112 9.93121 48.3848 9.88207 48.4659 9.84853C48.547 9.81499 48.6341 9.79772 48.7221 9.79772C48.81 9.79772 48.8971 9.81499 48.9782 9.84853C49.0593 9.88207 49.1329 9.93121 49.1946 9.99309C49.2564 10.055 49.305 10.1283 49.3378 10.209C49.3705 10.2896 49.3867 10.3758 49.3854 10.4627V18.6304C49.3854 18.8579 49.4769 19.0761 49.6398 19.2369C49.8026 19.3978 50.0235 19.4881 50.2538 19.4881C50.4841 19.4881 50.7049 19.3978 50.8678 19.2369C51.0306 19.0761 51.1221 18.8579 51.1221 18.6304V12.4632C51.1224 12.2688 51.2006 12.0824 51.3398 11.945C51.479 11.8076 51.6676 11.7303 51.8644 11.7301C51.9702 11.7302 52.0716 11.7718 52.1464 11.8456C52.2212 11.9195 52.2633 12.0196 52.2634 12.1241V21.8656C52.2633 23.4709 52.2011 24.8982 51.4418 26.1074H51.4424Z" fill="#4D0099"/>
<path d="M17.1318 19.6921H16.8071C16.2456 19.6921 15.6912 19.8158 15.1842 20.0543C14.6771 20.2927 14.2301 20.6399 13.8756 21.0706V14.6715C13.8765 14.3062 13.7913 13.9456 13.6267 13.6185C13.4621 13.2915 13.2228 13.0068 12.9276 12.7873C12.6324 12.5677 12.2896 12.4192 11.9263 12.3536C11.563 12.288 11.1892 12.3071 10.8347 12.4093C10.7994 11.7917 10.5265 11.2109 10.0719 10.786C9.61735 10.3612 9.01565 10.1247 8.39035 10.125C7.76505 10.1253 7.16358 10.3624 6.70943 10.7876C6.25527 11.2129 5.98289 11.794 5.94819 12.4116C5.61768 12.3154 5.27005 12.2909 4.92909 12.3399C4.58814 12.3889 4.2619 12.5102 3.97272 12.6955C3.68354 12.8808 3.43824 13.1257 3.2536 13.4135C3.06897 13.7012 2.94936 14.0251 2.90296 14.3628C2.65539 14.2825 2.39651 14.2414 2.13594 14.2411C1.56969 14.2417 1.02679 14.4644 0.626349 14.8605C0.22591 15.2566 0.000651354 15.7936 0 16.3538V26.1106C0 27.9173 0.0827805 29.6711 1.08223 31.2649C1.88253 32.5406 2.30645 34.0121 2.30613 35.5135V41.9809H1.45807C1.22777 41.9809 1.00691 42.0714 0.844067 42.2326C0.681224 42.3937 0.589739 42.6122 0.589739 42.84V47.5778C0.589739 47.8057 0.681224 48.0242 0.844067 48.1853C1.00691 48.3464 1.22777 48.4369 1.45807 48.4369H1.46646V53.1409C1.46646 53.3688 1.55795 53.5873 1.72079 53.7484C1.88363 53.9095 2.10449 54 2.33479 54H13.9488C14.1791 54 14.4 53.9095 14.5628 53.7484C14.7257 53.5873 14.8171 53.3688 14.8171 53.1409V48.4368H15.0161C15.2464 48.4368 15.4673 48.3462 15.6301 48.1851C15.793 48.024 15.8845 47.8055 15.8845 47.5777V42.8399C15.8845 42.612 15.793 42.3935 15.6301 42.2324C15.4673 42.0713 15.2464 41.9808 15.0161 41.9808H14.1681L14.2135 35.4016L14.2202 35.3812C14.5664 34.3653 15.2972 33.5216 16.259 33.0276C17.4143 32.4168 18 31.4107 18 30.0372V20.5512C18 20.3234 17.9085 20.1049 17.7457 19.9438C17.5829 19.7827 17.3621 19.6922 17.1318 19.6921ZM13.0805 52.2819H3.20312V48.4368H13.0805V52.2819ZM14.148 46.7186H2.3264V43.6989H14.1478L14.148 46.7186ZM16.2635 30.0372C16.2635 30.9512 15.868 31.2863 15.4406 31.5119C14.0836 32.2141 13.0547 33.4097 12.5703 34.847L12.5637 34.8672C12.4765 35.1307 12.4321 35.4061 12.4321 35.6833V41.9808H4.04279V35.5134C4.04319 33.6919 3.52889 31.9066 2.55795 30.359C1.79845 29.1479 1.73666 27.7184 1.73666 26.1106V16.3538C1.73681 16.2492 1.7789 16.1489 1.8537 16.0749C1.92849 16.001 2.02989 15.9594 2.13565 15.9592C2.33241 15.9595 2.52104 16.0369 2.66016 16.1745C2.79929 16.3122 2.87755 16.4988 2.87778 16.6935V22.8704C2.87778 23.0982 2.96927 23.3167 3.13211 23.4778C3.29495 23.6389 3.51582 23.7294 3.74611 23.7294C3.97641 23.7294 4.19727 23.6389 4.36011 23.4778C4.52295 23.3167 4.61444 23.0982 4.61444 22.8704V14.6898C4.61314 14.6029 4.62934 14.5165 4.66209 14.4357C4.69484 14.355 4.7435 14.2815 4.80522 14.2195C4.86695 14.1575 4.94051 14.1083 5.02163 14.0747C5.10276 14.0411 5.18982 14.0238 5.27777 14.0238C5.36571 14.0238 5.45278 14.0411 5.5339 14.0747C5.61503 14.1083 5.68859 14.1575 5.75032 14.2195C5.81204 14.2815 5.86069 14.355 5.89345 14.4357C5.9262 14.5165 5.9424 14.6029 5.9411 14.6898V22.8704C5.9411 23.0982 6.03258 23.3167 6.19543 23.4778C6.35827 23.6389 6.57913 23.7294 6.80943 23.7294C7.03972 23.7294 7.26058 23.6389 7.42343 23.4778C7.58627 23.3167 7.67775 23.0982 7.67775 22.8704V12.5492C7.68042 12.3637 7.75679 12.1867 7.89035 12.0564C8.0239 11.9262 8.20391 11.8531 8.39145 11.8531C8.57899 11.8531 8.759 11.9262 8.89255 12.0564C9.0261 12.1867 9.10247 12.3637 9.10514 12.5492V22.8704C9.10514 23.0982 9.19663 23.3167 9.35947 23.4778C9.52231 23.6389 9.74317 23.7294 9.97347 23.7294C10.2038 23.7294 10.4246 23.6389 10.5875 23.4778C10.7503 23.3167 10.8418 23.0982 10.8418 22.8704V14.7779C10.8465 14.7426 10.849 14.7071 10.8492 14.6715C10.8492 14.5023 10.9171 14.34 11.0381 14.2204C11.159 14.1007 11.323 14.0335 11.4941 14.0335C11.6651 14.0335 11.8291 14.1007 11.9501 14.2204C12.071 14.34 12.1389 14.5023 12.1389 14.6715V26.0142C12.1395 26.4664 12.3213 26.9 12.6445 27.2197C12.9677 27.5395 13.4059 27.7193 13.863 27.7199C14.092 27.7199 14.3118 27.6304 14.4744 27.4709C14.637 27.3113 14.7294 27.0947 14.7313 26.8681L14.7613 23.4343C14.7618 22.9914 14.909 22.5608 15.1803 22.2084C15.4516 21.856 15.832 21.6011 16.2635 21.4828V30.0372Z" fill="#4D0099"/>
</svg>
