<svg width="48" height="44" viewBox="0 0 48 44" fill="none" xmlns="http://www.w3.org/2000/svg">
<path d="M22.0627 39.876C22.0722 39.8799 22.0826 39.8835 22.0927 39.8868C22.5679 40.0702 23.0969 40.0702 23.5721 39.8868C23.5835 39.883 23.5949 39.8789 23.6061 39.8745C24.3838 39.5674 25.1516 39.2427 25.8973 38.9081C26.2551 39.3836 26.6482 39.8329 27.0735 40.2523C27.0975 40.2878 27.1287 40.3181 27.1651 40.3415C29.4582 42.5609 32.5603 43.8039 35.7918 43.7981C39.0233 43.7923 42.1207 42.5381 44.4054 40.3105C44.409 40.3071 44.4132 40.3049 44.4168 40.3012C44.4203 40.2974 44.4224 40.2938 44.4258 40.2903C46.7089 38.0621 47.994 35.0433 48 31.894C48.006 28.7447 46.7324 25.7212 44.4578 23.4847C44.4339 23.4493 44.4028 23.419 44.3665 23.3957C44.1598 23.1962 43.9459 23.004 43.7249 22.8191C45.5492 18.8195 46.1058 14.6695 45.3324 10.7871C43.9898 4.29974 39.1897 0.108589 33.1035 0.108589C29.8412 0.108589 26.2993 1.35992 22.8371 3.73182C19.3259 1.25534 15.8516 0 12.5059 0C6.38619 0 1.60708 4.23673 0.331605 10.7925C-1.55135 20.3572 4.43811 33.0595 22.0627 39.876ZM43.9968 24.6363C45.7043 26.4752 46.7079 28.8324 46.838 31.3094H46.2149C46.0628 31.3094 45.9168 31.3683 45.8092 31.4732C45.7016 31.578 45.6412 31.7203 45.6412 31.8686C45.6412 32.0169 45.7016 32.1592 45.8092 32.2641C45.9168 32.3689 46.0628 32.4279 46.2149 32.4279H46.8379C46.7106 34.9057 45.7078 37.2643 43.9998 39.1036L43.5599 38.6748C43.4523 38.57 43.3064 38.511 43.1542 38.511C43.0021 38.511 42.8561 38.5699 42.7485 38.6748C42.6409 38.7797 42.5805 38.9219 42.5805 39.0703C42.5805 39.2186 42.6409 39.3608 42.7485 39.4657L43.1884 39.8945C41.3011 41.5589 38.8812 42.5357 36.3394 42.6593V42.0534C36.3394 41.9051 36.2789 41.7628 36.1713 41.6579C36.0637 41.5531 35.9178 41.4941 35.7656 41.4941C35.6135 41.4941 35.4675 41.5531 35.3599 41.6579C35.2524 41.7628 35.1919 41.9051 35.1919 42.0534V42.6608C32.6508 42.5339 30.2326 41.5556 28.3462 39.8912L28.7828 39.4656C28.8889 39.3605 28.9481 39.2187 28.9475 39.0711C28.9469 38.9236 28.8865 38.7823 28.7795 38.678C28.6725 38.5736 28.5275 38.5148 28.3761 38.5142C28.2248 38.5136 28.0793 38.5713 27.9714 38.6748L27.5348 39.1003C25.8274 37.2614 24.8238 34.9042 24.6936 32.4271H25.3166C25.4688 32.4271 25.6147 32.3682 25.7223 32.2633C25.8299 32.1584 25.8903 32.0162 25.8903 31.8679C25.8903 31.7195 25.8299 31.5773 25.7223 31.4724C25.6147 31.3675 25.4688 31.3086 25.3166 31.3086H24.6936C24.8238 28.8316 25.8274 26.4744 27.5348 24.6356L27.9714 25.0612C28.079 25.166 28.225 25.225 28.3771 25.225C28.5293 25.2249 28.6752 25.166 28.7828 25.0611C28.8904 24.9562 28.9508 24.814 28.9508 24.6656C28.9508 24.5173 28.8904 24.3751 28.7828 24.2702L28.3462 23.8446C30.2326 22.1802 32.6508 21.2019 35.1919 21.0751V21.6828C35.1919 21.8311 35.2524 21.9734 35.3599 22.0783C35.4675 22.1831 35.6135 22.2421 35.7656 22.2421C35.9178 22.2421 36.0637 22.1831 36.1713 22.0783C36.2789 21.9734 36.3394 21.8311 36.3394 21.6828V21.0754C38.8806 21.2023 41.2989 22.1807 43.1854 23.8453L42.7488 24.2708C42.6412 24.3757 42.5807 24.518 42.5807 24.6663C42.5807 24.8147 42.6412 24.9569 42.7488 25.0618C42.8564 25.1667 43.0023 25.2256 43.1545 25.2256C43.3067 25.2256 43.4526 25.1667 43.5602 25.0618L43.9968 24.6363ZM1.4583 11.002C2.03757 8.02466 3.38314 5.52544 5.35005 3.77442C7.30089 2.0369 9.77535 1.11851 12.5059 1.11851C15.7068 1.11851 19.0654 2.38094 22.4897 4.87084C22.5878 4.94215 22.7066 4.98104 22.829 4.98183C22.9513 4.98262 23.0707 4.94526 23.1698 4.87522C26.5429 2.48906 29.9779 1.22729 33.1039 1.22729C35.827 1.22729 38.3047 2.14176 40.2692 3.87173C42.2389 5.60635 43.6009 8.07416 44.2074 11.0045C44.9183 14.5744 44.4273 18.4003 42.7905 22.1101C40.4455 20.5025 37.5951 19.7504 34.7385 19.9856C31.8819 20.2208 29.2012 21.4282 27.1661 23.3964C27.1486 23.4088 27.1319 23.4221 27.1159 23.4363C27.1013 23.4519 27.0876 23.4683 27.0749 23.4854C25.1667 25.3603 23.9523 27.8006 23.6231 30.4221C23.2938 33.0436 23.8684 35.6974 25.2563 37.9657C24.5835 38.2647 23.8925 38.5551 23.1938 38.8313C23.08 38.8808 22.9569 38.9064 22.8323 38.9063C22.7077 38.9062 22.5846 38.8805 22.471 38.8308C5.46737 32.2482 -0.334869 20.1127 1.4583 11.002Z" fill="#4D0099"/>
<path d="M35.7655 23.1907C34.0048 23.1907 32.2837 23.6996 30.8197 24.6532C29.3557 25.6067 28.2147 26.962 27.5409 28.5477C26.8671 30.1333 26.6908 31.8782 27.0343 33.5615C27.3778 35.2448 28.2257 36.7911 29.4707 38.0047C30.7157 39.2183 32.3019 40.0448 34.0288 40.3796C35.7557 40.7145 37.5456 40.5426 39.1723 39.8858C40.799 39.229 42.1893 38.1167 43.1675 36.6897C44.1457 35.2626 44.6678 33.5848 44.6678 31.8685C44.665 29.5679 43.7262 27.3622 42.0573 25.7354C40.3884 24.1085 38.1257 23.1934 35.7655 23.1907ZM35.7655 39.4286C34.2318 39.4286 32.7325 38.9853 31.4572 38.1546C30.1819 37.324 29.188 36.1434 28.601 34.7621C28.0141 33.3808 27.8605 31.8609 28.1597 30.3945C28.459 28.9282 29.1975 27.5812 30.2821 26.524C31.3666 25.4668 32.7484 24.7469 34.2526 24.4552C35.7569 24.1635 37.3162 24.3132 38.7332 24.8854C40.1502 25.4575 41.3613 26.4264 42.2134 27.6695C43.0655 28.9127 43.5203 30.3742 43.5203 31.8693C43.5178 33.8734 42.7 35.7947 41.2462 37.2118C39.7925 38.6289 37.8215 39.4261 35.7655 39.4286Z" fill="#4D0099"/>
<path d="M35.7655 28.6954C36.1154 28.6956 36.4508 28.8312 36.6982 29.0724C36.9456 29.3136 37.0848 29.6406 37.085 29.9817C37.085 30.13 37.1455 30.2722 37.2531 30.3771C37.3607 30.482 37.5066 30.5409 37.6588 30.5409C37.8109 30.5409 37.9569 30.482 38.0644 30.3771C38.172 30.2722 38.2325 30.13 38.2325 29.9817C38.2317 29.4414 38.0445 28.9171 37.7012 28.493C37.3578 28.0689 36.8781 27.7697 36.3392 27.6435V27.1223C36.3392 26.9739 36.2788 26.8317 36.1712 26.7268C36.0636 26.6219 35.9176 26.563 35.7655 26.563C35.6133 26.563 35.4674 26.6219 35.3598 26.7268C35.2522 26.8317 35.1918 26.9739 35.1918 27.1223V27.6431C34.6042 27.7801 34.0886 28.1225 33.7428 28.6054C33.397 29.0883 33.2451 29.6782 33.3158 30.2631C33.3866 30.8479 33.6751 31.3872 34.1266 31.7784C34.5782 32.1697 35.1613 32.3858 35.7655 32.3858C36.1153 32.384 36.4514 32.5178 36.7 32.7577C36.9486 32.9976 37.0893 33.3239 37.0911 33.6649C37.0928 34.0059 36.9556 34.3336 36.7095 34.5759C36.4634 34.8182 36.1287 34.9553 35.7789 34.9571C35.7744 34.9571 35.7701 34.9564 35.7655 34.9564C35.7609 34.9564 35.7566 34.957 35.7521 34.9571C35.4048 34.9533 35.0729 34.8163 34.8285 34.5757C34.5841 34.3352 34.4468 34.0104 34.4463 33.6718C34.4463 33.5235 34.3859 33.3812 34.2783 33.2763C34.1707 33.1714 34.0247 33.1125 33.8726 33.1125C33.7204 33.1125 33.5745 33.1714 33.4669 33.2763C33.3593 33.3812 33.2989 33.5235 33.2989 33.6718C33.2997 34.212 33.4868 34.7363 33.8302 35.1604C34.1736 35.5845 34.6533 35.8837 35.1921 36.0099V36.6148C35.1921 36.7631 35.2526 36.9054 35.3602 37.0103C35.4678 37.1152 35.6137 37.1741 35.7659 37.1741C35.918 37.1741 36.0639 37.1152 36.1715 37.0103C36.2791 36.9054 36.3396 36.7631 36.3396 36.6148V36.0099C36.9272 35.8729 37.4428 35.5305 37.7886 35.0476C38.1344 34.5647 38.2863 33.9748 38.2155 33.3899C38.1448 32.8051 37.8563 32.2658 37.4047 31.8746C36.9532 31.4833 36.37 31.2672 35.7659 31.2672C35.59 31.2714 35.415 31.2411 35.2512 31.1784C35.0875 31.1156 34.9382 31.0216 34.8123 30.9017C34.6864 30.7819 34.5864 30.6388 34.518 30.4807C34.4497 30.3226 34.4145 30.1528 34.4145 29.9813C34.4145 29.8098 34.4497 29.64 34.518 29.4819C34.5864 29.3238 34.6864 29.1807 34.8123 29.0609C34.9382 28.941 35.0875 28.847 35.2512 28.7842C35.415 28.7214 35.59 28.6912 35.7659 28.6954H35.7655Z" fill="#4D0099"/>
</svg>
