<svg width="48" height="48" viewBox="0 0 48 48" fill="none" xmlns="http://www.w3.org/2000/svg">
<path d="M0.573605 38.8582C0.713815 38.8584 0.849195 38.8026 0.953972 38.7014C2.06744 37.63 3.10604 36.5996 4.0823 35.5981C4.31119 36.7764 4.70396 37.9101 5.24711 38.9601C5.06009 39.249 4.94394 39.5849 4.90963 39.936C4.87532 40.2872 4.92397 40.642 5.051 40.9671C5.11051 41.1248 5.18982 41.2728 5.2867 41.4069C5.46572 41.661 5.6961 41.867 5.96008 42.009C6.22406 42.1511 6.51458 42.2255 6.80922 42.2264C6.88592 42.2263 6.96254 42.2214 7.0387 42.2115C7.27063 42.1812 7.49542 42.1047 7.70181 41.9859C8.46815 42.5906 9.31881 43.0581 10.2214 43.3706L7.18079 46.9524C7.12916 47.0124 7.08898 47.0829 7.06256 47.1599C7.03614 47.2368 7.024 47.3187 7.02685 47.4008C7.0297 47.4828 7.04747 47.5635 7.07914 47.6381C7.11082 47.7126 7.15577 47.7797 7.21141 47.8353C7.26705 47.891 7.33228 47.9341 7.40335 47.9623C7.47441 47.9905 7.54991 48.0031 7.62549 47.9995C7.70108 47.9958 7.77525 47.976 7.84375 47.9412C7.91225 47.9063 7.97372 47.857 8.02462 47.7963L11.7081 43.4568L11.7091 43.4558L15.7139 38.7378C16.2729 38.3137 16.9577 38.1317 17.634 38.2274C17.6462 38.2291 17.6584 38.2303 17.6705 38.2312L26.733 38.8607C28.6455 38.9826 30.5558 38.583 32.2895 37.6982C33.0259 37.317 33.7093 36.8255 34.3199 36.2382L47.8046 23.4123C47.9145 23.3076 47.9835 23.1613 47.9974 23.0033C48.0113 22.8453 47.9691 22.6875 47.8794 22.5621C47.2255 21.6455 46.2711 21.038 45.2149 20.8661C44.1586 20.6943 43.082 20.9713 42.2093 21.6396L41.9023 21.874C40.7271 20.6016 38.8495 20.281 37.5549 21.2162C37.5509 21.2191 37.5469 21.222 37.543 21.225L36.9132 21.7052C36.1172 21.1166 35.1718 20.8123 34.2089 20.8346C33.246 20.8569 32.3134 21.2048 31.5413 21.8298L28.4118 24.2356L23.9656 24.8088C22.9939 24.9324 22.009 24.8176 21.0837 24.4726C17.5326 23.1422 13.973 23.3605 11.5626 25.0566C10.5923 25.7394 9.99109 26.6593 9.40964 27.5489C9.225 27.8316 9.03396 28.1239 8.83383 28.4038C8.16594 29.3379 7.4294 30.2063 6.52944 31.222C5.78088 32.0661 4.98923 32.926 4.15449 33.8017L0.193046 37.7695C0.105969 37.8533 0.0444382 37.9639 0.0166237 38.0866C-0.0111908 38.2093 -0.00397386 38.3382 0.0373164 38.4563C0.0786067 38.5745 0.152017 38.6762 0.247802 38.7479C0.343588 38.8197 0.457217 38.8581 0.573605 38.8582ZM7.31877 40.7724L7.31418 40.7771C7.22368 40.8624 7.11601 40.9235 6.99982 40.9553C6.88364 40.9872 6.76218 40.989 6.64522 40.9607C6.52827 40.9323 6.41908 40.8745 6.32644 40.792C6.23381 40.7095 6.16031 40.6045 6.11186 40.4855C6.06341 40.3665 6.04137 40.2369 6.0475 40.107C6.05364 39.9771 6.08778 39.8505 6.14718 39.7375C6.20658 39.6246 6.28958 39.5283 6.3895 39.4565C6.48942 39.3847 6.60348 39.3393 6.72249 39.3241C6.75265 39.3202 6.78298 39.3183 6.81333 39.3183C6.96894 39.3181 7.12091 39.3694 7.24895 39.4654C7.37699 39.5614 7.47501 39.6975 7.52993 39.8555C7.58485 40.0136 7.59407 40.186 7.55634 40.3499C7.51861 40.5138 7.43573 40.6613 7.31877 40.7727V40.7724ZM38.1958 22.2498C38.9792 21.6887 40.1469 21.8733 40.9423 22.6074L35.3904 26.8456L34.9813 27.1516C34.7198 26.54 34.3553 25.9868 33.9067 25.5205L38.1958 22.2498ZM32.2102 22.8419C32.2144 22.8386 32.2187 22.8353 32.2228 22.8316C32.743 22.409 33.3617 22.153 34.009 22.0925C34.6563 22.0319 35.3063 22.1693 35.8854 22.489L32.9415 24.734C32.2519 24.3018 31.4768 24.0557 30.6813 24.0167L32.2102 22.8419ZM7.3551 32.0854C8.28039 31.0409 9.04065 30.1452 9.73952 29.1671C9.95466 28.8661 10.153 28.5629 10.3447 28.2695C10.8874 27.4391 11.4001 26.6546 12.1858 26.1017C14.3024 24.6123 17.4884 24.4436 20.7086 25.6499C21.7975 26.056 22.9565 26.1912 24.1001 26.0454L29.9997 25.285C30.6031 25.2075 31.2148 25.2865 31.7846 25.5155C32.3544 25.7444 32.866 26.1169 33.2775 26.6022C32.4761 26.3521 31.4833 26.3139 30.3246 26.4999C29.7929 26.5823 29.3014 26.8537 28.9269 27.2715C28.5524 27.6894 28.3161 28.2302 28.2549 28.8094C27.6515 28.8958 27.0502 29.0046 26.4573 29.1368C26.3082 29.1681 26.1761 29.2607 26.0884 29.3953C26.0008 29.5299 25.9644 29.696 25.987 29.859C26.0002 29.9411 26.0285 30.0194 26.0702 30.0894C26.1119 30.1594 26.1661 30.2196 26.2296 30.2665C26.2931 30.3133 26.3646 30.3458 26.4399 30.3621C26.5151 30.3784 26.5927 30.3782 26.6679 30.3614C27.4003 30.1975 28.1449 30.0707 28.8912 29.9797H28.8937H28.8961C29.2048 29.9423 29.5138 29.9105 29.8225 29.8863L34.5518 29.511C34.6559 29.5027 34.7575 29.4713 34.85 29.4186C34.9425 29.3659 35.024 29.2931 35.0895 29.2047L35.1958 29.0611C35.2649 28.9686 35.3145 28.861 35.3413 28.7456C35.3681 28.6302 35.3714 28.5099 35.351 28.393L35.3503 28.389L42.8694 22.6598C43.4251 22.2343 44.0974 22.0262 44.7762 22.0695C45.4551 22.1129 46.1002 22.4052 46.6061 22.8985L32.99 35.8567C31.1526 37.1407 28.9867 37.7574 26.8053 37.618L17.7621 36.9897C16.7828 36.8566 15.7936 37.1337 14.9959 37.7646C14.9653 37.7888 14.9369 37.8163 14.9112 37.8465L11.0896 42.3482C10.1702 42.098 9.29931 41.6714 8.5182 41.0884C8.67519 40.7534 8.74543 40.3785 8.72142 40.0036C8.69741 39.6287 8.58005 39.2679 8.38187 38.9597C8.18368 38.6515 7.91212 38.4076 7.59617 38.2539C7.28022 38.1002 6.93175 38.0425 6.58796 38.087C6.44501 38.106 6.30447 38.1423 6.16896 38.1953C5.61058 37.0627 5.24299 35.831 5.08351 34.5582C5.88122 33.7181 6.63841 32.8939 7.3551 32.0854ZM33.8525 28.3167L29.7384 28.6433C29.6441 28.6509 29.5497 28.6597 29.4554 28.6683C29.5316 28.4235 29.6689 28.2063 29.852 28.041C30.035 27.8758 30.2567 27.7688 30.4924 27.732C31.6647 27.544 33.0815 27.5327 33.8525 28.3167Z" fill="#4D0099"/>
<path d="M25.9403 19.8425C25.9498 19.8468 25.9602 19.8507 25.9703 19.8544C26.2414 19.9665 26.5409 19.9665 26.812 19.8544C26.8234 19.8502 26.8348 19.8457 26.846 19.8408C34.6118 16.4209 37.2435 10.1597 36.4062 5.4708C36.406 5.46931 36.4058 5.46782 36.4055 5.46636C35.795 2.17758 33.6015 0.0523833 30.818 0.0523833C29.405 0.0523833 27.8833 0.626327 26.3961 1.71646C24.8893 0.577146 23.3924 0 21.9403 0C19.1401 0 16.9559 2.14844 16.376 5.47194C15.5395 10.2111 18.1724 16.4923 25.9403 19.8425ZM17.4964 5.70461C17.9769 2.95082 19.6797 1.24015 21.9403 1.24015C23.2488 1.24015 24.6315 1.8235 26.0502 2.97386C26.1477 3.05294 26.2659 3.09607 26.3875 3.09694C26.5091 3.09781 26.6279 3.05639 26.7263 2.97872C28.1245 1.87557 29.5393 1.29253 30.818 1.29253C33.0682 1.29253 34.7805 2.98492 35.2869 5.70957C36.3224 11.5155 31.5914 16.4061 26.4375 18.6832C26.4185 18.6894 26.4029 18.6935 26.3916 18.6963C26.3799 18.6936 26.3631 18.6891 26.3441 18.6827C19.1952 15.5922 16.7488 9.93981 17.4964 5.70461Z" fill="#4D0099"/>
</svg>
