<svg width="48" height="48" viewBox="0 0 48 48" fill="none" xmlns="http://www.w3.org/2000/svg">
<path d="M37.1936 2.40699e-08C34.501 -8.39563e-05 31.9053 1.06477 29.9152 2.98595C27.9251 4.90713 26.684 7.54616 26.4349 10.386C26.4165 10.5886 26.4042 10.7962 26.3967 11.0056H8.51377C8.16067 11.005 7.81314 11.0989 7.5035 11.2787C7.19386 11.4585 6.93217 11.7183 6.74277 12.0339L0.0898793 23.0898C0.0311701 23.1874 -1.19238e-05 23.3007 3.42036e-09 23.4164V45.7769C0.000784666 46.3664 0.222288 46.9316 0.615922 47.3483C1.00956 47.7651 1.54318 47.9994 2.09973 48H35.6675C36.224 47.9995 36.7577 47.7651 37.1514 47.3484C37.545 46.9316 37.7665 46.3665 37.7673 45.7769V22.8751C40.5796 22.7169 43.2225 21.402 45.1331 19.2104C47.0437 17.0188 48.071 14.1237 47.9962 11.1417C47.9214 8.15965 46.7504 5.3264 44.7327 3.24532C42.715 1.16425 40.0099 -0.000193306 37.1936 2.40699e-08ZM19.4573 12.221H26.4128C26.5831 14.8782 27.6229 17.3892 29.3531 19.3217C31.0833 21.2542 33.3955 22.4872 35.8915 22.8084H19.4573V12.221ZM7.70983 12.6881C7.79578 12.5447 7.91456 12.4267 8.05512 12.3451C8.19568 12.2634 8.35345 12.2207 8.51377 12.221H18.31V22.8084H1.61993L7.70983 12.6881ZM23.4263 46.7847H14.341V30.1406L23.4263 34.1755V46.7847ZM36.6199 45.7769C36.6195 46.0443 36.519 46.3005 36.3404 46.4894C36.1618 46.6783 35.9198 46.7845 35.6675 46.7847H24.5737V33.7714C24.5737 33.6516 24.5403 33.5346 24.4777 33.4349C24.4151 33.3352 24.3261 33.2573 24.2218 33.211L13.9892 28.6665C13.902 28.6278 13.8071 28.6125 13.713 28.6219C13.6188 28.6314 13.5284 28.6654 13.4496 28.7209C13.3709 28.7764 13.3063 28.8516 13.2616 28.9399C13.217 29.0282 13.1936 29.1268 13.1936 29.227V46.7847H2.09973C1.84735 46.7845 1.60531 46.6783 1.42674 46.4894C1.24817 46.3005 1.14763 46.0443 1.1472 45.7769V24.0237H36.6199V45.7769ZM37.1936 21.6759C37.1351 21.6759 37.0765 21.6747 37.0176 21.6736C34.4869 21.6251 32.0754 20.5261 30.302 18.6133C28.5286 16.7004 27.5351 14.1266 27.5352 11.4456C27.5352 11.1252 27.5494 10.8075 27.5774 10.4995C27.7506 8.52499 28.4618 6.64641 29.6245 5.09227C30.7873 3.53813 32.3514 2.37542 34.1265 1.74563C35.9017 1.11583 37.8114 1.04608 39.6233 1.54487C41.4352 2.04367 43.0712 3.08949 44.3323 4.55512C45.5933 6.02074 46.425 7.84297 46.7262 9.80011C47.0274 11.7572 46.785 13.7649 46.0287 15.5788C45.2724 17.3928 44.0346 18.9348 42.466 20.0172C40.8975 21.0997 39.0657 21.6759 37.1936 21.6759Z" fill="#4D0099"/>
<path d="M42.4338 9.21316C42.1029 7.47664 40.9053 6.35467 39.3828 6.35467C38.6784 6.35467 37.9295 6.60969 37.1972 7.09583C36.4563 6.587 35.7152 6.32945 34.9895 6.32945C33.4571 6.32945 32.2638 7.46377 31.9496 9.21873C31.513 11.6292 32.8626 14.8132 36.8615 16.4938C36.8711 16.4979 36.8814 16.5018 36.8915 16.5053C37.0856 16.5805 37.2985 16.5805 37.4925 16.5053C37.504 16.5013 37.5154 16.4968 37.5266 16.492C39.3398 15.7138 40.7512 14.5652 41.608 13.17C42.3783 11.916 42.6718 10.5122 42.4344 9.21691C42.4342 9.2161 42.4339 9.21458 42.4338 9.21316ZM37.1911 15.3246C33.8741 13.8923 32.7322 11.3488 33.0766 9.44681C33.287 8.2738 34.0196 7.5451 34.9895 7.5451C35.5647 7.5451 36.2076 7.81308 36.8491 8.31988C36.9472 8.3974 37.0661 8.43967 37.1884 8.44053C37.3108 8.44138 37.4302 8.40078 37.5292 8.32464C38.171 7.83121 38.8121 7.57032 39.3828 7.57032C40.3486 7.57032 41.0868 8.29122 41.3085 9.45167C41.6513 11.3295 40.5085 13.8624 37.1911 15.3246Z" fill="#4D0099"/>
</svg>
