<svg width="176" height="176" viewBox="0 0 176 176" fill="none" xmlns="http://www.w3.org/2000/svg">
<path d="M45.0312 60.1562C44.4842 60.1562 43.9596 60.3735 43.5728 60.7603C43.186 61.1471 42.9688 61.6717 42.9688 62.2188V90.4062C42.9688 90.9533 43.186 91.4779 43.5728 91.8647C43.9596 92.2514 44.4842 92.4688 45.0312 92.4688H55.3438C55.8908 92.4688 56.4154 92.2514 56.8022 91.8647C57.189 91.4779 57.4062 90.9533 57.4062 90.4062V62.2188C57.4062 61.6717 57.189 61.1471 56.8022 60.7603C56.4154 60.3735 55.8908 60.1562 55.3438 60.1562H45.0312ZM52.9375 88.6875H47.0938V86.625H52.9375V88.6875ZM52.9375 82.5H47.0938V64.2812H52.9375V82.5Z" fill="#4D0099"/>
<path d="M63.9375 75.625C63.3905 75.625 62.8659 75.8423 62.4791 76.2291C62.0923 76.6159 61.875 77.1405 61.875 77.6875V90.4062C61.875 90.9533 62.0923 91.4779 62.4791 91.8647C62.8659 92.2515 63.3905 92.4688 63.9375 92.4688H74.25C74.797 92.4688 75.3216 92.2515 75.7084 91.8647C76.0952 91.4779 76.3125 90.9533 76.3125 90.4062V77.6875C76.3125 77.1405 76.0952 76.6159 75.7084 76.2291C75.3216 75.8423 74.797 75.625 74.25 75.625H63.9375ZM72.1875 88.6875H66V86.625H72.1875V88.6875ZM72.1875 82.5H66V79.75H72.1875V82.5Z" fill="#4D0099"/>
<path d="M82.8438 60.1562C82.2967 60.1562 81.7721 60.3735 81.3853 60.7603C80.9985 61.1471 80.7812 61.6717 80.7812 62.2188V90.4062C80.7812 90.9533 80.9985 91.4779 81.3853 91.8647C81.7721 92.2514 82.2967 92.4688 82.8438 92.4688H93.1562C93.7033 92.4688 94.2279 92.2514 94.6147 91.8647C95.0015 91.4779 95.2188 90.9533 95.2188 90.4062V62.2188C95.2188 61.6717 95.0015 61.1471 94.6147 60.7603C94.2279 60.3735 93.7033 60.1562 93.1562 60.1562H82.8438ZM91.0938 88.6875H84.9062V86.625H91.0938V88.6875ZM91.0938 82.5H84.9062V64.2812H91.0938V82.5Z" fill="#4D0099"/>
<path d="M101.75 42.625C101.203 42.625 100.678 42.8423 100.292 43.2291C99.9048 43.6159 99.6875 44.1405 99.6875 44.6875V90.75C99.6875 91.297 99.9048 91.8216 100.292 92.2084C100.678 92.5952 101.203 92.8125 101.75 92.8125H112.062C112.61 92.8125 113.134 92.5952 113.521 92.2084C113.908 91.8216 114.125 91.297 114.125 90.75V44.6875C114.125 44.1405 113.908 43.6159 113.521 43.2291C113.134 42.8423 112.61 42.625 112.062 42.625H101.75ZM110 88.6875H103.812V86.625H110V88.6875ZM110 82.5H103.812V46.75H110V82.5Z" fill="#4D0099"/>
<path d="M120.656 49.8438C120.109 49.8438 119.585 50.061 119.198 50.4478C118.811 50.8346 118.594 51.3592 118.594 51.9062V90.75C118.594 91.297 118.811 91.8216 119.198 92.2084C119.585 92.5952 120.109 92.8125 120.656 92.8125H130.969C131.516 92.8125 132.04 92.5952 132.427 92.2084C132.814 91.8216 133.031 91.297 133.031 90.75V51.9062C133.031 51.3592 132.814 50.8346 132.427 50.4478C132.04 50.061 131.516 49.8438 130.969 49.8438H120.656ZM128.906 88.6875H122.719V86.625H128.906V88.6875ZM128.906 82.5H122.719V53.9688H128.906V82.5Z" fill="#4D0099"/>
<path d="M50.0796 43.3489C48.9496 43.3458 47.8341 43.6041 46.8204 44.1036C45.8067 44.6031 44.9222 45.3302 44.2361 46.2281C43.55 47.1261 43.0808 48.1705 42.8651 49.2798C42.6495 50.3891 42.6933 51.5332 42.9931 52.6228C43.2929 53.7124 43.8406 54.7179 44.5934 55.5607C45.3462 56.4035 46.2837 57.0609 47.3326 57.4814C48.3815 57.9019 49.5134 58.0742 50.64 57.9847C51.7665 57.8953 52.8571 57.5466 53.8265 56.9659L62.3553 63.1259C61.8734 64.1914 61.6532 65.3567 61.7133 66.5246C61.7734 67.6926 62.112 68.8291 62.7007 69.8396C63.2894 70.8501 64.1113 71.7051 65.0977 72.3332C66.0841 72.9614 67.2064 73.3446 68.371 73.4508C69.5357 73.557 70.7088 73.3831 71.7925 72.9436C72.8763 72.5042 73.8392 71.8119 74.601 70.9246C75.3627 70.0372 75.9012 68.9806 76.1715 67.8428C76.4418 66.705 76.4361 65.5191 76.1548 64.384L84.4007 57.0549C85.8299 57.8649 87.49 58.1707 89.114 57.923C90.738 57.6752 92.2315 56.8884 93.3542 55.6891C94.4769 54.4898 95.1635 52.9477 95.3036 51.3109C95.4437 49.6741 95.0292 48.0377 94.1267 46.665L102.636 38.952C103.447 39.5503 104.373 39.9742 105.355 40.1971C106.338 40.42 107.356 40.4369 108.345 40.2468C109.335 40.0568 110.274 39.6639 111.104 39.0929C111.934 38.5218 112.637 37.7851 113.168 36.929L118.835 38.3105C118.392 40.0119 118.574 41.8157 119.348 43.3943C120.122 44.9729 121.436 46.2216 123.052 46.9136C124.668 47.6055 126.479 47.6949 128.156 47.1654C129.832 46.636 131.263 45.5228 132.189 44.0281C133.114 42.5334 133.473 40.7563 133.2 39.0196C132.927 37.2828 132.04 35.7017 130.7 34.5633C129.36 33.4248 127.657 32.8047 125.899 32.8154C124.141 32.8262 122.445 33.4671 121.119 34.6218L114.286 32.9559C114.276 31.8829 114.031 30.825 113.567 29.8573C113.104 28.8895 112.433 28.0354 111.603 27.3553C110.773 26.6752 109.803 26.1858 108.763 25.9216C107.723 25.6574 106.638 25.6249 105.584 25.8263C104.53 26.0278 103.533 26.4583 102.663 27.0875C101.794 27.7167 101.073 28.5291 100.553 29.4674C100.032 30.4057 99.7234 31.447 99.6493 32.5175C99.5752 33.5881 99.7372 34.6619 100.124 35.663L90.9539 43.9749C89.5625 43.3603 88.0142 43.1943 86.5241 43.5C85.0341 43.8057 83.6762 44.5679 82.6391 45.6807C81.6021 46.7934 80.9374 48.2016 80.7373 49.7095C80.5373 51.2174 80.8118 52.7501 81.5228 54.0949L74.0266 60.7574C72.8339 59.6389 71.2997 58.954 69.6707 58.8128C68.0416 58.6717 66.4125 59.0825 65.0451 59.9792L56.6473 53.914C57.2014 52.7979 57.4611 51.5587 57.4018 50.314C57.3425 49.0693 56.9661 47.8604 56.3084 46.802C55.6506 45.7436 54.7334 44.8709 53.6436 44.2665C52.5539 43.6622 51.3278 43.3463 50.0817 43.3489H50.0796ZM50.0796 53.8828C49.4458 53.8828 48.8263 53.6949 48.2992 53.3429C47.7722 52.9908 47.3615 52.4904 47.1189 51.9048C46.8763 51.3193 46.8128 50.675 46.9364 50.0534C47.06 49.4318 47.3652 48.8607 47.8133 48.4126C48.2614 47.9644 48.8324 47.6591 49.454 47.5355C50.0756 47.4118 50.7199 47.4752 51.3055 47.7178C51.891 47.9603 52.3915 48.371 52.7437 48.898C53.0958 49.425 53.2837 50.0445 53.2837 50.6783C53.2828 51.5278 52.945 52.3423 52.3443 52.9431C51.7436 53.5438 50.9292 53.8818 50.0796 53.8828ZM125.922 36.9403C126.556 36.9399 127.176 37.1275 127.703 37.4794C128.23 37.8313 128.641 38.3316 128.884 38.9171C129.127 39.5026 129.19 40.1469 129.067 40.7687C128.944 41.3904 128.639 41.9616 128.191 42.4099C127.742 42.8583 127.172 43.1637 126.55 43.2875C125.928 43.4113 125.284 43.348 124.698 43.1055C124.112 42.863 123.612 42.4523 123.26 41.9253C122.908 41.3983 122.72 40.7787 122.72 40.1448C122.72 39.2956 123.058 38.4813 123.658 37.8806C124.259 37.2799 125.073 36.9418 125.922 36.9403ZM106.961 29.844C107.595 29.844 108.215 30.0319 108.742 30.384C109.269 30.7361 109.679 31.2366 109.922 31.8221C110.164 32.4077 110.228 33.052 110.104 33.6736C109.981 34.2952 109.675 34.8661 109.227 35.3143C108.779 35.7624 108.208 36.0676 107.586 36.1913C106.965 36.3149 106.321 36.2515 105.735 36.0089C105.15 35.7664 104.649 35.3557 104.297 34.8287C103.945 34.3017 103.757 33.6822 103.757 33.0484C103.758 32.1988 104.096 31.3844 104.697 30.7836C105.297 30.1829 106.112 29.845 106.961 29.844ZM88.0008 47.4739C88.6345 47.4739 89.2541 47.6618 89.781 48.0139C90.308 48.366 90.7187 48.8665 90.9613 49.452C91.2038 50.0376 91.2673 50.6819 91.1436 51.3035C91.02 51.9251 90.7148 52.4961 90.2666 52.9442C89.8185 53.3924 89.2475 53.6975 88.6259 53.8212C88.0043 53.9448 87.36 53.8814 86.7745 53.6388C86.1889 53.3963 85.6885 52.9856 85.3364 52.4586C84.9843 51.9316 84.7963 51.3121 84.7963 50.6783C84.7973 49.8288 85.1353 49.0143 85.736 48.4135C86.3367 47.8128 87.1512 47.4749 88.0008 47.4739ZM69.0402 62.9107C69.674 62.9107 70.2935 63.0986 70.8205 63.4507C71.3475 63.8028 71.7582 64.3033 72.0007 64.8888C72.2432 65.4744 72.3067 66.1187 72.1831 66.7403C72.0594 67.3619 71.7542 67.9328 71.3061 68.381C70.8579 68.8291 70.287 69.1343 69.6653 69.258C69.0438 69.3816 68.3994 69.3182 67.8139 69.0756C67.2284 68.8331 66.7279 68.4224 66.3758 67.8954C66.0237 67.3684 65.8358 66.7489 65.8358 66.1151C65.8368 65.2655 66.1747 64.4511 66.7754 63.8503C67.3762 63.2496 68.1906 62.9117 69.0402 62.9107Z" fill="#4D0099"/>
<path d="M161.42 111.732C160.976 109.513 159.692 107.55 157.834 106.257C158.679 105.438 159.352 104.46 159.815 103.379C160.278 102.298 160.522 101.135 160.532 99.9594V20.5047C160.532 15.4646 156.313 11.3438 151.272 11.3438H24.7289C19.6885 11.3438 15.4693 15.4646 15.4693 20.5047V99.9594C15.4794 101.135 15.7231 102.298 16.1861 103.379C16.6492 104.46 17.3224 105.438 18.1667 106.257C16.3015 107.548 15.0066 109.509 14.5518 111.732L1.80078 152.705C1.74187 152.907 1.71439 153.117 1.71931 153.328V155.495C1.7213 157.921 2.68432 160.247 4.39752 161.964C6.11071 163.681 8.43447 164.649 10.86 164.656H165.141C167.567 164.649 169.89 163.681 171.604 161.964C173.317 160.247 174.28 157.921 174.282 155.495V153.328C174.282 153.116 174.249 152.906 174.186 152.705L161.42 111.732ZM19.5943 20.5047C19.622 19.1607 20.1749 17.8809 21.1347 16.9397C22.0944 15.9984 23.3846 15.4704 24.7289 15.4688H151.272C152.617 15.4704 153.907 15.9984 154.866 16.9397C155.826 17.8809 156.379 19.1607 156.407 20.5047V99.9594C156.385 101.241 155.868 102.465 154.965 103.375C154.062 104.286 152.842 104.812 151.56 104.844H24.4412C23.1594 104.812 21.9396 104.286 21.0364 103.375C20.1333 102.465 19.6166 101.241 19.5943 99.9594V20.5047ZM18.5514 112.85C18.5737 112.778 18.5923 112.787 18.6067 112.713C18.8254 111.644 19.4106 110.685 20.2612 110.001C21.1118 109.317 22.1744 108.952 23.2656 108.969H152.753C153.842 108.954 154.902 109.32 155.75 110.004C156.597 110.689 157.179 111.648 157.394 112.716C157.408 112.774 157.427 112.831 157.449 112.887L169.416 151.25H113.235L110.331 142.41C110.198 141.992 109.938 141.625 109.587 141.361C109.235 141.097 108.811 140.949 108.372 140.938H67.6279C67.1888 140.949 66.7642 141.097 66.4131 141.361C66.062 141.625 65.8018 141.992 65.6685 142.41L62.7662 151.25H6.58475L18.5514 112.85ZM108.89 151.25H67.1109L69.1184 145.062H106.883L108.89 151.25ZM170.157 155.495C170.156 156.827 169.628 158.105 168.688 159.048C167.748 159.992 166.473 160.525 165.141 160.531H10.86C9.5281 160.525 8.25281 159.992 7.31293 159.048C6.37304 158.105 5.84502 156.827 5.84431 155.495V155.375H170.157V155.495Z" fill="#4D0099"/>
<path d="M154.126 136.641C154.32 136.39 154.455 136.1 154.524 135.791C154.593 135.482 154.592 135.162 154.523 134.853L149.769 114.073C149.668 113.611 149.415 113.196 149.051 112.894C148.687 112.592 148.232 112.42 147.759 112.406H28.24C27.769 112.416 27.3148 112.584 26.9503 112.882C26.5858 113.181 26.3321 113.593 26.2298 114.053L21.4764 134.787C21.4069 135.105 21.4063 135.433 21.4747 135.751C21.5432 136.069 21.679 136.368 21.8731 136.628C22.0616 136.883 22.3039 137.093 22.5828 137.244C22.8616 137.394 23.1702 137.482 23.4866 137.5H152.513C152.828 137.484 153.136 137.399 153.415 137.251C153.694 137.102 153.937 136.894 154.126 136.641ZM26.0761 133.375L29.8828 116.531H146.116L149.923 133.375H26.0761Z" fill="#4D0099"/>
<path d="M35.4062 34.9731C35.9533 34.9731 36.4779 34.7558 36.8647 34.369C37.2515 33.9822 37.4688 33.4576 37.4688 32.9106V30.4768C37.4688 29.9298 37.2515 29.4052 36.8647 29.0184C36.4779 28.6316 35.9533 28.4143 35.4062 28.4143C34.8592 28.4143 34.3346 28.6316 33.9478 29.0184C33.561 29.4052 33.3438 29.9298 33.3438 30.4768V32.9106C33.3438 33.4576 33.561 33.9822 33.9478 34.369C34.3346 34.7558 34.8592 34.9731 35.4062 34.9731Z" fill="#4D0099"/>
<path d="M33.3438 61.1779C33.3438 61.7249 33.561 62.2495 33.9478 62.6363C34.3346 63.0231 34.8592 63.2404 35.4062 63.2404C35.9533 63.2404 36.4779 63.0231 36.8647 62.6363C37.2515 62.2495 37.4688 61.7249 37.4688 61.1779V41.1067C37.4688 40.5597 37.2515 40.0351 36.8647 39.6483C36.4779 39.2615 35.9533 39.0442 35.4062 39.0442C34.8592 39.0442 34.3346 39.2615 33.9478 39.6483C33.561 40.0351 33.3438 40.5597 33.3438 41.1067V61.1779Z" fill="#4D0099"/>
<path d="M32.3812 100.719H143.608C145.633 100.713 147.573 99.9054 149.005 98.4736C150.437 97.0417 151.244 95.1014 151.25 93.0765V27.4694C151.25 26.4351 151.046 25.411 150.651 24.4555C150.255 23.4999 149.675 22.6317 148.943 21.9004C148.212 21.169 147.344 20.5889 146.388 20.1932C145.433 19.7974 144.409 19.5937 143.374 19.5938H32.6257C30.5388 19.5998 28.5391 20.4315 27.0634 21.9072C25.5878 23.3828 24.7561 25.3825 24.75 27.4694V36.0938C24.75 36.6408 24.9673 37.1654 25.3541 37.5522C25.7409 37.9389 26.2655 38.1562 26.8125 38.1562C27.3595 38.1562 27.8841 37.9389 28.2709 37.5522C28.6577 37.1654 28.875 36.6408 28.875 36.0938V27.3219C28.875 26.3663 29.2546 25.4498 29.9303 24.7741C30.6061 24.0984 31.5226 23.7188 32.4782 23.7188H143.522C144.477 23.7188 145.394 24.0984 146.07 24.7741C146.745 25.4498 147.125 26.3663 147.125 27.3219V93.0875C147.122 94.0166 146.752 94.907 146.095 95.564C145.438 96.221 144.548 96.5912 143.619 96.5938H32.3923C31.4603 96.591 30.5672 96.2196 29.9082 95.5606C29.2492 94.9015 28.8777 94.0085 28.875 93.0765V50.5312C28.875 49.9842 28.6577 49.4596 28.2709 49.0728C27.8841 48.686 27.3595 48.4688 26.8125 48.4688C26.2655 48.4688 25.7409 48.686 25.3541 49.0728C24.9673 49.4596 24.75 49.9842 24.75 50.5312V93.0875C24.7558 95.1096 25.5617 97.0473 26.9916 98.4772C28.4214 99.9071 30.3591 100.713 32.3812 100.719Z" fill="#4D0099"/>
</svg>
