<svg width="176" height="176" viewBox="0 0 176 176" fill="none" xmlns="http://www.w3.org/2000/svg">
<g id="Mask Group">
<mask id="mask0" mask-type="alpha" maskUnits="userSpaceOnUse" x="0" y="0" width="176" height="176">
<g id="compass 1">
<path id="Vector" d="M89.8588 170.156H89.4364C87.8723 170.156 86.2924 170.142 84.7401 170.115C84.4692 170.11 84.2001 170.158 83.948 170.258C83.6959 170.357 83.4658 170.505 83.2709 170.693C83.076 170.881 82.92 171.106 82.812 171.354C82.7039 171.602 82.6458 171.87 82.6409 172.141C82.6361 172.411 82.6847 172.681 82.7839 172.933C82.8831 173.185 83.031 173.415 83.2192 173.61C83.4073 173.805 83.6319 173.961 83.8803 174.069C84.1287 174.177 84.396 174.235 84.6668 174.24C86.2433 174.268 87.8479 174.282 89.4364 174.282H89.8637C90.1345 174.282 90.4027 174.228 90.6529 174.124C90.903 174.021 91.1303 173.869 91.3217 173.677C91.5131 173.485 91.6649 173.258 91.7684 173.008C91.8719 172.757 91.9251 172.489 91.9249 172.218C91.9248 171.947 91.8713 171.679 91.7675 171.429C91.6637 171.179 91.5116 170.952 91.32 170.76C91.1284 170.569 90.9009 170.417 90.6506 170.314C90.4003 170.21 90.1321 170.157 89.8612 170.157L89.8588 170.156Z" fill="black"/>
<path id="Vector_2" d="M105.322 173.8C105.364 173.8 105.407 173.8 105.45 173.796C107.186 173.689 108.932 173.564 110.638 173.422C111.183 173.376 111.687 173.116 112.04 172.699C112.393 172.282 112.566 171.741 112.52 171.197C112.475 170.652 112.216 170.147 111.799 169.794C111.382 169.44 110.842 169.267 110.297 169.311C108.62 169.45 106.904 169.574 105.197 169.679C104.662 169.711 104.161 169.951 103.799 170.347C103.438 170.743 103.245 171.264 103.261 171.8C103.277 172.336 103.501 172.844 103.886 173.218C104.271 173.591 104.786 173.8 105.322 173.8Z" fill="black"/>
<path id="Vector_3" d="M72.3374 171.669C72.3218 171.939 72.3595 172.21 72.4485 172.466C72.5375 172.722 72.676 172.957 72.8562 173.16C73.0363 173.362 73.2545 173.527 73.4983 173.645C73.7422 173.763 74.0068 173.831 74.2772 173.847C75.9905 173.946 77.7381 174.03 79.4713 174.095H79.55C80.097 174.105 80.6256 173.897 81.0195 173.517C81.4134 173.138 81.6404 172.617 81.6505 172.07C81.6605 171.523 81.4529 170.994 81.0732 170.601C80.6936 170.207 80.173 169.98 79.626 169.97C77.9206 169.906 76.2012 169.823 74.5154 169.726C74.2448 169.71 73.9736 169.748 73.7176 169.837C73.4615 169.926 73.2255 170.065 73.0231 170.245C72.8208 170.426 72.6561 170.644 72.5384 170.889C72.4207 171.133 72.3524 171.398 72.3374 171.669Z" fill="black"/>
<path id="Vector_4" d="M46.4528 134.479C46.5957 134.479 46.7382 134.464 46.878 134.435C48.4995 134.095 50.1845 133.766 51.8861 133.457C52.1526 133.409 52.407 133.309 52.6347 133.162C52.8625 133.015 53.0591 132.825 53.2133 132.603C53.3676 132.38 53.4765 132.129 53.5338 131.865C53.5912 131.6 53.5958 131.326 53.5474 131.06C53.4991 130.793 53.3987 130.539 53.2521 130.311C53.1054 130.083 52.9153 129.887 52.6927 129.733C52.47 129.578 52.2192 129.469 51.9545 129.412C51.6897 129.355 51.4163 129.35 51.1498 129.398C49.4114 129.714 47.6896 130.052 46.0317 130.397C45.5319 130.501 45.0885 130.787 44.7872 131.199C44.4859 131.611 44.3482 132.12 44.4005 132.628C44.4529 133.136 44.6918 133.606 45.0708 133.948C45.4499 134.29 45.9423 134.479 46.4528 134.479Z" fill="black"/>
<path id="Vector_5" d="M51.8391 169.366C51.7565 169.906 51.8921 170.458 52.216 170.898C52.54 171.339 53.0257 171.633 53.5664 171.716C55.2477 171.973 56.9843 172.215 58.7285 172.435C58.8151 172.446 58.9022 172.451 58.9894 172.451C59.5139 172.451 60.0185 172.25 60.4006 171.891C60.7827 171.532 61.0135 171.04 61.046 170.517C61.0786 169.993 60.9106 169.477 60.576 169.073C60.2415 168.669 59.7656 168.408 59.2452 168.342C57.5364 168.126 55.8352 167.89 54.1893 167.638C53.6486 167.556 53.0972 167.691 52.6565 168.015C52.2157 168.339 51.9217 168.825 51.8391 169.366Z" fill="black"/>
<path id="Vector_6" d="M36.4306 136.918C36.6201 136.918 36.8086 136.891 36.9909 136.84C38.5605 136.398 40.215 135.966 41.9083 135.555C42.1715 135.492 42.4196 135.377 42.6384 135.217C42.8572 135.057 43.0425 134.856 43.1835 134.625C43.3246 134.394 43.4187 134.137 43.4605 133.869C43.5024 133.602 43.4911 133.329 43.4273 133.065C43.3636 132.802 43.2486 132.554 43.0889 132.335C42.9293 132.116 42.7281 131.931 42.4969 131.79C42.2656 131.649 42.0089 131.555 41.7413 131.513C41.4737 131.471 41.2004 131.482 40.9372 131.546C39.1947 131.968 37.4904 132.414 35.8724 132.87C35.3928 133.005 34.9782 133.308 34.7053 133.725C34.4323 134.142 34.3194 134.643 34.3875 135.137C34.4556 135.63 34.7 136.083 35.0755 136.41C35.4511 136.737 35.9324 136.918 36.4306 136.918Z" fill="black"/>
<path id="Vector_7" d="M62.0604 170.763C62.033 171.032 62.0589 171.305 62.1367 171.564C62.2145 171.824 62.3426 172.065 62.5137 172.275C62.6849 172.485 62.8957 172.659 63.1342 172.788C63.3727 172.916 63.6341 172.996 63.9036 173.024C65.6045 173.196 67.3483 173.355 69.0867 173.493C69.1424 173.497 69.1974 173.499 69.252 173.499C69.7853 173.5 70.298 173.293 70.6825 172.924C71.067 172.554 71.2934 172.05 71.3142 171.517C71.335 170.984 71.1486 170.464 70.7941 170.066C70.4396 169.667 69.9446 169.422 69.4129 169.38C67.7048 169.245 65.9919 169.09 64.3213 168.92C63.7771 168.865 63.2332 169.028 62.8092 169.373C62.3852 169.719 62.1159 170.219 62.0604 170.763Z" fill="black"/>
<path id="Vector_8" d="M56.6021 132.633C56.7095 132.633 56.8167 132.625 56.9228 132.609C58.5793 132.35 60.2816 132.104 61.9821 131.878C62.5246 131.806 63.0162 131.522 63.3488 131.087C63.6815 130.653 63.8279 130.104 63.7559 129.561C63.6839 129.019 63.3993 128.527 62.9648 128.195C62.5303 127.862 61.9815 127.716 61.439 127.788C59.7075 128.017 57.974 128.269 56.2862 128.531C55.7728 128.611 55.3084 128.881 54.9859 129.289C54.6633 129.696 54.5062 130.21 54.5461 130.728C54.586 131.246 54.8199 131.73 55.2011 132.083C55.5823 132.436 56.0826 132.632 56.6021 132.632V132.633Z" fill="black"/>
<path id="Vector_9" d="M66.8296 131.272C66.9064 131.272 66.983 131.268 67.0593 131.26C68.7399 131.073 70.4521 130.901 72.1492 130.749C72.694 130.7 73.1971 130.437 73.5477 130.017C73.8983 129.597 74.0678 129.055 74.0188 128.51C73.9699 127.965 73.7065 127.462 73.2866 127.112C72.8668 126.761 72.3248 126.592 71.78 126.641C70.0547 126.796 68.3133 126.97 66.6045 127.16C66.0802 127.217 65.598 127.474 65.2569 127.876C64.9158 128.278 64.7418 128.796 64.7707 129.323C64.7995 129.849 65.029 130.345 65.4119 130.707C65.7949 131.07 66.3022 131.272 66.8296 131.272Z" fill="black"/>
<path id="Vector_10" d="M120.458 168.236C118.801 168.452 117.094 168.653 115.386 168.834C115.115 168.86 114.851 168.939 114.611 169.068C114.371 169.196 114.158 169.371 113.986 169.582C113.813 169.793 113.684 170.036 113.607 170.297C113.529 170.558 113.503 170.832 113.532 171.103C113.561 171.374 113.643 171.637 113.773 171.876C113.904 172.115 114.081 172.326 114.294 172.496C114.506 172.667 114.751 172.793 115.013 172.869C115.275 172.944 115.549 172.967 115.82 172.936C117.561 172.752 119.301 172.547 120.991 172.326C121.534 172.255 122.026 171.972 122.359 171.538C122.693 171.105 122.841 170.557 122.77 170.014C122.699 169.472 122.416 168.98 121.982 168.646C121.549 168.312 121.001 168.165 120.458 168.235V168.236Z" fill="black"/>
<path id="Vector_11" d="M94.976 170.099C94.429 170.104 93.9067 170.327 93.5238 170.718C93.141 171.109 92.9291 171.635 92.9347 172.182C92.9403 172.729 93.163 173.252 93.5537 173.635C93.9445 174.017 94.4713 174.229 95.0183 174.224H95.0627C96.7959 174.187 98.5438 174.133 100.258 174.063C100.805 174.041 101.32 173.802 101.691 173.4C102.061 172.998 102.257 172.465 102.235 171.918C102.212 171.372 101.974 170.856 101.572 170.486C101.169 170.115 100.636 169.919 100.09 169.942C98.4025 170.01 96.6821 170.063 94.976 170.099Z" fill="black"/>
<path id="Vector_12" d="M17.5563 144.999C17.9965 144.999 18.4252 144.858 18.779 144.596C20.0839 143.654 21.4615 142.818 22.8988 142.094C23.1397 141.97 23.3539 141.8 23.5291 141.594C23.7043 141.387 23.837 141.148 23.9198 140.89C24.0026 140.632 24.0338 140.361 24.0116 140.091C23.9893 139.821 23.9142 139.558 23.7904 139.317C23.6665 139.076 23.4965 138.862 23.2899 138.687C23.0833 138.512 22.8442 138.379 22.5863 138.296C22.3284 138.213 22.0568 138.182 21.7868 138.204C21.5169 138.226 21.2539 138.302 21.013 138.425C19.3789 139.251 17.813 140.205 16.3301 141.279C15.9806 141.536 15.7214 141.898 15.5895 142.312C15.4577 142.726 15.4598 143.171 15.5957 143.583C15.7317 143.996 15.9944 144.355 16.3464 144.61C16.6985 144.864 17.1219 145.001 17.5563 145.001V144.999Z" fill="black"/>
<path id="Vector_13" d="M17.1018 154.444C16.9164 154.246 16.6936 154.086 16.4462 153.974C16.1988 153.862 15.9317 153.8 15.6602 153.791C15.3887 153.782 15.1182 153.828 14.8642 153.924C14.6102 154.02 14.3777 154.165 14.18 154.352C13.9824 154.538 13.8235 154.762 13.7124 155.009C13.6014 155.257 13.5404 155.525 13.533 155.796C13.5256 156.068 13.5719 156.338 13.6692 156.592C13.7665 156.845 13.913 157.077 14.1002 157.274C15.4126 158.627 16.8824 159.818 18.4782 160.822C18.7057 160.971 18.9605 161.073 19.2278 161.124C19.4951 161.174 19.7697 161.171 20.0358 161.114C20.3019 161.058 20.5543 160.949 20.7783 160.795C21.0023 160.641 21.1936 160.444 21.3411 160.215C21.4887 159.987 21.5896 159.731 21.638 159.464C21.6864 159.196 21.6814 158.921 21.6233 158.656C21.5651 158.39 21.455 158.138 21.2992 157.915C21.1435 157.692 20.9451 157.502 20.7156 157.356C19.3995 156.533 18.1864 155.555 17.1018 154.444Z" fill="black"/>
<path id="Vector_14" d="M13.0563 153.535C13.3666 153.535 13.6728 153.465 13.9523 153.33C14.2318 153.195 14.4773 152.999 14.6706 152.756C14.8639 152.514 15.0001 152.23 15.0689 151.928C15.1377 151.625 15.1375 151.311 15.0683 151.009C14.9886 150.665 14.948 150.314 14.9473 149.962C14.9712 149.145 15.2312 148.352 15.696 147.68C15.989 147.218 16.0865 146.659 15.967 146.125C15.8476 145.591 15.5209 145.127 15.059 144.834C14.597 144.541 14.0376 144.443 13.5038 144.562C12.9699 144.682 12.5054 145.009 12.2124 145.471C11.3273 146.803 10.8446 148.362 10.8223 149.962C10.823 150.626 10.8989 151.288 11.0485 151.935C11.153 152.389 11.4085 152.795 11.7731 153.085C12.1378 153.376 12.5901 153.534 13.0563 153.535Z" fill="black"/>
<path id="Vector_15" d="M22.249 160.687C22.0145 161.181 21.9859 161.749 22.1695 162.264C22.353 162.779 22.7338 163.2 23.228 163.435C24.7302 164.148 26.3826 164.844 28.1385 165.504C28.6506 165.696 29.2181 165.677 29.7163 165.451C30.2144 165.225 30.6024 164.811 30.7948 164.299C30.9872 163.786 30.9683 163.219 30.7423 162.721C30.5162 162.223 30.1015 161.835 29.5894 161.642C27.9394 161.023 26.3953 160.372 24.9966 159.708C24.5024 159.474 23.9353 159.445 23.42 159.629C22.9048 159.812 22.4835 160.193 22.249 160.687Z" fill="black"/>
<path id="Vector_16" d="M140.447 164.426C138.869 164.844 137.209 165.247 135.515 165.625C135.019 165.735 134.581 166.024 134.284 166.437C133.988 166.85 133.855 167.358 133.911 167.863C133.966 168.368 134.206 168.835 134.585 169.174C134.963 169.514 135.454 169.701 135.962 169.701C136.113 169.701 136.264 169.684 136.412 169.651C138.159 169.261 139.872 168.845 141.503 168.413C141.766 168.345 142.012 168.225 142.229 168.061C142.445 167.897 142.627 167.692 142.764 167.458C142.901 167.223 142.991 166.964 143.027 166.695C143.064 166.426 143.047 166.152 142.977 165.889C142.908 165.627 142.787 165.381 142.622 165.165C142.457 164.949 142.251 164.768 142.016 164.632C141.781 164.496 141.521 164.408 141.252 164.372C140.983 164.337 140.709 164.355 140.447 164.426Z" fill="black"/>
<path id="Vector_17" d="M158.805 156.926C157.462 157.834 156.056 158.647 154.599 159.358C154.354 159.477 154.136 159.644 153.956 159.848C153.776 160.052 153.638 160.289 153.55 160.547C153.462 160.804 153.426 161.077 153.444 161.348C153.462 161.619 153.533 161.885 153.654 162.128C153.775 162.372 153.943 162.59 154.148 162.768C154.353 162.947 154.591 163.083 154.85 163.169C155.108 163.255 155.38 163.29 155.652 163.27C155.923 163.25 156.188 163.177 156.431 163.054C158.062 162.256 159.636 161.344 161.14 160.325C161.363 160.171 161.554 159.976 161.701 159.748C161.849 159.521 161.95 159.267 161.999 159.001C162.049 158.734 162.045 158.461 161.989 158.196C161.932 157.931 161.824 157.68 161.671 157.457C161.517 157.233 161.321 157.043 161.094 156.895C160.867 156.748 160.613 156.646 160.347 156.597C160.08 156.548 159.807 156.551 159.542 156.608C159.277 156.664 159.026 156.772 158.802 156.926H158.805Z" fill="black"/>
<path id="Vector_18" d="M31.776 164.625C31.615 165.148 31.6681 165.713 31.9238 166.197C32.1795 166.68 32.6167 167.042 33.1393 167.203C34.7439 167.698 36.4458 168.177 38.1976 168.628C38.7274 168.765 39.2896 168.685 39.7606 168.407C40.2316 168.129 40.5728 167.675 40.7092 167.145C40.8455 166.615 40.7658 166.053 40.4876 165.582C40.2094 165.111 39.7555 164.77 39.2257 164.633C37.5365 164.199 35.8975 163.737 34.3544 163.261C34.0956 163.182 33.8235 163.154 33.5539 163.179C33.2842 163.204 33.0221 163.283 32.7827 163.409C32.5433 163.536 32.3311 163.708 32.1584 163.917C31.9856 164.126 31.8557 164.366 31.776 164.625Z" fill="black"/>
<path id="Vector_19" d="M26.6547 140.195C26.9184 140.195 27.1797 140.144 27.4243 140.045C28.8842 139.457 30.4741 138.877 32.1492 138.32C32.4104 138.238 32.6526 138.105 32.8618 137.928C33.071 137.752 33.243 137.535 33.3677 137.292C33.4924 137.048 33.5673 136.782 33.5881 136.509C33.6089 136.236 33.5751 135.962 33.4888 135.702C33.4025 135.442 33.2653 135.202 33.0852 134.996C32.9052 134.79 32.6859 134.621 32.4401 134.501C32.1944 134.38 31.927 134.31 31.6538 134.293C31.3805 134.277 31.1067 134.316 30.8484 134.406C29.0925 134.991 27.4223 135.6 25.8833 136.22C25.4391 136.399 25.0711 136.727 24.8423 137.147C24.6136 137.568 24.5383 138.055 24.6296 138.525C24.7208 138.995 24.9728 139.419 25.3423 139.724C25.7118 140.029 26.1758 140.195 26.6547 140.195Z" fill="black"/>
<path id="Vector_20" d="M150.047 161.352C148.572 161.926 146.976 162.486 145.303 163.017C145.044 163.098 144.803 163.229 144.594 163.404C144.386 163.578 144.214 163.792 144.088 164.033C143.962 164.274 143.886 164.538 143.862 164.808C143.839 165.079 143.869 165.352 143.951 165.611C144.034 165.87 144.166 166.11 144.342 166.318C144.518 166.526 144.732 166.696 144.974 166.821C145.216 166.945 145.48 167.02 145.751 167.042C146.022 167.064 146.294 167.032 146.553 166.948C148.306 166.391 149.985 165.802 151.541 165.195C151.797 165.1 152.031 164.954 152.23 164.767C152.43 164.58 152.59 164.356 152.702 164.106C152.813 163.857 152.874 163.588 152.881 163.315C152.888 163.042 152.841 162.77 152.742 162.515C152.643 162.261 152.494 162.028 152.304 161.832C152.115 161.635 151.888 161.478 151.637 161.37C151.386 161.261 151.117 161.204 150.843 161.201C150.57 161.197 150.299 161.249 150.046 161.351L150.047 161.352Z" fill="black"/>
<path id="Vector_21" d="M130.531 166.646C128.903 166.951 127.213 167.242 125.508 167.51C124.968 167.595 124.483 167.892 124.162 168.334C123.84 168.776 123.707 169.328 123.792 169.869C123.877 170.409 124.173 170.893 124.615 171.215C125.058 171.537 125.61 171.67 126.15 171.585C127.895 171.31 129.625 171.013 131.292 170.7C131.558 170.65 131.812 170.548 132.039 170.4C132.266 170.252 132.461 170.06 132.614 169.837C132.767 169.613 132.874 169.362 132.93 169.097C132.986 168.832 132.989 168.558 132.939 168.292C132.889 168.026 132.787 167.772 132.639 167.545C132.491 167.318 132.3 167.123 132.076 166.97C131.852 166.817 131.601 166.71 131.336 166.654C131.071 166.598 130.797 166.596 130.531 166.646Z" fill="black"/>
<path id="Vector_22" d="M41.7158 167.381C41.6584 167.646 41.6537 167.919 41.702 168.186C41.7503 168.452 41.8506 168.707 41.9972 168.934C42.1438 169.162 42.3338 169.359 42.5565 169.513C42.7791 169.667 43.0299 169.776 43.2946 169.834C44.9494 170.192 46.674 170.536 48.4199 170.855C48.543 170.877 48.6678 170.889 48.7929 170.889C49.3067 170.887 49.8013 170.694 50.18 170.347C50.5586 169.999 50.794 169.523 50.84 169.011C50.886 168.5 50.7394 167.989 50.4287 167.58C50.1181 167.17 49.6659 166.892 49.1607 166.798C47.4588 166.489 45.7792 166.153 44.1684 165.804C43.6341 165.688 43.0755 165.789 42.6156 166.085C42.1557 166.381 41.832 166.847 41.7158 167.381Z" fill="black"/>
<path id="Vector_23" d="M120.205 51.2129C122.428 51.218 124.602 50.5636 126.452 49.3325C128.303 48.1015 129.747 46.349 130.601 44.2971C131.455 42.2452 131.681 39.986 131.25 37.8055C130.82 35.625 129.752 33.6212 128.182 32.0478C126.613 30.4744 124.611 29.4021 122.432 28.9666C120.252 28.5311 117.993 28.7521 115.939 29.6014C113.885 30.4508 112.129 31.8904 110.894 33.7381C109.658 35.5857 108.999 37.7583 108.999 39.9809C108.999 42.9553 110.179 45.8082 112.28 47.9139C114.381 50.0195 117.231 51.2059 120.205 51.2129ZM120.205 32.8739C121.612 32.8688 122.989 33.2813 124.161 34.0591C125.333 34.8369 126.248 35.9451 126.79 37.2433C127.332 38.5414 127.476 39.9712 127.205 41.3515C126.933 42.7319 126.258 44.0006 125.266 44.9972C124.273 45.9937 123.006 46.6731 121.627 46.9494C120.248 47.2258 118.817 47.0865 117.517 46.5494C116.217 46.0122 115.106 45.1013 114.324 43.932C113.542 42.7627 113.124 41.3876 113.124 39.9809C113.123 38.1002 113.868 36.2958 115.195 34.9635C116.523 33.6312 118.325 32.8797 120.205 32.8739Z" fill="black"/>
<path id="Vector_24" d="M107.49 103.797C107.75 103.872 108.022 103.896 108.292 103.867C108.561 103.837 108.822 103.755 109.059 103.624C109.297 103.494 109.506 103.318 109.675 103.107C109.845 102.895 109.971 102.653 110.047 102.393L110.239 101.733C110.392 101.208 110.33 100.643 110.067 100.164C109.803 99.6841 109.36 99.3288 108.835 99.1758C108.31 99.0229 107.746 99.0849 107.266 99.3481C106.787 99.6113 106.431 100.054 106.278 100.58L106.086 101.24C106.01 101.5 105.987 101.772 106.016 102.042C106.046 102.311 106.128 102.572 106.259 102.809C106.389 103.046 106.565 103.256 106.776 103.425C106.987 103.595 107.23 103.721 107.49 103.797Z" fill="black"/>
<path id="Vector_25" d="M106.721 106.437C106.196 106.284 105.631 106.346 105.152 106.609C104.672 106.872 104.317 107.315 104.164 107.84L95.3215 138.205C95.2458 138.465 95.222 138.737 95.2516 139.006C95.2811 139.276 95.3634 139.536 95.4938 139.774C95.6241 140.011 95.8 140.221 96.0113 140.39C96.2225 140.56 96.4651 140.686 96.7252 140.762C96.9853 140.837 97.2577 140.861 97.5269 140.832C97.7962 140.802 98.057 140.72 98.2944 140.589C98.5318 140.459 98.7413 140.283 98.9108 140.072C99.0803 139.861 99.2065 139.618 99.2822 139.358L108.123 108.994C108.276 108.469 108.214 107.905 107.951 107.425C107.688 106.946 107.246 106.59 106.721 106.437Z" fill="black"/>
<path id="Vector_26" d="M75.8622 136.469C76.1062 136.643 76.3842 136.763 76.678 136.822L80.1361 137.579L77.4256 148.942C77.2946 149.459 77.364 150.006 77.62 150.474C77.876 150.942 78.2995 151.295 78.8054 151.464C79.0034 151.525 79.2094 151.556 79.4166 151.556C79.8802 151.556 80.3301 151.399 80.6938 151.111C81.0574 150.824 81.3136 150.422 81.421 149.971L84.1662 138.461L88.7958 139.425C89.2338 139.425 89.6602 139.285 90.0135 139.026C90.3667 138.767 90.6284 138.403 90.7607 137.985L105.638 91.0687C108.439 91.9274 111.315 92.5247 114.227 92.8531V92.9452C114.227 95.8698 116.47 98.3902 119.391 98.5342C120.127 98.5705 120.863 98.457 121.554 98.2005C122.245 97.944 122.876 97.5499 123.41 97.0421C123.944 96.5343 124.37 95.9233 124.661 95.2462C124.952 94.5691 125.102 93.84 125.103 93.103V92.8173C128.281 92.4436 131.412 91.7503 134.451 90.748L149.429 137.984C149.561 138.402 149.822 138.766 150.176 139.025C150.529 139.284 150.955 139.423 151.393 139.424L156.075 138.448L158.766 149.961C158.872 150.414 159.127 150.818 159.492 151.107C159.856 151.397 160.307 151.554 160.773 151.555C160.982 151.554 161.19 151.523 161.389 151.46C161.893 151.289 162.314 150.935 162.569 150.468C162.824 150.001 162.893 149.455 162.764 148.939L160.106 137.566L163.516 136.82C163.81 136.76 164.087 136.64 164.331 136.465C164.671 136.217 164.927 135.87 165.064 135.473C165.202 135.075 165.215 134.644 165.102 134.239L150.384 81.7857C153.856 78.8363 156.887 75.4046 159.386 71.5952C159.916 70.7886 160.271 69.8788 160.425 68.9256C160.58 67.9724 160.531 66.9973 160.282 66.0643C159.941 64.7968 159.24 63.6554 158.263 62.7789C157.286 61.9023 156.075 61.3283 154.778 61.1264C153.481 60.9244 152.153 61.1034 150.956 61.6415C149.759 62.1795 148.744 63.0536 148.034 64.1575C147.447 65.0533 146.824 65.915 146.164 66.7425L140.41 46.2371C141.233 43.5659 141.521 40.7584 141.255 37.9759C140.99 35.1934 140.178 32.4907 138.865 30.023C137.552 27.5554 135.765 25.3715 133.605 23.5967C131.446 21.8219 128.957 20.4912 126.282 19.6811V8.42189C126.288 7.53901 126.12 6.6636 125.787 5.8461C125.453 5.0286 124.961 4.28517 124.339 3.65862C123.717 3.03208 122.977 2.53482 122.162 2.19549C121.347 1.85616 120.473 1.68146 119.59 1.68146C118.707 1.68146 117.833 1.85616 117.018 2.19549C116.203 2.53482 115.463 3.03208 114.841 3.65862C114.219 4.28517 113.727 5.0286 113.393 5.8461C113.06 6.6636 112.891 7.53901 112.898 8.42189V20.0888C107.95 21.9237 103.863 25.5369 101.436 30.2228C99.0091 34.9087 98.4155 40.331 99.7714 45.431L93.5901 67.6696C92.3535 66.2422 91.2382 64.7141 90.2557 63.1012C89.7981 62.332 89.1928 61.661 88.4748 61.1266C87.7567 60.5923 86.9401 60.2052 86.0719 59.9877C85.2037 59.7701 84.3011 59.7264 83.4159 59.8591C82.5308 59.9917 81.6806 60.2981 80.9143 60.7606C80.148 61.2231 79.4808 61.8325 78.9509 62.5539C78.4211 63.2752 78.0391 64.0942 77.827 64.9638C77.6149 65.8333 77.5769 66.7362 77.715 67.6205C77.8532 68.5048 78.1649 69.3531 78.6322 70.1164C81.5026 74.8338 85.1707 79.0167 89.473 82.4784L85.9901 95.0088C85.8436 95.5358 85.9125 96.0994 86.1816 96.5757C86.4507 97.052 86.8979 97.4019 87.425 97.5484C87.952 97.6949 88.5157 97.626 88.9919 97.3569C89.4682 97.0879 89.8181 96.6406 89.9646 96.1136L93.0295 85.0867C95.7706 86.9128 98.6908 88.4545 101.745 89.6878L91.6785 121.44L83.4041 119.721L86.1438 109.864C86.2193 109.602 86.2422 109.328 86.2111 109.057C86.1801 108.786 86.0956 108.524 85.9627 108.286C85.8298 108.049 85.6511 107.839 85.4368 107.671C85.2226 107.502 84.9771 107.378 84.7145 107.305C84.452 107.232 84.1775 107.212 83.9071 107.246C83.6366 107.279 83.3756 107.366 83.1389 107.501C82.9023 107.637 82.6948 107.817 82.5284 108.033C82.3621 108.249 82.2402 108.496 82.1697 108.759L75.0864 134.243C74.9735 134.649 74.9872 135.079 75.1259 135.477C75.2646 135.875 75.5215 136.221 75.8622 136.469ZM119.665 94.4147C119.323 94.4141 118.995 94.28 118.75 94.041C118.505 93.802 118.364 93.4769 118.355 93.135C118.729 93.1439 119.102 93.1535 119.476 93.1535C119.977 93.1535 120.477 93.1425 120.975 93.1271C120.969 93.4705 120.828 93.7976 120.583 94.0383C120.338 94.279 120.008 94.4142 119.665 94.4147ZM160.539 133.249L152.792 134.944L149.764 125.393L157.863 123.712L160.539 133.249ZM156.747 119.731L148.511 121.44L138.312 89.2764C140.59 88.2992 142.787 87.1453 144.884 85.8251C145.557 85.4009 146.217 84.9614 146.863 84.5065L156.747 119.731ZM142.88 70.3083C140.309 72.7333 137.376 74.742 134.185 76.2617L128.817 59.3313C132.414 57.7142 135.492 55.1296 137.707 51.8657L142.88 70.3083ZM119.665 73.8489C118.246 73.8511 116.884 74.4077 115.869 75.4C114.854 76.3923 114.267 77.7417 114.234 79.1605C112.714 78.9208 111.212 78.578 109.739 78.1348L115.3 60.5956C118.455 61.3551 121.743 61.3714 124.905 60.6434L130.349 77.8099C128.635 78.3832 126.878 78.8191 125.095 79.1137C125.049 77.7033 124.457 76.3657 123.444 75.3834C122.431 74.401 121.076 73.8506 119.665 73.8485V73.8489ZM120.978 79.287V79.5403C120.479 79.562 119.978 79.5771 119.476 79.5771C119.1 79.5771 118.726 79.5707 118.352 79.5579V79.287C118.352 79.1146 118.386 78.9438 118.452 78.7845C118.518 78.6252 118.614 78.4804 118.736 78.3585C118.858 78.2365 119.003 78.1398 119.162 78.0738C119.322 78.0078 119.492 77.9739 119.665 77.9739C119.837 77.9739 120.008 78.0078 120.167 78.0738C120.327 78.1398 120.472 78.2365 120.593 78.3585C120.715 78.4804 120.812 78.6252 120.878 78.7845C120.944 78.9438 120.978 79.1146 120.978 79.287ZM117.024 8.42189C117.02 8.08225 117.083 7.7452 117.21 7.43028C117.338 7.11535 117.526 6.82881 117.765 6.58724C118.004 6.34568 118.288 6.15389 118.601 6.023C118.915 5.89211 119.251 5.82471 119.591 5.82471C119.931 5.82471 120.267 5.89211 120.58 6.023C120.894 6.15389 121.178 6.34568 121.417 6.58724C121.656 6.82881 121.844 7.11535 121.971 7.43028C122.099 7.7452 122.162 8.08225 122.158 8.42189V18.8784C121.515 18.819 120.864 18.7846 120.206 18.7846C119.14 18.7846 118.077 18.865 117.024 19.0252V8.42189ZM120.206 22.9082C123.584 22.8981 126.89 23.8908 129.704 25.7605C132.518 27.6302 134.714 30.2928 136.014 33.4113C137.314 36.5298 137.659 39.9638 137.006 43.2787C136.353 46.5935 134.731 49.6401 132.346 52.0327C129.96 54.4252 126.919 56.0562 123.606 56.719C120.293 57.3818 116.858 57.0467 113.735 55.7562C110.613 54.4656 107.944 52.2776 106.066 49.4691C104.188 46.6606 103.185 43.3581 103.185 39.9795C103.184 35.4605 104.975 31.1254 108.166 27.9253C111.357 24.7252 115.687 22.9214 120.206 22.9096V22.9082ZM102.399 51.3879C104.589 54.8119 107.713 57.5376 111.402 59.2433L105.865 76.7037C102.617 75.281 99.6064 73.3686 96.9379 71.0332L102.399 51.3879ZM82.1618 67.9756C81.9183 67.5726 81.7861 67.1122 81.7787 66.6414C81.7712 66.1707 81.8889 65.7064 82.1196 65.2959C82.3502 64.8855 82.6857 64.5436 83.0917 64.3052C83.4977 64.0668 83.9597 63.9404 84.4305 63.9389C84.8942 63.9408 85.3496 64.062 85.753 64.2907C86.1563 64.5195 86.494 64.8482 86.7337 65.2452C90.1644 70.8583 94.9738 75.5007 100.705 78.731C106.436 81.9613 112.897 83.6721 119.476 83.7007C125.829 83.7135 132.084 82.1391 137.674 79.1207C143.263 76.1022 148.011 71.7352 151.484 66.4163C151.84 65.8607 152.389 65.4556 153.024 65.2781C153.66 65.1006 154.339 65.1632 154.931 65.4538C155.266 65.6195 155.561 65.8549 155.796 66.1441C156.032 66.4333 156.203 66.7697 156.298 67.1306C156.399 67.5013 156.419 67.8892 156.357 68.2682C156.295 68.6473 156.152 69.0086 155.938 69.3279C151.898 75.4923 146.361 80.5319 139.845 83.9755C133.328 87.4192 126.045 89.1545 118.676 89.0194C111.307 88.8843 104.092 86.8832 97.7063 83.2029C91.3205 79.5227 85.9719 74.2836 82.1604 67.9752L82.1618 67.9756ZM82.2993 123.704L90.4276 125.391L87.3992 134.943L79.6473 133.247L82.2993 123.704Z" fill="black"/>
</g>
</mask>
<g mask="url(#mask0)">
<rect id="Rectangle 1391" x="-6.00098" y="-3" width="187" height="187" fill="#4D0099"/>
</g>
</g>
</svg>
