<svg width="276" height="371" viewBox="0 0 276 371" fill="none" xmlns="http://www.w3.org/2000/svg">
<path d="M259.525 332.933C258.467 331.23 257.133 329.68 255.534 328.334C250.932 324.295 243.346 322.011 232.329 321.358C231.3 321.297 230.292 321.256 229.315 321.225C230.343 318.86 231.433 316.188 232.481 313.312L232.553 313.118C234.05 308.641 235.231 304.297 236.086 300.156C237.308 300.187 238.591 300.207 239.772 300.207C242.267 300.207 245.535 299.962 248.61 298.076C252.113 295.924 254.445 292.253 255.544 287.184C256.583 282.411 258.029 275.518 258.833 271.673C261.888 269.215 265.217 264.942 265.991 258.701C266.704 252.959 265.838 248.574 265.003 245.943C265.482 243.302 266.358 238.396 267.325 233.083C273.261 226.22 276.397 216.012 275.96 204.783C275.512 193.362 267.315 184.142 263.812 180.695C263.761 180.512 263.71 180.318 263.67 180.114L262.835 168.855L262.886 167.703L262.743 167.265C262.702 166.235 262.672 164.389 262.794 162.165C263.609 147.195 256.634 137.333 252.693 133.019C252.602 127.92 252.215 121.475 250.789 115.591C248.61 106.576 244.659 101.925 240.861 99.5592C239.263 94.4194 235.414 87.9436 229.366 80.2338C223.562 72.83 213.329 61.3367 197.577 48.6707C182.324 36.4125 165.727 26.1328 148.234 18.1375C127.36 8.59207 105.642 2.53438 83.6785 0.127626C76.2048 -0.688223 68.7819 2.4426 63.8232 8.51048C58.8339 14.6293 56.9604 22.6757 58.6913 30.5996C60.0761 36.9326 61.9395 42.5518 63.7417 47.9772C70.3195 67.7819 75.5124 83.436 49.9143 119.915C30.8939 147.021 17.1581 172.537 9.08357 195.758C1.72183 216.929 -1.19029 236.907 0.438868 255.152C1.8542 271.081 6.78239 286.215 15.0911 300.136C21.6993 311.211 30.5477 321.807 42.1249 332.515C42.2267 332.607 42.3285 332.698 42.4202 332.79L42.7867 333.127C42.9904 333.32 43.194 333.504 43.3875 333.677C55.0054 344.202 69.3318 353.299 84.8495 359.999C86.7739 361.039 88.8104 361.865 90.8977 362.467C100.408 366.118 109.989 368.708 117.249 369.585C119.113 369.819 121.292 370.023 123.746 370.187C123.837 370.197 123.878 370.197 123.878 370.197L124.122 370.207H124.346L184.391 370.064H254.271C258.202 370.064 261.888 368.188 264.382 364.924C266.867 361.681 267.854 357.459 267.101 353.339C266.144 348.067 264.036 340.225 259.525 332.933Z" fill="white"/>
<path d="M209.01 184.551C211.392 184.092 216.972 179.422 209.987 170.58C203.002 161.738 192.117 167.99 192.117 167.99C188.706 184.378 206.647 185 209.01 184.551Z" fill="#4D0099"/>
<path d="M241.504 184.919C244.386 186.071 248.652 185.071 250.352 182.369C253.478 177.392 250.556 170.621 248.642 168.581C247.98 167.877 245.994 167.612 244.589 168.234C239.009 170.733 239.152 183.98 241.504 184.919Z" fill="#4D0099"/>
<path d="M254.121 336.421C253.408 335.269 252.512 334.27 251.464 333.382C243.175 326.019 218.718 327.977 218.555 327.998C219.379 326.499 223.126 319.523 226.466 310.386C228.289 304.94 229.918 298.821 230.722 292.661L203.088 291.448C201.102 291.336 199.229 290.224 197.925 288.378C196.418 286.237 195.858 283.391 196.429 280.862L197.467 273.061C197.467 273.061 163.316 237.846 144.51 237.846C144.174 237.846 143.838 237.857 143.512 237.867C131.079 238.418 131.476 258.579 143.919 258.804C169.629 259.273 192.549 264.525 193.751 295.598C194.861 324.235 165.75 341.969 167.603 342.183C172.063 342.703 184.536 340.154 184.536 354.34C184.536 356.767 183.894 362.743 183.894 362.743H254.253C258.387 362.743 261.544 358.694 260.75 354.319C259.813 349.24 257.929 342.571 254.121 336.421Z" fill="#4D0099"/>
<path d="M256.787 201.867L219.021 202.03C216.741 201.867 214.735 203.621 214.134 206.303L204.98 246.728C209.878 248.554 221.485 255.611 219.642 265.482C217.799 275.354 213.228 282.819 199.472 274.365L198.27 281.697C197.384 285.654 199.879 289.754 203.259 289.887L231.505 291.11C231.515 291.029 236.239 291.182 239.905 291.172C242.848 291.161 245.475 289.112 246.32 286.083C246.32 286.062 246.33 286.052 246.33 286.032L250.82 266.043C248.988 266.043 240.811 262.688 241.656 253.214C242.573 242.904 252.653 244.332 255.402 245.321L261.644 210.046C262.499 206.13 260.096 202.101 256.787 201.867ZM223.634 209.77L220.467 225.628C220.141 227.27 218.645 228.596 217.127 228.596C215.61 228.596 214.643 227.27 214.969 225.628L218.135 209.77C218.461 208.128 219.958 206.803 221.475 206.803C223.003 206.803 223.97 208.128 223.634 209.77Z" fill="#4D0099"/>
<path d="M118.047 362.315C119.911 362.549 122.049 362.743 124.391 362.896C124.401 362.264 124.045 361.632 123.312 361.519C103.365 358.511 79.4467 341.674 75.1294 287.501C70.2521 226.292 121.479 187.723 135.561 178.331C137.465 177.056 147.932 171.131 149.052 173.232L155.467 191.986C156.21 193.383 157.259 193.026 156.842 191.486C154.551 183.103 153.634 174.221 155.467 167.317C157.3 160.402 162.798 151.52 162.798 151.52C162.798 151.52 148.635 141.454 154.276 121.191C159.917 100.937 165.996 101.039 169.213 107.097C171.443 111.298 177.4 118.06 181.523 123.373C184.527 127.248 189.303 128.962 193.844 127.758C200.249 126.065 210.268 124.678 223.291 126.84C223.291 126.84 230.816 103.517 234.288 105.129C240.702 108.086 245.284 115.99 244.653 135.978C244.653 135.988 244.653 135.988 244.653 135.998C253.542 144.697 255.375 151.52 255.66 163.615C255.731 166.817 256.302 168.296 256.302 168.296C256.302 168.296 256.088 165.359 256.302 161.381C257.218 144.605 246.221 135.713 246.221 135.713C246.221 124.852 245.305 107.087 235.224 104.129C235.224 89.9436 175.231 16.7619 83.0919 6.6658C71.6573 5.41143 62.4322 16.5886 65.0592 28.6325C71.4536 57.9317 89.8936 74.1875 55.1519 123.73C-23.4956 235.879 8.25258 291.56 46.4359 326.887C46.5785 327.019 46.7312 327.152 46.8737 327.284C47.1283 327.519 47.3828 327.753 47.6476 327.988C72.6755 350.689 104.027 360.622 118.047 362.315Z" fill="#4D0099"/>
<path d="M258.277 184.389C258.277 184.389 269.04 193.72 269.468 204.704C269.895 215.687 266.454 224.029 261.719 228.904C261.719 228.904 279.375 205.724 258.277 184.389Z" fill="#6600CC"/>
</svg>
