<svg width="155" height="77" viewBox="0 0 155 77" fill="none" xmlns="http://www.w3.org/2000/svg">
<path d="M102.328 35.4559C102.232 35.2789 102.057 35.105 101.806 34.9358C101.555 34.7666 101.324 34.6657 101.113 34.6331C101.031 34.6176 100.958 34.5927 100.894 34.5601C100.829 34.5275 100.781 34.4965 100.749 34.4639C100.666 34.3676 100.6 34.1208 100.542 33.7249C100.487 33.3291 100.457 32.8913 100.457 32.4069C100.457 32.1337 100.448 31.9086 100.434 31.7301C100.417 31.5531 100.394 31.3994 100.361 31.2706C100.329 31.1417 100.271 31.0299 100.192 30.9321C100.11 30.8359 100.014 30.7381 99.9008 30.6418C99.7055 30.4804 99.4869 30.3391 99.2451 30.2196C99.0033 30.0985 98.8158 30.0379 98.6856 30.0379C98.5073 30.0379 98.357 30.1264 98.2361 30.305C98.1136 30.4819 98.0377 30.707 98.0051 30.9818C97.9881 31.1107 97.9726 31.2752 97.9555 31.477C97.9385 31.6788 97.923 31.8434 97.9059 31.9723C97.8889 32.1337 97.8408 32.3805 97.7602 32.7112C97.6781 33.0419 97.582 33.4036 97.4688 33.7995C97.3557 34.1953 97.2379 34.5943 97.117 34.9964C96.9945 35.3984 96.8783 35.754 96.7651 36.0613C96.669 36.3346 96.5264 36.6745 96.3404 37.0766C96.1544 37.4787 95.9669 37.8668 95.7809 38.2378C95.5949 38.6104 95.4244 38.9271 95.2709 39.1941C95.1159 39.4611 95.0152 39.6024 94.9671 39.6164C94.9346 39.6164 94.9144 39.5884 94.9067 39.531C94.8974 39.4751 94.8896 39.3618 94.8834 39.191C94.8741 39.0218 94.871 38.7843 94.871 38.4785C94.871 38.1726 94.871 37.7861 94.871 37.3172C94.871 36.6249 94.8679 36.08 94.8586 35.6841C94.8493 35.2882 94.809 34.9871 94.7362 34.7775C94.6633 34.5695 94.5533 34.408 94.4076 34.2931C94.2619 34.1813 94.0604 34.0525 93.8015 33.9066C93.4931 33.7451 93.1893 33.6613 92.8901 33.652C92.5894 33.6442 92.3771 33.7203 92.2469 33.8817C92.1182 34.0106 92.0051 34.245 91.9059 34.5834C91.8098 34.9234 91.7431 35.3022 91.7106 35.7214C91.678 36.0769 91.585 36.4712 91.4316 36.9059C91.2766 37.3405 91.0146 37.9382 90.6426 38.6958L90.3512 39.2997L90.4241 38.5499C90.4411 38.3418 90.4737 38.0453 90.5202 37.6665C90.5698 37.2877 90.6163 36.9276 90.6659 36.5907C90.7294 36.139 90.7945 35.6639 90.8612 35.1625C90.9247 34.6642 90.9836 34.1953 91.0301 33.7606C91.0797 33.326 91.12 32.9456 91.1526 32.6227C91.1851 32.2998 91.2022 32.0747 91.2022 31.9459C91.2022 31.4149 90.934 30.9632 90.4008 30.5906C90.173 30.4617 89.9544 30.3608 89.7452 30.2879C89.5344 30.2149 89.3484 30.1947 89.1856 30.2273C89.1205 30.2444 89.043 30.3127 88.9547 30.4323C88.8648 30.5533 88.7764 30.7101 88.6865 30.9042C88.5966 31.0982 88.5114 31.3202 88.4323 31.5702C88.3502 31.8201 88.2866 32.0747 88.237 32.3324C88.0092 33.2996 87.8356 34.2031 87.7147 35.0398C87.6806 35.2836 87.6496 35.5242 87.6186 35.7648C87.5674 35.8409 87.5163 35.9201 87.4605 36.0086C87.1365 36.5395 86.7196 37.0378 86.2096 37.4989C85.6997 37.9615 85.2099 38.3046 84.7402 38.5281C84.562 38.6073 84.4163 38.671 84.3031 38.7191C84.19 38.7657 84.0815 38.8029 83.9745 38.8262C83.8691 38.8495 83.7591 38.8666 83.6459 38.8728C83.5328 38.8805 83.3948 38.8836 83.2321 38.8836C82.7128 38.8836 82.3982 38.7563 82.285 38.5017C82.1719 38.2471 82.1626 37.9677 82.2618 37.665C82.3579 37.3623 82.5129 37.0984 82.7221 36.8748C82.9314 36.6497 83.1034 36.5705 83.2321 36.6357C83.4103 36.7475 83.7188 36.8049 84.1559 36.8049C84.3977 36.8049 84.5899 36.7879 84.7263 36.7553C84.8627 36.7227 85.0456 36.6497 85.2734 36.5379C85.7276 36.2973 86.1151 35.9744 86.439 35.5708C86.763 35.1687 87.0048 34.7325 87.1675 34.2652C87.3303 33.7979 87.4062 33.3213 87.3985 32.837C87.3892 32.3526 87.2807 31.8931 87.0699 31.4584C86.2747 29.8454 85.0781 29.4589 83.4754 30.2972C82.6012 30.7489 81.8681 31.3528 81.276 32.1104C80.6839 32.868 80.239 33.6799 79.9414 34.5415C79.6407 35.4047 79.495 36.2554 79.5043 37.0952C79.5121 37.9351 79.6872 38.6772 80.0267 39.3214C80.3677 39.9657 80.8776 40.4485 81.5565 40.7683C82.2354 41.0912 83.0941 41.1548 84.1311 40.9623C84.486 40.8987 84.8239 40.8102 85.1386 40.6953C85.4532 40.5835 85.7539 40.4376 86.036 40.2606C86.3181 40.0821 86.5987 39.8648 86.8746 39.6071C87.0203 39.4705 87.1691 39.3245 87.3225 39.1662C87.3225 39.2609 87.3225 39.3509 87.3225 39.4378C87.3318 39.9548 87.383 40.3848 87.4806 40.731C87.5767 41.0772 87.7317 41.3597 87.941 41.5786C88.1502 41.796 88.4277 41.9947 88.7656 42.1717C89.0399 42.316 89.2399 42.4092 89.3608 42.4495C89.4832 42.4899 89.6491 42.5023 89.8583 42.4853C90.0366 42.4697 90.19 42.4356 90.3187 42.389C90.4473 42.3393 90.5729 42.2477 90.6953 42.1111C90.8178 41.9745 90.9418 41.7944 91.072 41.5662C91.2006 41.3411 91.3541 41.0415 91.5323 40.672L92.1384 39.4146L92.4298 39.826C92.7057 40.2125 93.0002 40.5478 93.3164 40.8288C93.631 41.1114 93.9395 41.3334 94.2402 41.4948C94.5393 41.6563 94.8307 41.7494 95.1144 41.7727C95.3965 41.796 95.6367 41.7447 95.8305 41.6143C96.0258 41.4855 96.2676 41.1828 96.559 40.7077C96.8504 40.2327 97.1418 39.6754 97.4332 39.0389C97.7246 38.4024 97.9958 37.7333 98.2469 37.0316C98.498 36.3299 98.6871 35.6888 98.8173 35.1097L98.8669 34.8691L99.2544 35.2091C100.015 35.9185 100.744 36.2973 101.44 36.347C101.714 36.3796 101.894 36.3827 101.973 36.3594C102.054 36.3361 102.151 36.2663 102.265 36.1545C102.41 36.0086 102.486 35.9045 102.495 35.8409C102.517 35.7788 102.457 35.6499 102.328 35.4559ZM83.7467 34.6812C83.8924 34.3754 84.0706 34.0742 84.2799 33.7746C84.4891 33.4766 84.7015 33.2111 84.9123 32.9767C85.1215 32.7423 85.3261 32.5544 85.5183 32.4085C85.7136 32.2641 85.8655 32.1911 85.9787 32.1911C86.0422 32.1911 86.0422 32.3169 85.9787 32.5668C85.9136 32.8168 85.8237 33.0714 85.7105 33.3291C85.5648 33.652 85.3664 33.95 85.1153 34.2233C84.8642 34.4965 84.6178 34.6905 84.3744 34.8039C84.1466 34.9156 83.9544 34.9731 83.7916 34.9731C83.6785 34.9731 83.6227 34.9607 83.6227 34.9374C83.6258 34.911 83.6661 34.8256 83.7467 34.6812Z" fill="white"/>
<path d="M79.6069 32.0186C79.6395 31.8494 79.6767 31.6522 79.7154 31.4256C79.7557 31.2005 79.8007 30.9583 79.8487 30.7006C79.8983 30.4429 79.9448 30.193 79.9944 29.9508C80.2037 28.8548 80.3959 27.8752 80.5648 27.0121C80.7338 26.1505 80.8934 25.3836 81.0391 24.7145C81.1848 24.0454 81.3212 23.4648 81.453 22.9727C81.5816 22.4805 81.7118 22.049 81.8405 21.6795L81.966 21.3147C82.0714 21.0089 82.0327 20.672 81.8653 20.3972C81.5739 19.8818 81.2654 19.6645 80.9415 19.7436C80.7136 19.7933 80.4393 20.3211 80.1169 21.3271C79.7929 22.3362 79.4442 23.7504 79.0737 25.5714C79.0086 25.8617 78.9451 26.1722 78.8784 26.5013C78.8118 26.8304 78.7451 27.158 78.6723 27.4809C78.5994 27.8038 78.5343 28.1096 78.477 28.3999C78.4212 28.6902 78.3669 28.9402 78.3189 29.1497C78.2367 29.5689 78.1499 29.9927 78.0507 30.4196C77.9546 30.8481 77.888 31.1648 77.8554 31.3759C77.7268 32.0372 77.6198 32.5759 77.5408 32.9951C77.4586 33.4142 77.3951 33.7573 77.3455 34.0228C77.2959 34.2898 77.2602 34.4947 77.2354 34.6391C77.2122 34.785 77.1905 34.9061 77.175 35.0024C77.1254 35.437 77.0727 35.6125 77.0169 35.5224C76.9611 35.4339 76.8836 35.0272 76.7859 34.3022C76.7363 33.9964 76.6728 33.6098 76.5906 33.141C76.5085 32.6737 76.4248 32.1739 76.3349 31.6414C76.245 31.1105 76.152 30.5656 76.0559 30.0082C75.9598 29.4509 75.8652 28.9324 75.7769 28.448C75.687 27.9637 75.6079 27.5368 75.5351 27.1658C75.4622 26.7963 75.4095 26.5293 75.377 26.3678C75.1987 25.5932 74.9802 24.8837 74.7213 24.2394C74.4625 23.5952 74.1881 23.0301 73.8967 22.5473C73.6053 22.063 73.3046 21.6795 72.9993 21.3985C72.6908 21.1175 72.3839 20.9592 72.0755 20.9266C71.8166 20.894 71.5981 20.9468 71.4198 21.0849C71.2416 21.2231 71.0726 21.4606 70.9099 21.7975C70.7967 22.0707 70.6386 22.5877 70.4356 23.3452C70.2341 24.1028 70.0217 24.9613 69.8032 25.9207C69.5846 26.8801 67.3201 40.9155 67.1248 41.8998C66.9295 42.8824 66.7838 43.7301 66.6877 44.4395C66.559 45.2608 66.449 46.023 66.3591 46.7247C66.2692 47.4264 66.1933 48.0504 66.1282 48.5985C66.0631 49.1465 66.015 49.5982 65.9825 49.9537C65.953 50.3077 65.9375 50.5421 65.9375 50.6539C65.9871 51.2345 66.2615 51.6536 66.7621 51.9113C66.9078 51.9905 67.0008 52.0277 67.0411 52.02C67.0814 52.0107 67.1341 51.9672 67.1992 51.888C67.2798 51.7763 67.3216 51.6303 67.3216 51.4534C67.3216 51.3711 67.3542 51.1227 67.4177 50.7035C67.4813 50.2844 67.5541 49.8171 67.6363 49.3017C67.7324 48.7863 67.8223 48.2724 67.9044 47.7648C67.985 47.2572 68.0408 46.897 68.0734 46.689C68.123 46.4158 68.202 45.9795 68.3152 45.3834C68.4283 44.7873 68.5539 44.1461 68.6918 43.4615C68.8282 42.7753 71.0292 29.0302 71.1749 28.3534C71.3206 27.6765 71.4431 27.1192 71.5392 26.6845C71.781 25.6692 71.967 24.9473 72.0987 24.5204C72.2274 24.0935 72.3173 23.9041 72.3669 23.9522C72.3839 23.9693 72.4103 24.064 72.4521 24.2425C72.4924 24.4211 72.5327 24.6384 72.5746 24.8961C72.6149 25.1538 72.6552 25.4364 72.697 25.7437C72.7373 26.0496 72.773 26.3476 72.8071 26.6379C72.8241 26.7994 72.8598 27.1456 72.9171 27.6765C72.9745 28.2074 73.0427 28.7818 73.1233 29.3935C73.2039 29.9896 73.2814 30.5904 73.3542 31.1943C73.4271 31.7982 73.4798 32.2297 73.5123 32.4874C73.5619 33.0184 73.6348 33.5928 73.7309 34.206C73.827 34.8192 73.9293 35.4153 74.0347 35.9959C74.1401 36.5765 74.2439 37.1043 74.3493 37.5794C74.4547 38.0544 74.5477 38.4208 74.6283 38.68C74.8546 39.3724 75.1662 39.9981 75.563 40.5538C75.9598 41.1111 76.3674 41.493 76.789 41.7026C76.9177 41.7818 77.0479 41.8439 77.1765 41.8842C77.3052 41.9246 77.3858 41.9448 77.4183 41.9448C77.547 41.9448 77.6772 41.8842 77.8058 41.7631C77.9345 41.6421 78.0244 41.493 78.074 41.3145C78.1236 41.1204 78.184 40.8596 78.2569 40.529C78.3297 40.1983 78.3995 39.8304 78.463 39.4283C78.5266 39.0262 78.5917 38.6009 78.6583 38.1584C78.7219 37.7144 78.7808 37.2999 78.8273 36.9118C78.9234 36.1061 79.0334 35.316 79.1559 34.5413C79.2783 33.7666 79.4023 33.0572 79.5325 32.4129C79.5496 32.3198 79.5744 32.1878 79.6069 32.0186Z" fill="white"/>
<path d="M71.7083 54.6542C70.8263 54.4447 70.1009 54.1637 69.5352 53.8113L70.755 51.048C71.2898 51.3585 71.8881 51.6084 72.5515 51.7947C73.2149 51.9825 73.8504 52.0757 74.4611 52.0757C74.985 52.0757 75.3601 52.0244 75.5833 51.9235C75.808 51.8226 75.9196 51.6689 75.9196 51.4656C75.9196 51.2296 75.7724 51.0526 75.4779 50.9362C75.1834 50.8182 74.6998 50.6894 74.0255 50.5512C73.1591 50.3696 72.4368 50.174 71.8602 49.9644C71.282 49.7548 70.7798 49.4133 70.352 48.9367C69.9242 48.4601 69.7103 47.8143 69.7103 47.0008C69.7103 46.2945 69.9087 45.6518 70.304 45.0727C70.6992 44.4937 71.2898 44.0388 72.0772 43.7066C72.863 43.3744 73.8178 43.2083 74.94 43.2083C75.7104 43.2083 76.4668 43.2921 77.2092 43.4566C77.9517 43.6227 78.6074 43.8665 79.1747 44.1878L78.0354 46.9356C76.9333 46.3783 75.8917 46.1004 74.9075 46.1004C73.9341 46.1004 73.4474 46.3364 73.4474 46.8068C73.4474 47.0319 73.5915 47.2011 73.8798 47.3128C74.1681 47.4246 74.644 47.5457 75.3074 47.6746C76.163 47.836 76.8853 48.0208 77.4727 48.2288C78.0602 48.4384 78.5717 48.7783 79.0042 49.2487C79.4366 49.7207 79.6536 50.3634 79.6536 51.1768C79.6536 51.8832 79.4552 52.5243 79.06 53.0972C78.6647 53.67 78.0741 54.1249 77.2867 54.4633C76.5009 54.8002 75.5461 54.9694 74.4239 54.9694C73.497 54.9678 72.5902 54.8638 71.7083 54.6542Z" fill="white"/>
<path d="M83.377 54.2213C82.4253 53.7229 81.6797 53.0275 81.1388 52.1333C80.5994 51.2391 80.3281 50.2238 80.3281 49.089C80.3281 47.9542 80.5978 46.9389 81.1388 46.0447C81.6782 45.1505 82.4253 44.4534 83.377 43.9567C84.3287 43.4583 85.3982 43.21 86.5855 43.21C87.6767 43.21 88.6501 43.4025 89.5057 43.789C90.3613 44.174 91.0665 44.7313 91.623 45.4594L89.2329 47.5955C88.5369 46.7169 87.7201 46.2775 86.7792 46.2775C85.9872 46.2775 85.3517 46.5321 84.8696 47.0413C84.3891 47.5505 84.1473 48.2336 84.1473 49.0905C84.1473 49.9475 84.3876 50.6305 84.8696 51.1397C85.3501 51.6489 85.9872 51.9035 86.7792 51.9035C87.7201 51.9035 88.5385 51.4642 89.2329 50.5855L91.623 52.7216C91.0665 53.4497 90.3613 54.007 89.5057 54.392C88.6501 54.777 87.6767 54.9711 86.5855 54.9711C85.3982 54.968 84.3287 54.7196 83.377 54.2213Z" fill="white"/>
<path d="M103.782 43.4646V54.7119H99.9968V50.5669H96.4999V54.7119H92.7148V43.4646H96.4999V47.4497H99.9968V43.4646H103.782Z" fill="white"/>
<path d="M108.24 54.2134C107.277 53.7105 106.524 53.0119 105.979 52.1161C105.433 51.2219 105.16 50.2129 105.16 49.0874C105.16 47.9634 105.433 46.9528 105.979 46.0586C106.524 45.1644 107.277 44.4658 108.24 43.9613C109.203 43.4583 110.288 43.2068 111.497 43.2068C112.706 43.2068 113.791 43.4583 114.753 43.9613C115.716 44.4642 116.469 45.1644 117.015 46.0586C117.56 46.9528 117.833 47.9618 117.833 49.0874C117.833 50.2129 117.56 51.2219 117.015 52.1161C116.469 53.0103 115.716 53.7089 114.753 54.2134C113.791 54.7164 112.706 54.9679 111.497 54.9679C110.288 54.9679 109.203 54.7164 108.24 54.2134ZM112.772 51.5541C113.152 51.3244 113.454 50.9968 113.679 50.5746C113.904 50.1523 114.015 49.6555 114.015 49.0889C114.015 48.5207 113.904 48.0255 113.679 47.6032C113.454 47.1794 113.152 46.8534 112.772 46.6237C112.392 46.3939 111.968 46.2775 111.497 46.2775C111.025 46.2775 110.601 46.3923 110.221 46.6237C109.841 46.8534 109.539 47.181 109.314 47.6032C109.089 48.0271 108.978 48.5223 108.978 49.0889C108.978 49.6571 109.089 50.1523 109.314 50.5746C109.539 50.9984 109.841 51.3244 110.221 51.5541C110.601 51.7839 111.025 51.9003 111.497 51.9003C111.968 51.9003 112.392 51.7855 112.772 51.5541Z" fill="white"/>
<path d="M121.842 54.2134C120.879 53.7105 120.126 53.0119 119.58 52.1161C119.035 51.2219 118.762 50.2129 118.762 49.0874C118.762 47.9634 119.035 46.9528 119.58 46.0586C120.126 45.1644 120.879 44.4658 121.842 43.9613C122.804 43.4583 123.889 43.2068 125.098 43.2068C126.307 43.2068 127.392 43.4583 128.355 43.9613C129.317 44.4642 130.071 45.1644 130.616 46.0586C131.162 46.9528 131.435 47.9618 131.435 49.0874C131.435 50.2129 131.162 51.2219 130.616 52.1161C130.071 53.0103 129.317 53.7089 128.355 54.2134C127.392 54.7164 126.307 54.9679 125.098 54.9679C123.889 54.9679 122.804 54.7164 121.842 54.2134ZM126.374 51.5541C126.754 51.3244 127.056 50.9968 127.281 50.5746C127.505 50.1523 127.617 49.6555 127.617 49.0889C127.617 48.5207 127.505 48.0255 127.281 47.6032C127.056 47.1794 126.754 46.8534 126.374 46.6237C125.994 46.3939 125.569 46.2775 125.098 46.2775C124.627 46.2775 124.202 46.3923 123.822 46.6237C123.443 46.8534 123.14 47.181 122.916 47.6032C122.691 48.0271 122.579 48.5223 122.579 49.0889C122.579 49.6571 122.691 50.1523 122.916 50.5746C123.14 50.9984 123.443 51.3244 123.822 51.5541C124.202 51.7839 124.627 51.9003 125.098 51.9003C125.569 51.9003 125.994 51.7855 126.374 51.5541Z" fill="white"/>
<path d="M132.816 43.4646H136.602V51.7716H141.672V54.7119H132.816V43.4646Z" fill="white"/>
<path d="M53.612 60.9123C53.4508 60.653 53.2478 60.4171 53.0044 60.2121C52.3038 59.5974 51.1491 59.2496 49.472 59.1503C49.3154 59.141 49.162 59.1348 49.0132 59.1301C49.1697 58.7699 49.3356 58.3632 49.4952 57.9254L49.5061 57.8959C49.7339 57.2144 49.9137 56.5531 50.0439 55.9228C50.2299 55.9275 50.4252 55.9306 50.605 55.9306C50.9848 55.9306 51.4823 55.8933 51.9504 55.6061C52.4836 55.2786 52.8386 54.7197 53.006 53.9481C53.1641 53.2216 53.3842 52.1722 53.5066 51.5869C53.9716 51.2128 54.4785 50.5623 54.5963 49.6122C54.7048 48.7382 54.573 48.0707 54.4459 47.6701C54.5188 47.2681 54.6521 46.5214 54.7993 45.7125C55.703 44.6678 56.1804 43.1138 56.1137 41.4046C56.0455 39.6659 54.7978 38.2625 54.2646 37.7378C54.2568 37.7098 54.2491 37.6803 54.2429 37.6493L54.1158 35.9354L54.1235 35.76L54.1018 35.6932C54.0956 35.5364 54.091 35.2554 54.1096 34.917C54.2336 32.6381 53.1718 31.1369 52.572 30.4802C52.558 29.704 52.4991 28.7229 52.2821 27.8271C51.9504 26.4548 51.349 25.7469 50.7709 25.3867C50.5275 24.6043 49.9416 23.6185 49.0209 22.4449C48.1374 21.3178 46.5797 19.5682 44.1818 17.6401C41.8599 15.7741 39.3334 14.2093 36.6705 12.9922C33.493 11.5391 30.1869 10.617 26.8435 10.2506C25.7058 10.1264 24.5759 10.603 23.821 11.5267C23.0615 12.4582 22.7763 13.683 23.0398 14.8893C23.2506 15.8533 23.5343 16.7087 23.8086 17.5346C24.8099 20.5494 25.6004 22.9323 21.7037 28.4853C18.8083 32.6117 16.7174 36.4958 15.4882 40.0307C14.3676 43.2535 13.9243 46.2947 14.1723 49.072C14.3877 51.4969 15.1379 53.8006 16.4027 55.9197C17.4087 57.6056 18.7556 59.2186 20.518 60.8486C20.5335 60.8626 20.549 60.8766 20.5629 60.8906L20.6187 60.9418C20.6497 60.9713 20.6807 60.9992 20.7102 61.0256C22.4787 62.6277 24.6596 64.0125 27.0218 65.0324C27.3147 65.1908 27.6247 65.3165 27.9425 65.4081C29.3902 65.9639 30.8487 66.3582 31.9539 66.4917C32.2375 66.5274 32.5692 66.5584 32.9428 66.5833C32.9567 66.5848 32.9629 66.5848 32.9629 66.5848L33.0001 66.5864H33.0342L42.1746 66.5646H52.8122C53.4105 66.5646 53.9716 66.279 54.3514 65.7822C54.7296 65.2886 54.8799 64.6459 54.7652 64.0187C54.6195 63.2161 54.2987 62.0223 53.612 60.9123Z" fill="white"/>
<path d="M45.9142 38.3804C46.2769 38.3105 47.1263 37.5995 46.063 36.2535C44.9997 34.9076 43.3428 35.8592 43.3428 35.8592C42.8235 38.354 45.5546 38.4487 45.9142 38.3804Z" fill="#4D0099"/>
<path d="M50.8629 38.4362C51.3016 38.6117 51.951 38.4595 52.2099 38.0481C52.6857 37.2906 52.2409 36.2597 51.9495 35.9493C51.8487 35.8421 51.5465 35.8018 51.3326 35.8965C50.4832 36.2768 50.5049 38.2934 50.8629 38.4362Z" fill="#4D0099"/>
<path d="M52.7817 61.4989C52.6732 61.3234 52.5368 61.1713 52.3771 61.0362C51.1154 59.9154 47.3923 60.2135 47.3675 60.2166C47.4931 59.9884 48.0635 58.9265 48.5719 57.5355C48.8493 56.7065 49.0973 55.7751 49.2198 54.8374L45.0131 54.6527C44.7108 54.6356 44.4256 54.4664 44.2272 54.1854C43.9978 53.8594 43.9126 53.4263 43.9994 53.0413L44.1575 51.8537C44.1575 51.8537 38.9588 46.4932 36.096 46.4932C36.0448 46.4932 35.9937 46.4947 35.9441 46.4963C34.0515 46.5801 34.112 49.6492 36.006 49.6834C39.9198 49.7548 43.4088 50.5543 43.5917 55.2845C43.7607 59.6437 39.3292 62.3434 39.6113 62.376C40.2902 62.4551 42.189 62.067 42.189 64.2265C42.189 64.5959 42.0913 65.5056 42.0913 65.5056H52.8018C53.4311 65.5056 53.9116 64.8893 53.7907 64.2234C53.6481 63.4502 53.3614 62.435 52.7817 61.4989Z" fill="#4D0099"/>
<path d="M53.1853 41.0164L47.4363 41.0412C47.0891 41.0164 46.7838 41.2834 46.6923 41.6917L45.2989 47.8454C46.0444 48.1233 47.8114 49.1976 47.5309 50.7003C47.2503 52.2031 46.5544 53.3395 44.4603 52.0525L44.2774 53.1687C44.1426 53.771 44.5223 54.3951 45.0369 54.4153L49.3366 54.6016C49.3382 54.5891 50.0574 54.6124 50.6154 54.6109C51.0633 54.6093 51.4632 54.2973 51.5919 53.8362C51.5919 53.8331 51.5934 53.8316 51.5934 53.8285L52.277 50.7857C51.998 50.7857 50.7533 50.275 50.882 48.8328C51.0215 47.2633 52.556 47.4806 52.9745 47.6312L53.9246 42.2614C54.0548 41.6653 53.689 41.0521 53.1853 41.0164ZM48.1385 42.2195L47.6564 44.6335C47.6068 44.8834 47.379 45.0852 47.148 45.0852C46.9171 45.0852 46.7698 44.8834 46.8194 44.6335L47.3015 42.2195C47.3511 41.9695 47.5789 41.7677 47.8099 41.7677C48.0424 41.7677 48.1896 41.9695 48.1385 42.2195Z" fill="#4D0099"/>
<path d="M32.0677 65.4406C32.3513 65.4763 32.6768 65.5058 33.0333 65.5291C33.0349 65.4329 32.9806 65.3366 32.869 65.3195C29.8326 64.8616 26.1916 62.2985 25.5344 54.0521C24.792 44.7345 32.59 38.8632 34.7337 37.4334C35.0235 37.2394 36.6169 36.3374 36.7874 36.6572L37.7639 39.5121C37.8771 39.7248 38.0367 39.6705 37.9732 39.436C37.6244 38.16 37.4849 36.8078 37.7639 35.7568C38.0429 34.7043 38.8799 33.3521 38.8799 33.3521C38.8799 33.3521 36.7239 31.8199 37.5826 28.7352C38.4413 25.6521 39.3666 25.6676 39.8564 26.5898C40.1959 27.2294 41.1026 28.2586 41.7304 29.0674C42.1876 29.6574 42.9146 29.9182 43.6059 29.735C44.5808 29.4773 46.106 29.2661 48.0885 29.5953C48.0885 29.5953 49.2339 26.0449 49.7625 26.2902C50.739 26.7404 51.4365 27.9435 51.3404 30.9862C51.3404 30.9878 51.3404 30.9878 51.3404 30.9893C52.6935 32.3135 52.9725 33.3521 53.0159 35.1933C53.0268 35.6807 53.1136 35.9058 53.1136 35.9058C53.1136 35.9058 53.081 35.4587 53.1136 34.8533C53.2531 32.2996 51.5791 30.9459 51.5791 30.9459C51.5791 29.2925 51.4396 26.5882 49.9051 26.138C49.9051 23.9786 40.7725 12.8384 26.7465 11.3015C25.0059 11.1106 23.6016 12.8121 24.0015 14.6455C24.9749 19.1056 27.7819 21.5801 22.4933 29.1218C10.5211 46.1937 15.354 54.6699 21.1665 60.0475C21.1882 60.0677 21.2115 60.0879 21.2332 60.1081C21.2719 60.1438 21.3107 60.1795 21.351 60.2152C25.1609 63.6709 29.9333 65.1829 32.0677 65.4406Z" fill="#4D0099"/>
<path d="M53.4141 38.3557C53.4141 38.3557 55.0524 39.7762 55.1175 41.4481C55.1826 43.1201 54.6587 44.39 53.938 45.132C53.938 45.132 56.6257 41.6034 53.4141 38.3557Z" fill="#6600CC"/>
</svg>
