<svg width="48" height="54" viewBox="0 0 48 54" fill="none" xmlns="http://www.w3.org/2000/svg">
<path d="M11.5766 27.9238H13.0458C15.272 27.9213 17.4063 27.0458 18.9805 25.4892C20.5547 23.9326 21.4402 21.8221 21.4428 19.6207V10.1223C21.4409 8.37881 20.7396 6.70731 19.4929 5.4745C18.2463 4.24169 16.556 3.54825 14.7929 3.54631H3.83236C3.65926 3.54631 3.49325 3.61431 3.37085 3.73535C3.24845 3.85639 3.17969 4.02056 3.17969 4.19173V19.6207C3.18228 21.8221 4.06779 23.9326 5.64196 25.4892C7.21613 27.0457 9.3504 27.9213 11.5766 27.9238ZM4.48504 4.83661H14.7926C16.2097 4.83809 17.5684 5.39546 18.5704 6.38639C19.5725 7.37733 20.136 8.7209 20.1375 10.1223V10.7168L18.3593 11.3696C17.5984 11.647 16.7828 11.7459 15.9768 11.6584C15.1707 11.5709 14.3962 11.2994 13.7144 10.8654C12.3994 10.0241 10.822 9.67931 9.27099 9.894L4.48471 10.5565L4.48504 4.83661ZM4.48504 11.8594L9.45188 11.1718C10.6922 11.0002 11.9536 11.276 13.0053 11.9486C13.8578 12.4915 14.8262 12.8311 15.8341 12.9406C16.8421 13.05 17.862 12.9263 18.8133 12.5793L20.1371 12.0933V19.6207C20.135 21.4799 19.3872 23.2623 18.0578 24.5769C16.7283 25.8916 14.9258 26.6311 13.0457 26.6331H11.5766C9.69645 26.6311 7.89395 25.8916 6.56449 24.577C5.23504 23.2623 4.48719 21.4799 4.48504 19.6207V11.8594Z" fill="#4D0099"/>
<path d="M18.7149 40.3662L17.6489 40.213L17.1723 39.2581C17.1184 39.1501 17.0351 39.0592 16.9316 38.9956C16.8282 38.9321 16.7089 38.8984 16.5871 38.8984C16.4653 38.8984 16.346 38.9321 16.2426 38.9956C16.1392 39.0592 16.0558 39.1501 16.0019 39.2581L15.5252 40.213L14.4592 40.3662C14.3387 40.3835 14.2254 40.4338 14.1323 40.5114C14.0392 40.5891 13.97 40.6909 13.9323 40.8054C13.8947 40.92 13.8902 41.0426 13.9194 41.1595C13.9486 41.2765 14.0103 41.383 14.0975 41.467L14.8687 42.2103L14.6866 43.2598C14.666 43.3785 14.6794 43.5005 14.7253 43.6121C14.7712 43.7236 14.8477 43.8203 14.9462 43.8911C15.0447 43.9619 15.1613 44.004 15.2828 44.0127C15.4042 44.0214 15.5257 43.9963 15.6335 43.9403L16.5868 43.4447L17.5399 43.9403C17.6477 43.9963 17.7692 44.0214 17.8907 44.0127C18.0121 44.0041 18.1287 43.962 18.2273 43.8912C18.3258 43.8204 18.4023 43.7237 18.4482 43.6122C18.4941 43.5006 18.5075 43.3786 18.4869 43.2599L18.3048 42.2103L19.076 41.467C19.1632 41.383 19.2248 41.2765 19.254 41.1595C19.2832 41.0426 19.2787 40.92 19.2411 40.8054C19.2035 40.6909 19.1342 40.5891 19.0411 40.5114C18.948 40.4338 18.8348 40.3835 18.7143 40.3662H18.7149ZM17.1485 41.5229C17.0727 41.5959 17.0161 41.686 16.9834 41.7855C16.9506 41.885 16.9429 41.9909 16.9608 42.094L16.9772 42.1891L16.8909 42.1443C16.7973 42.0956 16.693 42.0701 16.5872 42.0701C16.4814 42.0701 16.3772 42.0956 16.2835 42.1443L16.1972 42.1891L16.2137 42.0942C16.2316 41.991 16.2238 41.8851 16.1911 41.7856C16.1584 41.6861 16.1017 41.5959 16.0259 41.5229L15.9561 41.4554L16.0526 41.4415C16.1573 41.4265 16.2567 41.3865 16.3424 41.325C16.428 41.2635 16.4972 41.1823 16.544 41.0885L16.5875 41.0024L16.631 41.0885C16.6779 41.1823 16.7471 41.2635 16.8327 41.325C16.9183 41.3865 17.0178 41.4265 17.1225 41.4415L17.2191 41.4555L17.1485 41.5229Z" fill="#4D0099"/>
<path d="M33.8096 23.253H35.1282C37.1438 23.2508 39.0761 22.4581 40.5014 21.0487C41.9266 19.6394 42.7283 17.7285 42.7306 15.7354V13.0719H42.8661C43.5391 13.0749 44.2062 12.9465 44.8289 12.6939C45.4516 12.4414 46.0177 12.0696 46.4947 11.6001C46.9717 11.1305 47.3503 10.5724 47.6085 9.95782C47.8668 9.34321 47.9998 8.68419 47.9998 8.01862C47.9998 7.35305 47.8668 6.69404 47.6085 6.07942C47.3503 5.46481 46.9717 4.90671 46.4947 4.43716C46.0177 3.96762 45.4516 3.59589 44.8289 3.34332C44.2062 3.09074 43.5391 2.9623 42.8661 2.96537H41.1726C40.4644 2.04386 39.5503 1.29672 38.5018 0.78232C37.4533 0.267918 36.2987 0.000173687 35.1282 0H33.8096C31.794 0.00213535 29.8616 0.79484 28.4363 2.20419C27.011 3.61354 26.2093 5.52444 26.207 7.51762V15.7359C26.2094 17.729 27.0112 19.6398 28.4365 21.049C29.8618 22.4583 31.7941 23.2509 33.8096 23.253ZM42.8659 4.25621C43.3672 4.25356 43.8642 4.34892 44.3281 4.53681C44.7921 4.7247 45.2139 5.00142 45.5694 5.35105C45.9249 5.70069 46.2069 6.11635 46.3994 6.57414C46.5919 7.03194 46.691 7.52283 46.691 8.01862C46.691 8.51441 46.5919 9.00531 46.3994 9.4631C46.2069 9.92089 45.9249 10.3366 45.5694 10.6862C45.2139 11.0358 44.7921 11.3125 44.3281 11.5004C43.8642 11.6883 43.3672 11.7837 42.8659 11.781H42.7306V7.51762C42.7319 6.38815 42.4743 5.27308 41.9772 4.25621H42.8659ZM27.5124 7.51762C27.5143 5.86666 28.1783 4.28387 29.3589 3.11651C30.5395 1.94915 32.1401 1.29257 33.8096 1.29084H35.1282C36.7977 1.29263 38.3983 1.94923 39.5788 3.11659C40.7593 4.28394 41.4233 5.8667 41.4252 7.51762V9.31328C39.6238 9.28875 38.3468 5.89546 38.3337 5.85857C38.2968 5.75564 38.2342 5.66365 38.1515 5.5912C38.0689 5.51876 37.9691 5.46822 37.8613 5.44433C37.7536 5.42044 37.6415 5.42397 37.5355 5.4546C37.4295 5.48522 37.3331 5.54194 37.2553 5.61944C34.9387 7.91463 31.7966 9.20832 28.5174 9.21711H27.5124V7.51762ZM27.5124 10.5081H28.5167C31.8133 10.4986 34.9963 9.31578 37.4833 7.17587C38.0971 8.44368 39.436 10.613 41.4107 10.6129C41.4153 10.6129 41.42 10.6129 41.4246 10.6129V15.736C41.4227 17.3869 40.7587 18.9697 39.5782 20.137C38.3977 21.3043 36.7972 21.961 35.1278 21.9628H33.8096C32.14 21.9611 30.5393 21.3044 29.3587 20.1369C28.1781 18.9694 27.5141 17.3865 27.5124 15.7354V10.5081Z" fill="#4D0099"/>
<path d="M39.3821 34.37L38.3161 34.2168L37.8394 33.2619C37.7855 33.1539 37.7021 33.063 37.5987 32.9995C37.4953 32.9359 37.376 32.9022 37.2542 32.9022C37.1324 32.9022 37.0131 32.9359 36.9097 32.9995C36.8063 33.063 36.7229 33.1539 36.669 33.2619L36.1932 34.2168L35.1271 34.37C35.0066 34.3873 34.8934 34.4376 34.8003 34.5152C34.7072 34.5929 34.6379 34.6947 34.6003 34.8092C34.5627 34.9238 34.5582 35.0464 34.5874 35.1633C34.6166 35.2803 34.6782 35.3868 34.7654 35.4708L35.5366 36.2141L35.3545 37.2637C35.3339 37.3824 35.3473 37.5044 35.3932 37.616C35.4391 37.7276 35.5156 37.8242 35.6141 37.895C35.7127 37.9658 35.8293 38.0079 35.9507 38.0166C36.0722 38.0252 36.1937 38.0001 36.3015 37.9441L37.2546 37.4485L38.2078 37.9441C38.3156 38.0001 38.4371 38.0252 38.5585 38.0166C38.68 38.0079 38.7966 37.9658 38.8951 37.895C38.9937 37.8242 39.0702 37.7276 39.1161 37.616C39.162 37.5044 39.1754 37.3824 39.1548 37.2637L38.9727 36.2141L39.7438 35.4708C39.831 35.3868 39.8927 35.2803 39.9219 35.1633C39.9511 35.0464 39.9466 34.9238 39.909 34.8092C39.8713 34.6947 39.8021 34.5929 39.709 34.5152C39.6159 34.4376 39.5026 34.3873 39.3821 34.37ZM37.8157 35.5267C37.7399 35.5997 37.6833 35.6898 37.6506 35.7894C37.6179 35.8889 37.6101 35.9947 37.628 36.0979L37.6444 36.193L37.5581 36.148C37.4645 36.0993 37.3602 36.0739 37.2544 36.0739C37.1486 36.0739 37.0444 36.0993 36.9507 36.148L36.8644 36.193L36.8809 36.0979C36.8987 35.9947 36.891 35.8889 36.8583 35.7894C36.8256 35.6898 36.7689 35.5997 36.6931 35.5267L36.6234 35.4593L36.7198 35.4455C36.8245 35.4304 36.924 35.3904 37.0096 35.3289C37.0952 35.2673 37.1644 35.1862 37.2112 35.0923L37.2547 35.0062L37.2983 35.0923C37.3451 35.1862 37.4143 35.2673 37.4999 35.3289C37.5855 35.3904 37.685 35.4304 37.7897 35.4455L37.8861 35.4593L37.8157 35.5267Z" fill="#4D0099"/>
<path d="M0.652674 50.5619H13.8619V53.3546C13.8619 53.4753 13.8961 53.5936 13.9607 53.696C14.0252 53.7984 14.1175 53.8809 14.2271 53.934C14.3366 53.9872 14.459 54.0089 14.5805 53.9967C14.7019 53.9846 14.8174 53.939 14.9139 53.8651L16.5867 52.5857L18.2594 53.8651C18.356 53.939 18.4715 53.9846 18.5929 53.9967C18.7143 54.0089 18.8367 53.9872 18.9463 53.934C19.0558 53.8809 19.1481 53.7984 19.2127 53.696C19.2772 53.5936 19.3114 53.4753 19.3114 53.3546V50.5619H23.9691C24.1422 50.5619 24.3082 50.4939 24.4306 50.3728C24.553 50.2518 24.6218 50.0876 24.6218 49.9165V43.5682H34.5298V47.3585C34.5299 47.4791 34.5642 47.5973 34.6288 47.6997C34.6933 47.802 34.7856 47.8844 34.8952 47.9375C35.0047 47.9907 35.1271 48.0123 35.2485 48.0002C35.3698 47.988 35.4853 47.9424 35.5818 47.8686L37.2545 46.5885L38.9272 47.8686C39.0237 47.9424 39.1393 47.988 39.2607 48.0002C39.3821 48.0123 39.5045 47.9906 39.6141 47.9375C39.7236 47.8843 39.8159 47.8018 39.8805 47.6994C39.945 47.597 39.9792 47.4787 39.9792 47.358V43.5682H44.9311C45.1042 43.5682 45.2702 43.5002 45.3926 43.3792C45.515 43.2582 45.5837 43.094 45.5837 42.9228V30.5062C45.5821 29.1386 45.0321 27.8275 44.0542 26.8605C43.0763 25.8936 41.7505 25.3496 40.3676 25.3481H28.5704C27.1875 25.3497 25.8617 25.8936 24.8838 26.8606C23.9059 27.8276 23.3559 29.1386 23.3543 30.5062V32.1996C22.8657 31.637 22.2599 31.1854 21.5783 30.8758C20.8968 30.5662 20.1556 30.406 19.4056 30.406H5.21617C3.83323 30.4076 2.50738 30.9515 1.5295 31.9185C0.551613 32.8855 0.00155474 34.1966 0 35.5642V49.9165C0 50.0876 0.0687636 50.2518 0.191164 50.3728C0.313564 50.4939 0.479574 50.5619 0.652674 50.5619ZM38.6739 46.0432L37.6539 45.263C37.5395 45.1756 37.3991 45.1281 37.2545 45.1281C37.11 45.1281 36.9695 45.1756 36.8552 45.263L35.8352 46.0432V40.0934L36.0111 40.0838C36.0264 40.0832 36.0416 40.0873 36.0546 40.0955L36.497 40.384C36.7219 40.5308 36.9854 40.609 37.2548 40.609C37.5243 40.609 37.7878 40.5308 38.0127 40.384L38.4552 40.0955C38.4682 40.0873 38.4834 40.0833 38.4987 40.0838L38.6746 40.0935L38.6739 46.0432ZM39.412 38.3165L39.1727 38.7855C39.1663 38.7976 39.1566 38.8077 39.1446 38.8145C39.1327 38.8214 39.119 38.8247 39.1052 38.8242L38.5702 38.7951C38.2754 38.7795 37.9833 38.8576 37.7365 39.0178L37.2939 39.306C37.2822 39.3136 37.2686 39.3177 37.2546 39.3177C37.2406 39.3177 37.2269 39.3136 37.2153 39.306L36.773 39.0177C36.5473 38.8713 36.2834 38.7931 36.0135 38.7928C35.9888 38.7928 35.964 38.7934 35.9393 38.7948L35.4043 38.8239C35.3904 38.8251 35.3764 38.822 35.3643 38.8151C35.3522 38.8082 35.3425 38.7978 35.3366 38.7853L35.0973 38.3164C34.9652 38.0565 34.752 37.8456 34.4891 37.7149L34.015 37.4783C34.0026 37.4721 33.9923 37.4624 33.9853 37.4505C33.9784 37.4386 33.9751 37.425 33.9758 37.4113L34.0052 36.8823C34.0209 36.5908 33.942 36.302 33.78 36.0579L33.4883 35.6203C33.4806 35.6088 33.4764 35.5953 33.4764 35.5815C33.4764 35.5677 33.4806 35.5542 33.4883 35.5427L33.7801 35.1052C33.942 34.8612 34.0208 34.5724 34.0052 34.281L33.9758 33.7519C33.9751 33.7382 33.9784 33.7245 33.9853 33.7126C33.9923 33.7008 34.0026 33.6911 34.015 33.685L34.4891 33.4483C34.7519 33.3177 34.9652 33.1069 35.0972 32.847L35.3365 32.378C35.3427 32.3657 35.3524 32.3555 35.3644 32.3486C35.3764 32.3417 35.3902 32.3385 35.4041 32.3393L35.9393 32.3685C36.234 32.3837 36.5259 32.3056 36.7726 32.1456L37.2151 31.8572C37.2268 31.8496 37.2404 31.8455 37.2544 31.8455C37.2684 31.8455 37.282 31.8496 37.2937 31.8572L37.7362 32.1457C37.9829 32.306 38.2749 32.384 38.5697 32.3684L39.1046 32.3393C39.1185 32.3386 39.1323 32.3418 39.1443 32.3487C39.1563 32.3556 39.166 32.3658 39.1723 32.378L39.4116 32.8469C39.5436 33.1068 39.7569 33.3177 40.0197 33.4483L40.494 33.685C40.5063 33.6912 40.5166 33.7008 40.5235 33.7127C40.5305 33.7246 40.5338 33.7382 40.533 33.7519L40.5036 34.2809C40.488 34.5724 40.5669 34.8612 40.7288 35.1052L41.0206 35.5427C41.0283 35.5542 41.0324 35.5677 41.0324 35.5816C41.0324 35.5954 41.0283 35.6089 41.0206 35.6205L40.7287 36.0581C40.5668 36.302 40.488 36.5908 40.5036 36.8821L40.533 37.4114C40.5338 37.4251 40.5305 37.4387 40.5235 37.4506C40.5166 37.4624 40.5062 37.472 40.4939 37.4782L40.0197 37.7148C39.757 37.8455 39.5439 38.0565 39.412 38.3164V38.3165ZM24.6597 30.5062C24.6608 29.4809 25.0732 28.4979 25.8064 27.7729C26.5395 27.0479 27.5335 26.6401 28.5704 26.6389H40.3676C41.4044 26.6401 42.3984 27.0479 43.1316 27.7729C43.8647 28.4979 44.2772 29.4809 44.2784 30.5062V42.2774H39.9792V39.8072C40.1285 39.6871 40.2506 39.5373 40.3375 39.3675L40.5769 38.8984C40.5838 38.885 40.5948 38.8741 40.6084 38.8673L41.0827 38.6307C41.3215 38.5114 41.52 38.3258 41.6538 38.0967C41.7877 37.8676 41.8512 37.6049 41.8365 37.3407L41.807 36.8115C41.8061 36.7963 41.8102 36.7812 41.8187 36.7684L42.1104 36.331C42.2589 36.1086 42.3381 35.848 42.3381 35.5815C42.3381 35.315 42.2589 35.0544 42.1104 34.8321L41.8188 34.3946C41.8102 34.3819 41.8061 34.3668 41.807 34.3516L41.8365 33.8225C41.8512 33.5583 41.7877 33.2956 41.6538 33.0665C41.5199 32.8373 41.3214 32.6518 41.0826 32.5325L40.6084 32.2958C40.5948 32.289 40.5837 32.2781 40.5769 32.2646L40.3375 31.7956C40.217 31.5593 40.0294 31.363 39.7977 31.2306C39.566 31.0981 39.3003 31.0354 39.0331 31.0501L38.4982 31.0792C38.4828 31.0803 38.4675 31.0762 38.4547 31.0677L38.0123 30.7792C37.7874 30.6324 37.5239 30.5542 37.2545 30.5542C36.985 30.5542 36.7215 30.6324 36.4967 30.7792L36.0541 31.0677C36.0412 31.076 36.026 31.0801 36.0106 31.0793L35.4754 31.0501C35.2082 31.0353 34.9424 31.0979 34.7107 31.2303C34.479 31.3627 34.2914 31.5592 34.1711 31.7956L33.9318 32.2647C33.9248 32.2781 33.9138 32.289 33.9002 32.2958L33.426 32.5325C33.1872 32.6518 32.9887 32.8373 32.8548 33.0664C32.7209 33.2955 32.6574 33.5582 32.6721 33.8224L32.7016 34.3517C32.7025 34.3669 32.6984 34.382 32.6899 34.3947L32.3982 34.8322C32.2497 35.0545 32.1705 35.3151 32.1705 35.5816C32.1705 35.848 32.2497 36.1086 32.3982 36.331L32.6904 36.7685C32.6989 36.7813 32.703 36.7964 32.7021 36.8116L32.6726 37.3406C32.658 37.6048 32.7214 37.8676 32.8553 38.0967C32.9892 38.3258 33.1877 38.5114 33.4266 38.6307L33.9008 38.8673C33.9144 38.8741 33.9254 38.8851 33.9323 38.8985L34.1716 39.3675C34.2585 39.5375 34.3806 39.6874 34.5299 39.8076V42.2774H24.6597V30.5062ZM18.0061 52.0394L16.9861 51.2592C16.8717 51.1717 16.7313 51.1243 16.5867 51.1243C16.4422 51.1243 16.3017 51.1717 16.1874 51.2592L15.1673 52.0395V46.0897L15.3433 46.0801C15.3587 46.0791 15.374 46.0831 15.3868 46.0916L15.8292 46.38C16.0541 46.5268 16.3176 46.6051 16.5871 46.6051C16.8565 46.6051 17.12 46.5268 17.3449 46.38L17.7872 46.0915C17.8 46.083 17.8153 46.079 17.8307 46.08L18.0066 46.0895L18.0061 52.0394ZM18.7441 44.3126L18.5048 44.7816C18.4986 44.7939 18.4888 44.8041 18.4768 44.8109C18.4648 44.8178 18.451 44.8211 18.4372 44.8204L17.9022 44.7912C17.6074 44.7755 17.3153 44.8536 17.0686 45.0139L16.6262 45.3024C16.6146 45.31 16.6009 45.3141 16.5869 45.3141C16.573 45.3141 16.5593 45.31 16.5477 45.3024L16.1052 45.0139C15.8796 44.8676 15.6157 44.7895 15.3459 44.7892C15.3212 44.7892 15.2965 44.7898 15.2717 44.7912L14.7366 44.8204C14.7228 44.821 14.709 44.8177 14.697 44.8108C14.685 44.804 14.6753 44.7938 14.669 44.7816L14.4296 44.3125C14.2966 44.0535 14.0837 43.8429 13.8217 43.7114L13.3475 43.4748C13.3351 43.4686 13.3248 43.4589 13.3178 43.447C13.3109 43.4351 13.3076 43.4215 13.3083 43.4078L13.3377 42.8787C13.3534 42.5872 13.2745 42.2985 13.1125 42.0544L12.8208 41.6169C12.8131 41.6054 12.809 41.5919 12.809 41.578C12.809 41.5642 12.8131 41.5507 12.8208 41.5392L13.1124 41.1018C13.2744 40.8578 13.3534 40.569 13.3377 40.2775L13.3083 39.7483C13.3076 39.7346 13.3109 39.721 13.3179 39.7091C13.3248 39.6973 13.3351 39.6876 13.3475 39.6814L13.8218 39.4448C14.0845 39.3141 14.2977 39.1033 14.4298 38.8435L14.6691 38.3746C14.6754 38.3624 14.6851 38.3522 14.6971 38.3453C14.7091 38.3384 14.7229 38.3351 14.7367 38.3357L15.2719 38.365C15.5666 38.3802 15.8585 38.3022 16.1053 38.1422L16.5476 37.8538C16.5592 37.8462 16.5729 37.8421 16.5868 37.8421C16.6008 37.8421 16.6145 37.8462 16.6261 37.8538L17.0686 38.1423C17.3153 38.3026 17.6074 38.3806 17.9021 38.365L18.4372 38.3358C18.451 38.3351 18.4648 38.3384 18.4768 38.3453C18.4888 38.3521 18.4985 38.3623 18.5047 38.3746L18.744 38.8436C18.8762 39.1034 19.0894 39.3143 19.3522 39.4449L19.8264 39.6815C19.8388 39.6877 19.8491 39.6974 19.856 39.7092C19.863 39.7211 19.8663 39.7347 19.8655 39.7484L19.8361 40.2777C19.8205 40.5691 19.8995 40.8578 20.0613 41.1018L20.353 41.5393C20.3607 41.5508 20.3648 41.5643 20.3648 41.5781C20.3648 41.592 20.3607 41.6055 20.353 41.617L20.0613 42.0545C19.8994 42.2986 19.8205 42.5874 19.8361 42.8788L19.8655 43.4078C19.8663 43.4215 19.863 43.4351 19.8561 43.447C19.8492 43.4589 19.8389 43.4685 19.8265 43.4748L19.3522 43.7114C19.0902 43.843 18.8773 44.0536 18.7441 44.3126ZM1.30535 35.5642C1.30653 34.5389 1.71894 33.5559 2.45211 32.8309C3.18527 32.1058 4.17932 31.698 5.21617 31.6969H19.4057C20.4426 31.698 21.4366 32.1059 22.1697 32.8309C22.9029 33.5559 23.3153 34.5389 23.3165 35.5642V49.2711H19.3114V45.804C19.4607 45.6836 19.5828 45.5336 19.6697 45.3637L19.9091 44.8948C19.916 44.8813 19.927 44.8704 19.9406 44.8635L20.415 44.6268C20.6538 44.5075 20.8522 44.3219 20.9861 44.0928C21.1199 43.8637 21.1834 43.601 21.1687 43.3368L21.1393 42.8078C21.1384 42.7926 21.1425 42.7775 21.151 42.7648L21.4427 42.3272C21.5912 42.1049 21.6704 41.8443 21.6704 41.5778C21.6704 41.3114 21.5912 41.0508 21.4427 40.8284L21.1511 40.391C21.1425 40.3783 21.1384 40.3632 21.1392 40.3479L21.1687 39.8188C21.1834 39.5546 21.1199 39.2919 20.9861 39.0628C20.8522 38.8337 20.6537 38.6481 20.4149 38.5288L19.9407 38.2922C19.9271 38.2853 19.916 38.2744 19.9091 38.2609L19.6697 37.792C19.5492 37.5557 19.3616 37.3594 19.1299 37.2271C18.8981 37.0948 18.6324 37.0322 18.3653 37.047L17.8303 37.0762C17.8149 37.0772 17.7996 37.0731 17.7868 37.0646L17.3444 36.7761C17.1195 36.6292 16.856 36.551 16.5865 36.551C16.317 36.551 16.0535 36.6292 15.8286 36.7761L15.3862 37.0646C15.3734 37.0729 15.3581 37.077 15.3427 37.0762L14.8076 37.047C14.5404 37.0323 14.2746 37.0949 14.0429 37.2273C13.8112 37.3598 13.6236 37.5562 13.5031 37.7925L13.2637 38.2615C13.2569 38.275 13.2458 38.2859 13.2322 38.2927L12.758 38.5294C12.5192 38.6487 12.3207 38.8342 12.1868 39.0633C12.0529 39.2924 11.9894 39.5551 12.0041 39.8193L12.0336 40.3486C12.0345 40.3638 12.0304 40.3789 12.0218 40.3916L11.7301 40.8291C11.5816 41.0514 11.5025 41.312 11.5025 41.5785C11.5025 41.8449 11.5816 42.1055 11.7301 42.3279L12.022 42.7657C12.0304 42.7784 12.0345 42.7935 12.0336 42.8087L12.0041 43.3377C11.9894 43.6019 12.0529 43.8647 12.1868 44.0938C12.3207 44.3229 12.5192 44.5085 12.758 44.6278L13.2323 44.8645C13.2459 44.8712 13.2569 44.8821 13.2637 44.8955L13.5031 45.3645C13.59 45.5345 13.712 45.6844 13.8613 45.8047V49.2719H1.30535V35.5642Z" fill="#4D0099"/>
</svg>
