<svg width="72" height="65" viewBox="0 0 72 65" fill="none" xmlns="http://www.w3.org/2000/svg">
<path d="M67.7587 48.3324L65.9874 47.7353L68.0885 47.479C68.2284 47.4619 68.3632 47.4161 68.4844 47.3446C68.6056 47.2731 68.7106 47.1774 68.7927 47.0635C68.8749 46.9497 68.9324 46.8201 68.9617 46.683C68.9911 46.5459 68.9915 46.4043 68.963 46.267L66.4444 34.118C67.0183 33.7138 67.4568 33.1472 67.7029 32.4919C67.949 31.8366 67.9913 31.1229 67.8243 30.4434C67.7217 30.0143 67.5201 29.6148 67.2356 29.2766C66.951 28.9383 66.5912 28.6706 66.1846 28.4944L66.1938 25.9507V25.9436L66.1995 24.3874C66.2071 22.8243 65.9046 21.275 65.3095 19.8283C64.7144 18.3815 63.8383 17.0657 62.7313 15.9561C61.6242 14.8466 60.3081 13.965 58.8581 13.3619C57.4082 12.7588 55.8529 12.4459 54.2812 12.4413C52.7096 12.4367 51.1524 12.7404 49.6989 13.335C48.2454 13.9296 46.924 14.8034 45.8105 15.9065C44.6969 17.0096 43.813 18.3202 43.2093 19.7634C42.6056 21.2066 42.2939 22.7541 42.2922 24.3172L42.3032 28.0385C42.3032 28.0467 42.3032 28.0546 42.3032 28.0628L42.3131 28.501C41.91 28.6782 41.5536 28.9458 41.2717 29.2827C40.9899 29.6197 40.7902 30.0169 40.6883 30.4434C40.5071 31.1799 40.5723 31.9551 40.874 32.6515C41.1756 33.3478 41.6973 33.9274 42.36 34.3023L39.1734 46.2111C39.1385 46.3414 39.13 46.4774 39.1486 46.6111C39.1671 46.7447 39.2122 46.8733 39.2814 46.9894C39.3505 47.1055 39.4422 47.2067 39.5511 47.2871C39.66 47.3675 39.7839 47.4255 39.9157 47.4577C40.6781 47.6277 41.4496 47.7542 42.2265 47.8365L40.7545 48.3328C40.4249 48.4443 40.1053 48.5828 39.7989 48.747L30.5215 45.7553V41.3329C32.2545 40.2997 33.7488 38.9145 34.9066 37.2676C36.0644 35.6207 36.8597 33.7494 37.2405 31.7758L37.8125 29.8189C38.9165 29.4554 39.8423 28.6917 40.4056 27.6799C40.9688 26.6681 41.1283 25.4824 40.8521 24.359C40.7084 23.7598 40.4156 23.2063 40.0004 22.7493C39.5852 22.2922 39.0612 21.9464 38.4764 21.7436V15.3052C38.4826 13.2975 38.0904 11.3084 37.3222 9.45174C36.554 7.5951 35.425 5.9075 33.9998 4.48566C32.5746 3.06382 30.8812 1.9357 29.0168 1.16596C27.1525 0.396225 25.1537 0 23.135 0C21.1164 0 19.1175 0.396225 17.2531 1.16596C15.3888 1.9357 13.6954 3.06382 12.2702 4.48566C10.845 5.9075 9.71598 7.5951 8.94779 9.45174C8.1796 11.3084 7.78737 13.2975 7.79359 15.3052V21.7413C7.20743 21.9434 6.68192 22.2891 6.2656 22.7465C5.84928 23.2039 5.55558 23.7584 5.41163 24.3585C5.13528 25.482 5.29463 26.6678 5.85793 27.6798C6.42123 28.6917 7.34714 29.4554 8.45121 29.8188L9.02313 31.7757C9.40389 33.7492 10.1992 35.6206 11.357 37.2674C12.5148 38.9143 14.0091 40.2996 15.7421 41.3327V45.7548L5.90134 48.9279C3.13023 49.8217 1.02868 51.974 0.279679 54.6863C0.25053 54.7914 0.223566 54.8972 0.198206 55.0052C0.0615311 55.6051 -0.00488604 56.2187 0.000279644 56.8338V63.9853C0.000279644 64.2544 0.107769 64.5125 0.299101 64.7028C0.490433 64.8931 0.749934 65 1.02052 65H45.2418C45.5123 65 45.7718 64.8931 45.9632 64.7028C46.1545 64.5125 46.262 64.2544 46.262 63.9853V61.6476H70.9798C71.2503 61.6476 71.5098 61.5407 71.7012 61.3504C71.8925 61.1601 72 60.902 72 60.6329V54.2159C72.0004 52.9173 71.5915 51.6512 70.8307 50.5958C70.0698 49.5404 68.9955 48.7488 67.7587 48.3324ZM49.5964 47.4945L53.2256 51.0944V53.3805L47.7746 48.1086L49.5964 47.4945ZM53.3047 45.0546H55.2079C56.023 45.0538 56.8347 44.9509 57.624 44.7485V45.9102L54.2572 49.2506L50.8895 45.9102V44.7485C51.6785 44.9508 52.4899 45.0537 53.3047 45.0546ZM55.2662 51.1153L58.9163 47.4945L60.7382 48.1086L55.2662 53.401V51.1153ZM62.1766 46.4507L62.745 45.7581L64.3191 47.1727L62.1766 46.4507ZM65.7454 45.7203L63.3156 43.5362C63.2129 43.4439 63.0925 43.3734 62.9615 43.3289C62.8306 43.2843 62.6919 43.2668 62.554 43.2772C62.416 43.2877 62.2816 43.3259 62.159 43.3897C62.0363 43.4534 61.928 43.5413 61.8406 43.648L60.1139 45.7555L59.6643 45.6039V43.9804C60.8507 43.3738 61.9154 42.5565 62.806 41.5688C63.8095 40.4608 64.5944 39.1749 65.1199 37.7782L66.7417 45.5987L65.7454 45.7203ZM57.0802 24.7669C57.4766 24.4375 57.8557 24.0881 58.216 23.72C59.7434 25.3364 61.2496 26.099 64.1504 26.7623L64.1469 27.6877C61.5381 27.4898 59.0616 26.4662 57.0802 24.7669ZM54.2461 14.455C55.5532 14.4551 56.8475 14.7122 58.0543 15.2116C59.2612 15.7111 60.3568 16.443 61.2781 17.3652C62.1994 18.2875 62.9282 19.3818 63.4226 20.5853C63.917 21.7888 64.1672 23.0776 64.1587 24.3776L64.1576 24.6787C61.7351 24.0844 60.6987 23.4428 59.5519 22.171C60.0747 21.4823 60.5503 20.7595 60.9754 20.0073C61.0426 19.8913 61.0859 19.7631 61.103 19.6303C61.1201 19.4975 61.1105 19.3626 61.075 19.2335C61.0394 19.1043 60.9785 18.9835 60.8957 18.8778C60.813 18.7722 60.71 18.6839 60.5928 18.6181C60.4756 18.5522 60.3464 18.5101 60.2128 18.4941C60.0791 18.4781 59.9436 18.4886 59.814 18.525C59.6844 18.5613 59.5634 18.6228 59.4578 18.7059C59.3522 18.789 59.2642 18.8921 59.1989 19.0092C55.4119 25.6757 49.9491 25.9794 47.3238 26.1251L47.2844 26.1274C46.5195 26.1699 45.8036 26.6928 45.4161 27.4932C45.3524 27.6209 45.2468 27.7231 45.1168 27.7831C44.996 27.84 44.8605 27.8584 44.7287 27.8358C44.597 27.8132 44.4755 27.7507 44.3808 27.6569L44.3419 27.6183L44.3323 24.314C44.3354 21.7 45.3809 19.194 47.2394 17.3457C49.098 15.4974 51.6178 14.4578 54.2461 14.455ZM42.6705 30.9262C42.7134 30.7505 42.8116 30.5929 42.951 30.4766C43.0903 30.3603 43.2633 30.2914 43.4448 30.2799C43.6024 30.2656 43.7545 30.2149 43.889 30.132C44.0235 30.0491 44.1367 29.9362 44.2198 29.8022C44.8136 29.9428 45.4378 29.8779 45.9895 29.6182C46.5412 29.3586 46.9875 28.9197 47.2548 28.374C47.2938 28.2867 47.3539 28.2103 47.4297 28.1518H47.4388C49.1359 28.0574 52.2365 27.8843 55.3821 25.9788C57.8134 28.214 60.9495 29.5406 64.2548 29.7319C64.3331 29.8842 64.4488 30.0143 64.5912 30.1102C64.7336 30.206 64.898 30.2646 65.0692 30.2803C65.2508 30.2918 65.4239 30.3608 65.5632 30.4771C65.7025 30.5935 65.8008 30.7511 65.8436 30.927C65.8911 31.1203 65.8982 31.3212 65.8645 31.5174C65.8308 31.7136 65.7571 31.9008 65.6478 32.0675C65.5386 32.2342 65.3961 32.3768 65.2292 32.4866C65.0623 32.5964 64.8746 32.6711 64.6776 32.7059C64.4411 32.747 64.2268 32.8698 64.0724 33.0527C63.9179 33.2355 63.8333 33.4666 63.8333 33.7054V33.7198C63.8137 36.1186 62.9101 38.427 61.2936 40.2074C59.6405 42.0246 57.4795 43.0254 55.2086 43.0254H53.3047C51.0338 43.0254 48.8728 42.0252 47.2197 40.2074C45.6032 38.427 44.6997 36.1186 44.6802 33.7198V33.7054C44.6802 33.4666 44.5955 33.2355 44.4411 33.0527C44.2867 32.8698 44.0723 32.747 43.8359 32.7059C43.6389 32.671 43.4511 32.5964 43.2842 32.4865C43.1174 32.3767 42.9749 32.234 42.8656 32.0673C42.7564 31.9006 42.6826 31.7133 42.649 31.5172C42.6153 31.321 42.6224 31.12 42.6699 30.9267L42.6705 30.9262ZM43.482 38.0014C44.0046 39.3126 44.7581 40.5206 45.707 41.5688C46.5975 42.5568 47.6622 43.3744 48.8486 43.9812V45.604L48.0202 45.8833C47.6348 45.8791 47.2502 45.866 46.8769 45.8515L46.7819 45.8477L46.6673 43.7159C46.6567 43.5178 46.5879 43.3271 46.4694 43.1674C46.3509 43.0078 46.1879 42.8862 46.0007 42.8177C45.8134 42.7492 45.6101 42.7368 45.4158 42.7821C45.2215 42.8273 45.0449 42.9282 44.9077 43.0723L42.3075 45.8016C41.9751 45.7613 41.6801 45.719 41.4274 45.6788L43.482 38.0014ZM44.7561 46.1822L44.7942 46.8895C44.7956 46.916 44.7988 46.942 44.8023 46.9679L43.6323 47.3622L44.7561 46.1822ZM24.3601 15.6411C25.6319 16.9789 29.5323 20.4324 36.4351 21.1495V21.563C33.7168 21.492 25.8852 20.8932 19.6195 16.5337C21.2159 16.3288 22.7988 16.0308 24.3601 15.6411ZM9.8332 15.3052C9.8274 13.5643 10.1672 11.8394 10.833 10.2293C11.4988 8.6193 12.4777 7.15581 13.7133 5.92276C14.949 4.68971 16.4173 3.71136 18.0339 3.04381C19.6505 2.37626 21.3837 2.03264 23.1341 2.03264C24.8845 2.03264 26.6177 2.37626 28.2344 3.04381C29.851 3.71136 31.3192 4.68971 32.5549 5.92276C33.7906 7.15581 34.7694 8.6193 35.4352 10.2293C36.1011 11.8394 36.4408 13.5643 36.4351 15.3052V19.1063C31.4298 18.5292 28.1979 16.3421 26.6292 14.9823C28.9711 14.2079 31.2608 13.1341 33.2112 11.6464C33.4231 11.4816 33.5611 11.2403 33.595 10.975C33.629 10.7096 33.5562 10.4417 33.3925 10.2294C33.2289 10.0172 32.9876 9.87776 32.7211 9.84155C32.4546 9.80533 32.1845 9.87522 31.9696 10.036C24.8454 15.4702 12.1216 14.8967 11.9945 14.8905C11.8602 14.8836 11.7258 14.9032 11.5992 14.9482C11.4725 14.9932 11.356 15.0626 11.2565 15.1525C11.1569 15.2424 11.0761 15.351 11.0189 15.472C10.9617 15.5931 10.9291 15.7242 10.923 15.8578L10.6861 21.0296C10.6805 21.1839 10.6341 21.3341 10.5516 21.465C10.4691 21.5958 10.3535 21.7028 10.2162 21.7751C10.0979 21.8384 9.96727 21.8756 9.8332 21.8841V15.3052ZM11.0183 31.352C11.0122 31.3197 11.0045 31.2877 10.9952 31.256L10.2787 28.8062C10.2425 28.6008 10.1435 28.4114 9.99514 28.2639C9.84679 28.1164 9.65635 28.018 9.44973 27.982C9.102 27.9206 8.77063 27.7889 8.4761 27.595C8.18158 27.4012 7.93015 27.1493 7.73735 26.855C7.54456 26.5607 7.4145 26.2302 7.35521 25.8839C7.29592 25.5377 7.30866 25.183 7.39264 24.8418C7.45819 24.557 7.59918 24.2948 7.80098 24.0825C8.00278 23.8702 8.25804 23.7154 8.54026 23.6343C8.97782 23.8387 9.45931 23.9325 9.94206 23.9075C10.4248 23.8825 10.8939 23.7394 11.3077 23.4909C11.7215 23.2424 12.0673 22.8961 12.3144 22.4829C12.5615 22.0697 12.7022 21.6022 12.7241 21.1219L12.9153 16.9442C13.762 16.9528 15.0755 16.9382 16.6697 16.8283C25.0728 23.9842 36.9841 23.6162 37.4939 23.5965C37.5143 23.5965 37.5341 23.5931 37.5543 23.5913C37.8719 23.6501 38.1655 23.7998 38.399 24.022C38.6325 24.2442 38.7958 24.5292 38.869 24.8422C38.9529 25.1834 38.9655 25.538 38.9062 25.8842C38.8468 26.2303 38.7167 26.5607 38.524 26.855C38.3312 27.1492 38.0798 27.401 37.7853 27.5948C37.4909 27.7886 37.1596 27.9203 36.812 27.9817C36.6053 28.0177 36.4149 28.1161 36.2666 28.2636C36.1182 28.4111 36.0192 28.6005 35.9829 28.8059L35.2666 31.2557C35.2569 31.2873 35.2491 31.3193 35.2434 31.3517C34.7124 34.1606 33.2113 36.6967 30.9995 38.5214C28.7877 40.3462 26.0043 41.3449 23.1306 41.3449C20.2568 41.3449 17.4734 40.3462 15.2616 38.5214C13.0498 36.6967 11.5487 34.1606 11.0177 31.3517L11.0183 31.352ZM23.1306 43.3741C24.9634 43.3744 26.7793 43.0246 28.4795 42.3436V45.8832C26.8072 46.6704 24.9801 47.0787 23.13 47.0787C21.2798 47.0787 19.4527 46.6704 17.7804 45.8832V42.3436C19.481 43.0248 21.2973 43.3746 23.1306 43.3741ZM44.2204 62.9706H2.04076V56.8338C2.03588 56.3742 2.08435 55.9155 2.18519 55.4669C2.20458 55.3849 2.22542 55.3034 2.24743 55.2232C2.81381 53.1724 4.415 51.5413 6.53083 50.8584L16.6566 47.5931C18.6682 48.5884 20.8844 49.1063 23.1312 49.1063C25.378 49.1063 27.5942 48.5884 29.6059 47.5931L39.7313 50.8584C40.7538 51.1747 41.681 51.7395 42.4289 52.5017C43.1768 53.2639 43.7219 54.1994 44.015 55.2238C44.0373 55.3038 44.0578 55.3843 44.0769 55.4659C44.178 55.9147 44.2265 56.3737 44.2215 56.8337L44.2204 62.9706ZM46.0629 55.0051C46.0377 54.8978 46.0104 54.791 45.9813 54.6862C45.4298 52.7137 44.1661 51.0129 42.4322 49.9095L45.6031 48.8408L53.2245 56.2117V59.6182H46.262V56.8338C46.2673 56.2187 46.2009 55.605 46.0641 55.0051H46.0629ZM69.9595 59.6182H55.2662V56.2317L62.9086 48.8402L67.1037 50.2544C67.9365 50.5348 68.6599 51.0678 69.1721 51.7784C69.6844 52.489 69.9598 53.3415 69.9595 54.2159V59.6182Z" fill="#4D0099"/>
</svg>
