<svg width="72" height="72" viewBox="0 0 72 72" fill="none" xmlns="http://www.w3.org/2000/svg">
<path d="M21.3438 13.7844C21.12 13.7844 20.9054 13.8733 20.7471 14.0316C20.5889 14.1898 20.5 14.4044 20.5 14.6282V24.6909C20.5025 26.4928 21.1622 28.2319 22.3554 29.5821C23.5486 30.9323 25.1934 31.8008 26.9813 32.0249V40.6075H25.3461C25.1223 40.6075 24.9077 40.6964 24.7495 40.8546C24.5912 41.0129 24.5023 41.2275 24.5023 41.4513V56.3906C24.508 57.268 24.8606 58.1076 25.4831 58.7261C26.1056 59.3445 26.9475 59.6916 27.8249 59.6916C28.7024 59.6916 29.5443 59.3445 30.1668 58.7261C30.7893 58.1076 31.1419 57.268 31.1476 56.3906V41.4513C31.1476 41.2275 31.0587 41.0129 30.9004 40.8546C30.7422 40.6964 30.5276 40.6075 30.3038 40.6075H28.6688V32.042C30.4839 31.8481 32.1633 30.9902 33.3844 29.6334C34.6056 28.2765 35.2823 26.5163 35.2846 24.6909V14.6282C35.2846 14.4044 35.1957 14.1898 35.0375 14.0316C34.8792 13.8733 34.6646 13.7844 34.4409 13.7844C34.2171 13.7844 34.0025 13.8733 33.8442 14.0316C33.686 14.1898 33.5971 14.4044 33.5971 14.6282V23.8471H31.1682V14.6282C31.1682 14.4044 31.0793 14.1898 30.9211 14.0316C30.7629 13.8733 30.5483 13.7844 30.3245 13.7844C30.1007 13.7844 29.8861 13.8733 29.7279 14.0316C29.5696 14.1898 29.4807 14.4044 29.4807 14.6282V23.8471H26.3037V14.6282C26.3037 14.4044 26.2148 14.1898 26.0566 14.0316C25.8984 13.8733 25.6838 13.7844 25.46 13.7844C25.2362 13.7844 25.0216 13.8733 24.8634 14.0316C24.7051 14.1898 24.6162 14.4044 24.6162 14.6282V23.8471H22.1875V14.6282C22.1875 14.4044 22.0986 14.1898 21.9404 14.0316C21.7821 13.8733 21.5675 13.7844 21.3438 13.7844ZM29.4599 42.295V56.3906C29.4559 56.8216 29.2819 57.2336 28.9757 57.537C28.6695 57.8404 28.2559 58.0106 27.8248 58.0106C27.3938 58.0106 26.9801 57.8404 26.6739 57.537C26.3677 57.2336 26.1937 56.8216 26.1897 56.3906V42.295H29.4599ZM33.5343 25.5346C33.332 26.8863 32.6513 28.1205 31.6158 29.0125C30.5803 29.9046 29.259 30.3953 27.8923 30.3953C26.5256 30.3953 25.2043 29.9046 24.1688 29.0125C23.1334 28.1205 22.4526 26.8863 22.2504 25.5346H33.5343Z" fill="#4D0099"/>
<path d="M51.4993 24.3589C51.4732 21.5826 50.7798 18.8533 49.4774 16.4012C48.0224 13.7476 46.1152 12.2861 44.1069 12.2861C42.0987 12.2861 40.1917 13.7476 38.7368 16.4012C37.4344 18.8533 36.7409 21.5826 36.7148 24.3589C36.7148 29.0633 39.0314 31.7818 43.2632 32.0946V40.6074H41.6283C41.4045 40.6074 41.1899 40.6963 41.0317 40.8546C40.8734 41.0128 40.7845 41.2274 40.7845 41.4512V56.3905C40.7817 56.8286 40.8655 57.263 41.0312 57.6686C41.1969 58.0742 41.4412 58.443 41.75 58.7538C42.0588 59.0647 42.426 59.3113 42.8305 59.4797C43.2351 59.648 43.6689 59.7346 44.107 59.7346C44.5451 59.7346 44.979 59.648 45.3835 59.4797C45.788 59.3113 46.1552 59.0647 46.464 58.7538C46.7728 58.443 47.0171 58.0742 47.1828 57.6686C47.3485 57.263 47.4323 56.8286 47.4295 56.3905V41.4512C47.4295 41.2274 47.3406 41.0128 47.1824 40.8546C47.0241 40.6963 46.8095 40.6074 46.5857 40.6074H44.9507V32.0946C49.1825 31.7818 51.4993 29.0633 51.4993 24.3589ZM45.742 42.2949V56.3905C45.744 56.6065 45.7032 56.8207 45.6219 57.0208C45.5406 57.221 45.4205 57.403 45.2685 57.5564C45.1165 57.7099 44.9356 57.8317 44.7362 57.9148C44.5369 57.9979 44.323 58.0407 44.107 58.0407C43.891 58.0407 43.6772 57.9979 43.4778 57.9148C43.2784 57.8317 43.0975 57.7099 42.9455 57.5564C42.7935 57.403 42.6734 57.221 42.5921 57.0208C42.5108 56.8207 42.47 56.6065 42.472 56.3905V42.2949H45.742ZM44.1069 30.4379C40.3217 30.4379 38.4023 28.3926 38.4023 24.3589C38.4023 19.2149 41.2814 13.9736 44.1069 13.9736C46.9325 13.9736 49.8118 19.2149 49.8118 24.3589C49.8118 28.3921 47.8924 30.4379 44.1069 30.4379Z" fill="#4D0099"/>
<path d="M35.9998 0.703012C29.0188 0.703057 22.1945 2.77321 16.39 6.65168C10.5855 10.5302 6.06146 16.0428 3.38994 22.4924C0.718425 28.942 0.0194292 36.039 1.38135 42.8859C2.74327 49.7328 6.10493 56.0221 11.0412 60.9584C14.3159 64.2495 18.2076 66.8621 22.4936 68.6468C26.7795 70.4315 31.3754 71.3531 36.0181 71.3589C40.6607 71.3647 45.2589 70.4545 49.5493 68.6805C53.8396 66.9065 57.7379 64.3036 61.0207 61.0207C64.3036 57.7378 66.9065 53.8396 68.6805 49.5492C70.4545 45.2588 71.3647 40.6607 71.3589 36.018C71.3531 31.3753 70.4314 26.7794 68.6467 22.4935C66.862 18.2076 64.2494 14.3159 60.9583 11.0412C57.6884 7.75328 53.7988 5.14661 49.5146 3.37205C45.2305 1.5975 40.6369 0.690314 35.9998 0.703012ZM59.7654 59.7655C56.6445 62.8865 52.9394 65.3621 48.8616 67.0512C44.7839 68.7402 40.4135 69.6096 35.9998 69.6096C31.5861 69.6096 27.2156 68.7402 23.1379 67.0512C19.0602 65.3621 15.3551 62.8865 12.2342 59.7655C9.11322 56.6446 6.63755 52.9395 4.9485 48.8617C3.25946 44.784 2.39012 40.4136 2.39012 35.9999C2.39012 31.5862 3.25946 27.2157 4.9485 23.138C6.63755 19.0603 9.11322 15.3552 12.2342 12.2343C15.3551 9.11332 19.0602 6.63764 23.1379 4.9486C27.2156 3.25956 31.5861 2.39022 35.9998 2.39022C40.4135 2.39022 44.7839 3.25956 48.8616 4.9486C52.9394 6.63764 56.6445 9.11332 59.7654 12.2343C62.8863 15.3552 65.362 19.0603 67.0511 23.138C68.7401 27.2157 69.6094 31.5862 69.6094 35.9999C69.6094 40.4136 68.7401 44.784 67.0511 48.8617C65.362 52.9395 62.8863 56.6446 59.7654 59.7655Z" fill="#4D0099"/>
<path d="M16.9435 23.2926C16.753 23.1752 16.5237 23.1384 16.306 23.1901C16.0883 23.2418 15.9 23.3779 15.7826 23.5684C13.4821 27.3066 12.2658 31.6106 12.2695 36C12.2695 36.2238 12.3584 36.4384 12.5167 36.5966C12.6749 36.7549 12.8895 36.8438 13.1133 36.8438C13.3371 36.8438 13.5517 36.7549 13.7099 36.5966C13.8681 36.4384 13.957 36.2238 13.957 36C13.9534 31.9232 15.0829 27.9257 17.2195 24.4536C17.2777 24.3592 17.3166 24.2544 17.3342 24.145C17.3518 24.0355 17.3476 23.9237 17.322 23.8159C17.2964 23.7081 17.2498 23.6064 17.1848 23.5166C17.1199 23.4268 17.0379 23.3507 16.9435 23.2926Z" fill="#4D0099"/>
<path d="M17.5864 22.3778C17.7612 22.5176 17.9843 22.5822 18.2067 22.5574C18.4291 22.5326 18.6326 22.4206 18.7723 22.2458C18.9399 22.0363 19.1133 21.8271 19.2878 21.6245C19.4318 21.4547 19.5029 21.2348 19.4854 21.0128C19.468 20.7909 19.3636 20.5848 19.1948 20.4395C19.0261 20.2942 18.8068 20.2215 18.5847 20.2372C18.3626 20.2529 18.1557 20.3558 18.0091 20.5234C17.8213 20.7415 17.6347 20.9664 17.4542 21.1919C17.3145 21.3667 17.2499 21.5899 17.2747 21.8123C17.2995 22.0347 17.4116 22.2381 17.5864 22.3778Z" fill="#4D0099"/>
<path d="M35.9258 6.62924C32.0423 6.63695 28.1991 7.4171 24.62 8.92426C21.0409 10.4314 17.7974 12.6355 15.0783 15.4082C14.9943 15.4942 14.9298 15.5973 14.8889 15.7103C14.848 15.8234 14.8318 15.9438 14.8412 16.0637C14.8507 16.1835 14.8857 16.2999 14.9438 16.4052C15.0019 16.5104 15.0818 16.602 15.1782 16.6738C15.3414 16.7957 15.5433 16.8543 15.7464 16.8388C15.9495 16.8232 16.14 16.7347 16.2828 16.5894C18.9094 13.9116 22.0543 11.7973 25.5254 10.3756C28.9964 8.95394 32.7209 8.25472 36.4712 8.32068C51.3693 8.56987 63.4763 20.7141 63.6808 35.6133C63.8943 51.1816 51.1864 63.8915 35.6188 63.6809C20.3525 63.4745 8.06275 50.7917 8.32038 35.5261C8.40241 30.392 9.91959 25.3833 12.7003 21.0666C12.8131 20.8789 12.8484 20.6547 12.7989 20.4414C12.7494 20.2281 12.6189 20.0424 12.435 19.9235C12.2511 19.8046 12.0281 19.7619 11.8133 19.8044C11.5985 19.8469 11.4086 19.9712 11.2838 20.1512C8.50095 24.4846 6.90707 29.4738 6.66213 34.618C6.4172 39.7622 7.52983 44.8803 9.88832 49.4585C12.2468 54.0367 15.7682 57.9139 20.0989 60.7009C24.4297 63.4879 29.4173 65.0866 34.5613 65.3365C51.556 66.1521 65.6168 52.4338 65.3676 35.5585C65.1311 19.5357 51.9504 6.58945 35.9258 6.62924Z" fill="#4D0099"/>
</svg>
