<svg width="175" height="175" viewBox="0 0 175 175" fill="none" xmlns="http://www.w3.org/2000/svg">
<path d="M10.8954 95.5982C11.3989 95.5988 11.885 95.4134 12.2602 95.0776L40.9903 69.4501L67.472 83.4371C67.8154 83.6187 68.2033 83.699 68.5905 83.6688C68.9778 83.6385 69.3485 83.4989 69.6595 83.2662L99.8774 60.6645L98.9067 66.2799C98.8578 66.5465 98.8623 66.8202 98.9198 67.0851C98.9773 67.35 99.0868 67.6009 99.2419 67.8232C99.397 68.0455 99.5946 68.2349 99.8234 68.3804C100.052 68.5258 100.307 68.6245 100.575 68.6707C100.842 68.7169 101.115 68.7096 101.38 68.6494C101.644 68.5892 101.894 68.4771 102.114 68.3198C102.335 68.1624 102.522 67.9628 102.666 67.7326C102.809 67.5024 102.905 67.2461 102.948 66.9785L104.826 56.1193C104.918 55.5834 104.794 55.0326 104.481 54.5882C104.167 54.1437 103.69 53.8419 103.154 53.7493L92.295 51.8721C91.7613 51.7846 91.2147 51.9115 90.7741 52.225C90.3335 52.5386 90.0346 53.0135 89.9424 53.5464C89.8502 54.0793 89.9723 54.627 90.282 55.0703C90.5917 55.5137 91.064 55.8167 91.596 55.9135L97.9193 57.0073L68.2414 79.2049L41.6472 65.1571C41.2772 64.9615 40.8562 64.8837 40.4407 64.9343C40.0253 64.9849 39.6352 65.1614 39.323 65.4401L9.52959 92.0168C9.21928 92.2936 9.00041 92.6581 8.90201 93.0621C8.80361 93.466 8.83032 93.8904 8.97861 94.2788C9.1269 94.6673 9.38976 95.0015 9.73233 95.2371C10.0749 95.4727 10.481 95.5987 10.8968 95.5982H10.8954Z" fill="#4D0099"/>
<path d="M137.412 98.003C127.695 88.2854 111.883 88.3493 102.166 98.067C99.2318 100.943 97.0817 104.522 95.9195 108.463C95.8307 108.768 95.8141 109.09 95.871 109.403C95.928 109.715 96.0569 110.01 96.2477 110.265C96.4384 110.519 96.6857 110.725 96.97 110.868C97.2542 111.01 97.5677 111.084 97.8855 111.084H97.9272C98.3611 111.087 98.7846 110.951 99.1353 110.695C99.486 110.44 99.7454 110.078 99.8755 109.664C101.166 105.384 103.798 101.632 107.384 98.9615C110.97 96.2915 115.32 94.8454 119.791 94.8366C123.601 94.8457 127.335 95.9004 130.587 97.8857C133.839 99.871 136.484 102.711 138.233 106.096C139.982 109.48 140.769 113.28 140.507 117.081C140.246 120.882 138.946 124.539 136.749 127.652C134.553 130.765 131.544 133.216 128.051 134.737C124.557 136.258 120.714 136.791 116.938 136.278C113.163 135.765 109.601 134.225 106.64 131.827C103.679 129.429 101.433 126.265 100.147 122.678C99.9626 122.17 99.5839 121.755 99.0941 121.525C98.6042 121.295 98.0432 121.268 97.5337 121.45C97.0243 121.633 96.6079 122.01 96.3758 122.499C96.1436 122.988 96.1146 123.549 96.2952 124.059C97.5425 127.54 99.5469 130.701 102.164 133.313C106.846 137.988 113.194 140.61 119.81 140.604C123.086 140.602 126.329 139.953 129.355 138.697C132.38 137.441 135.129 135.601 137.443 133.282C139.758 130.964 141.593 128.212 142.844 125.184C144.095 122.157 144.737 118.912 144.734 115.636C144.731 112.36 144.083 109.117 142.827 106.091C141.57 103.066 139.73 100.317 137.412 98.003Z" fill="#4D0099"/>
<path d="M60.814 61.5262C65.9037 61.5268 70.8959 60.1304 75.2466 57.4892C79.5973 54.848 83.1397 51.0634 85.4876 46.5476C87.8356 42.0319 88.8991 36.9583 88.5622 31.8798C88.2253 26.8013 86.501 21.9127 83.5771 17.7467C80.6533 13.5806 76.642 10.297 71.9805 8.2537C67.3191 6.21034 62.1862 5.48563 57.1412 6.15852C52.0962 6.83142 47.3326 8.8761 43.3697 12.0698C39.4067 15.2635 36.3963 19.4836 34.6665 24.2703C34.5577 24.5796 34.5246 24.9104 34.57 25.2351C34.6153 25.5598 34.7379 25.8689 34.9274 26.1364C35.1169 26.404 35.3677 26.6222 35.659 26.7728C35.9502 26.9234 36.2732 27.002 36.6011 27.0019H36.6141C37.0399 26.9993 37.4545 26.8652 37.8012 26.6181C38.148 26.3709 38.41 26.0227 38.5514 25.6211C39.9315 21.8082 42.2671 18.4134 45.3347 15.7616L59.0182 35.85C59.4007 36.4089 60.034 36.9141 60.7111 36.9141H84.2951C83.514 42.5914 80.7073 47.7951 76.3922 51.5663C72.0771 55.3375 66.5444 57.4221 60.8136 57.4359C49.494 57.4359 40.0047 49.3613 37.6651 38.8476C37.5317 38.3318 37.2027 37.8881 36.7479 37.6106C36.293 37.3331 35.748 37.2435 35.2283 37.3608C34.7086 37.478 34.2549 37.793 33.9633 38.2389C33.6717 38.6849 33.5651 39.2268 33.6661 39.7499C35.0419 45.9251 38.4808 51.4471 43.4158 55.4057C48.3509 59.3642 54.4875 61.523 60.814 61.5262ZM60.5747 31.017L48.5982 13.3984C52.8265 10.858 57.7424 9.70096 62.6599 10.0889C67.5774 10.4768 72.2511 12.3903 76.0287 15.5623L60.5747 31.017ZM64.5782 32.8125L78.9337 18.457C82.2164 22.3288 84.1587 27.1585 84.4708 32.2249C84.4827 32.4222 84.4838 32.6173 84.4909 32.8139L64.5782 32.8125Z" fill="#4D0099"/>
<path d="M152.601 135.254C152.216 134.869 151.694 134.653 151.151 134.653C150.607 134.653 150.085 134.869 149.701 135.254L147.983 136.972L145.468 134.457C149.748 128.622 151.912 121.503 151.604 114.273C151.296 107.043 148.534 100.133 143.774 94.683C139.014 89.2325 132.539 85.566 125.417 84.2878C118.294 83.0095 110.948 84.1956 104.59 87.6507V82.8314C104.569 82.2639 104.335 81.7251 103.933 81.3232C103.532 80.9213 102.994 80.6858 102.426 80.6641H87.9556C87.3881 80.6857 86.8497 80.921 86.4483 81.3228C86.0469 81.7246 85.8121 82.2632 85.791 82.8307V130.566H77.5879V91.1401C77.6 90.8841 77.5586 90.6283 77.4664 90.389C77.3742 90.1498 77.2331 89.9325 77.0522 89.7508C76.8714 89.5691 76.6546 89.4271 76.4158 89.3338C76.177 89.2405 75.9214 89.198 75.6653 89.209H61.195C60.9315 89.1955 60.668 89.2352 60.4202 89.3257C60.1724 89.4163 59.9454 89.5559 59.7527 89.7361C59.5601 89.9164 59.4057 90.1336 59.2989 90.3748C59.192 90.616 59.1349 90.8763 59.1309 91.1401V130.566H50.9277V83.0854C50.9315 82.8159 50.8822 82.5484 50.7826 82.2981C50.6829 82.0478 50.535 81.8195 50.3471 81.6264C50.1592 81.4333 49.9351 81.2791 49.6876 81.1726C49.4401 81.0661 49.174 81.0095 48.9046 81.0059H34.434C34.1677 81.0109 33.9052 81.069 33.6617 81.1768C33.4182 81.2846 33.1986 81.4398 33.0158 81.6334C32.833 81.827 32.6906 82.0552 32.597 82.3045C32.5034 82.5538 32.4605 82.8193 32.4707 83.0854V130.566H24.2676V101.852C24.2508 101.301 24.0193 100.779 23.6226 100.396C23.2258 100.014 22.6952 99.8014 22.144 99.8047H7.67334C6.54063 99.8047 5.46875 100.72 5.46875 101.852V130.566H3.75977C2.62739 130.566 1.70898 131.33 1.70898 132.463V139.797C1.70953 140.341 1.92583 140.862 2.31037 141.246C2.69491 141.63 3.21622 141.846 3.75977 141.846H101.732C107.179 145.588 113.654 147.547 120.262 147.45C126.87 147.353 133.285 145.206 138.62 141.306L141.134 143.821L139.416 145.538C139.226 145.729 139.075 145.955 138.972 146.204C138.868 146.453 138.815 146.719 138.815 146.989C138.815 147.258 138.868 147.525 138.972 147.774C139.075 148.022 139.226 148.249 139.416 148.439L157.376 166.398C159.124 168.147 161.496 169.129 163.968 169.129C166.441 169.129 168.812 168.147 170.561 166.398C172.309 164.65 173.291 162.278 173.291 159.806C173.291 157.333 172.309 154.962 170.56 153.214L152.601 135.254ZM89.8926 84.7656H100.488V90.3089C99.8119 90.8253 99.1478 91.3654 98.5059 91.9434H89.8926V84.7656ZM89.8926 96.0449H94.6733C92.642 98.6369 91.0289 101.531 89.8926 104.622V96.0449ZM89.8926 126.631C90.3884 127.981 90.9763 129.296 91.6522 130.566H89.8926V126.631ZM63.2324 93.3105H73.4863V100.488H63.2324V93.3105ZM63.2324 104.59H73.4863V130.566H63.2324V104.59ZM36.5723 85.1074H46.8262V92.2852H36.5723V85.1074ZM36.5723 96.3867H46.8262V130.566H36.5723V96.3867ZM9.57031 103.906H20.166V111.084H9.57031V103.906ZM9.57031 115.186H20.166V130.566H9.57031V115.186ZM5.81055 137.744V134.668H94.2614C95.0707 135.747 95.9469 136.775 96.8847 137.744H5.81055ZM139.404 135.242C135.525 139.117 130.584 141.755 125.206 142.823C119.829 143.89 114.255 143.34 109.19 141.24C104.125 139.141 99.7961 135.587 96.7505 131.028C93.705 126.469 92.0795 121.109 92.0795 115.626C92.0795 110.143 93.705 104.784 96.7505 100.224C99.7961 95.6653 104.125 92.1114 109.19 90.012C114.255 87.9126 119.829 87.362 125.206 88.4297C130.584 89.4975 135.525 92.1356 139.404 96.0107C144.598 101.217 147.516 108.271 147.516 115.626C147.516 122.981 144.598 130.035 139.404 135.242ZM142.304 138.142C142.479 137.966 142.643 137.783 142.814 137.605L147.998 142.788C148.067 142.856 148.121 142.938 148.159 143.028C148.196 143.118 148.215 143.214 148.215 143.312C148.215 143.409 148.196 143.505 148.159 143.595C148.121 143.685 148.067 143.767 147.998 143.835C147.929 143.904 147.848 143.959 147.758 143.996C147.668 144.033 147.572 144.052 147.474 144.052C147.377 144.052 147.281 144.033 147.191 143.996C147.101 143.959 147.019 143.904 146.95 143.835L141.767 138.652C141.946 138.481 142.128 138.317 142.304 138.142ZM154.618 157.842L143.766 146.99L144.034 146.722L144.049 146.738C144.96 147.634 146.188 148.135 147.466 148.13C148.744 148.125 149.968 147.615 150.872 146.712C151.775 145.808 152.285 144.584 152.29 143.306C152.295 142.028 151.794 140.8 150.898 139.889L150.882 139.874L151.151 139.606L162.002 150.457L154.618 157.842ZM167.66 163.5C166.68 164.479 165.353 165.029 163.968 165.029C162.584 165.029 161.256 164.479 160.277 163.5L157.519 160.742L164.903 153.359L167.661 156.117C168.64 157.097 169.19 158.424 169.19 159.809C169.19 161.193 168.64 162.521 167.661 163.5L167.66 163.5Z" fill="#4D0099"/>
</svg>
