<svg width="173" height="173" viewBox="0 0 173 173" fill="none" xmlns="http://www.w3.org/2000/svg">
<path d="M61.8373 56.9121C61.1649 57.2023 60.4952 57.5203 59.8471 57.8518C59.6076 57.9718 59.3943 58.1382 59.2196 58.3412C59.0448 58.5442 58.9119 58.7798 58.8288 59.0344C58.7456 59.2891 58.7137 59.5577 58.7349 59.8247C58.7561 60.0917 58.8301 60.3519 58.9525 60.5902C59.0748 60.8285 59.2432 61.0402 59.4479 61.213C59.6526 61.3858 59.8895 61.5164 60.1449 61.5971C60.4003 61.6778 60.6692 61.7071 60.936 61.6833C61.2029 61.6595 61.4623 61.5831 61.6994 61.4584C62.2681 61.1665 62.8557 60.8891 63.4456 60.634C63.6924 60.53 63.9162 60.3781 64.104 60.1872C64.2917 59.9963 64.4398 59.77 64.5397 59.5215C64.6396 59.2731 64.6892 59.0072 64.6857 58.7395C64.6823 58.4717 64.6258 58.2072 64.5196 57.9614C64.4133 57.7156 64.2594 57.4932 64.0668 57.3072C63.8741 57.1212 63.6466 56.9752 63.3972 56.8776C63.1478 56.78 62.8815 56.7329 62.6138 56.7388C62.346 56.7447 62.0821 56.8036 61.8373 56.9121Z" fill="#4D0099"/>
<path d="M54.2046 61.515C50.3551 64.5918 47.2485 68.4965 45.1156 72.9391C42.9827 77.3816 41.8784 82.2477 41.8848 87.1757C41.8848 87.7134 42.0984 88.2291 42.4786 88.6093C42.8588 88.9895 43.3745 89.2031 43.9121 89.2031C44.4498 89.2031 44.9655 88.9895 45.3457 88.6093C45.7259 88.2291 45.9395 87.7134 45.9395 87.1757C45.9344 82.8542 46.9033 78.5872 48.7742 74.6916C50.6451 70.7961 53.3698 67.3723 56.7459 64.6746C56.9534 64.5077 57.1259 64.3016 57.2537 64.0681C57.3815 63.8345 57.4621 63.5781 57.4908 63.3134C57.5195 63.0487 57.4958 62.781 57.4211 62.5254C57.3463 62.2699 57.2219 62.0316 57.0551 61.8241C56.8882 61.6167 56.6821 61.4441 56.4486 61.3163C56.215 61.1885 55.9586 61.1079 55.6939 61.0792C55.4292 61.0505 55.1614 61.0742 54.9059 61.149C54.6504 61.2237 54.4121 61.3481 54.2046 61.515Z" fill="#4D0099"/>
<path d="M136.29 38.9657C136.827 38.9656 137.341 38.7531 137.721 38.3747L156.747 19.419C157.024 19.1431 157.216 18.7929 157.298 18.4108C157.381 18.0286 157.351 17.6307 157.212 17.2651C157.074 16.8994 156.833 16.5816 156.518 16.3498C156.203 16.1181 155.828 15.9824 155.438 15.959L145.645 15.3741L145.057 5.62228C145.033 5.23273 144.898 4.85825 144.667 4.54378C144.435 4.22932 144.118 3.98824 143.754 3.8495C143.389 3.71075 142.992 3.68023 142.61 3.7616C142.228 3.84297 141.878 4.03277 141.602 4.30822L122.576 23.2639C122.372 23.4667 122.214 23.7105 122.112 23.9791C122.01 24.2477 121.966 24.535 121.983 24.8219L122.631 35.5668L114.288 43.8688C103.452 33.9219 89.2756 28.4078 74.5665 28.4187C42.0834 28.4187 15.6562 54.8533 15.6562 87.3469C15.6586 96.9968 18.0312 106.498 22.5653 115.017C27.0994 123.535 33.6564 130.809 41.66 136.2L33.7381 159.672C33.1268 161.502 33.2671 163.499 34.1282 165.224C34.9894 166.95 36.5007 168.263 38.3299 168.874C40.1591 169.486 42.1562 169.345 43.8819 168.484C45.6076 167.623 46.9205 166.112 47.5318 164.283L54.5985 142.786C67.5242 147.442 81.6709 147.435 94.5919 142.765L101.688 164.283C102.298 166.113 103.609 167.625 105.335 168.487C107.06 169.35 109.057 169.491 110.886 168.881C112.716 168.271 114.228 166.959 115.09 165.234C115.953 163.509 116.094 161.512 115.484 159.683L107.626 136.095C114.711 131.295 120.664 125.008 125.071 117.672C129.478 110.336 132.232 102.127 133.142 93.618C134.052 85.1087 133.096 76.5033 130.34 68.4012C127.585 60.2992 123.096 52.8955 117.186 46.7057L125.604 38.3304L136.29 38.9657ZM144.654 19.3751L150.684 19.736L148.484 21.9275L142.452 21.5667L144.654 19.3751ZM141.28 10.3534L141.659 16.6382L139.445 18.8406L139.066 12.5605L141.28 10.3534ZM138.603 25.398L144.64 25.7592L141.743 28.6458L135.7 28.2846L138.603 25.398ZM135.236 16.3763L135.615 22.6516L132.703 25.5484L132.323 19.2768L135.236 16.3763ZM131.849 32.1159L137.895 32.4778L135.503 34.8603L129.455 34.4984L131.849 32.1159ZM128.491 23.0943L128.869 29.3628L126.463 31.7564L126.086 25.4926L128.491 23.0943ZM43.6806 163.015C43.5497 163.42 43.3399 163.794 43.0633 164.117C42.7867 164.441 42.4487 164.706 42.069 164.897C41.6893 165.089 41.2753 165.204 40.851 165.234C40.4268 165.265 40.0006 165.211 39.5973 165.076C39.1939 164.941 38.8214 164.727 38.5012 164.447C38.181 164.167 37.9195 163.826 37.7318 163.445C37.5441 163.063 37.434 162.648 37.4078 162.223C37.3817 161.799 37.4399 161.373 37.5793 160.971L45.194 138.411C47.0195 139.464 48.9005 140.419 50.8286 141.271L43.6806 163.015ZM111.642 160.974C111.78 161.376 111.837 161.801 111.811 162.225C111.784 162.649 111.673 163.064 111.485 163.445C111.297 163.826 111.035 164.166 110.715 164.445C110.395 164.725 110.023 164.938 109.62 165.072C109.217 165.207 108.791 165.261 108.367 165.23C107.943 165.199 107.53 165.085 107.15 164.894C106.771 164.702 106.433 164.437 106.157 164.115C105.88 163.792 105.67 163.418 105.539 163.014L98.3601 141.246C100.323 140.376 102.237 139.399 104.093 138.32L111.642 160.974ZM129.422 87.3448C129.422 117.602 104.814 142.218 74.5665 142.218C44.3192 142.218 19.7109 117.603 19.7109 87.3448C19.7109 57.0871 44.3192 32.4714 74.5665 32.4714C88.1974 32.4614 101.34 37.5473 111.413 46.7304L103.42 54.683C95.4677 47.6229 85.2006 43.7274 74.5665 43.7353C50.5262 43.7353 30.9681 63.2992 30.9681 87.3459C30.9681 111.393 50.5262 130.956 74.5665 130.956C98.6067 130.956 118.165 111.393 118.165 87.3459C118.172 76.2537 113.939 65.5783 106.33 57.5067L114.312 49.5663C124.02 59.747 129.432 73.2773 129.422 87.3448ZM88.8748 78.9493L77.0054 83.6983L81.776 71.8617L83.2594 76.214C83.3597 76.5083 83.5263 76.7756 83.7463 76.9952C83.9664 77.2148 84.234 77.3808 84.5285 77.4805L88.8748 78.9493ZM85.0134 68.7916L90.7237 70.0391L91.9766 75.7194L86.7751 73.9596L85.0134 68.7916ZM71.4697 86.5866C71.3213 86.955 71.2843 87.359 71.3635 87.7482C71.4426 88.1374 71.6343 88.4949 71.9149 88.7761C72.1954 89.0573 72.5523 89.2499 72.9414 89.33C73.3304 89.4101 73.7344 89.3741 74.1032 89.2266L92.2584 81.9619C93.3943 85.6836 93.3273 89.6688 92.067 93.3502C90.8067 97.0316 88.4174 100.222 85.239 102.467C82.0606 104.711 78.2551 105.896 74.3642 105.853C70.4732 105.81 66.6951 104.54 63.5675 102.225C60.4399 99.9101 58.1221 96.6676 56.9442 92.959C55.7662 89.2504 55.788 85.2648 57.0065 81.5693C58.2249 77.8738 60.578 74.6568 63.7307 72.3762C66.8835 70.0955 70.6753 68.8674 74.5665 68.8666C75.8705 68.8668 77.1708 69.004 78.4461 69.2761L71.4697 86.5866ZM91.8989 66.1442L82.368 64.0642C81.9001 63.9619 81.4112 64.0286 80.9877 64.2525C80.5643 64.4763 80.2338 64.8428 80.0548 65.287L79.9815 65.4691C75.1339 64.2714 70.0259 64.7177 65.4594 66.7378C60.8929 68.7579 57.1267 72.2374 54.7522 76.63C52.3776 81.0226 51.5292 86.0794 52.3401 91.0065C53.1511 95.9335 55.5755 100.452 59.2326 103.851C62.8898 107.251 67.5725 109.34 72.5455 109.79C77.5185 110.24 82.5002 109.026 86.7081 106.338C90.9161 103.649 94.1121 99.6397 95.7943 94.9383C97.4764 90.2368 97.5495 85.1098 96.0019 80.3623C96.2947 80.1266 96.5159 79.814 96.6409 79.4595C96.7659 79.1051 96.7896 78.7228 96.7095 78.3556L94.6703 69.1092L103.455 60.368C110.489 67.9106 114.298 77.9024 114.07 88.2131C113.842 98.5237 109.596 108.338 102.236 115.562C94.876 122.787 84.9852 126.851 74.6721 126.887C64.359 126.924 54.4395 122.93 47.0285 115.758C39.6176 108.586 35.3014 98.8029 35.0003 88.4941C34.6992 78.1853 38.4369 68.1667 45.4166 60.5743C52.3963 52.9818 62.0657 48.4162 72.3633 47.8508C82.661 47.2854 92.7722 50.7649 100.541 57.5476L91.8989 66.1442Z" fill="#4D0099"/>
</svg>
