<svg width="72" height="72" viewBox="0 0 72 72" fill="none" xmlns="http://www.w3.org/2000/svg">
<path d="M33.2002 1.51074C33.0415 1.35316 32.8268 1.265 32.6032 1.26563L16.5102 1.27716C16.2853 1.2768 16.0693 1.36507 15.9091 1.52285C15.7488 1.68062 15.6571 1.89519 15.6539 2.12007L15.6021 69.9545C15.6018 70.0605 15.6234 70.1654 15.6656 70.2626C15.7078 70.3598 15.7696 70.4473 15.8472 70.5195C15.9268 70.5933 16.0206 70.6504 16.1227 70.6873C16.2249 70.7242 16.3334 70.7402 16.4419 70.7344H16.453L32.5512 70.7714C32.6613 70.7721 32.7705 70.7511 32.8724 70.7094C32.9744 70.6678 33.0671 70.6064 33.1452 70.5288C33.2233 70.4511 33.2853 70.3588 33.3276 70.2572C33.3698 70.1555 33.3916 70.0465 33.3915 69.9363L33.4478 2.106C33.4477 1.99536 33.4258 1.88583 33.3833 1.78367C33.3408 1.68152 33.2786 1.58877 33.2002 1.51074ZM26.6396 69.1041L22.3488 69.076L22.3902 20.3916C22.3902 20.1678 22.3013 19.9532 22.143 19.795C21.9848 19.6368 21.7702 19.5479 21.5464 19.5479C21.3226 19.5479 21.108 19.6368 20.9498 19.795C20.7916 19.9532 20.7027 20.1678 20.7027 20.3916L20.6613 69.0782L17.2863 69.0965L17.2918 62.6337L19.3251 62.6351C19.487 62.6292 19.6442 62.5785 19.779 62.4887C19.9139 62.3989 20.0213 62.2735 20.0892 62.1264C20.1572 61.9793 20.183 61.8162 20.164 61.6553C20.1449 61.4944 20.0816 61.3419 19.9811 61.2148C19.9047 61.113 19.8054 61.0307 19.6912 60.9745C19.577 60.9184 19.4512 60.8898 19.324 60.8913H19.3229L17.2932 60.9235L17.2981 55.2656L18.2426 55.2715C18.3843 55.2705 18.5236 55.234 18.6476 55.1655C18.7717 55.0969 18.8767 54.9985 18.9531 54.8791C19.0295 54.7597 19.0749 54.6231 19.0852 54.4817C19.0954 54.3403 19.0702 54.1986 19.0118 54.0695C18.9457 53.9211 18.8374 53.7954 18.7003 53.7081C18.5633 53.6208 18.4036 53.5758 18.2412 53.5787H18.2399L17.2995 53.5866L17.3046 47.682L19.338 47.6809C19.4804 47.6796 19.6202 47.6427 19.7447 47.5735C19.8692 47.5044 19.9743 47.4051 20.0506 47.2849C20.1268 47.1646 20.1718 47.0272 20.1813 46.8851C20.1908 46.743 20.1646 46.6008 20.105 46.4715C20.0385 46.3242 19.9303 46.1996 19.7939 46.113C19.6574 46.0264 19.4985 45.9817 19.3369 45.9844H19.3358L17.3059 45.9921L17.3108 40.3221H18.2555C18.3654 40.3245 18.4747 40.3049 18.577 40.2645C18.6792 40.2241 18.7724 40.1636 18.8509 40.0867C18.9295 40.0098 18.9919 39.9179 19.0345 39.8165C19.077 39.7152 19.0989 39.6063 19.0989 39.4963C19.0988 39.3864 19.0767 39.2776 19.034 39.1763C18.9913 39.0749 18.9287 38.9832 18.85 38.9064C18.7714 38.8296 18.6781 38.7693 18.5758 38.729C18.4735 38.6887 18.3642 38.6693 18.2542 38.6719H18.2528L17.3122 38.6553L17.3171 32.974L19.3507 32.9669C19.514 32.9603 19.6723 32.9084 19.8077 32.8169C19.9432 32.7254 20.0504 32.5979 20.1174 32.4488C20.1845 32.2997 20.2086 32.1349 20.1871 31.9729C20.1656 31.8108 20.0994 31.658 19.9959 31.5315C19.9195 31.4332 19.8215 31.3539 19.7094 31.2996C19.5974 31.2454 19.4743 31.2177 19.3499 31.2188H19.3487L17.3188 31.2494L17.3236 25.5911L18.2684 25.5966C18.4098 25.5957 18.5488 25.5596 18.6727 25.4915C18.7966 25.4234 18.9015 25.3254 18.978 25.2065C19.0546 25.0877 19.1002 24.9516 19.1109 24.8106C19.1216 24.6696 19.097 24.5282 19.0392 24.3991C18.9735 24.2503 18.8652 24.1242 18.7281 24.0366C18.5909 23.9491 18.431 23.904 18.2683 23.907H18.2659L17.325 23.9133L17.3296 18.4795L19.3635 18.4781C19.5254 18.472 19.6824 18.4213 19.8171 18.3314C19.9519 18.2416 20.0592 18.1162 20.127 17.9691C20.1949 17.822 20.2207 17.659 20.2017 17.4982C20.1826 17.3373 20.1193 17.1849 20.0189 17.0578C19.9426 16.9561 19.8433 16.8739 19.7292 16.8177C19.6151 16.7615 19.4894 16.733 19.3622 16.7344H19.3611L17.3308 16.7655L17.3357 11.1071L18.2807 11.1128C18.4221 11.1118 18.5611 11.0756 18.685 11.0074C18.8089 10.9392 18.9139 10.8412 18.9904 10.7223C19.0669 10.6033 19.1125 10.4671 19.1232 10.3261C19.1338 10.185 19.1091 10.0436 19.0513 9.91449C18.9855 9.76565 18.8772 9.63955 18.74 9.552C18.6028 9.46445 18.4428 9.41933 18.2801 9.4223H18.2781L17.3371 9.42891L17.3426 2.96185L20.7176 2.9295L20.7077 14.4844C20.7077 14.7082 20.7966 14.9228 20.9549 15.081C21.1131 15.2392 21.3277 15.3281 21.5515 15.3281C21.7753 15.3281 21.9899 15.2392 22.1481 15.081C22.3063 14.9228 22.3952 14.7082 22.3952 14.4844L22.4051 2.92838L26.6958 2.94103L26.6396 69.1041ZM31.7021 69.1006L28.3271 69.103L28.3833 2.95608L31.7583 2.95369L31.7021 69.1006Z" fill="#4D0099"/>
<path d="M56.3591 8.71465C56.3537 6.73442 55.5621 4.83739 54.1585 3.44056C52.7549 2.04372 50.854 1.26142 48.8738 1.2656H48.8672C47.8878 1.25807 46.9166 1.44473 46.0098 1.81479C45.103 2.18484 44.2785 2.73096 43.584 3.42157C42.8895 4.11218 42.3388 4.93358 41.9637 5.83831C41.5885 6.74304 41.3964 7.71315 41.3985 8.69257L41.4406 54.5186C41.4407 54.6318 41.4642 54.7437 41.5095 54.8474L48.1594 70.2585C48.2265 70.406 48.3362 70.5301 48.4743 70.6149C48.6125 70.6997 48.7728 70.7413 48.9347 70.7344C49.0968 70.7407 49.2571 70.6987 49.3951 70.6135C49.5332 70.5283 49.6427 70.4039 49.7097 70.2562L56.3331 54.8384C56.3783 54.7359 56.4016 54.625 56.4015 54.513L56.3591 8.71465ZM43.086 8.6951C43.0836 7.93707 43.2318 7.18612 43.5219 6.48582C43.8121 5.78553 44.2385 5.14984 44.7763 4.61566C45.3142 4.08148 45.9527 3.65944 46.655 3.37404C47.3572 3.08863 48.1092 2.94555 48.8672 2.9531H48.8723C50.406 2.94892 51.8786 3.55414 52.9662 4.63564C54.0538 5.71715 54.6672 7.18636 54.6716 8.72013L54.6756 12.9271L43.0899 12.9094L43.086 8.6951ZM43.0914 14.5884L54.6771 14.5984L54.6802 17.8813L43.0944 17.8713L43.0914 14.5884ZM43.0959 19.5588L45.618 19.5611L45.6225 23.3447C45.6228 23.5683 45.7118 23.7827 45.87 23.9407C46.0282 24.0987 46.2427 24.1875 46.4663 24.1875C46.5772 24.1875 46.687 24.1656 46.7894 24.1232C46.8918 24.0807 46.9849 24.0185 47.0633 23.94C47.1416 23.8615 47.2038 23.7684 47.2461 23.6659C47.2884 23.5634 47.3102 23.4536 47.31 23.3427L47.3055 19.5625L50.4539 19.5651L50.4945 53.6732L47.3463 53.6703L47.3171 29.249C47.3168 29.0254 47.2278 28.811 47.0696 28.653C46.9114 28.495 46.6969 28.4062 46.4733 28.4062C46.3624 28.4062 46.2526 28.4281 46.1502 28.4705C46.0478 28.513 45.9547 28.5752 45.8764 28.6537C45.798 28.7322 45.7359 28.8253 45.6935 28.9278C45.6512 29.0303 45.6294 29.1401 45.6296 29.251L45.6587 53.6689L43.1274 53.6667L43.0959 19.5588ZM48.9334 67.8186L46.333 61.7786L51.5235 61.7831L48.9334 67.8186ZM52.2474 60.0963L45.6062 60.0906L43.5672 55.3546L54.2783 55.3639L52.2474 60.0963ZM52.182 53.6746L52.1414 19.5667L54.6817 19.5688L54.7135 53.6768L52.182 53.6746Z" fill="#4D0099"/>
</svg>
