<svg width="59" height="34" viewBox="0 0 59 34" fill="none" xmlns="http://www.w3.org/2000/svg">
<path d="M37.66 0.0999978L23.56 33H14.395L0.342 0.0999978H10.4L19.33 21.532L28.448 0.0999978H37.66ZM46.127 33.423C43.9963 33.423 41.897 33.188 39.829 32.718C37.761 32.2167 36.1003 31.5743 34.847 30.791L37.526 24.681C38.6853 25.4017 40.064 25.9813 41.662 26.42C43.26 26.8273 44.8423 27.031 46.409 27.031C47.8503 27.031 48.8686 26.89 49.464 26.608C50.0906 26.2947 50.404 25.856 50.404 25.292C50.404 24.728 50.028 24.3363 49.276 24.117C48.5553 23.8663 47.396 23.6313 45.798 23.412C43.7613 23.1613 42.0223 22.8323 40.581 22.425C39.171 22.0177 37.949 21.2657 36.915 20.169C35.881 19.0723 35.364 17.537 35.364 15.563C35.364 13.9337 35.8496 12.4923 36.821 11.239C37.7923 9.95433 39.2023 8.95167 41.051 8.231C42.931 7.479 45.1713 7.103 47.772 7.103C49.6206 7.103 51.4536 7.291 53.271 7.667C55.0883 8.043 56.608 8.57567 57.83 9.265L55.151 15.328C52.895 14.0747 50.451 13.448 47.819 13.448C46.409 13.448 45.375 13.6203 44.717 13.965C44.059 14.2783 43.73 14.7013 43.73 15.234C43.73 15.8293 44.0903 16.2523 44.811 16.503C45.5316 16.7223 46.7223 16.9573 48.383 17.208C50.4823 17.5213 52.2213 17.8817 53.6 18.289C54.9786 18.6963 56.1693 19.4483 57.172 20.545C58.206 21.6103 58.723 23.1143 58.723 25.057C58.723 26.655 58.2373 28.0963 57.266 29.381C56.2946 30.6343 54.8533 31.6213 52.942 32.342C51.062 33.0627 48.7903 33.423 46.127 33.423Z" fill="#DADADA"/>
</svg>
