<svg width="91" height="86" viewBox="0 0 91 86" fill="none" xmlns="http://www.w3.org/2000/svg">
<path d="M64.5498 84H76.7751C81.0273 84 89.0003 84 89.0003 71.6942C89.0003 60.1376 89.0003 79.0063 89.0003 65.8089" stroke="#2E3092" stroke-width="3.38854" stroke-linecap="round" stroke-linejoin="round"/>
<path d="M31.0948 25.9773C31.0948 28.112 30.363 29.6154 28.8994 30.4873C27.4657 31.3592 24.8371 31.7952 21.0138 31.7952H19.8489C16.0554 31.7952 13.3821 30.9834 11.8289 29.3598C10.2756 27.7362 9.49902 24.6845 9.49902 20.2046V19.3477C9.49902 14.8678 10.2756 11.8161 11.8289 10.1925C13.3821 8.56891 16.0554 7.75712 19.8489 7.75712H20.7898C21.7157 7.75712 23.3287 7.86235 25.6287 8.07282C26.2261 8.16302 26.5248 7.90745 26.5248 7.30613V1.48828C26.5248 1.06736 26.6592 0.721592 26.928 0.450995C27.2267 0.150331 27.5851 0 28.0033 0H29.6611C30.0793 0 30.4228 0.150331 30.6916 0.450995C30.9604 0.721592 31.0948 1.06736 31.0948 1.48828V25.9773ZM26.5248 13.8456C26.5248 13.3344 26.4202 12.9736 26.2111 12.7632C26.0319 12.5226 25.7033 12.3422 25.2254 12.222C23.8813 11.9814 22.4177 11.8612 20.8346 11.8612H20.0729C17.5937 11.8612 15.9658 12.3573 15.1892 13.3495C14.4425 14.3417 14.0691 16.3561 14.0691 19.3928V20.0242C14.0691 23.1511 14.4574 25.2106 15.234 26.2028C16.0106 27.195 17.6236 27.6911 20.0729 27.6911H20.8346C22.5969 27.6911 23.8664 27.5859 24.643 27.3754C25.3897 27.165 25.8826 26.8793 26.1215 26.5185C26.3904 26.1577 26.5248 25.5414 26.5248 24.6694V13.8456Z" fill="#2E3092"/>
<path d="M40.4261 4.01386C40.4261 4.46486 40.2767 4.82565 39.978 5.09625C39.7092 5.36685 39.3657 5.50215 38.9475 5.50215H37.2898C36.8716 5.50215 36.5281 5.36685 36.2593 5.09625C35.9904 4.82565 35.856 4.46486 35.856 4.01386V1.48828C35.856 1.06736 35.9904 0.721592 36.2593 0.450995C36.5281 0.150331 36.8716 0 37.2898 0H38.9475C39.3657 0 39.7092 0.150331 39.978 0.450995C40.2767 0.721592 40.4261 1.06736 40.4261 1.48828V4.01386ZM40.4261 30.1265C40.4261 30.5474 40.2767 30.8932 39.978 31.1638C39.7092 31.4344 39.3657 31.5697 38.9475 31.5697H37.2898C36.8716 31.5697 36.5281 31.4344 36.2593 31.1638C35.9904 30.8932 35.856 30.5474 35.856 30.1265V9.4709C35.856 9.04998 35.9904 8.70421 36.2593 8.43361C36.5281 8.13295 36.8716 7.98262 37.2898 7.98262H38.9475C39.3657 7.98262 39.7092 8.13295 39.978 8.43361C40.2767 8.70421 40.4261 9.04998 40.4261 9.4709V30.1265Z" fill="#2E3092"/>
<path d="M55.1671 39.0111C52.5386 39.0111 50.0744 38.7104 47.7744 38.1091C47.1471 37.9287 46.6991 37.7032 46.4302 37.4326C46.1614 37.162 46.027 36.7411 46.027 36.1698V35.0874C46.027 34.1855 46.4601 33.7345 47.3263 33.7345C47.4458 33.7345 48.3568 33.9449 50.0594 34.3658C51.7919 34.8168 53.5094 35.0423 55.2119 35.0423H55.4808C57.6613 35.0423 59.1697 34.7567 60.006 34.1855C60.8723 33.6443 61.3651 32.5619 61.4846 30.9383C61.4846 30.2468 61.1262 29.9461 60.4093 30.0363C58.4677 30.3069 56.8548 30.4422 55.5704 30.4422H54.8087C51.0153 30.4422 48.3419 29.6905 46.7887 28.1872C45.2355 26.6839 44.4588 23.8727 44.4588 19.7536V18.9869C44.4588 14.6574 45.2355 11.7108 46.7887 10.1474C48.3419 8.55388 51.0153 7.75712 54.8087 7.75712H56.108C59.8119 7.78719 62.3807 8.23818 63.8144 9.11011C65.278 9.95197 66.0248 11.3801 66.0547 13.3946V29.8108C66.0547 33.2985 65.2631 35.7038 63.68 37.0267C62.1268 38.3496 59.5132 39.0111 55.8392 39.0111H55.1671ZM60.3197 25.9322C61.0963 25.7218 61.4846 25.1204 61.4846 24.1283V14.9279C61.4846 14.056 61.3502 13.4397 61.0813 13.0789C60.8424 12.7181 60.3495 12.4324 59.6028 12.222C58.7366 11.9814 57.4522 11.8612 55.7496 11.8612H55.0327C52.5535 11.8612 50.9256 12.3272 50.149 13.2593C49.4023 14.1913 49.0289 16.1306 49.0289 19.0771V19.5732C49.0289 22.3393 49.4172 24.1583 50.1938 25.0302C50.9704 25.9022 52.5834 26.3381 55.0327 26.3381H55.7944C57.9152 26.3381 59.4236 26.2028 60.3197 25.9322Z" fill="#2E3092"/>
<path d="M75.1234 4.01386C75.1234 4.46486 74.974 4.82565 74.6753 5.09625C74.4065 5.36685 74.063 5.50215 73.6448 5.50215H71.9871C71.5689 5.50215 71.2254 5.36685 70.9566 5.09625C70.6877 4.82565 70.5533 4.46486 70.5533 4.01386V1.48828C70.5533 1.06736 70.6877 0.721592 70.9566 0.450995C71.2254 0.150331 71.5689 0 71.9871 0H73.6448C74.063 0 74.4065 0.150331 74.6753 0.450995C74.974 0.721592 75.1234 1.06736 75.1234 1.48828V4.01386ZM75.1234 30.1265C75.1234 30.5474 74.974 30.8932 74.6753 31.1638C74.4065 31.4344 74.063 31.5697 73.6448 31.5697H71.9871C71.5689 31.5697 71.2254 31.4344 70.9566 31.1638C70.6877 30.8932 70.5533 30.5474 70.5533 30.1265V9.4709C70.5533 9.04998 70.6877 8.70421 70.9566 8.43361C71.2254 8.13295 71.5689 7.98262 71.9871 7.98262H73.6448C74.063 7.98262 74.4065 8.13295 74.6753 8.43361C74.974 8.70421 75.1234 9.04998 75.1234 9.4709V30.1265Z" fill="#2E3092"/>
<path d="M37.9043 68.7768H37.6355C34.7082 68.7768 32.6174 68.0101 31.3628 66.4767C30.1382 64.9433 29.5259 62.1021 29.5259 57.9529V49.8801C29.5259 49.3389 29.272 49.0683 28.7642 49.0683H27.7785C27.3603 49.0683 27.0168 48.933 26.748 48.6624C26.4791 48.3918 26.3447 48.0461 26.3447 47.6251V46.4525C26.3447 46.0316 26.4791 45.6858 26.748 45.4152C27.0168 45.1146 27.3603 44.9642 27.7785 44.9642H28.7642C29.272 44.9642 29.5259 44.7087 29.5259 44.1976V41.1308C29.5259 40.7099 29.6603 40.3641 29.9291 40.0935C30.1979 39.7928 30.5564 39.6425 31.0044 39.6425H32.6622C33.0803 39.6425 33.4239 39.7928 33.6927 40.0935C33.9615 40.3641 34.0959 40.7099 34.0959 41.1308V44.1976C34.0959 44.7087 34.3647 44.9642 34.9024 44.9642H40.9062C41.3244 44.9642 41.6679 45.1146 41.9367 45.4152C42.2055 45.6858 42.34 46.0316 42.34 46.4525V47.6251C42.34 48.0461 42.2055 48.3918 41.9367 48.6624C41.6679 48.933 41.3244 49.0683 40.9062 49.0683H34.9024C34.3647 49.0683 34.0959 49.3389 34.0959 49.8801V58.4039C34.0959 60.8393 34.3797 62.4929 34.9472 63.3649C35.5147 64.2368 36.4706 64.6727 37.8147 64.6727H37.9939C38.8601 64.6727 39.6816 64.5675 40.4582 64.3571C41.2348 64.1466 41.6978 64.0414 41.8471 64.0414C42.6835 64.0414 43.1016 64.5074 43.1016 65.4394V66.5669C43.1016 67.499 42.5491 68.1153 41.4439 68.416C40.2491 68.6565 39.0692 68.7768 37.9043 68.7768Z" fill="#2E3092"/>
<path d="M48.0455 49.9703C47.1495 49.9703 46.7014 49.5043 46.7014 48.5722V47.6251C46.7014 47.0839 46.8209 46.678 47.0598 46.4074C47.3287 46.1368 47.7468 45.9113 48.3144 45.7309C50.5546 45.0695 53.1383 44.7388 56.0656 44.7388C59.7694 44.7388 62.3233 45.5054 63.7271 47.0388C65.131 48.5421 65.833 51.3984 65.833 55.6077V62.4178C65.833 64.7329 65.1012 66.3715 63.6375 67.3336C62.1739 68.2957 59.5753 68.7768 55.8415 68.7768H54.9455C51.7793 68.7768 49.4196 68.1905 47.8663 67.0179C46.343 65.8453 45.5813 63.9211 45.5813 61.2452V60.6589C45.5813 58.3438 46.2832 56.6901 47.6871 55.6979C49.091 54.6757 51.2715 54.1646 54.2286 54.1646H55.1695C56.8422 54.1646 58.5597 54.2999 60.322 54.5705C60.9493 54.6607 61.2629 54.3901 61.2629 53.7587C61.2629 51.8645 60.8597 50.5566 60.0532 49.835C59.2766 49.1134 57.8428 48.7526 55.7519 48.7526C54.139 48.7526 52.4812 48.9631 50.7786 49.384C49.1059 49.7749 48.1949 49.9703 48.0455 49.9703ZM61.2629 59.2157C61.2629 58.7346 61.1733 58.4039 60.9941 58.2235C60.8447 58.0431 60.5311 57.9078 60.0532 57.8176C59.0077 57.6072 57.5142 57.5019 55.5727 57.5019H55.0799C53.1682 57.5019 51.8539 57.7425 51.1371 58.2235C50.4501 58.7046 50.1066 59.5765 50.1066 60.8393V61.2452C50.1066 62.6884 50.465 63.6956 51.1819 64.2669C51.9286 64.8381 53.2578 65.1237 55.1695 65.1237H55.5727C57.335 65.1237 58.6493 65.0185 59.5155 64.808C60.2324 64.6276 60.6954 64.3871 60.9045 64.0865C61.1434 63.7557 61.2629 63.1845 61.2629 62.3727V59.2157Z" fill="#2E3092"/>
<path d="M74.8863 67.1081C74.8863 67.5291 74.7369 67.8748 74.4382 68.1454C74.1694 68.416 73.8259 68.5513 73.4077 68.5513H71.75C71.3318 68.5513 70.9883 68.416 70.7195 68.1454C70.4506 67.8748 70.3162 67.5291 70.3162 67.1081V38.4699C70.3162 38.049 70.4506 37.7032 70.7195 37.4326C70.9883 37.132 71.3318 36.9816 71.75 36.9816H73.4077C73.8259 36.9816 74.1694 37.132 74.4382 37.4326C74.7369 37.7032 74.8863 38.049 74.8863 38.4699V67.1081Z" fill="#2E3092"/>
<path d="M2.94366 46.1864C2.94366 44.2111 3.61573 42.5469 4.95987 41.1939C6.30401 39.8139 8.06483 39.1239 10.2423 39.1239C12.4198 39.1239 14.1807 39.7598 15.5248 41.0316C16.8958 42.2763 17.5813 43.8187 17.5813 45.6588C17.5813 47.4988 16.9899 49.0818 15.8071 50.4078C14.6242 51.7066 12.6349 52.8431 9.83909 53.8173L18.4281 62.4629C19.8529 60.4334 20.5653 57.9574 20.5653 55.035L20.3637 52.2749H22.3799C22.5143 53.0867 22.5815 53.9796 22.5815 54.9538C22.5815 58.3092 21.6541 61.2722 19.7991 63.8429L24.5171 68.5513H21.775L18.5894 65.3447C16.1162 67.8883 12.9709 69.1601 9.15358 69.1601C6.22336 69.1601 3.96521 68.4431 2.37912 67.0089C0.793041 65.5477 0 63.6806 0 61.4075C0 57.8086 2.19094 55.0891 6.57283 53.249C4.15339 50.7866 2.94366 48.4324 2.94366 46.1864ZM9.15358 67.3336C12.3526 67.3336 15.0409 66.2106 17.2184 63.9647L7.94385 54.5885C5.95453 55.4003 4.47598 56.3338 3.5082 57.3892C2.54042 58.4445 2.05653 59.7975 2.05653 61.4481C2.05653 63.2882 2.68827 64.7359 3.95176 65.7912C5.21525 66.8195 6.94919 67.3336 9.15358 67.3336ZM5.00019 46.0647C5.00019 47.0929 5.21525 48.0536 5.64538 48.9465C6.0755 49.8395 6.92231 50.9219 8.1858 52.1937L8.46807 52.4778L9.67779 51.9908C11.9359 51.1248 13.4683 50.2319 14.2747 49.3118C15.1081 48.3918 15.5248 47.1741 15.5248 45.6588C15.5248 44.1976 15.014 43.0475 13.9925 42.2087C12.9978 41.3698 11.7478 40.9504 10.2423 40.9504C8.65625 40.9504 7.37932 41.4104 6.41154 42.3304C5.47064 43.2505 5.00019 44.4952 5.00019 46.0647Z" fill="#24D782"/>
</svg>
