<svg width="173" height="46" viewBox="0 0 173 46" fill="none" xmlns="http://www.w3.org/2000/svg">
<path d="M41.1911 13.7443C41.1911 16.2482 41.1911 18.6866 41.1911 21.1709C41.8728 21.0005 42.489 20.8104 43.1216 20.6924C44.2523 20.4761 45.383 20.3844 46.5465 20.4925C47.6346 20.5941 48.6801 20.794 49.6437 21.2791C51.2234 22.0755 52.1411 23.4291 52.6392 25.0908C53.1472 26.7819 53.2751 28.519 53.18 30.2658C53.0948 31.8521 52.8883 33.4253 52.1345 34.8674C51.4069 36.257 50.2303 37.0633 48.7751 37.5155C46.6645 38.171 44.4817 38.1448 42.3186 38.0432C40.5422 37.9613 38.7757 37.7056 37.0878 37.0698C36.8289 36.9715 36.7437 36.8469 36.7437 36.5749C36.7502 29.7644 36.7502 22.9506 36.7469 16.1401C36.7469 15.8222 36.8551 15.6648 37.1632 15.5337C38.3037 15.0454 39.4246 14.5112 40.5553 13.9999C40.7356 13.9147 40.9322 13.8459 41.1911 13.7443ZM48.8702 29.3023C48.7882 28.5976 48.762 27.8799 48.608 27.1916C48.313 25.861 47.5789 24.8449 46.2318 24.4058C44.6357 23.8814 43.0462 24.0682 41.4828 24.5664C41.355 24.6057 41.2272 24.8876 41.2272 25.058C41.2108 27.9126 41.2206 30.764 41.2075 33.6187C41.2075 33.9202 41.3059 34.0578 41.5746 34.1332C42.8561 34.497 44.1474 34.6281 45.4748 34.4249C46.7628 34.2283 47.7165 33.5859 48.277 32.4093C48.7489 31.4293 48.8309 30.3773 48.8702 29.3023Z" fill="black"/>
<path d="M27.085 13.6754C25.325 11.3943 23.0177 10.4209 20.2056 10.5717C18.8815 10.6405 17.6885 11.1125 16.6365 11.8859C13.4082 14.2621 12.6249 18.3884 14.1391 21.6757C14.9519 23.4389 16.3186 24.6778 18.1343 25.3726C19.9401 26.0642 21.7722 26.0183 23.6797 25.3661C22.7489 26.6803 21.8574 27.7815 20.1204 27.9225C17.8164 28.1126 15.7876 27.4964 13.9064 26.2575C11.917 24.9466 10.4487 23.1636 9.28518 21.1021C8.40027 19.5355 7.76117 17.8804 7.44982 16.1138C7.09913 14.1146 7.19418 12.1449 8.05287 10.2603C9.04921 8.07429 10.701 6.58961 12.8838 5.62932C14.8863 4.74768 16.9872 4.4101 19.1372 4.59036C22.7686 4.89189 25.6626 7.11072 26.7834 10.8404C27.062 11.7516 27.1603 12.6889 27.085 13.6754Z" fill="black"/>
<path d="M77.9313 30.1839C77.9313 32.6846 77.9313 35.1099 77.9313 37.5712C76.4531 37.5712 75.0111 37.5712 73.5231 37.5712C73.5133 37.4238 73.4969 37.2763 73.4969 37.1321C73.4969 30.138 73.4969 23.144 73.4871 16.1466C73.4871 15.832 73.569 15.6517 73.8672 15.5206C75.0471 15.0061 76.2139 14.4719 77.3872 13.9475C77.5478 13.8754 77.7215 13.8327 77.9411 13.7606C77.9411 18.0475 77.9411 22.2722 77.9411 26.5296C78.5048 26.5689 78.9932 26.7033 79.4192 26.1428C80.0321 25.3333 80.7466 24.6057 81.4217 23.8453C82.228 22.9375 83.0375 22.0329 83.8569 21.1349C83.9618 21.0202 84.1289 20.9022 84.2698 20.8989C85.7054 20.8825 87.1376 20.8891 88.6649 20.8891C88.3896 21.2234 88.1766 21.5052 87.9439 21.7674C87.3375 22.4459 86.7214 23.1177 86.1118 23.7929C84.9286 25.0973 83.7422 26.3985 82.5721 27.716C82.5 27.7979 82.5164 28.0568 82.5918 28.1617C83.5324 29.5153 84.4862 30.8558 85.4432 32.1962C86.3903 33.5236 87.3408 34.851 88.288 36.1783C88.5993 36.6142 88.9074 37.0567 89.2614 37.5614C89.0516 37.5844 88.9238 37.6073 88.796 37.6073C87.4981 37.6106 86.2003 37.6237 84.9024 37.5942C84.7025 37.5909 84.4337 37.4565 84.3125 37.2927C82.618 35.0148 80.9465 32.7174 79.2554 30.4363C79.1636 30.3117 78.9702 30.2199 78.8129 30.197C78.5474 30.1577 78.2721 30.1839 77.9313 30.1839Z" fill="black"/>
<path d="M157.813 45.2929C157.622 44.1753 157.436 43.0708 157.252 41.9925C158.173 41.7336 159.045 41.5107 159.904 41.242C161.07 40.8782 162.083 40.262 162.893 39.3312C163.217 38.9576 163.502 38.2071 163.453 37.6991C162.791 37.6991 162.122 37.6794 161.457 37.7056C161.097 37.722 160.942 37.5712 160.854 37.2468C159.887 33.8055 158.91 30.3674 157.94 26.9294C157.383 24.9433 156.836 22.9539 156.275 20.9284C156.406 20.912 156.521 20.8825 156.633 20.8825C157.947 20.8792 159.261 20.8924 160.572 20.8727C160.887 20.8694 160.998 21.0071 161.057 21.2725C161.45 23.0522 161.85 24.8318 162.247 26.6148C162.637 28.3813 163.027 30.1478 163.414 31.9144C163.522 32.4158 163.617 32.9206 163.732 33.4187C163.781 33.6449 163.846 33.8513 164.171 33.812C164.449 33.776 164.718 33.8645 164.836 33.4482C165.567 30.8525 166.327 28.26 167.081 25.6709C167.507 24.2091 167.946 22.7507 168.382 21.2889C168.448 21.0661 168.513 20.8694 168.828 20.8727C170.142 20.8891 171.456 20.8792 172.767 20.8825C172.823 20.8825 172.882 20.9087 173 20.9382C172.771 21.6527 172.548 22.3541 172.318 23.0522C171.227 26.3788 170.136 29.7087 169.038 33.0353C168.405 34.9558 167.805 36.8895 167.104 38.7872C166.262 41.065 164.826 42.8905 162.617 44.0016C161.437 44.5948 160.166 44.9291 158.855 45.1192C158.553 45.1716 158.242 45.2241 157.813 45.2929Z" fill="black"/>
<path d="M65.9521 27.5652C65.9521 27.0212 66.0373 26.3984 65.9325 25.8118C65.7489 24.7925 64.9066 24.3992 64.0184 24.2452C61.6652 23.8355 59.3415 23.9535 57.0932 24.8351C56.9687 24.8843 56.8343 24.9072 56.654 24.9531C56.5819 24.3632 56.5098 23.7994 56.4475 23.2324C56.4049 22.8424 56.3951 22.4459 56.3525 22.0558C56.323 21.7773 56.4574 21.6232 56.6999 21.5446C57.9912 21.1152 59.2825 20.7023 60.6525 20.6072C61.544 20.5449 62.4387 20.4139 63.3269 20.4433C64.6248 20.486 65.9128 20.6662 67.1222 21.2103C68.9149 22.0132 69.849 23.4455 70.1341 25.33C70.2488 26.0904 70.3144 26.8671 70.3177 27.6373C70.3373 30.5084 70.3144 33.3794 70.3373 36.2537C70.3406 36.6667 70.1997 36.883 69.8261 36.9649C68.5315 37.2468 67.2467 37.6139 65.9357 37.7744C64.3724 37.9678 62.7894 38.0629 61.2162 38.0465C59.8462 38.0301 58.4796 37.8302 57.2243 37.1714C56.1886 36.6273 55.5495 35.785 55.2611 34.6805C54.9071 33.3433 54.9334 31.9898 55.2611 30.6493C55.6118 29.2171 56.5655 28.3059 57.9289 27.8799C58.7549 27.6209 59.6398 27.5423 60.4985 27.3981C60.8262 27.3424 61.1638 27.2932 61.4915 27.3096C62.9729 27.3817 64.451 27.4767 65.9521 27.5652ZM65.9456 30.492C64.4052 30.4297 62.927 30.315 61.4456 30.3347C60.6722 30.3445 59.8266 30.5411 59.4497 31.3376C59.2366 31.7898 59.2104 32.3568 59.194 32.8714C59.1645 33.8514 59.7184 34.5593 60.6722 34.769C62.36 35.1427 64.0381 34.946 65.6998 34.5822C65.8014 34.5593 65.9325 34.3757 65.9357 34.2643C65.9521 33.0648 65.9456 31.8619 65.9456 30.492Z" fill="black"/>
<path d="M104.334 30.4625C100.582 30.4625 96.8946 30.4625 93.2141 30.4625C92.8929 32.1766 93.9351 33.7301 95.6459 34.1693C97.0323 34.5265 98.4416 34.5495 99.8476 34.3626C100.893 34.2217 101.929 34.0185 103.033 33.835C103.086 34.0906 103.174 34.4151 103.217 34.7461C103.299 35.359 103.322 35.985 103.43 36.5913C103.482 36.8895 103.348 36.9715 103.138 37.0501C101.922 37.5123 100.68 37.8531 99.3757 37.9908C97.4321 38.194 95.528 38.0661 93.6926 37.3877C91.3492 36.5225 89.8318 34.8346 89.2025 32.4453C88.8911 31.2589 88.7469 29.9971 88.7404 28.7713C88.7338 27.1392 88.9698 25.507 89.7564 24.0289C90.6609 22.3311 92.0768 21.2267 93.9482 20.8203C95.0331 20.5843 96.1638 20.4466 97.2715 20.4499C98.7103 20.4532 100.136 20.7121 101.401 21.4888C102.489 22.1574 103.22 23.1276 103.682 24.2976C104.108 25.3759 104.321 26.4968 104.331 27.657C104.341 28.5648 104.334 29.4727 104.334 30.4625ZM93.2403 27.421C95.5804 27.421 97.9238 27.421 100.32 27.421C100.32 27.0605 100.352 26.7262 100.313 26.3985C100.162 25.0744 99.6706 24.196 98.3302 23.8486C97.6812 23.6815 96.9733 23.7011 96.2949 23.7208C94.0629 23.7863 93.201 25.4644 93.2403 27.421Z" fill="black"/>
<path d="M19.3896 29.2498C18.7079 29.4071 18.0328 29.63 17.3412 29.7152C13.9032 30.138 11.0092 28.8139 8.33809 26.8311C6.30608 25.3235 4.62475 23.475 3.21217 21.3905C1.74716 19.2307 0.681987 16.8873 0.213313 14.3047C-0.376626 11.0535 0.232978 8.08411 2.34365 5.47855C4.08725 3.32527 6.37162 1.98151 8.95097 1.08677C10.5995 0.513215 12.294 0.19859 14.0376 0.060937C15.8565 -0.0799929 17.6329 0.0019371 19.3831 0.53616C19.5076 0.575489 19.6256 0.631207 19.737 0.762304C19.252 0.762304 18.7636 0.762304 18.2786 0.762304C16.2236 0.768859 14.2735 1.27031 12.3857 2.04707C10.4553 2.84021 8.80676 4.03319 7.44007 5.59325C6.19137 7.01894 5.38839 8.6806 4.98527 10.5356C4.57559 12.4333 4.63458 14.3211 5.02787 16.2154C5.61781 19.0603 6.90585 21.5773 8.71499 23.8126C10.4553 25.9691 12.566 27.6734 15.2568 28.5386C16.2367 28.8533 17.2429 29.0794 18.2851 29.0433C18.6456 29.0302 19.0062 29.0401 19.3667 29.0401C19.3732 29.1122 19.3798 29.181 19.3896 29.2498Z" fill="black"/>
<path d="M123.203 17.4543C123.203 18.5883 123.203 19.6961 123.203 20.8727C124.831 20.8727 126.424 20.8727 128.043 20.8727C128.043 22.2001 128.043 23.4586 128.043 24.7696C126.437 24.7696 124.858 24.7696 123.242 24.7696C123.232 24.9826 123.219 25.1465 123.219 25.3103C123.216 27.2506 123.189 29.1908 123.235 31.1311C123.248 31.7702 123.373 32.4322 123.586 33.032C124.045 34.3266 125.297 34.651 126.447 34.5101C126.791 34.4675 127.129 34.3856 127.525 34.3102C127.486 35.1296 127.503 35.9358 127.394 36.7257C127.276 37.5778 127.231 37.5876 126.296 37.6991C125.562 37.7876 124.818 37.8793 124.081 37.8695C122.996 37.8531 121.941 37.6171 121.016 37.0174C119.83 36.2472 119.273 35.0738 119.066 33.7203C118.984 33.1828 118.968 32.6322 118.968 32.0881C118.962 27.9946 118.968 23.901 118.958 19.8075C118.958 19.4863 119.021 19.2766 119.352 19.1324C120.574 18.6047 121.78 18.0443 122.996 17.5002C123.039 17.4773 123.101 17.474 123.203 17.4543Z" fill="black"/>
<path d="M21.5788 12.8036C23.7813 12.8069 25.5216 13.9081 26.8194 15.7206C27.0456 16.0352 26.9505 16.6677 26.8391 17.1135C26.436 18.7325 25.9935 20.345 25.4986 21.9411C25.2856 22.6294 24.9087 23.2652 24.5941 23.9174C24.5482 24.0158 24.4433 24.1042 24.3417 24.1567C22.6505 25.058 20.8938 25.1399 19.1338 24.432C17.2034 23.6585 15.9187 22.2492 15.3713 20.2303C14.824 18.2114 15.296 16.4088 16.6987 14.8684C17.9736 13.469 19.5796 12.8069 21.5788 12.8036Z" fill="black"/>
<path d="M156.193 34.4282C156.134 35.5523 156.079 36.588 156.023 37.6499C154.371 37.8957 152.745 38.1317 151.189 37.3975C149.976 36.8273 149.245 35.8211 148.94 34.5298C148.816 34.0054 148.754 33.4548 148.75 32.914C148.737 27.3555 148.747 21.7969 148.734 16.2384C148.734 15.8516 148.829 15.6353 149.196 15.478C150.471 14.9307 151.736 14.3506 153.093 13.7443C153.093 13.9901 153.093 14.1769 153.093 14.3637C153.093 20.3188 153.09 26.2739 153.099 32.229C153.099 32.56 153.142 32.8976 153.217 33.2188C153.486 34.3594 154.535 34.6216 155.59 34.5134C155.771 34.4937 155.944 34.4642 156.193 34.4282Z" fill="black"/>
<path d="M143.837 13.7377C143.837 13.9868 143.837 14.1539 143.837 14.3211C143.837 20.3057 143.831 26.2936 143.851 32.2782C143.851 32.7469 143.969 33.245 144.155 33.6776C144.499 34.4741 145.643 34.6347 146.335 34.5134C146.522 34.4806 146.712 34.4675 146.935 34.4413C146.872 35.5491 146.817 36.588 146.758 37.6532C145.132 37.876 143.523 38.1219 141.976 37.4107C140.737 36.8404 140.003 35.8277 139.688 34.5232C139.564 33.9988 139.498 33.4482 139.498 32.9075C139.485 27.3489 139.495 21.7904 139.482 16.2318C139.482 15.8451 139.58 15.6288 139.944 15.4715C141.215 14.9241 142.481 14.344 143.837 13.7377Z" fill="black"/>
<path d="M107.071 37.5647C107.071 32.3601 107.071 27.1752 107.071 21.9444C110.244 20.5449 113.587 20.3155 117.038 20.6203C117.038 21.8461 117.038 23.0456 117.038 24.3173C116.766 24.2878 116.507 24.2255 116.248 24.2353C114.868 24.2845 113.488 24.3369 112.108 24.4189C111.391 24.4615 111.391 24.4943 111.391 25.2087C111.391 29.1318 111.391 33.0549 111.391 36.978C111.391 37.1616 111.391 37.3418 111.391 37.568C109.942 37.5647 108.52 37.5647 107.071 37.5647Z" fill="black"/>
<path d="M135.093 37.5876C133.654 37.5876 132.255 37.5876 130.819 37.5876C130.819 32.0324 130.819 26.4968 130.819 20.9251C132.235 20.9251 133.644 20.9251 135.093 20.9251C135.093 26.464 135.093 31.9996 135.093 37.5876Z" fill="black"/>
<path d="M132.904 18.726C132.219 18.7719 131.54 18.6506 131.075 18.0312C130.891 17.7886 130.734 17.4838 130.682 17.1888C130.508 16.186 130.449 15.1798 131.337 14.4292C132.081 13.8 132.953 13.8295 133.831 14.0294C134.595 14.2031 135.086 14.698 135.211 15.4748C135.29 15.9631 135.332 16.4776 135.263 16.9594C135.09 18.1491 134.297 18.7981 132.904 18.726Z" fill="black"/>
</svg>
