<svg width="176" height="45" viewBox="0 0 176 45" fill="none" xmlns="http://www.w3.org/2000/svg">
<path d="M73.3936 31.1649C69.7627 31.1649 66.1252 31.3254 62.5053 31.1165C59.2559 30.9295 56.3463 29.5702 54.0025 27.2673C49.7248 23.0618 45.5216 18.7793 41.279 14.5342C40.4305 13.6852 39.9919 12.691 40.027 11.4791C40.0511 10.5904 40.0314 9.70183 40.0314 8.67465C40.2551 8.8902 40.38 9.00678 40.5028 9.12995C45.6488 14.2901 50.786 19.459 55.9429 24.6103C57.8439 26.5085 60.1811 27.5313 62.8254 27.8392C63.7068 27.9426 64.5992 27.9338 65.4872 27.9756C65.5047 27.9382 65.5222 27.8986 65.542 27.8612C65.4499 27.7578 65.3644 27.6478 65.2657 27.551C58.2911 20.5543 51.3297 13.5466 44.3354 6.56969C42.5594 4.79907 40.3537 3.92585 37.8432 3.85547C37.1986 3.83787 36.5518 3.85327 35.8655 3.85327C35.8655 12.9725 35.8655 22.039 35.8655 31.1275C35.7296 31.1495 35.6287 31.1803 35.5301 31.1803C33.7914 31.1803 32.0483 31.2243 30.3117 31.1671C26.9527 31.0549 24.0366 29.8056 21.6511 27.4455C17.2901 23.13 12.9773 18.7639 8.64695 14.4176C7.87078 13.639 7.48927 12.6976 7.49146 11.5956C7.49366 10.6542 7.49146 9.71502 7.49146 8.69444C7.63179 8.81761 7.73045 8.8924 7.81596 8.98038C13.0694 14.2483 18.3293 19.5073 23.5696 24.7906C25.3872 26.6228 27.5732 27.6148 30.1144 27.8502C30.8928 27.9228 31.6777 27.936 32.5262 27.9799C32.5262 18.8013 32.5262 9.69303 32.5262 0.531976C32.7499 0.531976 32.9121 0.531976 33.0744 0.531976C34.5719 0.531976 36.0694 0.52538 37.567 0.534178C41.1672 0.556173 44.2828 1.8099 46.8306 4.35696C53.4499 10.9776 60.043 17.6289 66.6448 24.2671C68.8023 26.4381 70.9576 28.609 73.1195 30.7778C73.2247 30.8833 73.3651 30.9515 73.4878 31.0373C73.4593 31.0769 73.4265 31.1209 73.3936 31.1649Z" fill="#E76249"/>
<path d="M28.2549 23.174C28.119 22.9936 28.0006 22.7912 27.8427 22.6329C22.5937 17.3606 17.3403 12.0927 12.0891 6.82483C10.1114 4.84085 7.73245 3.82906 4.92596 3.85106C4.4129 3.85546 3.90203 3.85106 3.321 3.85106C3.321 4.1326 3.321 4.37015 3.321 4.6099C3.321 13.2431 3.321 21.8784 3.321 30.5116C3.321 31.1825 3.321 31.1825 2.66322 31.1825C1.92214 31.1825 1.18105 31.1671 0.439958 31.1891C0.0913389 31.2001 -0.0292515 31.0659 0.0058296 30.7403C0.0145999 30.6656 0.0058296 30.5886 0.0058296 30.5138C0.0058296 20.7413 0.0058296 10.9687 0.0058296 1.19842C0.0058296 0.395592 0.0124085 0.536362 0.661409 0.531963C2.18963 0.525364 3.71785 0.505571 5.24388 0.534165C8.71911 0.600151 11.7427 1.81869 14.2137 4.27557C18.555 8.59105 22.859 12.9439 27.1871 17.2704C28.0159 18.0996 28.4215 19.0784 28.4128 20.2464C28.4062 21.1834 28.4106 22.1226 28.4106 23.0596C28.3602 23.097 28.3075 23.1366 28.2549 23.174Z" fill="#E76249"/>
<path d="M91.9117 31.4178C91.2868 31.4178 90.7123 31.4398 90.1401 31.4112C89.6884 31.3892 89.4275 31.0461 89.4275 30.5424C89.4253 29.1391 89.4362 27.7336 89.4231 26.3303C89.4099 24.6696 88.3465 23.3631 86.781 23.0618C84.9678 22.7121 83.183 24.0296 82.9616 25.8816C82.9331 26.1169 82.9221 26.3545 82.9199 26.592C82.9155 28.0525 82.9177 29.513 82.9177 30.9735C82.9177 31.1077 82.9177 31.2418 82.9177 31.4068C82.2753 31.4068 81.668 31.4332 81.065 31.3958C80.7383 31.376 80.5191 31.1407 80.4555 30.8019C80.4314 30.67 80.416 30.5336 80.416 30.3994C80.4138 27.4212 80.4138 24.4453 80.4138 21.4671C80.4138 21.3681 80.4138 21.267 80.4138 21.1702C81.6877 21.0074 82.5889 21.0998 82.9747 22.1534C84.2245 21.1592 85.6212 20.6863 87.2196 20.904C88.8179 21.1218 90.0567 21.9268 91.0017 23.2311C91.2385 22.9628 91.4446 22.6923 91.6858 22.4591C93.2425 20.9612 95.0777 20.4663 97.1366 21.1152C99.1822 21.7619 100.386 23.2267 100.831 25.3207C100.884 25.5736 100.908 25.8376 100.908 26.0949C100.914 27.782 100.912 29.469 100.91 31.1561C100.91 31.233 100.899 31.3078 100.892 31.4134C100.281 31.4134 99.6843 31.4398 99.0923 31.4046C98.6692 31.3804 98.4258 31.0373 98.4236 30.571C98.4214 29.1435 98.428 27.7182 98.4214 26.2907C98.4126 24.4409 96.9655 23.0002 95.1282 23.0046C93.3478 23.009 91.9226 24.4189 91.9095 26.2115C91.8985 27.7974 91.9073 29.381 91.9073 30.9669C91.9117 31.1033 91.9117 31.2374 91.9117 31.4178Z" fill="#3D4148"/>
<path d="M124.877 15.0511C123.476 16.197 121.928 16.6215 120.198 16.2762C118.937 16.0233 117.898 15.3722 117.089 14.3714C115.427 12.3127 115.51 9.39168 117.282 7.36371C118.92 5.49191 122.189 4.69567 124.844 6.85342C124.859 6.84022 124.89 6.83142 124.89 6.81603C124.971 6.0198 125.182 5.82624 125.98 5.82624C126.396 5.82624 126.815 5.82623 127.232 5.82843C127.265 5.82843 127.298 5.83943 127.387 5.85263C127.387 5.96261 127.387 6.08138 127.387 6.20015C127.387 9.38068 127.383 12.5612 127.394 15.7417C127.394 16.0497 127.322 16.1662 127.004 16.1398C126.679 16.1113 126.35 16.1332 126.024 16.1332C125.182 16.1332 124.978 15.9507 124.877 15.0511ZM118.394 10.9731C118.391 12.7592 119.856 14.2417 121.632 14.2527C123.395 14.2636 124.895 12.7768 124.908 11.0017C124.923 9.20912 123.439 7.71783 121.643 7.71783C119.858 7.71783 118.394 9.18492 118.394 10.9731Z" fill="#3D4148"/>
<path d="M112.16 22.2039C112.169 22.0478 112.173 21.951 112.18 21.8542C112.213 21.4693 112.515 21.1394 112.899 21.1262C113.471 21.1086 114.046 21.1218 114.644 21.1218C114.644 24.553 114.644 27.9667 114.644 31.4002C114.037 31.4002 113.43 31.4376 112.829 31.387C112.382 31.3496 112.206 31.0285 112.158 30.3312C110.88 31.4046 109.426 31.8467 107.817 31.6201C106.203 31.3936 104.936 30.5666 104.035 29.1963C102.677 27.1331 102.925 24.4035 104.67 22.5361C105.653 21.4847 106.887 20.9238 108.325 20.8578C109.759 20.7896 111.025 21.2537 112.16 22.2039ZM108.911 23.0068C107.128 23.009 105.664 24.4783 105.664 26.2643C105.664 28.0415 107.139 29.5284 108.911 29.5394C110.682 29.5504 112.187 28.0349 112.178 26.2467C112.169 24.4629 110.7 23.0046 108.911 23.0068Z" fill="#3D4148"/>
<path d="M105.635 16.1288C105.043 16.1288 104.469 16.1552 103.896 16.12C103.434 16.0936 103.215 15.7615 103.142 15.0598C101.914 16.0694 100.533 16.5313 98.9653 16.3488C97.4042 16.1662 96.1523 15.4316 95.216 14.1712C93.7426 12.1873 93.8501 9.34766 95.455 7.48466C96.4373 6.3431 97.6783 5.68984 99.1758 5.57766C100.656 5.46549 101.969 5.92959 103.136 6.89518C103.16 6.71702 103.166 6.58285 103.199 6.45528C103.291 6.08575 103.568 5.8438 103.947 5.83501C104.499 5.82181 105.052 5.83061 105.631 5.83061C105.635 9.25748 105.635 12.669 105.635 16.1288ZM103.168 11.0039C103.171 9.19149 101.73 7.72221 99.9476 7.71781C98.1497 7.71341 96.6807 9.1651 96.6719 10.9555C96.6631 12.7635 98.1431 14.2614 99.9301 14.2526C101.702 14.246 103.168 12.7723 103.168 11.0039Z" fill="#3D4148"/>
<path d="M82.9221 16.1311C82.2819 16.1311 81.7074 16.1509 81.1352 16.1245C80.7909 16.1091 80.552 15.8979 80.4664 15.5482C80.4379 15.4294 80.4204 15.3018 80.4204 15.1787C80.4182 12.1433 80.4182 9.11015 80.4182 6.07479C80.4182 6.00881 80.427 5.94283 80.4292 5.88124C81.6636 5.57991 82.4266 5.88124 82.9484 6.88423C83.6347 6.21337 84.4679 5.85485 85.3931 5.66129C88.7259 4.96404 91.8963 7.52209 91.9095 10.9358C91.9161 12.5436 91.9117 14.1515 91.9117 15.7593C91.9117 15.8693 91.9117 15.9815 91.9117 16.1201C91.2736 16.1201 90.6663 16.1487 90.0611 16.1091C89.6621 16.0827 89.4275 15.7308 89.4275 15.2776C89.4253 13.8611 89.4363 12.4468 89.4231 11.0303C89.4099 9.54346 88.5833 8.38431 87.259 7.9576C85.0665 7.25595 82.9397 8.78902 82.9221 11.0963C82.9112 12.625 82.9199 14.1537 82.9199 15.6824C82.9221 15.8209 82.9221 15.9529 82.9221 16.1311Z" fill="#3D4148"/>
<path d="M156.832 21.1174C156.832 21.2845 156.832 21.4165 156.832 21.5485C156.832 23.0992 156.829 24.652 156.832 26.2027C156.834 28.0701 158.184 29.4338 160.05 29.4536C161.859 29.4734 163.324 28.0129 163.326 26.1873C163.328 24.8522 163.324 23.5149 163.326 22.1798C163.328 21.4495 163.655 21.1174 164.372 21.1174C164.823 21.1174 165.275 21.1218 165.727 21.1262C165.747 21.1262 165.766 21.1438 165.804 21.1614C165.804 24.5574 165.804 27.9623 165.804 31.365C164.668 31.6861 163.811 31.3496 163.333 30.3972C163.313 30.395 163.282 30.384 163.271 30.395C162.146 31.4508 160.778 31.7499 159.296 31.6531C156.7 31.4838 154.551 29.3854 154.387 26.768C154.288 25.1887 154.33 23.6007 154.334 22.017C154.336 21.4561 154.716 21.124 155.268 21.1174C155.775 21.1108 156.281 21.1174 156.832 21.1174Z" fill="#3D4148"/>
<path d="M117.707 21.1416C119.303 20.9942 119.777 21.1878 120.198 22.1446C120.244 22.1204 120.295 22.1028 120.332 22.072C121.941 20.7369 123.763 20.5191 125.668 21.2054C127.55 21.8828 128.677 23.2884 129.095 25.2525C129.148 25.5055 129.177 25.7672 129.179 26.0268C129.188 27.7578 129.188 29.491 129.19 31.2221C129.19 31.277 129.172 31.3298 129.157 31.4156C128.556 31.4156 127.96 31.4442 127.368 31.4068C126.953 31.3804 126.723 31.0527 126.721 30.5952C126.717 29.2249 126.719 27.8568 126.719 26.4865C126.719 25.5341 126.464 24.6806 125.772 23.9922C124.879 23.108 123.428 22.8308 122.222 23.3235C121.036 23.8074 120.227 24.9754 120.218 26.2533C120.207 27.8612 120.209 29.469 120.222 31.0747C120.224 31.365 120.134 31.4442 119.858 31.431C119.442 31.409 119.023 31.4288 118.606 31.4244C118.021 31.42 117.738 31.1429 117.714 30.5578C117.712 30.4786 117.712 30.3994 117.712 30.3203C117.712 27.4103 117.712 24.5025 117.712 21.5925C117.707 21.4451 117.707 21.3022 117.707 21.1416Z" fill="#3D4148"/>
<path d="M151.898 23.8097C151.276 23.8097 150.677 23.8404 150.083 23.7921C149.868 23.7745 149.576 23.6183 149.48 23.4379C148.912 22.3756 147.075 22.347 146.281 22.8397C145.91 23.0706 145.621 23.3763 145.636 23.8448C145.65 24.2979 145.943 24.5773 146.318 24.7862C146.987 25.158 147.737 25.0964 148.456 25.202C149.055 25.2899 149.662 25.3889 150.232 25.5825C151.484 26.0114 152.275 26.8714 152.315 28.2505C152.352 29.5944 151.618 30.4786 150.462 31.0395C149.337 31.5872 148.129 31.6994 146.899 31.6048C145.744 31.5146 144.663 31.1935 143.731 30.4698C143.165 30.0299 142.738 29.4844 142.573 28.7674C142.538 28.6178 142.534 28.4639 142.512 28.2901C143.15 28.2901 143.749 28.2571 144.338 28.3055C144.569 28.3253 144.845 28.4749 144.998 28.6552C145.468 29.2029 146.046 29.5262 146.746 29.5746C147.347 29.6164 147.958 29.5988 148.557 29.535C148.818 29.5086 149.092 29.3459 149.305 29.1743C149.916 28.6816 149.844 27.8854 149.171 27.4785C148.581 27.1222 147.912 27.076 147.25 27.0188C146.345 26.9418 145.465 26.7614 144.656 26.3303C143.602 25.7672 143.005 24.916 143.064 23.6777C143.102 22.9232 143.437 22.3118 143.99 21.8191C144.7 21.1834 145.571 20.9173 146.494 20.8227C147.739 20.6929 148.973 20.7039 150.125 21.3066C151.083 21.8103 151.762 22.7605 151.898 23.8097Z" fill="#3D4148"/>
<path d="M131.177 28.312C131.834 28.312 132.475 28.2878 133.11 28.3274C133.297 28.3384 133.52 28.4858 133.645 28.6398C134.119 29.2204 134.731 29.5086 135.452 29.5922C136.171 29.6758 136.89 29.7263 137.581 29.4228C138.212 29.1457 138.508 28.5936 138.318 28.0481C138.197 27.7028 137.938 27.4608 137.607 27.3706C137.046 27.2189 136.472 27.0957 135.895 27.0275C134.913 26.9087 133.957 26.7284 133.097 26.2093C131.295 25.1227 131.234 22.7516 132.97 21.5639C133.63 21.113 134.373 20.9062 135.154 20.8204C136.191 20.7083 137.228 20.706 138.228 21.0624C139.377 21.4715 140.146 22.2567 140.495 23.4379C140.515 23.5017 140.532 23.5676 140.543 23.6336C140.55 23.6776 140.539 23.7216 140.534 23.792C139.901 23.792 139.269 23.8228 138.647 23.7744C138.449 23.759 138.197 23.5698 138.094 23.3873C137.493 22.3205 135.533 22.3469 134.768 22.943C134.11 23.4577 134.139 24.2627 134.853 24.7136C135.334 25.0171 135.875 25.1117 136.434 25.1381C137.371 25.1843 138.298 25.2943 139.168 25.6792C140.572 26.3017 141.245 27.6016 140.879 29.0489C140.631 30.0321 139.956 30.6919 139.057 31.0615C137.013 31.8995 134.963 31.8753 132.983 30.8547C132.034 30.3664 131.348 29.6186 131.177 28.5012C131.168 28.4418 131.177 28.3758 131.177 28.312Z" fill="#3D4148"/>
<path d="M111.226 16.131C110.583 16.131 109.998 16.1486 109.415 16.1244C109.011 16.109 108.742 15.7945 108.718 15.3854C108.713 15.3062 108.715 15.227 108.715 15.1479C108.715 10.2363 108.715 5.32254 108.715 0.410978C108.715 0.287804 108.715 0.166834 108.715 0.0238647C109.553 0.0238647 110.36 0.0238647 111.204 0.0238647C111.204 1.94846 111.204 3.86645 111.204 5.81304C112.57 5.81304 113.896 5.81304 115.23 5.81304C114.866 7.28453 114.23 8.36229 112.502 8.3315C112.085 8.3249 111.671 8.3315 111.224 8.3315C111.226 10.9291 111.226 13.5048 111.226 16.131Z" fill="#3D4148"/>
<path d="M149.747 16.1354C149.412 16.1354 149.061 16.1948 148.743 16.12C148.408 16.0387 148.05 15.8869 147.798 15.6603C147.355 15.2622 146.987 14.7827 146.568 14.3164C146.261 14.6551 146.068 14.9015 145.842 15.1148C144.845 16.0606 143.604 16.3576 142.286 16.3268C140.677 16.2872 139.361 15.6075 138.466 14.2438C137.208 12.328 137.826 9.78318 139.821 8.54045C139.935 8.47006 140.049 8.39967 140.196 8.30949C139.385 7.57925 139.004 6.69064 139.14 5.61067C139.227 4.92001 139.543 4.34153 140.049 3.87743C141.258 2.77547 143.077 2.79306 144.27 3.92143C144.007 4.16117 143.744 4.39873 143.457 4.65827C143.08 4.35034 142.608 4.13698 142.051 4.17217C141.255 4.22276 140.677 4.60988 140.374 5.34232C140.076 6.07257 140.229 6.76322 140.784 7.31091C142.496 9.00235 144.228 10.6718 145.954 12.35C145.978 12.372 146.009 12.3874 146.108 12.4534C146.197 11.9761 146.303 11.5362 146.357 11.0875C146.412 10.641 146.421 10.1901 146.452 9.6798C146.752 9.6798 147.042 9.6864 147.333 9.6776C147.528 9.6732 147.55 9.78538 147.548 9.93935C147.526 10.9951 147.434 12.0399 147.085 13.0429C147 13.287 147.055 13.419 147.221 13.595C148.033 14.4594 148.829 15.3392 149.629 16.2146C149.67 16.1904 149.708 16.164 149.747 16.1354ZM145.597 13.5466C144.128 12.1191 142.687 10.7158 141.238 9.32348C141.163 9.25089 140.981 9.2113 140.889 9.25089C139.205 9.95034 138.444 11.9035 139.304 13.4652C140.019 14.7651 141.551 15.4514 143.088 15.1874C144.154 15.0027 145.005 14.51 145.597 13.5466Z" fill="#3D4148"/>
<path d="M132.917 16.1266C132.349 16.1266 131.832 16.1574 131.319 16.1178C130.821 16.0805 130.473 15.6581 130.446 15.1523C130.442 15.0621 130.444 14.9719 130.444 14.8817C130.444 10.0823 130.444 5.28515 130.444 0.485767C130.444 0.340598 130.444 0.195426 130.444 0.00186741C131.095 0.00186741 131.711 -0.0025295 132.328 0.0040691C132.994 0.0106677 132.915 -0.110311 132.915 0.597939C132.917 5.61068 132.917 10.6256 132.917 15.6383C132.917 15.7901 132.917 15.9441 132.917 16.1266Z" fill="#3D4148"/>
<path d="M171.368 31.42C170.741 31.42 170.166 31.4376 169.594 31.4134C169.14 31.3936 168.875 31.0593 168.875 30.5556C168.873 28.4968 168.875 26.4358 168.873 24.3771C168.873 23.4269 168.873 22.4767 168.873 21.5243C168.873 21.4033 168.873 21.2801 168.873 21.1658C170.193 20.8908 170.743 21.0756 171.331 21.9906C172.668 20.9766 174.205 21.0382 175.753 21.201C175.841 21.2098 175.986 21.3307 175.988 21.4033C176.005 22.0566 175.999 22.7098 175.999 23.4137C175.356 23.4137 174.747 23.3675 174.148 23.4247C173.146 23.5193 172.252 23.8602 171.745 24.8236C171.46 25.3647 171.368 25.9563 171.368 26.5612C171.366 28.0437 171.368 29.5262 171.368 31.0087C171.368 31.1341 171.368 31.255 171.368 31.42Z" fill="#3D4148"/>
<path d="M127.659 38.7444C128.841 38.7444 129.997 38.6454 131.13 38.7686C132.713 38.9402 133.733 40.2093 133.731 41.782C133.731 43.3569 132.707 44.5512 131.132 44.8173C130.968 44.8459 130.801 44.8855 130.635 44.8877C129.655 44.8943 128.675 44.8899 127.659 44.8899C127.659 42.8224 127.659 40.768 127.659 38.7444ZM128.786 43.8979C129.449 43.8979 130.065 43.9375 130.676 43.8891C131.727 43.8078 132.444 43.0599 132.551 42.0085C132.658 40.9638 132.13 40.018 131.159 39.7936C130.4 39.6199 129.595 39.6506 128.789 39.5891C128.786 41.0891 128.786 42.4726 128.786 43.8979Z" fill="#3D4148"/>
<path d="M88.8354 38.6257C90.0589 38.6719 91.2692 38.6213 92.4532 38.784C93.9748 38.993 94.8957 40.2313 94.8913 41.8018C94.8869 43.3437 93.9595 44.5732 92.4554 44.7778C91.2714 44.9383 90.0611 44.8899 88.8354 44.9361C88.8354 42.8026 88.8354 40.757 88.8354 38.6257ZM89.9887 43.8958C90.6399 43.8958 91.2692 43.9397 91.8919 43.887C92.9377 43.7968 93.6196 43.0621 93.7402 41.9778C93.8499 40.9946 93.3171 40.1169 92.3896 39.8002C91.6025 39.5297 90.7956 39.6705 89.9887 39.6617C89.9887 41.098 89.9887 42.4837 89.9887 43.8958Z" fill="#3D4148"/>
<path d="M138.617 44.9867C137.363 44.9472 136.247 44.4237 135.673 43.1083C135.127 41.859 135.296 40.6559 136.217 39.6199C137.398 38.287 139.725 38.2166 141.084 39.4483C142.351 40.5943 142.43 42.6728 141.238 43.9596C140.571 44.6788 139.714 44.9691 138.617 44.9867ZM140.924 41.782C140.924 40.5261 139.97 39.5781 138.714 39.5825C137.49 39.5869 136.537 40.5481 136.534 41.7798C136.532 43.0094 137.484 43.9706 138.712 43.9794C139.966 43.986 140.924 43.0358 140.924 41.782Z" fill="#3D4148"/>
<path d="M110.211 41.7666C110.213 43.6428 108.843 44.9757 106.909 44.9779C104.942 44.9801 103.55 43.6516 103.552 41.7732C103.552 39.919 104.946 38.5839 106.883 38.5839C108.832 38.5839 110.211 39.9014 110.211 41.7666ZM104.707 41.7556C104.703 43.0401 105.626 43.9794 106.893 43.9772C108.132 43.975 109.071 43.0313 109.073 41.782C109.075 40.5349 108.139 39.5869 106.9 39.5803C105.65 39.5781 104.712 40.5085 104.707 41.7556Z" fill="#3D4148"/>
<path d="M117.723 39.5737C117.479 39.809 117.251 40.029 117.008 40.2621C116.309 39.6397 115.491 39.4197 114.57 39.6924C113.454 40.0246 112.853 41.1309 113.127 42.3275C113.377 43.4251 114.511 44.1487 115.673 43.9529C115.686 43.9507 115.699 43.9463 115.714 43.9441C116.592 43.7858 116.592 43.7836 116.592 42.9082C116.592 42.5298 116.592 42.1515 116.592 41.738C116.942 41.738 117.271 41.738 117.668 41.738C117.668 42.5122 117.67 43.3063 117.661 44.1003C117.661 44.1663 117.591 44.2543 117.532 44.2961C116.188 45.2485 113.662 45.3804 112.456 43.5966C111.755 42.5584 111.7 41.4301 112.246 40.3171C112.796 39.1953 113.781 38.6741 114.991 38.5883C115.958 38.5201 116.859 38.729 117.596 39.4175C117.642 39.4659 117.681 39.5231 117.723 39.5737Z" fill="#3D4148"/>
<path d="M125.897 44.8922C125.561 44.8922 125.243 44.9076 124.928 44.8834C124.831 44.8768 124.715 44.7822 124.654 44.6964C124.575 44.5864 124.518 44.4478 124.487 44.3115C124.325 43.6164 123.93 43.3503 123.202 43.4427C122.582 43.5196 121.941 43.4691 121.312 43.4537C121.075 43.4471 120.944 43.524 120.88 43.7462C120.85 43.854 120.797 43.9552 120.753 44.0585C120.352 45.0021 120.352 45.0021 119.231 44.8548C119.451 44.3599 119.666 43.876 119.883 43.3943C120.529 41.947 121.185 40.5041 121.821 39.0524C121.941 38.7753 122.08 38.6103 122.404 38.6675C122.553 38.6939 122.72 38.6411 122.865 38.6807C123 38.7181 123.182 38.7994 123.233 38.9116C124.121 40.8494 124.989 42.796 125.862 44.7404C125.875 44.7712 125.879 44.813 125.897 44.8922ZM122.558 39.8222C122.143 40.7966 121.781 41.6478 121.406 42.5277C122.205 42.5277 122.926 42.5277 123.715 42.5277C123.336 41.6368 122.974 40.7944 122.558 39.8222Z" fill="#3D4148"/>
<path d="M87.1119 44.8702C85.9498 44.9449 85.9345 44.9515 85.5179 43.931C85.3688 43.5658 85.1802 43.4251 84.779 43.4449C84.0379 43.48 83.2924 43.4669 82.5491 43.4493C82.2904 43.4427 82.1172 43.4977 82.0558 43.7704C82.0405 43.8386 82.001 43.9002 81.9747 43.964C81.5537 44.9493 81.5537 44.9493 80.4158 44.868C80.5122 44.6414 80.5978 44.4258 80.6942 44.2125C81.4112 42.6134 82.1304 41.0144 82.8473 39.4153C83.2135 38.5971 83.2113 38.5927 84.1146 38.6741C84.2155 38.6829 84.358 38.7621 84.3953 38.8478C85.3008 40.8384 86.1954 42.8312 87.1119 44.8702ZM83.7419 39.8266C83.3341 40.7856 82.9701 41.6368 82.5908 42.5233C83.3801 42.5233 84.1103 42.5233 84.904 42.5233C84.5181 41.628 84.1519 40.7768 83.7419 39.8266Z" fill="#3D4148"/>
<path d="M148 40.0158C147.294 39.6419 146.599 39.4483 145.854 39.5781C145.641 39.6155 145.413 39.6925 145.242 39.82C144.795 40.1566 144.828 40.6998 145.334 40.9418C145.746 41.1375 146.207 41.2277 146.645 41.3663C147.005 41.4807 147.38 41.5621 147.717 41.7226C148.827 42.2505 148.967 43.7308 147.969 44.4566C147.055 45.1209 146.018 45.0813 144.985 44.8372C144.534 44.7294 144.113 44.505 143.641 44.3203C143.801 43.9508 143.924 43.6736 144.003 43.4888C144.687 43.6736 145.316 43.8936 145.963 44.0013C146.301 44.0585 146.702 43.9859 147.02 43.8452C147.228 43.7528 147.445 43.4427 147.459 43.2183C147.47 43.0226 147.242 42.7322 147.042 42.6244C146.718 42.4463 146.334 42.3803 145.974 42.2703C145.599 42.1559 145.213 42.0724 144.852 41.9272C144.251 41.6874 143.843 41.2651 143.806 40.5811C143.769 39.8926 144.021 39.3229 144.632 38.9908C145.794 38.3595 146.976 38.4717 148.141 39.0084C148.224 39.0458 148.292 39.2547 148.268 39.3647C148.219 39.5759 148.103 39.7738 148 40.0158Z" fill="#3D4148"/>
<path d="M102.502 38.6675C101.581 40.7878 100.695 42.829 99.8094 44.8658C98.6934 44.9691 98.6934 44.9713 98.2614 43.9793C97.5006 42.2329 96.7398 40.4843 95.9636 38.6983C96.3956 38.6983 96.7924 38.6983 97.209 38.6983C97.8777 40.2467 98.553 41.8106 99.2656 43.4669C99.8839 42.0416 100.487 40.7306 101.015 39.3911C101.239 38.8258 101.522 38.5355 102.14 38.6653C102.232 38.6851 102.333 38.6675 102.502 38.6675Z" fill="#3D4148"/>
</svg>
