<?xml version="1.0" encoding="UTF-8"?>
<svg width="182px" height="78px" viewBox="0 0 182 78" version="1.1" xmlns="http://www.w3.org/2000/svg" xmlns:xlink="http://www.w3.org/1999/xlink">
    <!-- Generator: Sketch 45.1 (43504) - http://www.bohemiancoding.com/sketch -->
    <title>Page 1</title>
    <desc>Created with Sketch.</desc>
    <defs>
        <polygon id="path-1" points="0.318517274 0.292858896 33.1581815 0.292858896 33.1581815 56.0162993 0.318517274 56.0162993 0.318517274 0.292858896"></polygon>
        <polygon id="path-3" points="0 77.7071411 181.582957 77.7071411 181.582957 0.478527607 0 0.478527607"></polygon>
    </defs>
    <g id="Page-2" stroke="none" stroke-width="1" fill="none" fill-rule="evenodd">
        <g id="Desktop-Copy-15" transform="translate(-511.000000, -46.000000)">
            <g id="home1">
                <g id="Page-1" transform="translate(511.000000, 46.000000)">
                    <g id="Group-3" transform="translate(73.967914, 0.185669)">
                        <mask id="mask-2" fill="white">
                            <use xlink:href="#path-1"></use>
                        </mask>
                        <g id="Clip-2"></g>
                        <path d="M30.9210214,45.4974957 C30.9151818,42.7134221 29.9579786,40.5586123 27.8722781,38.8344773 C24.8736578,36.3557043 21.903262,33.8434344 18.9026952,31.3651399 C15.0695027,28.1996798 11.2226845,25.0485755 7.37245989,21.9022564 C6.45224064,21.1495325 5.48287166,20.4547104 4.5577861,19.7072503 C-0.307064171,15.7799742 -0.791748663,9.13370429 2.11830481,4.9322319 C5.19527273,0.490060123 11.4484813,-0.941215951 15.7556524,1.42031779 C19.1333583,3.2717411 22.0020481,6.02375337 25.0824225,8.39294356 C25.3281711,8.58196196 25.5719733,8.88534847 25.6293957,9.17150798 C25.7053102,9.5514589 25.7418075,10.0926736 25.5276898,10.332416 C25.3160053,10.5678515 24.6283957,10.7133239 24.3943262,10.5520601 C22.9680107,9.57777791 21.5713797,8.55277178 20.2423904,7.45455092 C17.8199412,5.45430552 15.5026043,3.2387227 12.2022727,2.78842822 C6.88339572,2.06154479 2.78206952,6.41997423 2.88474866,10.0634834 C2.9811016,13.5012258 3.88866845,16.1355202 6.81283422,18.3759865 C11.9613904,22.3204896 16.7751444,26.6856184 21.7465668,30.8540724 C24.3967594,33.0758761 27.0498717,35.2962442 29.7618663,37.4424405 C34.1108877,40.8820969 34.0539519,48.4940356 30.8932834,52.0533239 C26.8026631,56.6586736 20.2925134,57.3539742 15.3483422,53.5927472 C13.2816203,52.020784 11.2504225,50.4043178 9.23285027,48.7720601 C8.736,48.3696184 8.27613369,47.8719497 7.95398396,47.3297779 C7.77198396,47.0235202 7.74521925,46.4244037 7.93792513,46.1645632 C8.12917112,45.9071153 8.77931016,45.7094834 9.06058289,45.8386859 C9.93700535,46.2406491 10.801262,46.7282687 11.5497005,47.3288209 C13.3210374,48.7490908 15.0047807,50.2746368 16.7566524,51.7197902 C20.3908128,54.7182442 26.9651979,53.9061828 29.4767005,49.983692 C30.2995936,48.6993239 30.4587219,47.0043791 30.9210214,45.4974957" id="Fill-1" fill="#FEFEFE" mask="url(#mask-2)"></path>
                    </g>
                    <path d="M116.298146,25.4529791 C116.298146,28.8859362 116.322478,32.3188933 116.267975,35.7513718 C116.261162,36.1920957 115.844119,36.6265988 115.617836,37.063973 C115.221232,36.6505252 114.602724,36.2925865 114.478146,35.8111877 C114.267921,34.9996049 114.348702,34.1100221 114.346269,33.2534577 C114.335076,28.4255926 114.357461,23.5977276 114.318531,18.7703411 C114.304905,17.1371264 113.992002,16.9466724 112.73698,17.8922429 C110.580718,19.5163656 108.518376,21.2620344 106.433649,22.9770773 C105.765504,23.5269055 105.214638,24.2298626 104.502697,24.7093472 C101.644713,26.6349423 101.927445,26.7043288 99.6071888,24.6811141 C94.8897877,20.5676908 89.9543759,16.6959239 85.1566807,12.6691141 C84.7853813,12.3575926 84.7921941,11.609654 84.6233332,11.064611 C85.2106968,10.9837399 86.008285,10.621016 86.3513599,10.8679362 C88.4516594,12.3829546 90.4658251,14.0161693 92.4760979,15.648427 C95.2435684,17.8955926 98.0144455,20.1413227 100.719141,22.459789 C101.990707,23.5489178 102.96105,22.8550528 103.893435,22.1152491 C105.670611,20.7045497 107.375766,19.2062798 109.112066,17.7467706 C110.683884,16.4265129 112.228451,15.0732368 113.849419,13.8147092 C114.307339,13.4591632 115.11028,13.0973963 115.538028,13.2672736 C115.941932,13.4275804 116.262622,14.2793595 116.272355,14.8325374 C116.337076,18.3717276 116.305445,21.9128319 116.305445,25.4529791 L116.298146,25.4529791" id="Fill-4" fill="#FEFEFE"></path>
                    <path d="M65.1501118,31.4098344 C65.1501118,28.0864601 65.1038818,24.7621288 65.1676305,21.4397117 C65.2055877,19.4825337 65.9214219,19.1504356 67.5496893,20.3003374 C68.872839,21.2349018 70.1317535,22.2623006 71.3736358,23.3007055 C76.0924968,27.2485583 80.7661011,31.248092 85.5097802,35.1667546 C88.4212936,37.5718344 91.4491118,39.8405337 94.3825235,42.2212086 C95.2969032,42.9634049 96.1159032,43.8352822 96.8760209,44.7320429 C97.041962,44.9282393 96.8959727,45.6063129 96.6628765,45.8393558 C96.4292936,46.0743129 95.7913203,46.2250491 95.5338925,46.0752699 C94.6024807,45.5345337 93.7182722,44.8966564 92.8856465,44.2142761 C88.4592508,40.5865583 84.0547535,36.9334785 79.6419834,33.2894908 C76.0637856,30.3350613 72.4933738,27.3710613 68.8927909,24.4429509 C68.5059193,24.1285583 67.940454,24.0271104 67.457716,23.8266074 C67.3453043,24.3357607 67.1375128,24.8449141 67.1350797,25.354546 C67.1097749,30.5006319 67.1462722,35.6467178 67.093716,40.7923252 C67.0839834,41.7718712 67.6012722,43.4763865 66.2591439,43.5117975 C64.5452294,43.5567791 65.2070476,41.7527301 65.1754166,40.7358589 C65.0780904,37.6297362 65.1398925,34.5188282 65.1398925,31.4098344 L65.1501118,31.4098344 Z" id="Fill-6" fill="#FEFEFE"></path>
                    <path d="M3.79134225,77.0561521 C4.04877005,77.0561521 4.30279144,77.0226552 4.55291979,76.9537472 C4.80304813,76.8862748 5.02641176,76.7838699 5.22203743,76.6474896 C5.41814973,76.5101521 5.57533155,76.3441031 5.69406952,76.1469497 C5.81280749,75.9493178 5.8726631,75.7210601 5.8726631,75.4626552 C5.8726631,75.1516123 5.79090909,74.8740663 5.62691444,74.6338454 C5.46389305,74.392189 5.24928877,74.1687166 4.98407487,73.9639067 C4.71886096,73.7590969 4.41568984,73.5681644 4.07358824,73.3901521 C3.73148663,73.2130969 3.38354545,73.0336491 3.02927807,72.8527656 C2.67452406,72.6728393 2.32658289,72.4833423 1.98448128,72.286189 C1.64286631,72.0890356 1.33920856,71.8693914 1.07399465,71.6282135 C0.808780749,71.3870356 0.594663102,71.1166675 0.43115508,70.8171092 C0.267647059,70.5170724 0.185893048,70.1725325 0.185893048,69.7825325 C0.185893048,69.3925325 0.259860963,69.0307656 0.408770053,68.6967534 C0.557192513,68.3632196 0.77568984,68.074189 1.06328877,67.8315755 C1.34991444,67.5870479 1.70320856,67.3961153 2.12219786,67.2568638 C2.54118717,67.1176123 3.02295187,67.0487043 3.56797861,67.0487043 C4.54951337,67.0487043 5.32325668,67.2516 5.89115508,67.6549988 C6.45856684,68.0598331 6.86879679,68.6445939 7.12184492,69.4097595 L6.22936364,69.8117227 C6.1252246,69.5002012 5.99237433,69.2149988 5.8317861,68.9565939 C5.67071123,68.698189 5.47751872,68.4766307 5.25172193,68.291919 C5.02641176,68.1062503 4.76752406,67.9636491 4.47505882,67.8636368 C4.18259358,67.7636245 3.85314439,67.7143362 3.4862246,67.7143362 C3.15920856,67.7143362 2.87306952,67.7588393 2.62732086,67.8497595 C2.38205882,67.9392442 2.17913369,68.0560049 2.01805882,68.2000417 C1.85698396,68.3436 1.7353262,68.507735 1.65357219,68.6905325 C1.57181818,68.872373 1.53094118,69.0589988 1.53094118,69.2494528 C1.53094118,69.5169497 1.61512834,69.7619558 1.7839893,69.9844712 C1.95236364,70.2060294 2.17280749,70.4161031 2.44532086,70.6161276 C2.71832086,70.8156736 3.03073797,71.0070847 3.38208556,71.1898822 C3.73440642,71.3726798 4.09208021,71.559784 4.45656684,71.7488025 C4.82056684,71.939735 5.17872727,72.1368883 5.5305615,72.3407411 C5.88239572,72.5455509 6.1943262,72.7699804 6.4673262,73.014508 C6.73983957,73.2580785 6.96077005,73.5241399 7.12865775,73.8150847 C7.29751872,74.1041153 7.38170588,74.4271215 7.38170588,74.7826675 C7.38170588,75.1879804 7.30384492,75.5669742 7.14714973,75.9196491 C6.99142781,76.2728025 6.75735829,76.5828883 6.44494118,76.8475141 C6.1330107,77.1135755 5.74516578,77.3236491 5.28189305,77.4767779 C4.81813369,77.6299067 4.27943316,77.7064712 3.66481818,77.7064712 C3.16942781,77.7064712 2.72562032,77.6533546 2.33436898,77.5456859 C1.94263102,77.4389742 1.59663636,77.2834528 1.29687166,77.0781644 C0.997106952,76.8733546 0.740652406,76.6230847 0.527508021,76.325919 C0.314363636,76.0287534 0.138203209,75.6913914 0,75.3162258 L0.936764706,74.9362748 C1.04528342,75.268373 1.19175936,75.5655387 1.37521925,75.8287288 C1.55819251,76.090962 1.77279679,76.3139558 2.01805882,76.4972319 C2.26332086,76.6800294 2.53583422,76.8188025 2.83559893,76.9135509 C3.13536364,77.0087779 3.45410695,77.0561521 3.79134225,77.0561521" id="Fill-8" fill="#FEFEFE"></path>
                    <path d="M14.6074952,77.194973 C15.197292,77.194973 15.7199337,77.073427 16.1763936,76.8293779 C16.6318802,76.5867644 17.0148588,76.2479669 17.3243561,75.8134638 C17.6343401,75.3799178 17.8693829,74.8645436 18.0304578,74.2673411 C18.1915326,73.6706172 18.2723134,73.018384 18.2723134,72.3120773 C18.2723134,71.6153411 18.1915326,70.9755497 18.0304578,70.3931816 C17.8693829,69.810335 17.6343401,69.3093166 17.3243561,68.8877337 C17.0148588,68.4656724 16.6318802,68.137881 16.1763936,67.903881 C15.7199337,67.670838 15.197292,67.5535988 14.6074952,67.5535988 C14.0026128,67.5535988 13.4712118,67.670838 13.0128053,67.903881 C12.5543989,68.137881 12.1714203,68.4656724 11.8643561,68.8877337 C11.5568053,69.3093166 11.325169,69.810335 11.1694471,70.3931816 C11.0127519,70.9755497 10.9348909,71.6153411 10.9348909,72.3120773 C10.9348909,73.018384 11.0127519,73.6706172 11.1694471,74.2673411 C11.325169,74.8645436 11.5568053,75.3799178 11.8643561,75.8134638 C12.1714203,76.2479669 12.5543989,76.5867644 13.0128053,76.8293779 C13.4712118,77.073427 14.0026128,77.194973 14.6074952,77.194973 M14.6074952,77.706519 C14.0722011,77.706519 13.559292,77.6428748 13.0687679,77.5131939 C12.5777572,77.3844699 12.1222706,77.203108 11.7003615,76.9686294 C11.2794257,76.7346294 10.8954738,76.4532552 10.5485059,76.1249853 C10.201538,75.7952798 9.90663957,75.4306417 9.6638107,75.0315497 C9.42098182,74.6324577 9.23265561,74.2027399 9.09883209,73.744789 C8.96500856,73.286838 8.89834011,72.8092675 8.89834011,72.3120773 C8.89834011,71.8244577 8.96500856,71.3569362 9.09883209,70.9080773 C9.23265561,70.4601755 9.42098182,70.0409853 9.6638107,69.6509853 C9.90663957,69.2614638 10.201538,68.9073534 10.5485059,68.5881755 C10.8954738,68.2689975 11.2794257,67.9938442 11.7003615,67.765108 C12.1222706,67.5358933 12.5777572,67.3593166 13.0687679,67.2358564 C13.559292,67.1109607 14.0722011,67.0487521 14.6074952,67.0487521 C15.1427893,67.0487521 15.6556984,67.1109607 16.1462225,67.2358564 C16.6367465,67.3593166 17.0927198,67.5358933 17.5141422,67.765108 C17.9355647,67.9938442 18.3195166,68.2689975 18.6664845,68.5881755 C19.0134524,68.9073534 19.3078642,69.2614638 19.5511797,69.6509853 C19.7935219,70.0409853 19.9823348,70.4601755 20.1156717,70.9080773 C20.2499818,71.3569362 20.3166503,71.8244577 20.3166503,72.3120773 C20.3166503,72.8040037 20.2499818,73.2806172 20.1156717,73.7409607 C19.9823348,74.2017828 19.7935219,74.6324577 19.5511797,75.0315497 C19.3078642,75.4306417 19.0134524,75.7952798 18.6664845,76.1249853 C18.3195166,76.4532552 17.9355647,76.7346294 17.5141422,76.9686294 C17.0927198,77.203108 16.6367465,77.3844699 16.1462225,77.5131939 C15.6556984,77.6428748 15.1427893,77.706519 14.6074952,77.706519" id="Fill-10" fill="#FEFEFE"></path>
                    <polygon id="Fill-12" fill="#FEFEFE" points="30.2338497 67.2823215 30.2338497 67.9402969 26.4872775 67.9402969 26.4872775 77.465389 24.7475717 77.465389 24.7475717 67.9402969 20.9937 67.9402969 20.9937 67.2823215"></polygon>
                    <polygon id="Fill-14" fill="#FEFEFE" points="40.0691005 67.2823215 40.0691005 67.9402969 36.3225283 67.9402969 36.3225283 77.465389 34.5828225 77.465389 34.5828225 67.9402969 30.8289508 67.9402969 30.8289508 67.2823215"></polygon>
                    <path d="M46.4547214,77.194973 C47.0445182,77.194973 47.5671599,77.073427 48.0236198,76.8293779 C48.4791064,76.5867644 48.862085,76.2479669 49.1715824,75.8134638 C49.4815663,75.3799178 49.7166091,74.8645436 49.877684,74.2673411 C50.0387588,73.6706172 50.1195396,73.018384 50.1195396,72.3120773 C50.1195396,71.6153411 50.0387588,70.9755497 49.877684,70.3931816 C49.7166091,69.810335 49.4815663,69.3093166 49.1715824,68.8877337 C48.862085,68.4656724 48.4791064,68.137881 48.0236198,67.903881 C47.5671599,67.670838 47.0445182,67.5535988 46.4547214,67.5535988 C45.849839,67.5535988 45.318438,67.670838 44.8600316,67.903881 C44.4016251,68.137881 44.0186465,68.4656724 43.7115824,68.8877337 C43.4040316,69.3093166 43.1723952,69.810335 43.0166733,70.3931816 C42.8599781,70.9755497 42.7821171,71.6153411 42.7821171,72.3120773 C42.7821171,73.018384 42.8599781,73.6706172 43.0166733,74.2673411 C43.1723952,74.8645436 43.4040316,75.3799178 43.7115824,75.8134638 C44.0186465,76.2479669 44.4016251,76.5867644 44.8600316,76.8293779 C45.318438,77.073427 45.849839,77.194973 46.4547214,77.194973 M46.4547214,77.706519 C45.9194273,77.706519 45.4065182,77.6428748 44.9159941,77.5131939 C44.4249834,77.3844699 43.9694968,77.203108 43.5475877,76.9686294 C43.1266519,76.7346294 42.7427,76.4532552 42.3957321,76.1249853 C42.0487642,75.7952798 41.7538658,75.4306417 41.5110369,75.0315497 C41.268208,74.6324577 41.0798818,74.2027399 40.9460583,73.744789 C40.8122348,73.286838 40.7455663,72.8092675 40.7455663,72.3120773 C40.7455663,71.8244577 40.8122348,71.3569362 40.9460583,70.9080773 C41.0798818,70.4601755 41.268208,70.0409853 41.5110369,69.6509853 C41.7538658,69.2614638 42.0487642,68.9073534 42.3957321,68.5881755 C42.7427,68.2689975 43.1266519,67.9938442 43.5475877,67.765108 C43.9694968,67.5358933 44.4249834,67.3593166 44.9159941,67.2358564 C45.4065182,67.1109607 45.9194273,67.0487521 46.4547214,67.0487521 C46.9900155,67.0487521 47.5029246,67.1109607 47.9934487,67.2358564 C48.4839727,67.3593166 48.939946,67.5358933 49.3613684,67.765108 C49.7827909,67.9938442 50.1667428,68.2689975 50.5137107,68.5881755 C50.8606786,68.9073534 51.1550904,69.2614638 51.3984059,69.6509853 C51.6407481,70.0409853 51.829561,70.4601755 51.9628979,70.9080773 C52.097208,71.3569362 52.1638765,71.8244577 52.1638765,72.3120773 C52.1638765,72.8040037 52.097208,73.2806172 51.9628979,73.7409607 C51.829561,74.2017828 51.6407481,74.6324577 51.3984059,75.0315497 C51.1550904,75.4306417 50.8606786,75.7952798 50.5137107,76.1249853 C50.1667428,76.4532552 49.7827909,76.7346294 49.3613684,76.9686294 C48.939946,77.203108 48.4839727,77.3844699 47.9934487,77.5131939 C47.5029246,77.6428748 46.9900155,77.706519 46.4547214,77.706519" id="Fill-16" fill="#FEFEFE"></path>
                    <polygon id="Fill-18" fill="#FEFEFE" points="58.7806471 67.2823215 60.5568503 67.2823215 64.5866417 75.0971558 64.6683957 75.0971558 68.623246 67.2823215 70.3697647 67.2823215 70.3697647 77.465389 68.623246 77.465389 68.623246 69.1251313 68.563877 69.1251313 64.3189947 77.465389 63.9618075 77.465389 59.6648556 69.1839902 59.5461176 69.1839902 59.5461176 77.465389 58.7806471 77.465389"></polygon>
                    <path d="M74.5182455,73.4083362 L78.3319727,73.4083362 L76.4516305,69.3805693 L74.5182455,73.4083362 Z M77.127561,67.0487043 L82.004577,77.4657718 L80.2351866,77.4657718 L78.6516893,74.0663117 L74.2136144,74.0663117 L72.5780476,77.4657718 L71.708438,77.4657718 L76.6968925,67.0487043 L77.127561,67.0487043 Z" id="Fill-20" fill="#FEFEFE"></path>
                    <mask id="mask-4" fill="white">
                        <use xlink:href="#path-3"></use>
                    </mask>
                    <g id="Clip-23"></g>
                    <polygon id="Fill-22" fill="#FEFEFE" mask="url(#mask-4)" points="83.342861 77.4654847 85.0820802 77.4654847 85.0820802 67.2824172 83.342861 67.2824172"></polygon>
                    <path d="M92.9470107,77.194973 C93.5368075,77.194973 94.0594492,77.073427 94.5159091,76.8293779 C94.9713957,76.5867644 95.3543743,76.2479669 95.6638717,75.8134638 C95.9738556,75.3799178 96.2088984,74.8645436 96.3699733,74.2673411 C96.5310481,73.6706172 96.6118289,73.018384 96.6118289,72.3120773 C96.6118289,71.6153411 96.5310481,70.9755497 96.3699733,70.3931816 C96.2088984,69.810335 95.9738556,69.3093166 95.6638717,68.8877337 C95.3543743,68.4656724 94.9713957,68.137881 94.5159091,67.903881 C94.0594492,67.670838 93.5368075,67.5535988 92.9470107,67.5535988 C92.3421283,67.5535988 91.8107273,67.670838 91.3523209,67.903881 C90.8939144,68.137881 90.5109358,68.4656724 90.2038717,68.8877337 C89.8963209,69.3093166 89.6646845,69.810335 89.5089626,70.3931816 C89.3522674,70.9755497 89.2744064,71.6153411 89.2744064,72.3120773 C89.2744064,73.018384 89.3522674,73.6706172 89.5089626,74.2673411 C89.6646845,74.8645436 89.8963209,75.3799178 90.2038717,75.8134638 C90.5109358,76.2479669 90.8939144,76.5867644 91.3523209,76.8293779 C91.8107273,77.073427 92.3421283,77.194973 92.9470107,77.194973 M92.9470107,77.706519 C92.4117166,77.706519 91.8988075,77.6428748 91.4082834,77.5131939 C90.9172727,77.3844699 90.4617861,77.203108 90.039877,76.9686294 C89.6189412,76.7346294 89.2349893,76.4532552 88.8880214,76.1249853 C88.5410535,75.7952798 88.2461551,75.4306417 88.0033262,75.0315497 C87.7604973,74.6324577 87.5721711,74.2027399 87.4383476,73.744789 C87.3045241,73.286838 87.2378556,72.8092675 87.2378556,72.3120773 C87.2378556,71.8244577 87.3045241,71.3569362 87.4383476,70.9080773 C87.5721711,70.4601755 87.7604973,70.0409853 88.0033262,69.6509853 C88.2461551,69.2614638 88.5410535,68.9073534 88.8880214,68.5881755 C89.2349893,68.2689975 89.6189412,67.9938442 90.039877,67.765108 C90.4617861,67.5358933 90.9172727,67.3593166 91.4082834,67.2358564 C91.8988075,67.1109607 92.4117166,67.0487521 92.9470107,67.0487521 C93.4823048,67.0487521 93.9952139,67.1109607 94.485738,67.2358564 C94.976262,67.3593166 95.4322353,67.5358933 95.8536578,67.765108 C96.2750802,67.9938442 96.6590321,68.2689975 97.006,68.5881755 C97.3529679,68.9073534 97.6473797,69.2614638 97.8906952,69.6509853 C98.1330374,70.0409853 98.3218503,70.4601755 98.4551872,70.9080773 C98.5894973,71.3569362 98.6561658,71.8244577 98.6561658,72.3120773 C98.6561658,72.8040037 98.5894973,73.2806172 98.4551872,73.7409607 C98.3218503,74.2017828 98.1330374,74.6324577 97.8906952,75.0315497 C97.6473797,75.4306417 97.3529679,75.7952798 97.006,76.1249853 C96.6590321,76.4532552 96.2750802,76.7346294 95.8536578,76.9686294 C95.4322353,77.203108 94.976262,77.3844699 94.485738,77.5131939 C93.9952139,77.6428748 93.4823048,77.706519 92.9470107,77.706519" id="Fill-24" fill="#FEFEFE" mask="url(#mask-4)"></path>
                    <path d="M102.551793,72.1657436 L103.555713,72.1657436 C103.946964,72.1657436 104.307071,72.1154982 104.637007,72.0130933 C104.966456,71.9102098 105.253082,71.7647374 105.495911,71.5776331 C105.73874,71.3895718 105.927552,71.1617926 106.064296,70.8942957 C106.200552,70.6258417 106.269167,70.3258049 106.269167,69.9946638 C106.269167,69.6927129 106.214178,69.4132528 106.105173,69.157719 C105.996167,68.9021853 105.845312,68.6830196 105.651633,68.4997436 C105.45844,68.316946 105.228264,68.1743448 104.96013,68.0719399 C104.692483,67.969535 104.400504,67.9183325 104.082734,67.9183325 L102.551793,67.9183325 L102.551793,72.1657436 Z M100.812574,67.2823693 L104.395638,67.2823693 C105.019986,67.2823693 105.565986,67.3488847 106.034611,67.4800012 C106.50275,67.6111178 106.893515,67.7953509 107.205445,68.0317436 C107.517863,68.2681362 107.752905,68.5480748 107.912034,68.8725166 C108.070189,69.1964798 108.14951,69.5510687 108.14951,69.9362834 C108.14951,70.2530687 108.088681,70.5487988 107.96751,70.8244307 C107.845852,71.099584 107.673584,71.3484184 107.450707,71.5699767 C107.22783,71.792492 106.960183,71.9843816 106.647766,72.1475595 C106.335349,72.311216 105.990814,72.4361117 105.614649,72.5241607 L109.383606,77.4654368 L107.368953,77.4654368 L103.770804,72.6772896 L102.551793,72.6772896 L102.551793,77.4654368 L100.812574,77.4654368 L100.812574,67.2823693 Z" id="Fill-25" fill="#FEFEFE" mask="url(#mask-4)"></path>
                    <path d="M118.936611,71.2811374 C119.204258,71.1447571 119.455359,71.0035914 119.690889,70.857162 C119.925932,70.7116896 120.129343,70.5523399 120.300637,70.3781558 C120.471445,70.2054074 120.606728,70.0149534 120.706001,69.8082294 C120.804787,69.601027 120.853937,69.3737264 120.853937,69.1244135 C120.853937,68.8770147 120.821819,68.6564135 120.757584,68.4630883 C120.692862,68.2707202 120.605268,68.1061067 120.49383,67.9697264 C120.382391,67.833346 120.251001,67.7295055 120.100145,67.6596405 C119.948317,67.5883399 119.788702,67.5529288 119.620327,67.5529288 C119.432001,67.5529288 119.257301,67.6026957 119.096226,67.6998368 C118.935151,67.7969779 118.795001,67.9233092 118.676263,68.0802663 C118.557525,68.2353092 118.464092,68.4094933 118.397424,68.6018613 C118.330755,68.7951865 118.297178,68.9832479 118.297178,69.168438 C118.297178,69.4761313 118.354113,69.8149288 118.467985,70.1848307 C118.581857,70.5547325 118.738065,70.9208061 118.936611,71.2811374 L118.936611,71.2811374 Z M117.806653,72.4075914 C117.543873,72.5583276 117.301044,72.7234196 117.078167,72.9004748 C116.854803,73.0784871 116.662584,73.2694196 116.501509,73.4742294 C116.340434,73.6795178 116.21391,73.8948552 116.12291,74.1221558 C116.030937,74.3475423 115.985194,74.5810638 115.985194,74.8198491 C115.985194,75.0978736 116.029477,75.3572356 116.119017,75.597935 C116.208557,75.8391129 116.338001,76.048708 116.509295,76.2267202 C116.680103,76.4047325 116.885461,76.5435055 117.125857,76.6430393 C117.365766,76.7430515 117.640226,76.7937755 117.947776,76.7937755 C118.35898,76.7937755 118.750231,76.7042908 119.122504,76.5262785 C119.49429,76.3487448 119.848071,76.1281436 120.185306,75.8644748 C119.947343,75.6170761 119.720573,75.3519718 119.504996,75.0715546 C119.289905,74.791616 119.08406,74.5025853 118.887948,74.2049411 C118.692322,73.9077755 118.503996,73.6082172 118.322969,73.3057877 C118.141942,73.0047939 117.970161,72.7047571 117.806653,72.4075914 L117.806653,72.4075914 Z M123.471039,71.975481 C123.406803,72.3362908 123.328456,72.6607325 123.236969,72.9478491 C123.144509,73.2354442 123.035017,73.5072479 122.90606,73.7632601 C122.777589,74.0197509 122.62868,74.2661926 122.459819,74.5049779 C122.291932,74.7437632 122.100686,74.9978613 121.887055,75.2653583 C122.289498,75.659665 122.668097,75.9740577 123.024798,76.204708 C123.381985,76.4358368 123.709001,76.5525975 124.006333,76.5525975 C124.393204,76.5525975 124.725573,76.4774687 125.006359,76.3291252 C125.286172,76.1803031 125.510509,75.9166344 125.678397,75.5362049 L125.968916,75.6376528 C125.899814,75.9697509 125.787889,76.2645239 125.6346,76.5224503 C125.480825,76.7808552 125.292498,76.9976282 125.069621,77.1732479 C124.846744,77.349346 124.592236,77.4814196 124.307557,77.5718613 C124.022391,77.6618245 123.713867,77.7072847 123.381985,77.7072847 C122.95083,77.7072847 122.510916,77.5862172 122.062242,77.3450393 C121.613568,77.1038613 121.171707,76.7856405 120.735199,76.3918123 C120.482637,76.5860945 120.217424,76.7641067 119.940044,76.924892 C119.662178,77.0856773 119.372632,77.2244503 119.069948,77.341211 C118.76775,77.4584503 118.454359,77.548892 118.129776,77.6115791 C117.805194,77.6752233 117.468932,77.7072847 117.121964,77.7072847 C116.635819,77.7072847 116.221696,77.6517755 115.877161,77.5426712 C115.532627,77.4326098 115.251841,77.280438 115.033343,77.0856773 C114.815333,76.8913951 114.655718,76.6578736 114.554012,76.3875055 C114.452306,76.1166589 114.401696,75.8180577 114.401696,75.4921804 C114.401696,75.0237018 114.49075,74.6097755 114.66837,74.2489656 C114.847937,73.8886344 115.08298,73.5656282 115.375445,73.2813828 C115.66791,72.9952233 116.002712,72.7411252 116.378878,72.5166957 C116.756017,72.2922663 117.141916,72.0860209 117.539006,71.8950883 C117.320996,71.4419227 117.148242,71.0265607 117.021718,70.649481 C116.89568,70.2719227 116.832905,69.9541804 116.832905,69.6957755 C116.832905,69.3584135 116.888381,69.0325362 116.999819,68.7157509 C117.111258,68.3994442 117.280119,68.1166344 117.505429,67.8673215 C117.730252,67.6194442 118.012012,67.4208552 118.349247,67.2715546 C118.685996,67.1236896 119.080167,67.0485607 119.531274,67.0485607 C119.863156,67.0485607 120.176547,67.0964135 120.471445,67.191162 C120.766343,67.2859104 121.022798,67.4246834 121.240809,67.6079595 C121.459306,67.7907571 121.631087,68.0137509 121.757611,68.2774196 C121.884135,68.5396528 121.947397,68.8377755 121.947397,69.168438 C121.947397,69.5048429 121.866616,69.7981804 121.705541,70.0494074 C121.544466,70.3006344 121.333755,70.5260209 121.073894,70.7255669 C120.81306,70.9255914 120.517188,71.1074319 120.185306,71.2710883 C119.853424,71.4333092 119.518621,71.5931374 119.181873,71.749616 C119.453413,72.2511129 119.780916,72.7540454 120.163407,73.258892 C120.544926,73.7632601 120.958076,74.2518368 121.404317,74.7241436 C121.662231,74.4413337 121.886568,74.167616 122.077327,73.9025117 C122.268087,73.6364503 122.430621,73.3837877 122.563958,73.1421313 C122.697782,72.9004748 122.805814,72.6726957 122.887568,72.4583153 C122.969322,72.2444135 123.029664,72.0472601 123.069568,71.8668552 L123.471039,71.975481 Z" id="Fill-26" fill="#FEFEFE" mask="url(#mask-4)"></path>
                    <polygon id="Fill-27" fill="#FEFEFE" mask="url(#mask-4)" points="131.797149 67.2823215 132.770898 67.2823215 139.557941 74.7248613 139.625096 74.7248613 139.625096 67.2823215 140.390566 67.2823215 140.390566 77.7065669 139.989096 77.7065669 132.637074 69.4251681 132.577705 69.4251681 132.577705 77.465389 131.797149 77.465389"></polygon>
                    <path d="M144.538901,73.4083362 L148.352628,73.4083362 L146.472286,69.3805693 L144.538901,73.4083362 Z M147.148217,67.0487043 L152.025233,77.4657718 L150.255842,77.4657718 L148.672345,74.0663117 L144.23427,74.0663117 L142.598703,77.4657718 L141.729094,77.4657718 L146.717548,67.0487043 L147.148217,67.0487043 Z" id="Fill-28" fill="#FEFEFE" mask="url(#mask-4)"></path>
                    <path d="M158.961039,67.7795595 C158.336204,67.7795595 157.761493,67.8891423 157.235932,68.108308 C156.710857,68.3279521 156.255857,68.6399521 155.871905,69.0447865 C155.487466,69.4486638 155.189161,69.9391546 154.976504,70.5138663 C154.762873,71.0885779 154.656301,71.7350687 154.656301,72.4514245 C154.656301,73.1677804 154.773092,73.8128356 155.005702,74.3889828 C155.238798,74.9636945 155.556081,75.4527497 155.957552,75.857584 C156.358536,76.2628969 156.832028,76.5739399 157.377541,76.7931055 C157.922568,77.0122712 158.507012,77.121854 159.131846,77.121854 C159.587819,77.121854 159.999022,77.061081 160.365942,76.9400135 C160.732862,76.817989 161.059391,76.6442834 161.34699,76.420811 L161.34699,72.8457313 L159.392194,72.8457313 L159.392194,72.2384798 L163.086696,72.2384798 L163.086696,76.7208479 C162.784012,76.8816331 162.478894,77.0218417 162.172317,77.1438663 C161.865252,77.2658908 161.533857,77.3692528 161.180076,77.4553877 C160.825322,77.5396086 160.433584,77.6032528 160.005349,77.6448847 C159.576627,77.686038 159.092429,77.7066147 158.551782,77.7066147 C157.981937,77.7066147 157.437883,77.6434491 156.920108,77.5175963 C156.402333,77.390308 155.923974,77.2122957 155.485033,76.983081 C155.046579,76.7543448 154.650461,76.4791914 154.295707,76.1571423 C153.941926,75.8355718 153.640215,75.4805043 153.393006,75.0895472 C153.144825,74.7000258 152.954065,74.2822712 152.820242,73.8358049 C152.686418,73.3907742 152.61975,72.9289951 152.61975,72.4514245 C152.61975,71.973854 152.683985,71.5077681 152.812942,71.055081 C152.941899,70.6009583 153.125359,70.1750687 153.362835,69.7754982 C153.600798,69.3759276 153.891803,69.0088969 154.236338,68.6748847 C154.580873,68.3418294 154.968718,68.0537558 155.399873,67.8125779 C155.831028,67.5709215 156.300627,67.3838172 156.80867,67.250308 C157.316712,67.1153632 157.857846,67.0493264 158.433044,67.0493264 C158.982937,67.0493264 159.490006,67.121584 159.953279,67.268492 C160.416552,67.4139644 160.840407,67.6087252 161.224359,67.8494245 C161.608311,68.0901239 161.94944,68.3691055 162.246771,68.6868479 C162.543616,69.0036331 162.799097,69.3319031 163.012242,69.6730933 L162.26137,70.1698049 C161.825349,69.3462589 161.339691,68.7428356 160.804397,68.3571423 C160.269103,67.9719276 159.654488,67.7795595 158.961039,67.7795595" id="Fill-29" fill="#FEFEFE" mask="url(#mask-4)"></path>
                    <polygon id="Fill-30" fill="#FEFEFE" mask="url(#mask-4)" points="172.698875 67.2823215 172.698875 67.9402969 167.242282 67.9402969 167.242282 71.580935 170.892501 71.580935 170.892501 72.2384319 167.242282 72.2384319 167.242282 76.8074135 172.698875 76.8074135 172.698875 77.465389 165.503063 77.465389 165.503063 67.2823215"></polygon>
                    <polygon id="Fill-31" fill="#FEFEFE" mask="url(#mask-4)" points="174.632114 67.2823215 176.371334 67.2823215 176.371334 76.8074135 181.582665 76.8074135 181.582665 77.465389 174.632114 77.465389"></polygon>
                </g>
            </g>
        </g>
    </g>
</svg>