<svg width="170" height="73" viewBox="0 0 170 73" fill="none" xmlns="http://www.w3.org/2000/svg">
<mask id="mask0" mask-type="alpha" maskUnits="userSpaceOnUse" x="69" y="0" width="32" height="53">
<path d="M69.5479 0H100.292V52.1681H69.5479V0Z" fill="white"/>
</mask>
<g mask="url(#mask0)">
<path fill-rule="evenodd" clip-rule="evenodd" d="M98.1978 42.3203C98.1923 39.7139 97.2962 37.6965 95.3436 36.0824C92.5363 33.7618 89.7554 31.4098 86.9463 29.0896C83.3577 26.1261 79.7563 23.1761 76.1517 20.2305C75.2902 19.5258 74.3827 18.8753 73.5166 18.1756C68.9622 14.4989 68.5084 8.27664 71.2328 4.34324C74.1135 0.184494 79.9677 -1.15546 84 1.0554C87.1622 2.78869 89.8479 5.36512 92.7317 7.58315C92.9618 7.76011 93.1901 8.04413 93.2438 8.31204C93.3149 8.66774 93.3491 9.17443 93.1486 9.39887C92.9504 9.61929 92.3067 9.75548 92.0875 9.6045C90.7522 8.69238 89.4447 7.73278 88.2005 6.70463C85.9326 4.832 83.7631 2.75778 80.6734 2.33622C75.6939 1.65571 71.8542 5.73606 71.9503 9.1471C72.0406 12.3655 72.8902 14.8317 75.6278 16.9292C80.4479 20.6221 84.9545 24.7087 89.6087 28.6112C92.0898 30.6912 94.5737 32.7699 97.1126 34.7792C101.184 37.9994 101.131 45.1257 98.1718 48.4579C94.3422 52.7694 88.2474 53.4203 83.6187 49.8991C81.6839 48.4274 79.7823 46.9141 77.8934 45.3859C77.4283 45.0092 76.9977 44.5433 76.6961 44.0357C76.5258 43.749 76.5007 43.1881 76.6811 42.9448C76.8602 42.7038 77.4688 42.5188 77.7321 42.6397C78.5526 43.016 79.3618 43.4725 80.0624 44.0348C81.7208 45.3644 83.2971 46.7927 84.9372 48.1456C88.3395 50.9527 94.4944 50.1925 96.8456 46.5203C97.616 45.3178 97.765 43.731 98.1978 42.3203Z" fill="black"/>
</g>
<path fill-rule="evenodd" clip-rule="evenodd" d="M108.878 23.381C108.878 26.5949 108.901 29.8088 108.849 33.0223C108.843 33.4349 108.453 33.8417 108.241 34.2511C107.87 33.8641 107.29 33.529 107.174 33.0783C106.977 32.3185 107.053 31.4857 107.05 30.6838C107.04 26.1639 107.061 21.6441 107.024 17.1247C107.012 15.5957 106.719 15.4174 105.544 16.3026C103.525 17.8231 101.594 19.4574 99.6426 21.063C99.0171 21.5778 98.5014 22.2359 97.8349 22.6848C95.1592 24.4875 95.4239 24.5525 93.2517 22.6584C88.8353 18.8074 84.2148 15.1826 79.7232 11.4128C79.3756 11.1211 79.382 10.4209 79.2239 9.91063C79.7738 9.83492 80.5205 9.49534 80.8416 9.7265C82.8079 11.1449 84.6936 12.6739 86.5756 14.202C89.1665 16.3058 91.7606 18.4082 94.2927 20.5788C95.4832 21.5984 96.3916 20.9488 97.2645 20.2562C98.9283 18.9355 100.525 17.5328 102.15 16.1664C103.622 14.9304 105.068 13.6635 106.585 12.4853C107.014 12.1524 107.766 11.8137 108.166 11.9728C108.544 12.1228 108.844 12.9203 108.854 13.4382C108.914 16.7515 108.885 20.0667 108.885 23.381H108.878Z" fill="black"/>
<path fill-rule="evenodd" clip-rule="evenodd" d="M60.9956 28.9577C60.9956 25.8464 60.9523 22.7342 61.012 19.6237C61.0475 17.7914 61.7177 17.4805 63.242 18.5571C64.4808 19.432 65.6594 20.3938 66.822 21.366C71.2398 25.062 75.6152 28.8063 80.0562 32.475C82.782 34.7266 85.6166 36.8505 88.3628 39.0793C89.2189 39.7742 89.9856 40.5904 90.6972 41.4299C90.8526 41.6136 90.7159 42.2484 90.4977 42.4666C90.279 42.6866 89.6818 42.8277 89.4407 42.6875C88.5688 42.1812 87.741 41.5841 86.9615 40.9452C82.8175 37.549 78.694 34.129 74.5628 30.7175C71.2129 27.9515 67.8703 25.1767 64.4994 22.4354C64.1373 22.141 63.6079 22.0461 63.1559 21.8583C63.0507 22.335 62.8562 22.8117 62.8539 23.2888C62.8302 28.1065 62.8644 32.9243 62.8152 37.7416C62.806 38.6586 63.2903 40.2544 62.0338 40.2876C60.4293 40.3297 61.0489 38.6407 61.0192 37.6887C60.9281 34.7808 60.986 31.8684 60.986 28.9577H60.9956Z" fill="black"/>
<path fill-rule="evenodd" clip-rule="evenodd" d="M3.54944 71.6914C3.79045 71.6914 4.02826 71.66 4.26243 71.5955C4.4966 71.5324 4.70571 71.4365 4.88885 71.3088C5.07245 71.1802 5.21961 71.0248 5.33077 70.8402C5.44193 70.6552 5.49797 70.4415 5.49797 70.1996C5.49797 69.9084 5.42143 69.6485 5.2679 69.4236C5.11528 69.1974 4.91437 68.9882 4.66607 68.7964C4.41778 68.6047 4.13395 68.4259 3.81368 68.2593C3.49341 68.0935 3.16766 67.9255 2.836 67.7562C2.50388 67.5877 2.17814 67.4103 1.85786 67.2258C1.53805 67.0412 1.25376 66.8356 1.00547 66.6098C0.757178 66.384 0.556722 66.1309 0.403646 65.8504C0.25057 65.5695 0.174032 65.247 0.174032 64.8818C0.174032 64.5167 0.243281 64.178 0.382689 63.8653C0.521642 63.5531 0.726198 63.2825 0.995447 63.0554C1.26379 62.8264 1.59454 62.6477 1.98679 62.5173C2.37905 62.387 2.83008 62.3224 3.34033 62.3224C4.25924 62.3224 4.98362 62.5124 5.51528 62.8901C6.04649 63.2691 6.43054 63.8165 6.66745 64.5329L5.83191 64.9092C5.73441 64.6175 5.61004 64.3505 5.4597 64.1086C5.3089 63.8667 5.12803 63.6593 4.91664 63.4863C4.70571 63.3125 4.46334 63.179 4.18954 63.0854C3.91573 62.9918 3.6073 62.9456 3.26379 62.9456C2.95764 62.9456 2.68976 62.9873 2.45969 63.0724C2.23008 63.1562 2.0401 63.2655 1.8893 63.4003C1.7385 63.5347 1.62461 63.6884 1.54807 63.8595C1.47153 64.0298 1.43326 64.2045 1.43326 64.3828C1.43326 64.6332 1.51208 64.8626 1.67016 65.0709C1.8278 65.2783 2.03418 65.475 2.2893 65.6623C2.54488 65.8491 2.83737 66.0283 3.1663 66.1994C3.49614 66.3705 3.83099 66.5457 4.17222 66.7227C4.513 66.9014 4.84831 67.086 5.17769 67.2768C5.50708 67.4686 5.79911 67.6787 6.05469 67.9076C6.30982 68.1356 6.51665 68.3847 6.67383 68.6571C6.83191 68.9277 6.91073 69.2301 6.91073 69.563C6.91073 69.9424 6.83784 70.2972 6.69114 70.6274C6.54535 70.958 6.32622 71.2483 6.03373 71.4961C5.7417 71.7451 5.37861 71.9418 4.94489 72.0852C4.51072 72.2285 4.00639 72.3002 3.43099 72.3002C2.96721 72.3002 2.55172 72.2505 2.18543 72.1497C1.81868 72.0498 1.49477 71.9042 1.21413 71.712C0.933488 71.5203 0.693396 71.286 0.493851 71.0077C0.294306 70.7295 0.129385 70.4137 0 70.0625L0.876996 69.7068C0.978591 70.0177 1.11572 70.2959 1.28748 70.5423C1.45877 70.7878 1.65969 70.9965 1.8893 71.1681C2.11891 71.3393 2.37404 71.4692 2.65468 71.5579C2.93532 71.647 3.23372 71.6914 3.54944 71.6914Z" fill="black"/>
<path fill-rule="evenodd" clip-rule="evenodd" d="M13.6769 71.8213C14.2291 71.8213 14.7184 71.7075 15.1457 71.479C15.5721 71.2519 15.9307 70.9347 16.2204 70.5279C16.5106 70.1221 16.7307 69.6396 16.8815 69.0805C17.0323 68.5218 17.1079 67.9112 17.1079 67.25C17.1079 66.5977 17.0323 65.9987 16.8815 65.4535C16.7307 64.9078 16.5106 64.4388 16.2204 64.0441C15.9307 63.649 15.5721 63.3421 15.1457 63.123C14.7184 62.9048 14.2291 62.7951 13.6769 62.7951C13.1106 62.7951 12.6131 62.9048 12.184 63.123C11.7548 63.3421 11.3963 63.649 11.1088 64.0441C10.8209 64.4388 10.604 64.9078 10.4582 65.4535C10.3115 65.9987 10.2386 66.5977 10.2386 67.25C10.2386 67.9112 10.3115 68.5218 10.4582 69.0805C10.604 69.6396 10.8209 70.1221 11.1088 70.5279C11.3963 70.9347 11.7548 71.2519 12.184 71.479C12.6131 71.7075 13.1106 71.8213 13.6769 71.8213ZM13.6769 72.3002C13.1758 72.3002 12.6956 72.2406 12.2364 72.1192C11.7767 71.9987 11.3503 71.8289 10.9553 71.6094C10.5612 71.3903 10.2017 71.1269 9.87691 70.8196C9.55208 70.5109 9.276 70.1695 9.04866 69.7959C8.82133 69.4223 8.64502 69.02 8.51973 68.5913C8.39445 68.1625 8.33203 67.7154 8.33203 67.25C8.33203 66.7935 8.39445 66.3558 8.51973 65.9355C8.64502 65.5162 8.82133 65.1238 9.04866 64.7587C9.276 64.394 9.55208 64.0625 9.87691 63.7636C10.2017 63.4648 10.5612 63.2072 10.9553 62.9931C11.3503 62.7785 11.7767 62.6132 12.2364 62.4976C12.6956 62.3807 13.1758 62.3224 13.6769 62.3224C14.1781 62.3224 14.6582 62.3807 15.1175 62.4976C15.5767 62.6132 16.0036 62.7785 16.3981 62.9931C16.7927 63.2072 17.1521 63.4648 17.4769 63.7636C17.8018 64.0625 18.0774 64.394 18.3052 64.7587C18.5321 65.1238 18.7088 65.5162 18.8337 65.9355C18.9594 66.3558 19.0218 66.7935 19.0218 67.25C19.0218 67.7105 18.9594 68.1567 18.8337 68.5877C18.7088 69.0191 18.5321 69.4223 18.3052 69.7959C18.0774 70.1695 17.8018 70.5109 17.4769 70.8196C17.1521 71.1269 16.7927 71.3903 16.3981 71.6094C16.0036 71.8289 15.5767 71.9987 15.1175 72.1192C14.6582 72.2406 14.1781 72.3002 13.6769 72.3002Z" fill="black"/>
<path fill-rule="evenodd" clip-rule="evenodd" d="M28.3056 62.5416V63.1576H24.7981V72.075H23.1694V63.1576H19.655V62.5416H28.3056Z" fill="black"/>
<path fill-rule="evenodd" clip-rule="evenodd" d="M37.5151 62.5416V63.1576H34.0076V72.075H32.3789V63.1576H28.8645V62.5416H37.5151Z" fill="black"/>
<path fill-rule="evenodd" clip-rule="evenodd" d="M43.4906 71.8213C44.0428 71.8213 44.5321 71.7075 44.9594 71.479C45.3859 71.2519 45.7444 70.9347 46.0342 70.5279C46.3244 70.1221 46.5444 69.6396 46.6952 69.0805C46.846 68.5218 46.9216 67.9112 46.9216 67.25C46.9216 66.5977 46.846 65.9987 46.6952 65.4535C46.5444 64.9078 46.3244 64.4388 46.0342 64.0441C45.7444 63.649 45.3859 63.3421 44.9594 63.123C44.5321 62.9048 44.0428 62.7951 43.4906 62.7951C42.9244 62.7951 42.4269 62.9048 41.9977 63.123C41.5685 63.3421 41.21 63.649 40.9225 64.0441C40.6346 64.4388 40.4177 64.9078 40.272 65.4535C40.1253 65.9987 40.0524 66.5977 40.0524 67.25C40.0524 67.9112 40.1253 68.5218 40.272 69.0805C40.4177 69.6396 40.6346 70.1221 40.9225 70.5279C41.21 70.9347 41.5685 71.2519 41.9977 71.479C42.4269 71.7075 42.9244 71.8213 43.4906 71.8213ZM43.4906 72.3002C42.9895 72.3002 42.5093 72.2406 42.0501 72.1192C41.5904 71.9987 41.164 71.8289 40.769 71.6094C40.3749 71.3903 40.0155 71.1269 39.6906 70.8196C39.3658 70.5109 39.0897 70.1695 38.8624 69.7959C38.635 69.4223 38.4587 69.02 38.3335 68.5913C38.2082 68.1625 38.1458 67.7154 38.1458 67.25C38.1458 66.7935 38.2082 66.3558 38.3335 65.9355C38.4587 65.5162 38.635 65.1238 38.8624 64.7587C39.0897 64.394 39.3658 64.0625 39.6906 63.7636C40.0155 63.4648 40.3749 63.2072 40.769 62.9931C41.164 62.7785 41.5904 62.6132 42.0501 62.4976C42.5093 62.3807 42.9895 62.3224 43.4906 62.3224C43.9918 62.3224 44.472 62.3807 44.9312 62.4976C45.3904 62.6132 45.8173 62.7785 46.2118 62.9931C46.6064 63.2072 46.9658 63.4648 47.2907 63.7636C47.6155 64.0625 47.8911 64.394 48.1189 64.7587C48.3458 65.1238 48.5225 65.5162 48.6474 65.9355C48.7731 66.3558 48.8355 66.7935 48.8355 67.25C48.8355 67.7105 48.7731 68.1567 48.6474 68.5877C48.5225 69.0191 48.3458 69.4223 48.1189 69.7959C47.8911 70.1695 47.6155 70.5109 47.2907 70.8196C46.9658 71.1269 46.6064 71.3903 46.2118 71.6094C45.8173 71.8289 45.3904 71.9987 44.9312 72.1192C44.472 72.2406 43.9918 72.3002 43.4906 72.3002Z" fill="black"/>
<path fill-rule="evenodd" clip-rule="evenodd" d="M55.0315 62.5416H56.6944L60.467 69.8578H60.5436L64.2461 62.5416H65.8812V72.075H64.2461V64.2669H64.1905L60.2165 72.075H59.8821L55.8593 64.322H55.7481V72.075H55.0315V62.5416Z" fill="black"/>
<path fill-rule="evenodd" clip-rule="evenodd" d="M69.7646 68.2763H73.335L71.5746 64.5055L69.7646 68.2763ZM72.2074 62.3224L76.7732 72.0749H75.1167L73.6343 68.8923H69.4794L67.9482 72.0749H67.134L71.8042 62.3224H72.2074Z" fill="black"/>
<path fill-rule="evenodd" clip-rule="evenodd" d="M78.0273 72.075H79.6556V62.5416H78.0273V72.075Z" fill="black"/>
<path fill-rule="evenodd" clip-rule="evenodd" d="M87.0175 71.8213C87.5697 71.8213 88.059 71.7075 88.4863 71.479C88.9127 71.2519 89.2713 70.9347 89.561 70.5279C89.8512 70.1221 90.0713 69.6396 90.2221 69.0805C90.3729 68.5218 90.4485 67.9112 90.4485 67.25C90.4485 66.5977 90.3729 65.9987 90.2221 65.4535C90.0713 64.9078 89.8512 64.4388 89.561 64.0441C89.2713 63.649 88.9127 63.3421 88.4863 63.123C88.059 62.9048 87.5697 62.7951 87.0175 62.7951C86.4512 62.7951 85.9537 62.9048 85.5246 63.123C85.0954 63.3421 84.7369 63.649 84.4494 64.0441C84.1615 64.4388 83.9446 64.9078 83.7988 65.4535C83.6521 65.9987 83.5792 66.5977 83.5792 67.25C83.5792 67.9112 83.6521 68.5218 83.7988 69.0805C83.9446 69.6396 84.1615 70.1221 84.4494 70.5279C84.7369 70.9347 85.0954 71.2519 85.5246 71.479C85.9537 71.7075 86.4512 71.8213 87.0175 71.8213ZM87.0175 72.3002C86.5164 72.3002 86.0362 72.2406 85.577 72.1192C85.1173 71.9987 84.6908 71.8289 84.2959 71.6094C83.9018 71.3903 83.5423 71.1269 83.2175 70.8196C82.8927 70.5109 82.6166 70.1695 82.3892 69.7959C82.1619 69.4223 81.9856 69.02 81.8603 68.5913C81.735 68.1625 81.6726 67.7154 81.6726 67.25C81.6726 66.7935 81.735 66.3558 81.8603 65.9355C81.9856 65.5162 82.1619 65.1238 82.3892 64.7587C82.6166 64.394 82.8927 64.0625 83.2175 63.7636C83.5423 63.4648 83.9018 63.2072 84.2959 62.9931C84.6908 62.7785 85.1173 62.6132 85.577 62.4976C86.0362 62.3807 86.5164 62.3224 87.0175 62.3224C87.5186 62.3224 87.9988 62.3807 88.4581 62.4976C88.9173 62.6132 89.3442 62.7785 89.7387 62.9931C90.1332 63.2072 90.4927 63.4648 90.8175 63.7636C91.1423 64.0625 91.418 64.394 91.6458 64.7587C91.8726 65.1238 92.0494 65.5162 92.1742 65.9355C92.3 66.3558 92.3624 66.7935 92.3624 67.25C92.3624 67.7105 92.3 68.1567 92.1742 68.5877C92.0494 69.0191 91.8726 69.4223 91.6458 69.7959C91.418 70.1695 91.1423 70.5109 90.8175 70.8196C90.4927 71.1269 90.1332 71.3903 89.7387 71.6094C89.3442 71.8289 88.9173 71.9987 88.4581 72.1192C87.9988 72.2406 87.5186 72.3002 87.0175 72.3002Z" fill="black"/>
<path fill-rule="evenodd" clip-rule="evenodd" d="M96.0096 67.1134H96.9495C97.3157 67.1134 97.6529 67.0664 97.9618 66.9705C98.2702 66.8742 98.5385 66.738 98.7659 66.5628C98.9932 66.3868 99.17 66.1735 99.298 65.9231C99.4255 65.6718 99.4898 65.3909 99.4898 65.0809C99.4898 64.7982 99.4383 64.5366 99.3363 64.2973C99.2342 64.0581 99.093 63.8529 98.9117 63.6813C98.7308 63.5102 98.5153 63.3767 98.2643 63.2808C98.0137 63.1849 97.7404 63.137 97.4429 63.137H96.0096V67.1134ZM94.3813 62.5416H97.7358C98.3203 62.5416 98.8315 62.6039 99.2702 62.7266C99.7085 62.8494 100.074 63.0219 100.366 63.2432C100.659 63.4645 100.879 63.7266 101.028 64.0303C101.176 64.3336 101.25 64.6656 101.25 65.0262C101.25 65.3228 101.193 65.5996 101.08 65.8577C100.966 66.1153 100.805 66.3482 100.596 66.5557C100.387 66.764 100.137 66.9436 99.8442 67.0964C99.5517 67.2496 99.2292 67.3665 98.877 67.449L102.406 72.075H100.519L97.1508 67.5923H96.0096V72.075H94.3813V62.5416Z" fill="black"/>
<path fill-rule="evenodd" clip-rule="evenodd" d="M111.35 66.285C111.601 66.1573 111.836 66.0251 112.056 65.888C112.276 65.7519 112.467 65.6027 112.627 65.4396C112.787 65.2779 112.914 65.0996 113.007 64.906C113.099 64.7121 113.145 64.4993 113.145 64.2659C113.145 64.0342 113.115 63.8277 113.055 63.6467C112.994 63.4666 112.912 63.3125 112.808 63.1848C112.704 63.0572 112.581 62.9599 112.439 62.8945C112.297 62.8278 112.148 62.7946 111.99 62.7946C111.814 62.7946 111.65 62.8412 111.499 62.9322C111.349 63.0231 111.217 63.1414 111.106 63.2883C110.995 63.4335 110.908 63.5965 110.845 63.7766C110.783 63.9576 110.751 64.1337 110.751 64.3071C110.751 64.5951 110.805 64.9123 110.911 65.2586C111.018 65.6049 111.164 65.9476 111.35 66.285ZM110.292 67.3396C110.046 67.4807 109.819 67.6352 109.61 67.801C109.401 67.9676 109.221 68.1464 109.07 68.3381C108.92 68.5303 108.801 68.7319 108.716 68.9447C108.63 69.1557 108.587 69.3744 108.587 69.5979C108.587 69.8582 108.628 70.101 108.712 70.3263C108.796 70.5521 108.917 70.7484 109.078 70.915C109.238 71.0817 109.43 71.2116 109.655 71.3048C109.879 71.3984 110.136 71.4459 110.424 71.4459C110.809 71.4459 111.176 71.3621 111.524 71.1955C111.872 71.0292 112.203 70.8227 112.519 70.5759C112.296 70.3443 112.084 70.0961 111.882 69.8335C111.681 69.5715 111.488 69.3009 111.305 69.0222C111.121 68.744 110.945 68.4636 110.776 68.1804C110.606 67.8987 110.445 67.6178 110.292 67.3396ZM115.595 66.935C115.535 67.2728 115.462 67.5765 115.376 67.8453C115.289 68.1146 115.187 68.369 115.066 68.6087C114.946 68.8489 114.807 69.0796 114.648 69.3031C114.491 69.5267 114.312 69.7646 114.112 70.015C114.489 70.3841 114.843 70.6785 115.177 70.8944C115.512 71.1108 115.818 71.2201 116.096 71.2201C116.459 71.2201 116.77 71.1498 117.033 71.0109C117.294 70.8716 117.505 70.6247 117.662 70.2685L117.934 70.3635C117.869 70.6744 117.764 70.9504 117.621 71.1919C117.477 71.4338 117.3 71.6367 117.092 71.8011C116.883 71.966 116.645 72.0897 116.378 72.1743C116.111 72.2585 115.823 72.3011 115.512 72.3011C115.108 72.3011 114.696 72.1878 114.276 71.962C113.856 71.7362 113.443 71.4383 113.034 71.0696C112.797 71.2515 112.549 71.4181 112.289 71.5686C112.029 71.7192 111.758 71.8491 111.475 71.9584C111.192 72.0682 110.899 72.1528 110.595 72.2115C110.291 72.2711 109.976 72.3011 109.651 72.3011C109.196 72.3011 108.808 72.2491 108.486 72.147C108.163 72.044 107.9 71.9015 107.696 71.7192C107.492 71.5373 107.342 71.3187 107.247 71.0655C107.152 70.812 107.104 70.5324 107.104 70.2273C107.104 69.7887 107.188 69.4012 107.354 69.0634C107.522 68.7261 107.742 68.4237 108.016 68.1576C108.29 67.8897 108.603 67.6518 108.956 67.4417C109.309 67.2316 109.67 67.0385 110.042 66.8598C109.838 66.4355 109.676 66.0466 109.557 65.6936C109.439 65.3402 109.381 65.0427 109.381 64.8008C109.381 64.4849 109.433 64.1798 109.537 63.8833C109.641 63.5871 109.799 63.3224 110.01 63.089C110.221 62.8569 110.484 62.671 110.8 62.5312C111.115 62.3928 111.484 62.3224 111.907 62.3224C112.217 62.3224 112.511 62.3672 112.787 62.456C113.063 62.5447 113.303 62.6746 113.507 62.8462C113.712 63.0173 113.873 63.2261 113.991 63.4729C114.11 63.7184 114.169 63.9975 114.169 64.3071C114.169 64.622 114.093 64.8966 113.942 65.1318C113.792 65.367 113.594 65.578 113.351 65.7649C113.107 65.9521 112.83 66.1223 112.519 66.2756C112.208 66.4274 111.895 66.5771 111.58 66.7236C111.834 67.1931 112.14 67.6639 112.499 68.1365C112.856 68.6087 113.243 69.0661 113.66 69.5083C113.902 69.2435 114.112 68.9873 114.29 68.7391C114.469 68.49 114.621 68.2535 114.746 68.0272C114.871 67.801 114.972 67.5877 115.049 67.387C115.125 67.1868 115.182 67.0022 115.219 66.8333L115.595 66.935Z" fill="black"/>
<path fill-rule="evenodd" clip-rule="evenodd" d="M123.387 62.5416H124.299L130.653 69.5093H130.716V62.5416H131.433V72.3008H131.057L124.174 64.5478H124.118V72.075H123.387V62.5416Z" fill="black"/>
<path fill-rule="evenodd" clip-rule="evenodd" d="M135.316 68.2763H138.886L137.126 64.5055L135.316 68.2763ZM137.759 62.3224L142.325 72.0749H140.668L139.186 68.8923H135.031L133.5 72.0749H132.686L137.356 62.3224H137.759Z" fill="black"/>
<path fill-rule="evenodd" clip-rule="evenodd" d="M148.817 63.0069C148.232 63.0069 147.694 63.1095 147.202 63.3147C146.711 63.5203 146.285 63.8124 145.925 64.1914C145.565 64.5695 145.286 65.0287 145.087 65.5667C144.887 66.1048 144.787 66.71 144.787 67.3807C144.787 68.0513 144.897 68.6552 145.114 69.1946C145.333 69.7327 145.63 70.1905 146.005 70.5695C146.381 70.949 146.824 71.2402 147.335 71.4453C147.845 71.6505 148.392 71.7531 148.977 71.7531C149.404 71.7531 149.789 71.6962 150.133 71.5829C150.476 71.4686 150.782 71.306 151.051 71.0968V67.7498H149.221V67.1813H152.68V71.3777C152.396 71.5282 152.111 71.6595 151.824 71.7737C151.536 71.888 151.226 71.9847 150.895 72.0654C150.563 72.1442 150.196 72.2038 149.795 72.2428C149.394 72.2813 148.94 72.3006 148.434 72.3006C147.901 72.3006 147.391 72.2414 146.907 72.1236C146.422 72.0044 145.974 71.8378 145.563 71.6232C145.153 71.409 144.782 71.1515 144.45 70.85C144.118 70.5489 143.836 70.2165 143.605 69.8505C143.372 69.4858 143.194 69.0947 143.068 68.6767C142.943 68.2601 142.881 67.8278 142.881 67.3807C142.881 66.9336 142.941 66.4972 143.061 66.0734C143.182 65.6483 143.354 65.2496 143.576 64.8755C143.799 64.5014 144.072 64.1578 144.394 63.8451C144.717 63.5333 145.08 63.2636 145.483 63.0378C145.887 62.8116 146.327 62.6364 146.802 62.5114C147.278 62.3851 147.785 62.3232 148.323 62.3232C148.838 62.3232 149.313 62.3909 149.746 62.5284C150.18 62.6646 150.577 62.847 150.936 63.0723C151.296 63.2976 151.615 63.5588 151.893 63.8563C152.171 64.1529 152.41 64.4602 152.61 64.7796L151.907 65.2446C151.499 64.4736 151.044 63.9087 150.543 63.5476C150.042 63.187 149.467 63.0069 148.817 63.0069Z" fill="black"/>
<path fill-rule="evenodd" clip-rule="evenodd" d="M161.685 62.5416V63.1576H156.576V66.566H159.994V67.1815H156.576V71.459H161.685V72.075H154.948V62.5416H161.685Z" fill="black"/>
<path fill-rule="evenodd" clip-rule="evenodd" d="M163.493 62.5416H165.121V71.459H170V72.075H163.493V62.5416Z" fill="black"/>
</svg>
